<svg width="40" height="40" viewBox="0 0 40 40" fill="none" xmlns="http://www.w3.org/2000/svg">
<rect x="4" y="4" width="32" height="32" rx="16" fill="#E9ECEF"/>
<path d="M10.1699 15.2966V24.7046C10.1699 25.3094 10.4867 25.8566 11.0147 26.1638L19.1651 30.8678C19.6835 31.1654 20.3267 31.1654 20.8451 30.8678L28.9955 26.1638C29.5139 25.8662 29.8403 25.3094 29.8403 24.7046V15.2966C29.8403 14.6918 29.5235 14.1446 28.9955 13.8374L20.8451 9.13336C20.3267 8.83576 19.6835 8.83576 19.1651 9.13336L11.0147 13.8374C10.4963 14.135 10.1795 14.6918 10.1795 15.2966H10.1699Z" fill="#213147"/>
<path d="M21.776 21.8246L20.6144 25.0118C20.5856 25.0982 20.5856 25.1942 20.6144 25.2902L22.6112 30.7718L24.9248 29.4374L22.1504 21.8246C22.0832 21.6518 21.8432 21.6518 21.776 21.8246Z" fill="#12AAFF"/>
<path d="M24.1084 16.4672C24.0412 16.2944 23.8012 16.2944 23.734 16.4672L22.5724 19.6544C22.5436 19.7408 22.5436 19.8368 22.5724 19.9328L25.846 28.9088L28.1596 27.5744L24.1084 16.4768V16.4672Z" fill="#12AAFF"/>
<path d="M19.9991 9.488C20.0567 9.488 20.1143 9.5072 20.1623 9.536L28.9751 14.624C29.0807 14.6816 29.1383 14.7968 29.1383 14.912V25.088C29.1383 25.2032 29.0711 25.3184 28.9751 25.376L20.1623 30.464C20.1143 30.4928 20.0567 30.512 19.9991 30.512C19.9415 30.512 19.8839 30.4928 19.8359 30.464L11.0231 25.376C10.9175 25.3184 10.8599 25.2032 10.8599 25.088V14.9024C10.8599 14.7872 10.9271 14.672 11.0231 14.6144L19.8359 9.5264C19.8839 9.4976 19.9415 9.4784 19.9991 9.4784V9.488ZM19.9991 8C19.6823 8 19.3751 8.0768 19.0871 8.24L10.2743 13.328C9.7079 13.6544 9.3623 14.2496 9.3623 14.9024V25.0784C9.3623 25.7312 9.7079 26.3264 10.2743 26.6528L19.0871 31.7408C19.3655 31.904 19.6823 31.9808 19.9991 31.9808C20.3159 31.9808 20.6231 31.904 20.9111 31.7408L29.7239 26.6528C30.2903 26.3264 30.6359 25.7312 30.6359 25.0784V14.9024C30.6359 14.2496 30.2903 13.6544 29.7239 13.328L20.9015 8.24C20.6231 8.0768 20.3063 8 19.9895 8H19.9991Z" fill="#9DCCED"/>
<path d="M14.1631 28.9184L14.9791 26.6912L16.6111 28.0448L15.0847 29.4464L14.1631 28.9184Z" fill="#213147"/>
<path d="M19.2512 14.1815H17.0144C16.8512 14.1815 16.6976 14.2871 16.64 14.4407L11.8496 27.5735L14.1632 28.9079L19.4432 14.4407C19.4912 14.3063 19.3952 14.1719 19.2608 14.1719L19.2512 14.1815Z" fill="white"/>
<path d="M23.1682 14.1815H20.9314C20.7682 14.1815 20.6146 14.2871 20.557 14.4407L15.085 29.4359L17.3986 30.7703L23.3506 14.4407C23.3986 14.3063 23.3026 14.1719 23.1682 14.1719V14.1815Z" fill="white"/>
</svg>
