<svg width="40" height="40" viewBox="0 0 40 40" fill="none" xmlns="http://www.w3.org/2000/svg">
<g clip-path="url(#clip0_5573_176276)">
<path d="M20 36C28.8366 36 36 28.8366 36 20C36 11.1634 28.8366 4 20 4C11.1634 4 4 11.1634 4 20C4 28.8366 11.1634 36 20 36Z" fill="#E9ECEF"/>
<path fill-rule="evenodd" clip-rule="evenodd" d="M15.5186 26.7506H12.4906C11.8546 26.7506 11.5406 26.7506 11.3486 26.6276C11.2475 26.5616 11.1633 26.4727 11.1028 26.3682C11.0424 26.2636 11.0074 26.1462 11.0006 26.0256C10.9886 25.7996 11.1456 25.5226 11.4606 24.9706L18.9326 11.7776C19.2506 11.2176 19.4126 10.9376 19.6146 10.8336C19.7228 10.7787 19.8423 10.75 19.9636 10.75C20.0849 10.75 20.2045 10.7787 20.3126 10.8336C20.5156 10.9376 20.6766 11.2176 20.9946 11.7776L22.5306 14.4636L22.5386 14.4776C22.8816 15.0776 23.0556 15.3836 23.1316 15.7036C23.2166 16.0539 23.2166 16.4194 23.1316 16.7696C23.0556 17.0926 22.8826 17.3996 22.5346 18.0096L18.6086 24.9596L18.5986 24.9766C18.2526 25.5826 18.0786 25.8896 17.8346 26.1216C17.572 26.3731 17.2532 26.5582 16.9046 26.6616C16.5856 26.7506 16.2306 26.7506 15.5186 26.7506ZM23.1616 26.7506H27.4976C28.1376 26.7506 28.4596 26.7506 28.6516 26.6246C28.7536 26.5582 28.8383 26.4686 28.8988 26.3631C28.9593 26.2575 28.9939 26.1391 28.9996 26.0176C29.0106 25.7986 28.8576 25.5336 28.5566 25.0126L28.5246 24.9586L26.3526 21.2366L26.3276 21.1946C26.0226 20.6776 25.8676 20.4166 25.6706 20.3156C25.5634 20.2609 25.4446 20.2323 25.3241 20.2323C25.2037 20.2323 25.0849 20.2609 24.9776 20.3156C24.7776 20.4196 24.6176 20.6926 24.2996 21.2406L22.1346 24.9626L22.1276 24.9756C21.8106 25.5236 21.6516 25.7966 21.6636 26.0216C21.6703 26.1428 21.7052 26.2607 21.7657 26.366C21.8261 26.4712 21.9103 26.5608 22.0116 26.6276C22.1996 26.7506 22.5216 26.7506 23.1616 26.7506Z" fill="#E84142"/>
</g>
<defs>
<clipPath id="clip0_5573_176276">
<rect width="32" height="32" fill="white" transform="translate(4 4)"/>
</clipPath>
</defs>
</svg>
