<svg width="40" height="40" viewBox="0 0 40 40" fill="none" xmlns="http://www.w3.org/2000/svg">
<g clip-path="url(#clip0_1981_292114)">
<path d="M20 36C28.8366 36 36 28.8366 36 20C36 11.1634 28.8366 4 20 4C11.1634 4 4 11.1634 4 20C4 28.8366 11.1634 36 20 36Z" fill="#141517"/>
<path d="M20.9569 29.9878C19.1532 29.9878 17.5213 29.2516 16.3311 28.0736C15.1532 26.8957 14.417 25.2515 14.417 23.4478C14.417 22.049 14.8587 20.7607 15.6072 19.6932L16.0366 22.2576C15.9507 22.638 15.9017 23.0429 15.9017 23.4478C15.9017 24.8466 16.4661 26.1104 17.3863 27.0184C18.3066 27.9387 19.5704 28.5031 20.9569 28.5031C22.3557 28.5031 23.6195 27.9387 24.5275 27.0184C25.4478 26.0982 26.0122 24.8343 26.0122 23.4478C26.0122 22.049 25.4478 20.7852 24.5275 19.8772C23.6073 18.957 22.3434 18.3926 20.9569 18.3926C19.6195 18.3926 18.4048 18.9079 17.509 19.7545L17.2268 18.0858C18.2821 17.3496 19.5704 16.9202 20.9569 16.9202C22.7606 16.9202 24.3925 17.6564 25.5827 18.8343C26.7607 20.0122 27.4969 21.6564 27.4969 23.4601C27.4969 25.2638 26.7607 26.8957 25.5827 28.0859C24.4048 29.2638 22.7606 30 20.9569 30V29.9878Z" fill="#B7E401"/>
<path d="M18.9688 22.3927C19.45 22.3927 19.84 22.0027 19.84 21.5216C19.84 21.0404 19.45 20.6504 18.9688 20.6504C18.4877 20.6504 18.0977 21.0404 18.0977 21.5216C18.0977 22.0027 18.4877 22.3927 18.9688 22.3927Z" fill="#1CD7D2"/>
<path d="M21.2022 24.3322C21.6834 24.3322 22.0734 23.9422 22.0734 23.461C22.0734 22.9799 21.6834 22.5898 21.2022 22.5898C20.7211 22.5898 20.3311 22.9799 20.3311 23.461C20.3311 23.9422 20.7211 24.3322 21.2022 24.3322Z" fill="#1CD7D2"/>
<path d="M21.8038 21.3864C22.2849 21.3864 22.675 20.9964 22.675 20.5152C22.675 20.0341 22.2849 19.6441 21.8038 19.6441C21.3227 19.6441 20.9326 20.0341 20.9326 20.5152C20.9326 20.9964 21.3227 21.3864 21.8038 21.3864Z" fill="#1CD7D2"/>
<path d="M23.9141 23.3865C24.3953 23.3865 24.7853 22.9964 24.7853 22.5153C24.7853 22.0342 24.3953 21.6441 23.9141 21.6441C23.433 21.6441 23.043 22.0342 23.043 22.5153C23.043 22.9964 23.433 23.3865 23.9141 23.3865Z" fill="#1CD7D2"/>
<path d="M18.3927 25.2637C18.8738 25.2637 19.2638 24.8736 19.2638 24.3925C19.2638 23.9114 18.8738 23.5213 18.3927 23.5213C17.9115 23.5213 17.5215 23.9114 17.5215 24.3925C17.5215 24.8736 17.9115 25.2637 18.3927 25.2637Z" fill="#1CD7D2"/>
<path d="M23.3497 26.2326C23.8308 26.2326 24.2209 25.8425 24.2209 25.3614C24.2209 24.8803 23.8308 24.4902 23.3497 24.4902C22.8686 24.4902 22.4785 24.8803 22.4785 25.3614C22.4785 25.8425 22.8686 26.2326 23.3497 26.2326Z" fill="#1CD7D2"/>
<path d="M20.5763 27.3007C21.0574 27.3007 21.4474 26.9106 21.4474 26.4295C21.4474 25.9484 21.0574 25.5583 20.5763 25.5583C20.0951 25.5583 19.7051 25.9484 19.7051 26.4295C19.7051 26.9106 20.0951 27.3007 20.5763 27.3007Z" fill="#1CD7D2"/>
<path d="M17.5949 22.8711C17.7054 22.7239 17.7544 22.5398 17.7176 22.3435L15.3986 8.58878C15.3618 8.39246 15.2636 8.23295 15.1164 8.13479C14.9691 8.02436 14.7851 7.97527 14.5888 8.01209C14.3925 8.0489 14.2329 8.14706 14.1348 8.2943C14.0244 8.44154 13.9753 8.62559 14.0121 8.82191L16.3311 22.5766C16.3679 22.7729 16.4661 22.9325 16.6133 23.0306C16.7606 23.141 16.9446 23.1901 17.1409 23.1533C17.3373 23.1165 17.4968 23.0183 17.5949 22.8711Z" fill="#B7E401"/>
</g>
<defs>
<clipPath id="clip0_1981_292114">
<rect width="32" height="32" fill="white" transform="translate(4 4)"/>
</clipPath>
</defs>
</svg>
