<svg width="40" height="40" viewBox="0 0 40 40" fill="none" xmlns="http://www.w3.org/2000/svg">
<path d="M20 36C28.8366 36 36 28.8366 36 20C36 11.1634 28.8366 4 20 4C11.1634 4 4 11.1634 4 20C4 28.8366 11.1634 36 20 36Z" fill="#E9ECEF"/>
<path fill-rule="evenodd" clip-rule="evenodd" d="M31.0545 20.38C31.0522 20.4544 30.951 20.474 30.9217 20.4055C30.9092 20.3759 30.8963 20.3462 30.8833 20.3166C30.8594 20.2623 30.8661 20.1991 30.9017 20.1517C30.9091 20.1419 30.9241 20.1223 30.942 20.0989C30.9901 20.036 31.0595 20.0454 31.0595 20.1152C31.0595 20.2068 31.0574 20.2861 31.0545 20.38ZM30.5218 18.9252C30.4397 19.073 30.2294 19.0798 30.1383 18.9373C30.1242 18.9153 30.1099 18.8933 30.0956 18.8712C29.7673 18.3671 29.3894 17.8722 28.9675 17.3913C28.8639 17.2733 28.9486 17.088 29.1057 17.0879H29.1095C30.0956 17.0879 30.6125 17.3314 30.7703 17.6289C30.902 17.8776 30.8616 18.3127 30.5218 18.9252ZM30.3014 24.082C30.2485 24.2165 30.1931 24.3503 30.135 24.4827C30.1259 24.5009 30.1174 24.5194 30.108 24.5375C29.745 25.2361 29.136 25.7862 28.3222 26.169C28.1396 26.2548 27.9398 26.0877 27.9942 25.8934C28.2645 24.9262 28.469 23.8773 28.6015 22.7777C28.6262 22.5727 28.7273 22.3845 28.8836 22.2493C29.2183 21.9598 29.5308 21.6707 29.8183 21.3836L29.8214 21.3803C29.9629 21.2392 30.2042 21.2999 30.2619 21.4914C30.5459 22.4356 30.5617 23.3151 30.3014 24.082ZM28.0892 27.5739C28.0064 27.6624 27.9219 27.7498 27.8358 27.8359C27.6858 27.9857 27.5322 28.1307 27.3753 28.2706C27.2763 28.3588 27.1266 28.2485 27.1826 28.1283C27.1986 28.094 27.2145 28.0594 27.2302 28.0246C27.2962 27.8792 27.3599 27.73 27.4218 27.5781C27.4365 27.5423 27.4673 27.5155 27.5049 27.5059C27.661 27.4663 27.8131 27.4226 27.9613 27.3748C28.0814 27.3361 28.1755 27.4817 28.0892 27.5739ZM26.4646 26.7008C26.1361 26.7484 25.7907 26.7791 25.4292 26.7919C24.5474 26.8227 23.615 26.7467 22.6572 26.5703C22.5404 26.5488 22.5179 26.3909 22.6238 26.3374C22.8327 26.2317 23.0418 26.1235 23.2507 26.0128C24.7163 25.236 26.0838 24.3868 27.2809 23.5162C27.3706 23.4509 27.4943 23.528 27.4761 23.6375C27.3101 24.6353 27.0802 25.5745 26.7915 26.4271C26.7423 26.5724 26.6165 26.6788 26.4646 26.7008ZM26.1259 28.0301C25.3401 29.5755 24.3724 30.4432 23.4343 30.4257C22.4148 30.4076 21.3981 29.3458 20.6453 27.513L20.6444 27.511C20.5966 27.3946 20.6515 27.2614 20.7668 27.2114C20.7748 27.2078 20.7828 27.2044 20.7908 27.2008C20.8402 27.1793 20.8957 27.1754 20.9477 27.1901C22.3559 27.5853 23.7435 27.7916 25.0435 27.7916C25.1848 27.7916 25.3251 27.7892 25.4642 27.7843C25.6271 27.7785 25.7873 27.7693 25.9448 27.7568C26.0908 27.7453 26.1924 27.8995 26.1259 28.0301ZM21.4727 30.969C21.0055 31.029 20.5314 31.0598 20.0527 31.0598C17.9132 31.0598 15.8669 30.4535 14.1101 29.3221C13.9892 29.2442 14.0406 29.0566 14.1842 29.05C14.214 29.0486 14.2418 29.0471 14.2663 29.0456C14.7128 29.0166 15.2023 28.9512 15.7328 28.849C16.8611 28.6319 18.1154 28.2596 19.4287 27.7582C19.5464 27.7133 19.6779 27.7717 19.7258 27.8883L19.7266 27.8903C20.2356 29.1295 20.862 30.0658 21.5653 30.6614C21.6815 30.76 21.6238 30.9496 21.4727 30.969ZM15.1076 23.2569C16.0775 22.4671 17.2139 21.6791 18.4605 20.933C18.4873 22.5275 18.6621 24.0582 18.9715 25.4409C18.5092 25.2437 18.0482 25.0266 17.5913 24.7893C16.7062 24.3293 15.8735 23.8141 15.1076 23.2569ZM12.0913 27.5291C11.8599 27.0925 12.1589 26.0813 13.6782 24.5444L13.6789 24.5436C13.8376 24.3834 13.8223 24.1204 13.6452 23.9808C13.5844 23.933 13.5239 23.8847 13.4639 23.8363C13.3126 23.7141 13.0937 23.7253 12.9563 23.8629C12.9262 23.893 12.9037 23.9157 12.8971 23.9225C12.1377 24.702 11.6062 25.4235 11.3084 26.0726C11.224 26.2565 10.9691 26.2763 10.8575 26.1075C9.6789 24.3259 9.04583 22.2381 9.04583 20.0528C9.04583 19.2716 9.12699 18.5027 9.28488 17.7559C9.30873 17.6429 9.46813 17.6357 9.50159 17.7462C9.72995 18.5001 10.1016 19.28 10.6152 20.0686C11.3066 21.1303 12.2183 22.1509 13.2987 23.0871C13.6675 23.4067 14.057 23.7158 14.4632 24.014C15.2866 24.6182 16.1814 25.1759 17.1334 25.6705C17.5554 25.8898 17.9663 26.099 18.3872 26.2885C18.6215 26.394 18.8882 26.4022 19.1274 26.3083C19.3258 26.2306 19.5257 26.1497 19.7268 26.0657C19.9454 25.9745 20.064 25.7361 20.0061 25.5063C19.9988 25.4776 19.9931 25.4545 19.9899 25.4409C19.6584 24.0461 19.4742 22.476 19.4525 20.8314L19.4519 20.8317C19.4517 20.8121 19.4518 20.7923 19.4516 20.7725C19.4506 20.6826 19.4511 20.5921 19.4495 20.5024C19.449 20.4738 19.4498 20.4253 19.4502 20.3966C19.4504 20.3852 19.4502 20.3739 19.4502 20.3625L19.4506 20.3624C19.4511 20.2595 19.4519 20.1566 19.4537 20.0533C19.4588 19.7712 19.4689 19.4912 19.4835 19.2134L19.483 19.2137C19.5852 17.2291 19.9217 15.3644 20.4571 13.7957C20.5066 13.6506 20.4292 13.493 20.2841 13.4434C20.1426 13.3951 20.0012 13.3489 19.86 13.3047C19.7173 13.2599 19.5647 13.3369 19.5164 13.4786C18.9361 15.1822 18.578 17.2032 18.4825 19.3419C18.4703 19.6132 18.3227 19.8602 18.089 19.9986C16.8224 20.7493 15.6591 21.5451 14.6541 22.3473C14.4447 22.5145 14.1457 22.5081 13.9432 22.3325C12.936 21.4592 12.0883 20.5107 11.4474 19.5266C10.1881 17.5928 9.88881 15.7711 10.605 14.3979C10.6069 14.3947 10.6086 14.3913 10.6105 14.3882C10.7018 14.2367 10.7968 14.0872 10.8956 13.9398C11.7185 12.8505 13.2501 12.2193 15.2815 12.148C15.41 12.1434 15.5394 12.1412 15.67 12.1412C16.9159 12.1412 18.2531 12.3467 19.613 12.7391L19.6133 12.7388C19.6431 12.7475 19.6729 12.7564 19.7027 12.7652C19.7257 12.772 19.7487 12.7783 19.7717 12.7852C20.0859 12.8791 20.4011 12.9833 20.7166 13.0968C20.724 13.0994 20.7314 13.1021 20.7387 13.1047C20.821 13.1344 20.9031 13.1648 20.9852 13.1958C21.0109 13.2055 21.0367 13.2153 21.0624 13.2252C21.0871 13.2347 21.1118 13.2439 21.1366 13.2535L21.1363 13.2539C21.8005 13.511 22.4641 13.81 23.1194 14.1506C24.3878 14.8095 25.5488 15.582 26.5592 16.4295C24.6309 16.8713 22.3896 17.7234 20.1361 18.8724C20.0322 18.9254 19.9638 19.0299 19.9572 19.1465C19.9493 19.2861 19.9389 19.5669 19.9315 19.7901C19.9268 19.9302 20.075 20.023 20.1991 19.9578L20.2004 19.9571C22.4316 18.7855 24.6584 17.9098 26.5706 17.447C26.9281 17.3606 27.1594 17.0173 27.1093 16.653C27.0741 16.3986 27.0345 16.1481 26.9907 15.902C26.9356 15.5929 26.7664 15.3165 26.5167 15.1264C25.621 14.4441 24.634 13.8183 23.5773 13.2692C22.8652 12.8992 22.1427 12.575 21.4186 12.2985C21.2638 12.2394 21.1974 12.0563 21.2782 11.9116C22.0242 10.5771 22.9114 9.82979 23.7758 9.82979C23.7847 9.82979 23.7937 9.82979 23.8026 9.83001C24.8222 9.84825 25.8388 10.9099 26.5917 12.7427C26.9727 13.6705 27.268 14.7405 27.4698 15.9032C27.4687 15.9022 27.4677 15.9014 27.4667 15.9004C27.5528 16.3966 27.6222 16.9095 27.6737 17.4356C27.6693 17.4384 27.6645 17.4409 27.6601 17.4437C27.6661 17.4498 27.6725 17.456 27.6787 17.4622C27.764 18.345 27.8001 19.2643 27.7832 20.2024C27.7727 20.7957 27.741 21.3809 27.6899 21.9534C26.3259 23.0557 24.6394 24.1528 22.7856 25.1352C22.1764 25.4581 21.5673 25.7586 20.9641 26.0353C20.9547 26.0397 20.9454 26.0439 20.936 26.0482C20.8899 26.0692 20.8437 26.0906 20.7977 26.1114L20.7966 26.1111C20.2968 26.3372 19.8018 26.5464 19.3149 26.7374L19.3151 26.7378C19.2876 26.7486 19.2603 26.759 19.2329 26.7696C19.1987 26.783 19.1645 26.7962 19.1304 26.8094C19.0487 26.8407 18.9673 26.8715 18.8862 26.9019C18.8638 26.9102 18.8414 26.9189 18.819 26.9271C18.7205 26.9637 18.6225 26.9992 18.5248 27.0342C18.5126 27.0385 18.5004 27.0431 18.4884 27.0474L18.4879 27.0472C17.4446 27.4188 16.4508 27.6995 15.5451 27.8738C13.3566 28.2951 12.326 27.9719 12.0913 27.5291ZM13.6632 11.0882C15.5155 9.76169 17.729 9.04595 20.0527 9.04595C20.666 9.04595 21.2714 9.09614 21.8647 9.19402C22.0235 9.22025 22.0769 9.42303 21.9502 9.52243C21.3753 9.97311 20.8412 10.64 20.3685 11.5047C20.2531 11.7157 20.0084 11.8189 19.777 11.7537C18.211 11.3129 16.6702 11.1054 15.2466 11.1554C14.7214 11.1739 14.2241 11.2271 13.7569 11.3132C13.6257 11.3374 13.5547 11.1658 13.6632 11.0882ZM28.772 19.11C28.7688 18.9838 28.9307 18.93 29.0038 19.0327C29.0937 19.1589 29.1804 19.2857 29.2634 19.4131C29.3737 19.5826 29.4763 19.7511 29.5717 19.9184C29.6312 20.0228 29.6169 20.1537 29.536 20.2424C29.4075 20.3836 29.268 20.5295 29.1166 20.6808C29.0614 20.7359 29.005 20.7912 28.9476 20.8466C28.8764 20.9154 28.7569 20.863 28.7608 20.7639C28.7678 20.5833 28.773 20.4021 28.7762 20.2201C28.7829 19.8471 28.7813 19.4768 28.772 19.11ZM27.6305 12.0698C27.6997 12.1354 27.7681 12.2021 27.8358 12.2698C28.8964 13.3305 29.7134 14.5698 30.2597 15.9196C30.3149 16.0557 30.1993 16.1982 30.0548 16.1721C29.7387 16.1154 29.383 16.09 28.9892 16.0966C28.7162 16.1011 28.479 15.9099 28.4311 15.6412C28.2171 14.4412 27.9077 13.3327 27.5103 12.3653C27.4876 12.3102 27.4648 12.2557 27.4416 12.2017C27.391 12.084 27.5376 11.9815 27.6305 12.0698ZM31.7935 17.557C31.3193 15.3039 30.2042 13.2338 28.5379 11.5674C26.2715 9.30097 23.2581 8.05286 20.0527 8.05286C16.8474 8.05286 13.8339 9.30097 11.5674 11.5674C11.0162 12.1187 10.5259 12.7143 10.0984 13.3459C9.97126 13.5151 9.8574 13.6938 9.75617 13.8809C8.64577 15.726 8.05273 17.8439 8.05273 20.0528C8.05273 23.2582 9.30096 26.2716 11.5674 28.5381C13.8339 30.8045 16.8474 32.0529 20.0527 32.0529C23.2581 32.0529 26.2715 30.8045 28.5379 28.5381C29.6077 27.4684 30.4502 26.2323 31.042 24.8882C31.1144 24.7393 31.1775 24.5868 31.2318 24.4313C31.7705 23.0547 32.0527 21.5755 32.0527 20.0528C32.0527 19.2147 31.9666 18.39 31.8001 17.5881C31.7978 17.5777 31.7958 17.5674 31.7935 17.557Z" fill="#7B2CFA"/>
</svg>
