<svg width="40" height="40" viewBox="0 0 40 40" fill="none" xmlns="http://www.w3.org/2000/svg">
<path d="M20 36C28.8366 36 36 28.8366 36 20C36 11.1634 28.8366 4 20 4C11.1634 4 4 11.1634 4 20C4 28.8366 11.1634 36 20 36Z" fill="#FCFF52"/>
<path fill-rule="evenodd" clip-rule="evenodd" d="M28.9509 10.9914H11.0488V29.0099H28.9522V22.72H25.9813C24.9573 25.015 22.652 26.6125 20.0139 26.6125C16.3775 26.6125 13.4322 23.6224 13.4322 19.9885C13.4322 16.3533 16.3775 13.3888 20.0139 13.3888C22.7032 13.3888 25.0085 15.0387 26.0325 17.3837H28.9522V10.9914H28.9509Z" fill="black"/>
</svg>
