<svg width="40" height="40" viewBox="0 0 40 40" fill="none" xmlns="http://www.w3.org/2000/svg">
<path d="M20 36C28.8366 36 36 28.8366 36 20C36 11.1634 28.8366 4 20 4C11.1634 4 4 11.1634 4 20C4 28.8366 11.1634 36 20 36Z" fill="#988430"/>
<path d="M20.0002 35.4875C28.5537 35.4875 35.4877 28.5535 35.4877 20C35.4877 11.4465 28.5537 4.51251 20.0002 4.51251C11.4467 4.51251 4.5127 11.4465 4.5127 20C4.5127 28.5535 11.4467 35.4875 20.0002 35.4875Z" fill="#7A6A2A"/>
<path d="M20 35.1612C28.3733 35.1612 35.1612 28.3733 35.1612 20C35.1612 11.6267 28.3733 4.83884 20 4.83884C11.6268 4.83884 4.83887 11.6267 4.83887 20C4.83887 28.3733 11.6268 35.1612 20 35.1612Z" fill="#BA9F33"/>
<path fill-rule="evenodd" clip-rule="evenodd" d="M10.9951 18.2913C10.9045 18.2085 10.8088 18.1256 10.7207 18.0428C10.6326 17.96 10.5422 17.8771 10.4515 17.7943L10.1822 17.5383C10.1382 17.4943 10.0916 17.4555 10.0476 17.4113C10.0035 17.3726 9.95184 17.3286 9.9078 17.2896C9.55043 16.9505 9.191 16.6114 8.83858 16.2721C9.20363 16.6061 9.56101 16.9377 9.92607 17.2767L10.0529 17.4036C10.0969 17.4475 10.1435 17.4864 10.1875 17.5305L10.4567 17.7789C10.5473 17.8617 10.6354 17.9447 10.726 18.0349C10.8166 18.1252 10.9047 18.2083 10.9953 18.2909L10.9951 18.2913ZM6.25212 18.2401C6.25212 18.2401 7.55175 18.3746 8.18612 18.4652C8.77372 18.5481 10.612 18.8302 10.612 18.8302L6.25212 18.2401ZM6.25212 18.2401C6.61718 18.2711 6.98224 18.3099 7.34729 18.3488C7.53366 18.3669 7.71235 18.3875 7.89104 18.4056L8.1653 18.4369C8.25592 18.4497 8.34398 18.4626 8.43461 18.4756L9.5221 18.649L10.0657 18.7396C10.2444 18.7707 10.423 18.8045 10.6094 18.8355C10.4307 18.8174 10.2444 18.7915 10.0657 18.7656L9.5221 18.6879L8.43461 18.5275C8.34398 18.5145 8.25592 18.4963 8.1653 18.4835L7.89087 18.4519C7.71218 18.4338 7.52581 18.4078 7.34712 18.387C6.98207 18.3432 6.61701 18.2964 6.25195 18.2396L6.25212 18.2401ZM10.4826 19.1689C10.4826 19.1689 9.09492 19.5211 8.62627 19.6558C8.16547 19.7826 6.76993 20.2072 6.76993 20.2072L10.4824 19.169L10.4826 19.1689Z" fill="#CFB66C"/>
<path fill-rule="evenodd" clip-rule="evenodd" d="M10.4824 19.1689C10.1743 19.2595 9.86797 19.3475 9.55548 19.4305L8.62859 19.679C8.32054 19.7696 8.01419 19.8577 7.70699 19.9483L7.24619 20.0751C7.09345 20.1191 6.93814 20.1579 6.78027 20.2021C6.93285 20.1509 7.08833 20.0985 7.24107 20.0544L7.70187 19.907C8.00993 19.8111 8.31627 19.7204 8.62347 19.6247C8.93665 19.5471 9.24487 19.4641 9.55804 19.389C9.85569 19.3139 10.169 19.239 10.4824 19.169V19.1689ZM6.96408 21.0615C7.11666 21.0045 8.87725 20.184 9.28634 19.9923C9.49114 19.8964 10.0864 19.6851 10.0864 19.6851L6.96408 21.0615Z" fill="#CFB66C"/>
<path fill-rule="evenodd" clip-rule="evenodd" d="M6.96404 21.0615C7.09852 21.0103 7.2255 20.9477 7.35486 20.8882L7.73801 20.7095L8.50703 20.3393C8.76303 20.2176 9.01187 20.0833 9.27589 19.9689C9.41054 19.9121 9.5452 19.8655 9.67969 19.8215L9.88449 19.7568C9.95429 19.7387 10.0191 19.7179 10.0893 19.6998C9.83329 19.8215 9.5638 19.9251 9.30746 20.044C9.05146 20.171 8.78966 20.2746 8.52547 20.3884L7.74364 20.7327C7.48116 20.839 7.22516 20.9528 6.96387 21.0615H6.96404ZM7.1347 21.7783C7.1347 21.7783 8.72941 20.8438 9.27828 20.5434C9.56568 20.383 10.4951 19.922 10.4951 19.922L7.1347 21.7783Z" fill="#CFB66C"/>
<path fill-rule="evenodd" clip-rule="evenodd" d="M7.13574 21.7787C7.40488 21.613 7.67932 21.4447 7.95375 21.2739L8.36335 21.0252C8.50312 20.9424 8.63778 20.8648 8.78029 20.782C8.92006 20.6991 9.05472 20.6163 9.19705 20.5386C9.26481 20.4968 9.33581 20.4604 9.40936 20.4299L9.62679 20.3212C9.9142 20.1814 10.2016 20.0389 10.5045 19.9172C10.2301 20.0908 9.94782 20.2384 9.6657 20.391C9.52593 20.4687 9.38342 20.5386 9.24365 20.6163C9.10387 20.6939 8.96921 20.7769 8.82671 20.852C8.68693 20.9348 8.55228 21.0124 8.40994 21.0875L7.98788 21.3179L7.13608 21.7787H7.13574ZM10.4832 20.1268C10.4832 20.1268 9.49162 20.888 9.1706 21.1314C8.84958 21.3747 7.9046 22.0582 7.9046 22.0582L10.4832 20.1268Z" fill="#CFB66C"/>
<path fill-rule="evenodd" clip-rule="evenodd" d="M16.1734 26.2653L15.666 25.3048L15.9611 24.1035L18.0659 23.2906L17.1701 21.4525L17.6128 19.5962L18.444 17.9339L21.0123 17.5301L22.8996 15.7308L26.9747 16.0388L27.7746 20.3961L26.2342 25.8822L25.3566 28.7224L21.7993 28.8571L20.1476 27.7128L18.2136 26.9048L16.1734 26.2653Z" fill="#E2CC85"/>
<path fill-rule="evenodd" clip-rule="evenodd" d="M22.413 26.2343C22.413 26.2343 21.921 26.4596 21.0818 26.4077C20.839 26.0815 19.1381 25.9288 19.1381 25.9288C19.1381 25.9288 18.9258 25.8641 18.5503 26.0194C18.1725 26.173 17.8151 26.1541 17.4811 26.2368C17.1471 26.3196 16.8155 25.8847 16.5595 25.7941C16.3035 25.6984 15.964 25.468 15.964 25.468L15.2472 25.398L13.8078 24.7896L11.5211 22.5114L10.8997 23.4842L10.708 24.688L11.3994 26.1146L13.2608 27.8104L16.8906 28.732L19.042 28.0981L21.7372 26.9589L22.413 26.2341V26.2343Z" fill="#F1D789"/>
<path fill-rule="evenodd" clip-rule="evenodd" d="M9.51755 18.1826L9.97835 16.7872L10.5274 15.8861L12.2955 15.7385L11.7647 17.2868L10.2866 19.9172L10.9001 22.2654L9.8128 22.809L9.47864 22.2965L9.2095 21.1211L9.19141 19.8007L9.51755 18.1826Z" fill="#F4ECB4"/>
<path fill-rule="evenodd" clip-rule="evenodd" d="M11.5005 26.1385L11.1614 25.6648C11.1614 25.6648 11.0708 25.4395 11.1226 25.2427C11.1738 25.0434 11.1665 25.0304 11.1407 24.9553C11.115 24.8802 10.8974 24.6213 10.9103 24.3986C10.9231 24.1733 10.8922 24.0982 11.0578 23.9197C11.2312 23.7463 11.1795 23.4459 11.1795 23.4459L11.4048 23.5857L11.456 23.5081C11.456 23.5081 11.5387 23.5727 11.5387 23.6738C11.5568 23.534 11.4817 22.8867 11.6526 22.7392C11.8234 22.5917 12.1263 23.4304 12.1263 23.4304L11.94 22.2136L11.4609 20.9658L10.6091 19.8266L10.5579 18.5708V18.4621C10.5579 18.4621 10.1669 19.0629 10.0582 19.5373C9.98054 19.8635 10.1669 20.2596 10.1282 20.7282C10.0969 21.1943 10.0582 21.158 10.172 21.3426C10.2859 21.5273 10.563 21.907 10.4543 22.1815C10.3586 22.4172 10.0322 22.2514 10.0322 22.2514C10.0322 22.2514 9.96757 22.4429 9.8795 22.5129C9.84844 22.3991 9.81482 22.3265 9.7527 22.2569C9.74741 22.3009 9.73461 22.3605 9.73461 22.3605C9.73461 22.3605 9.6776 22.1818 9.6206 21.9565C9.54312 21.6563 9.46018 21.2602 9.38508 21.0479C9.35402 21.1696 9.27637 21.5398 9.27637 21.5398L9.3204 22.1094L9.53271 22.8913L9.73751 23.4033L9.93685 24.0298L10.1101 24.4507L10.2499 24.7717L10.3715 25.4941L10.9591 26.1153L11.2725 26.2553L11.5002 26.1387L11.5005 26.1385Z" fill="#F3E19D"/>
<path fill-rule="evenodd" clip-rule="evenodd" d="M9.82534 17.0434C9.82534 17.0434 9.40328 17.7602 9.28177 18.4828C9.16026 19.2054 9.05137 19.9689 9.12817 20.9527C9.20582 21.9444 9.35345 22.5527 9.47258 22.9877C9.67738 23.7101 10.2078 24.7147 10.2078 24.7147L10.2259 24.6758C10.1367 24.5068 10.0656 24.3289 10.0136 24.145C9.94362 23.8706 9.91767 23.5444 9.85299 23.3968C9.79599 23.2493 9.70024 23.1224 9.65365 22.9411C9.60962 22.7677 9.60245 22.4933 9.46728 22.2888C9.41028 22.2059 9.34031 21.9884 9.31966 21.771C9.29372 21.4447 9.33263 21.0796 9.30157 20.7794C9.24456 20.2797 9.20582 19.9406 9.25753 19.679C9.30925 19.4174 9.57873 18.6746 9.74445 18.0843C9.85316 17.7062 9.78831 17.3878 9.98765 17.0589C10.187 16.7328 10.3088 16.4454 10.3527 16.246C10.4039 16.0648 9.82466 17.0434 9.82466 17.0434H9.82534Z" fill="#F2E8B0"/>
<path fill-rule="evenodd" clip-rule="evenodd" d="M11.8263 16.756C11.8263 16.756 11.6089 16.8208 11.5053 16.9347C11.4017 17.0434 11.3576 17.134 11.2179 17.3178C11.0781 17.5016 11.0702 17.6518 10.9562 17.8822C10.8424 18.1075 10.5912 18.4466 10.5601 18.5683C10.5291 18.69 10.4773 19.2595 10.4127 19.5288C10.3557 19.7981 10.4773 20.1296 10.4773 20.1296L10.6248 20.0983C10.6248 20.0983 10.6248 20.29 10.7724 20.4195C10.9199 20.5463 10.9458 19.9896 10.9458 19.9896L11.4972 18.1281L12.3282 17.5637L12.4188 17.1081L11.826 16.756H11.8263Z" fill="#F5EEC0"/>
<path fill-rule="evenodd" clip-rule="evenodd" d="M12.2309 17.6001C12.2309 17.6001 11.8399 17.6258 11.6484 17.7658C11.5707 17.8226 11.5397 17.8692 11.4569 17.9392C11.3041 18.066 11.1487 18.1826 11.0737 18.3488C10.9908 18.5143 10.9002 18.7656 10.838 19.2393C10.8121 19.4387 10.8121 19.6225 10.794 19.7831C10.7681 20.0005 10.7293 20.1739 10.75 20.2951C10.7759 20.5436 11.0323 20.6731 11.0572 20.9552L11.588 20.6861L12.0877 18.7157L13.1492 18.0501L12.5485 17.377L12.2302 17.5989L12.2309 17.6001Z" fill="#E6DB9D"/>
<path fill-rule="evenodd" clip-rule="evenodd" d="M9.42986 30.8679C9.43208 30.8484 9.4343 30.829 9.43651 30.809C9.514 30.1434 9.52714 29.6389 9.58397 29.323C9.66674 28.8752 9.72375 28.7086 9.71078 28.541C9.69268 28.2719 9.67203 28.0751 9.69798 27.8679C9.73672 27.5935 10.006 27.2673 9.99835 27.042C9.99306 26.8633 9.90243 26.747 9.82478 26.6382C9.74713 26.5295 9.685 26.4389 9.685 26.4389C9.685 26.4389 10.2158 26.0738 10.2107 24.6032C10.2215 24.6063 10.2319 24.6106 10.2417 24.6162L10.5032 25.3591L10.6819 25.5765L11.3679 26.8555L12.2508 27.7126L13.5556 28.5902L14.3737 29.4805L14.4565 31.8547L13.3873 33.2424L13.2122 33.5595C11.821 32.8611 10.5453 31.9532 9.42969 30.8677L9.42986 30.8679Z" fill="#E5CB7A"/>
<path fill-rule="evenodd" clip-rule="evenodd" d="M12.6963 33.1391C12.6963 33.1391 12.7144 32.844 12.9578 32.6524C12.9967 32.717 13.0224 32.7793 13.0148 32.8258C13.0588 32.7483 13.3668 32.2511 14.0633 32.1216C14.7598 31.9948 14.9281 31.4874 14.9281 31.4874L16.4062 30.1437L18.0969 28.5878L20.1525 27.8653L21.1132 27.6296C21.1132 27.6296 21.1313 27.6996 21.0951 27.8549C21.2737 27.8421 21.6698 27.7515 22.0814 27.6064C22.2471 27.5417 22.4026 27.5158 22.4854 27.6013C22.6071 27.7151 22.6252 27.9845 22.6328 28.1449C22.8322 28.1008 23.0626 27.9094 23.2472 27.9275C23.5425 27.9585 23.804 28.3055 24.1043 28.3055C24.5004 28.3055 24.679 28.0621 24.9561 27.8704C25.1218 27.7566 25.3599 27.6144 25.4946 27.5184C25.8156 27.2827 29.2124 26.2445 29.2124 26.2445L30.4033 26.3222L30.595 27.6011L30.4926 30.9445C30.4799 30.9566 30.4673 30.9692 30.4545 30.9814L25.0396 33.8095L17.5337 34.9601C15.8523 34.6854 14.2298 34.1273 12.7352 33.3096L12.6968 33.1389L12.6963 33.1391Z" fill="#D8C173"/>
<path fill-rule="evenodd" clip-rule="evenodd" d="M9.88574 31.2932C9.99241 31.0701 10.0883 30.8836 10.1052 30.8169C10.1185 30.9513 10.1429 31.2464 10.1921 31.5601C10.0889 31.4724 9.98678 31.3834 9.88574 31.293V31.2932Z" fill="#F1D789"/>
<path fill-rule="evenodd" clip-rule="evenodd" d="M15.3684 34.4396L16.3391 34.1696L16.4219 34.1955C16.4219 34.1955 16.4659 34.2215 16.4659 34.3094C16.5876 34.2396 16.6912 34.2524 16.7663 34.206C16.8051 34.2887 16.8438 34.5632 17.0148 34.5968C17.1933 34.6357 17.385 34.5191 17.5792 34.3717C17.7707 34.2189 17.9888 34.0273 18.1538 33.9496C18.2144 34.061 18.268 34.1759 18.3144 34.2938C18.5319 34.1205 18.9099 33.4163 19.4483 33.4291C19.604 33.0613 19.864 32.7472 20.1962 32.5256C20.6959 32.1865 21.0091 32.1605 21.4001 32.1916C21.5554 31.9898 21.7467 31.8187 21.9645 31.6867C22.0292 31.7127 22.2078 31.8214 22.4306 31.7178C22.6558 31.6144 22.9095 31.213 23.2435 31.1613C23.4234 31.1365 23.6064 31.1749 23.7613 31.27C23.7613 31.27 24.7341 30.3042 25.4053 29.9831C25.3793 29.9055 25.3276 29.613 26.1146 28.9656C26.1586 29.0045 26.1276 29.1133 26.1586 29.1192C26.1714 29.1192 26.3634 29.0365 26.6064 28.8499C26.9068 28.6248 27.2666 28.3891 27.484 28.3244C27.8936 28.2028 28.3281 28.4512 28.3281 28.4512C28.3651 28.4253 28.4063 28.406 28.4498 28.3942C28.5532 28.3762 28.6283 28.3632 28.6853 28.343C28.6802 28.4777 28.7553 28.7081 28.6853 28.9074C28.7664 28.953 28.8522 28.9895 28.9413 29.0162C28.8975 29.1119 28.8016 29.3553 28.6411 29.4718C28.7756 29.5365 28.7937 29.6116 28.9854 29.6766C28.9077 29.7853 28.7806 29.9719 28.7239 30.0862C28.6669 30.2079 28.4623 30.7128 28.3716 30.9042C28.2759 31.0959 28.1465 31.448 28.0842 31.5186C28.0219 31.5893 27.7968 31.8888 27.6234 32.0363C27.777 31.9793 28.4054 31.7878 28.672 31.7152C28.5927 31.8316 28.1904 32.4285 27.8037 33.0024C25.952 34.1122 23.8851 34.8147 21.7406 35.063C19.5962 35.3112 17.4234 35.0996 15.3672 34.4422L15.3684 34.4396Z" fill="#E0CD81"/>
<path fill-rule="evenodd" clip-rule="evenodd" d="M12.2945 17.5301C12.2945 17.5301 12.0694 17.5301 12.0253 17.5612C11.9813 17.5922 12.2506 17.6571 12.3334 17.6881C12.4162 17.7192 12.5949 17.8615 12.6414 17.9755C12.6855 18.0843 14.2595 18.7185 14.2595 18.7185L15.3728 18.6615L15.7566 18.1312L15.0265 17.4917L15.5385 15.9823L14.8603 16.091L13.2292 17.0638L12.411 17.3772L12.2945 17.5301Z" fill="#DFC57C"/>
<path fill-rule="evenodd" clip-rule="evenodd" d="M14.7388 18.0298C14.7549 18.0559 14.7775 18.0772 14.8045 18.0918C14.8314 18.1063 14.8618 18.1135 14.8924 18.1126C15.1228 18.1126 15.3349 18.1696 15.423 18.286C15.5706 18.4725 15.9797 19.068 15.9797 19.068L16.9583 19.4201L17.0214 18.2677L15.9522 17.5248L14.7354 17.9726V18.0296H14.7381L14.7388 18.0298Z" fill="#E5CC7C"/>
<path fill-rule="evenodd" clip-rule="evenodd" d="M14.5471 18.457C14.5471 18.457 14.7257 18.47 14.9509 18.387C15.1762 18.3041 15.5464 18.1256 15.707 18.1955C15.9321 18.2913 15.8855 18.5917 16.1291 18.8611C16.2765 19.0269 16.5458 19.0217 16.6986 19.2004C16.8513 19.3791 17.3768 19.2962 17.3768 19.2962L17.5761 20.3714L16.7762 21.3967L16.5146 22.6704H15.4329L14.4447 22.2784L13.958 21.1008L14.2014 19.9099L14.5471 18.457Z" fill="#D2C281"/>
<path fill-rule="evenodd" clip-rule="evenodd" d="M16.6397 18.5087C16.6665 18.517 16.6944 18.5214 16.7224 18.5217C16.6914 18.5476 16.6265 18.6045 16.6525 18.7521C16.6784 18.8997 16.7612 19.0861 16.6914 19.1999C16.7471 19.2609 16.7886 19.3334 16.8131 19.4122C16.8571 19.5392 16.8701 19.6556 17.1573 19.6739C17.1158 19.6994 17.0776 19.7298 17.0435 19.7645C17.0435 19.7645 17.2428 19.9379 17.3438 20.0983C17.4473 20.0939 17.7217 20.0085 17.7217 20.0085L17.7787 20.0475L17.9004 19.9963C17.9004 19.9963 17.7865 19.9522 17.8693 19.6752C17.947 19.4319 18.0169 19.4448 18.0229 19.4267C18.0289 19.4087 18.0799 19.1523 18.0799 19.0487C18.1187 18.9142 18.1497 18.5051 18.1497 18.5051L18.0669 17.6016L17.601 17.3194L17.2221 16.9536L16.8648 17.6267L16.6294 17.8614L16.6113 18.4439L16.6397 18.5087Z" fill="#E2C270"/>
<path fill-rule="evenodd" clip-rule="evenodd" d="M17.7607 17.7528C17.7607 17.7528 17.8435 17.9884 17.8747 18.1696C17.8858 18.1344 17.8918 18.0978 17.8928 18.0609C17.8928 18.0609 17.9575 18.4183 17.9703 18.5659C17.9963 18.5606 18.0215 18.5529 18.0273 18.5787C18.0331 18.6045 18.0922 18.892 18.0785 19.0525C18.1863 18.8746 18.3355 18.7254 18.5134 18.6176C18.617 18.5528 18.7387 18.483 18.8656 18.4777C19.065 18.4725 19.2099 18.6046 19.4481 18.6046C20.0228 18.6046 20.5433 18.1826 20.9264 18.0532C21.2085 17.9573 21.4519 17.8875 21.6228 17.732C21.7057 17.6622 21.8533 17.5069 21.9878 17.2763C22.1665 16.9691 22.3529 16.7017 22.5394 16.6681C22.455 16.6836 22.3691 16.6897 22.2834 16.6862C22.2834 16.6862 22.3404 16.6292 22.437 16.5515C22.5336 16.4739 22.6493 16.3781 22.8149 16.3781C23.1101 16.3781 23.2576 16.422 23.4233 16.422C23.589 16.4169 23.6848 16.3781 23.6848 16.3781C23.6848 16.3781 23.8583 16.4998 24.2491 16.4998C24.6401 16.5049 24.9016 16.5385 25.1062 16.5568C25.3109 16.5751 25.9968 16.4998 26.1936 16.5056C26.3218 16.5106 26.4478 16.5414 26.5639 16.5962L25.9295 14.753L23.6508 12.7614L22.2942 13.7219L20.2072 15.8086L18.1879 16.5568L17.7659 17.0306V17.7528H17.7607Z" fill="#CCB360"/>
<path fill-rule="evenodd" clip-rule="evenodd" d="M22.2913 16.6964C22.2913 16.6964 22.3483 16.6396 22.4439 16.5619C22.5395 16.4843 22.6564 16.3883 22.8219 16.3883C23.117 16.3883 23.2647 16.4324 23.4304 16.4324C23.5961 16.4272 23.6918 16.3883 23.6918 16.3883C23.6918 16.3883 23.8656 16.5099 24.2562 16.5099C24.6472 16.515 24.9087 16.5486 25.1133 16.5667C25.3179 16.5848 26.0039 16.5099 26.2006 16.5155C26.3289 16.5203 26.4548 16.5511 26.5708 16.6061L26.2834 15.775L25.9496 15.1408L24.9968 14.0973C24.9968 14.0973 23.8533 13.4242 23.8446 13.4191C23.8395 13.414 23.4485 13.3104 23.4485 13.3104L22.4129 13.9369L21.4732 16.368L21.4551 16.88L22.0633 17.1674C22.2161 16.9114 22.3845 16.7066 22.5424 16.6807C22.3999 16.6962 22.2912 16.6962 22.2912 16.6962L22.2913 16.6964Z" fill="#D5B457"/>
<path fill-rule="evenodd" clip-rule="evenodd" d="M22.2786 16.87C22.188 16.8751 22.1131 16.857 22.0922 16.7923C22.0146 16.5749 21.9525 16.5438 21.8874 16.5438C21.8224 16.5438 21.7347 16.6836 21.6826 16.6964C21.6306 16.7092 21.5688 16.536 21.5688 16.536L21.5118 16.51C21.5118 16.51 21.1778 16.7275 20.9423 16.9838C20.7068 17.2402 20.3209 17.6752 20.1475 17.7527C19.9741 17.8301 19.3785 17.8563 19.1747 17.9003C18.9709 17.9443 18.745 18.0919 18.7139 18.1256C18.6828 18.1592 18.8047 18.1954 18.8228 18.229C18.8409 18.2601 18.6233 18.2471 18.6052 18.2802C18.5924 18.3061 18.6564 18.4536 18.6881 18.5287C18.7437 18.5011 18.8046 18.486 18.8666 18.4847C19.066 18.4795 19.2111 18.6116 19.4491 18.6116C20.0239 18.6116 20.5443 18.1896 20.9274 18.06C21.2097 17.9643 21.4531 17.8943 21.6239 17.739C21.7067 17.6692 21.8543 17.5137 21.989 17.2833C22.0873 17.1255 22.1832 16.9778 22.2791 16.8691L22.2786 16.87Z" fill="#D2B257"/>
<path fill-rule="evenodd" clip-rule="evenodd" d="M14.0347 29.6829C14.0347 29.6829 13.9835 29.4913 13.5091 28.9969C13.3744 28.8571 13.2916 28.7409 13.201 28.6578C12.9757 28.4453 12.8436 28.3884 12.6832 28.2668C12.3311 28.0053 11.948 28.0053 11.6529 27.6843C11.3578 27.3632 11.0139 26.7499 10.775 26.123C10.5395 25.4965 10.4746 25.2972 10.4746 25.2791C10.4746 25.261 10.5395 25.1393 10.6222 25.1574C10.705 25.1755 10.705 25.3359 10.7258 25.3748C10.7671 25.4383 10.8138 25.4981 10.8656 25.5533C10.9873 25.6933 11.1607 25.8605 11.2488 26.11C11.2307 25.8977 11.1581 25.6622 11.1581 25.6622C11.1581 25.6622 11.6138 25.9496 12.0021 26.2498C12.3931 26.5502 12.5535 26.6538 12.6677 26.8453C12.7819 27.0368 13.0508 27.5418 13.1797 27.6894C13.3085 27.837 15.0741 28.3936 15.0741 28.3936L15.9139 29.0197L16.3309 29.9337L16.0046 30.4457L15.378 30.5803L14.3605 30.1246L14.0347 29.6828V29.6829Z" fill="#D2B159"/>
<path fill-rule="evenodd" clip-rule="evenodd" d="M11.7744 26.5347C11.7744 26.5347 11.9867 26.8738 12.5045 27.1948C12.9706 27.4771 13.7084 27.7334 14.3662 27.8862C14.744 27.9768 15.122 28.0466 15.4612 28.0519C16.3751 28.0647 17.0042 27.8034 17.7836 27.7179C18.2056 27.6739 18.7234 27.6402 19.2619 27.5131C19.9531 27.3474 20.3622 27.1608 20.9189 26.8987C21.3227 26.7123 21.6931 26.5726 21.9933 26.3939C22.4153 26.1454 22.7234 25.8684 23.0807 25.7856C23.0367 25.9073 22.9901 26.1247 22.638 26.35C22.8244 26.3447 23.0807 26.3319 23.0807 26.3319C23.0807 26.3319 22.8322 26.4794 22.3947 26.8108C22.1253 27.0156 21.7681 27.3622 21.4031 27.5926C21.1674 27.7403 20.9111 27.8486 20.7428 27.937C20.3332 28.1623 20.168 28.2762 19.8988 28.5514C19.9946 28.5463 20.0024 28.5514 20.0024 28.5514C20.0024 28.5514 19.6631 28.5955 19.4199 28.7248C19.3687 28.7248 19.28 28.7067 19.1247 28.7508C19.003 28.7895 18.8424 28.8778 18.6769 28.9242C18.4412 28.9941 18.3637 28.9631 18.3637 28.9631L18.4024 29.0407C18.4024 29.0407 18.0952 29.0354 17.9928 29.0459C18.0109 29.051 18.0058 29.0588 18.0058 29.0588C17.9878 29.0618 17.9705 29.068 17.9546 29.0769C17.9053 29.1088 17.8511 29.1324 17.7942 29.1467C17.7631 29.1518 17.7372 29.1518 17.6983 29.1597C17.7112 29.1908 17.8123 29.3645 17.8589 29.4669C17.8201 29.4928 17.2375 29.933 17.2375 29.933C17.2555 29.9614 17.2703 29.9918 17.2815 30.0236C17.2996 30.0804 17.3074 30.1634 17.3255 30.2021C17.3694 30.2798 17.3953 30.2927 17.3953 30.2927C17.3953 30.2927 17.3255 30.3057 17.2037 30.3368C17.1002 30.3627 16.9733 30.4066 16.7941 30.4325C16.7391 30.4397 16.6838 30.444 16.6283 30.4455C16.6543 30.5025 16.7681 30.7199 16.5584 30.971C16.3486 31.222 16.2839 31.2586 16.2193 31.419C16.1867 31.3944 16.152 31.3727 16.1157 31.3541C16.0459 31.3231 15.9499 31.2766 15.9163 31.2143C15.8967 31.2973 15.8708 31.3787 15.8387 31.4577C15.774 31.6311 15.6782 31.8021 15.6602 31.9315C15.5902 31.8538 15.4608 31.7011 15.2821 31.7322C15.1034 31.7632 14.9611 32.0066 14.93 32.0766C14.93 32.0325 14.899 31.9989 14.8913 32.0506C14.886 32.1076 14.7877 32.7029 14.2388 33.1845C14.2337 33.0628 14.2337 32.7935 14.2208 32.7056C14.1696 32.7568 14.1069 32.8324 13.734 32.993C13.369 33.1535 13.4268 33.3141 13.4268 33.3141C13.4268 33.3141 13.3957 33.0581 13.5925 32.7884C13.7919 32.5193 13.9136 32.3923 13.9136 32.3716C13.9103 32.3506 13.9014 32.3309 13.8876 32.3146C13.8617 32.2887 13.81 32.2576 13.81 32.237C13.841 32.2242 14.1491 32.0766 14.131 31.7709C14.1129 31.4966 13.9965 31.3541 13.9136 31.2533C13.9008 31.2403 14.0354 31.1445 14.0171 31.1135C14.0042 31.0954 13.8386 30.9735 13.8178 30.9087C13.8227 30.87 13.8314 30.8319 13.8437 30.7949C13.8618 30.7378 13.8748 30.6989 13.8697 30.6602C13.8567 30.5955 13.7867 30.4168 13.7661 30.3987C13.7842 30.4039 13.9136 30.3987 13.9136 30.3987C13.9136 30.3987 13.8101 30.233 13.7919 30.1554C13.7736 30.0777 13.7349 29.8731 13.7142 29.8343C13.7582 29.8395 13.867 29.8471 13.867 29.8343C13.8722 29.7954 13.7712 29.7307 13.8158 29.6807C13.8468 29.6859 13.9064 29.7118 13.9632 29.7843C13.9322 29.7014 13.8804 29.541 13.7716 29.4763C13.8228 29.4582 13.9968 29.4114 14.1496 29.5021C14.3023 29.5927 14.3544 29.7195 14.3544 29.7195C14.3544 29.7195 14.445 29.7895 14.585 29.893C14.7454 30.0199 14.9498 30.2002 15.2762 30.3279C15.3461 30.3668 15.5246 30.3668 15.6542 30.3409C15.7106 30.3274 15.7647 30.3056 15.8146 30.2762C15.8326 30.2656 15.8517 30.2569 15.8716 30.2503C15.8438 30.1944 15.8118 30.1407 15.7759 30.0897C15.8199 30.0897 15.8716 30.0949 15.8716 30.0949C15.8716 30.0949 15.9027 30.025 15.7629 29.8901C15.794 29.8591 15.8329 29.8389 15.8329 29.7866C15.7888 29.7814 15.7112 29.7167 15.6931 29.6908C15.7189 29.6727 15.7578 29.6132 15.8018 29.5951C15.7629 29.564 15.6672 29.4345 15.6231 29.4217C15.6652 29.4061 15.7059 29.387 15.7448 29.3647C15.7448 29.3647 15.5274 29.3077 15.4574 29.2611C15.3874 29.2099 15.284 29.1213 15.2219 29.0954C15.157 29.0694 15.0432 29.0566 14.9966 29.0047C15.0405 29.0177 15.1104 29.0047 15.1623 29.0047C15.2011 29.0047 15.2193 29.0098 15.2321 29.0098C15.227 28.9918 15.227 28.9528 15.328 28.94C15.3766 28.9327 15.4238 28.9179 15.4678 28.896C15.4678 28.896 15.3719 28.8909 15.263 28.7873C15.1541 28.6837 15.0637 28.6009 15.0016 28.588C14.9369 28.575 14.8152 28.632 14.7401 28.6267C14.6365 28.6139 14.5925 28.562 14.5925 28.562C14.5925 28.562 14.2482 28.5931 13.4845 28.1272C12.8242 27.7232 12.5368 27.366 12.5368 27.366C12.475 27.3436 12.4153 27.3158 12.3583 27.283C12.1098 27.1537 11.7654 26.8844 11.7758 26.5321L11.7744 26.5347Z" fill="#C2A44D"/>
<path fill-rule="evenodd" clip-rule="evenodd" d="M21.3 10.9955C21.3599 11.0149 21.4131 11.0508 21.4536 11.099C21.5753 11.2388 21.6529 11.5028 21.3759 11.7851C21.4846 11.8239 21.5295 11.8363 21.6244 11.8239C21.5287 11.9379 21.3112 12.1812 21.2983 12.3936C21.2853 12.5669 21.394 12.6188 21.394 12.6188C21.394 12.6188 21.2283 12.8103 21.2206 13.1308C21.2989 13.0426 21.3845 12.9612 21.4766 12.8875C21.6683 12.7347 21.9323 12.5613 22.111 12.4526C22.1086 12.4982 22.1147 12.5438 22.1291 12.5871C22.1291 12.5871 22.4629 12.3127 22.7435 12.4345C22.8703 12.4915 22.8133 12.67 22.8133 12.67C22.8133 12.67 22.9868 12.6053 23.1085 12.727C23.2302 12.8487 23.4023 13.1626 23.4905 13.2843C23.5292 13.3413 23.6303 13.45 23.7337 13.6183C23.875 13.8539 23.993 14.1027 24.0859 14.3612C24.0911 14.2265 24.1247 14.0169 24.508 14.1489C24.8911 14.2835 25.326 14.5658 25.6911 15.1217C26.0561 15.6775 26.1466 16.3051 26.3304 16.544C26.5167 16.7744 26.7084 17.1575 26.7214 17.3181C26.7343 17.4787 26.6644 17.9964 27.0475 19.397C27.1562 18.9622 27.322 17.9964 27.322 17.9964L27.4126 17.1446L27.5162 14.509L24.764 12.2225L22.6126 10.6613L21.2119 10.7959L21.2998 10.9953L21.3 10.9955Z" fill="#CAA13E"/>
<path fill-rule="evenodd" clip-rule="evenodd" d="M26.4127 14.9177C26.4127 14.9177 26.3738 14.6617 25.7267 14.2265C25.0793 13.7968 24.5745 13.7968 24.1086 13.4317C23.7512 13.1443 23.3784 12.484 23.1358 12.2666C22.9001 12.0517 22.8613 11.4303 22.8613 11.4303L23.6561 10.7647L24.8382 9.05616L25.8374 7.95587L26.3163 8.62147L26.9819 9.4033L27.3521 10.9722L27.4867 13.2687L26.4115 14.9179L26.4127 14.9177Z" fill="#B59544"/>
<path fill-rule="evenodd" clip-rule="evenodd" d="M27.2127 17.6704C27.2323 17.3221 27.1893 16.9732 27.0857 16.6401C26.9151 16.1093 26.5422 15.1669 26.3689 14.8139C26.299 14.4229 26.3509 14.3919 26.426 14.3479C26.501 14.3038 26.7833 14.1431 26.938 13.579C27.0926 13.0149 27.5723 12.9965 27.5723 12.9965L27.8674 12.7791L28.3154 13.9L28.7062 14.9124L28.8279 15.6866L28.9185 16.3467L28.7062 17.7422L27.6578 18.6898L27.2126 17.6704H27.2127Z" fill="#C89D3A"/>
<path fill-rule="evenodd" clip-rule="evenodd" d="M12.583 33.2248V33.1961C12.6048 33.1825 12.624 33.1652 12.6398 33.1449C12.6579 33.119 12.6711 33.0879 12.6839 33.0802C12.7098 33.0673 12.8315 33.029 12.8962 33.0413C12.9609 33.0536 13.1319 33.1241 13.2225 33.119C13.4089 33.1139 13.6263 32.9714 13.9707 33.0362C14.4885 33.1319 14.6102 33.484 14.9106 33.6834C15.1154 33.8233 15.3273 33.761 15.3584 33.761H15.4282C15.4412 33.761 15.5369 33.6523 15.5888 33.6576C15.6924 33.6627 15.7026 33.7482 15.7673 33.7533C15.9201 33.7714 16.2153 33.6757 16.3629 33.7146C16.4067 33.7283 16.4465 33.7524 16.479 33.7848C16.5114 33.8173 16.5355 33.857 16.5493 33.9008C16.5804 33.9965 16.5544 34.1182 16.4793 34.1882C16.3189 34.3357 16.1662 34.4756 16.1351 34.5978C16.1746 34.6279 16.2125 34.6601 16.2488 34.6941C14.9678 34.3677 13.7353 33.8742 12.583 33.2263V33.2248Z" fill="#CEB052"/>
<path fill-rule="evenodd" clip-rule="evenodd" d="M26.3691 28.0519C26.3691 28.0519 26.7729 27.5134 26.9129 27.2467C27.0527 26.9717 26.4702 23.4901 26.4702 23.4901L27.6404 19.6559L27.6092 18.408C27.6092 18.408 27.6662 17.2559 27.8009 16.7561C27.9615 17.0435 28.4612 17.3905 28.5699 17.5743C28.6211 17.2221 28.795 16.4792 28.7692 15.6869C28.865 15.8344 29.0954 17.318 29.0954 17.318L29.3258 18.3172L29.6261 19.3788L29.9601 20.4999L30.1595 21.274L30.2733 21.4604L30.3692 21.7865L30.4598 22.1388L30.7213 22.9647L30.8749 23.6429L30.9966 24.8727C31.0231 24.9669 31.0421 25.063 31.0536 25.1601C31.0587 25.2948 31.0355 25.3724 31.0355 25.3958C31.0355 25.4192 31.0795 25.6909 31.0614 25.8955C31.0355 26.1003 31.0355 26.2606 30.8749 26.4075C30.7143 26.5545 30.6134 27.4327 30.6134 27.4327L30.326 27.2412C30.326 27.2412 30.383 26.9796 30.2484 26.7415C30.1137 26.5034 29.8523 26.4541 29.7046 26.493C29.5572 26.5241 29.2621 26.5705 29.1662 26.6534C29.0756 26.7362 28.853 26.9926 28.6484 27.1091C28.3924 27.2627 27.9753 27.2748 27.7527 27.3266C27.5275 27.3778 27.279 27.5314 27.0173 27.7097C26.8122 27.8425 26.5956 27.9567 26.3702 28.051L26.3691 28.0519Z" fill="#CCA847"/>
<path fill-rule="evenodd" clip-rule="evenodd" d="M26.3691 33.7088C26.3691 33.7088 26.3862 33.7199 26.4191 33.738C28.2585 32.8762 29.9066 31.6547 31.2661 30.1455C31.2512 29.6215 31.2319 29.0844 31.2108 28.8854C31.1669 28.4634 31.198 28.0336 31.185 27.7851C31.172 27.5366 31.0323 26.5243 30.9676 26.2628C30.8976 26.0013 30.7628 25.8718 30.7423 25.8718C30.7242 25.8771 30.6153 26.3638 30.6153 26.4862C30.6153 26.6086 30.5894 26.9031 30.5894 26.9782C30.5713 26.9729 30.5636 26.927 30.5636 26.9083C30.5377 26.9729 30.5066 27.0869 30.4936 27.0999C30.4807 27.1129 30.5117 26.9912 30.4936 26.9653C30.4756 26.9393 30.4424 26.9523 30.4496 26.8876C30.4527 26.8492 30.4587 26.8112 30.4677 26.7738C30.4677 26.7738 30.39 26.8876 30.3332 27.1776C30.2762 27.465 30.2762 27.4728 30.2556 27.4986C30.2375 27.5298 30.1339 27.6332 30.1286 27.6722C30.1235 27.742 30.2245 27.8119 30.2322 27.8507C30.2373 27.9155 30.1416 28.2157 30.1105 28.3627C30.0794 28.5096 30.0924 28.7975 30.0593 28.9452C30.0334 29.0798 30.0081 29.1575 29.9195 29.2143C29.9842 29.2273 30.0463 29.2454 30.0463 29.2454C30.0463 29.2454 30.1369 29.6285 29.9065 29.9548C29.8238 30.0687 29.8031 30.1205 29.7151 30.2241C29.5415 30.4156 29.4068 30.6337 29.3939 30.7756C29.3849 30.7337 29.3789 30.6913 29.3758 30.6486C29.3758 30.6486 29.1066 30.9619 28.9926 31.1406C28.8452 31.371 28.6405 31.358 28.583 31.415C28.5255 31.4721 28.5131 31.5755 28.5318 31.6584C28.4806 31.6712 28.3844 31.6895 28.3195 31.8888C28.2885 31.9922 28.2108 32.0936 28.0891 32.1632C27.9674 32.2329 27.8198 32.2539 27.7447 32.272C27.8094 32.2901 27.8353 32.2901 27.8664 32.3107C27.8277 32.3754 27.649 32.4764 27.4496 32.606C27.2503 32.7276 27.1544 32.9062 27.1052 33.0227C27.054 33.1314 26.9784 33.2014 26.8567 33.2144C26.9079 33.2454 26.9837 33.3178 27.0225 33.3412C26.9654 33.3542 26.8689 33.3542 26.6963 33.5018C26.5151 33.652 26.4529 33.696 26.37 33.709L26.3691 33.7088Z" fill="#C39D3C"/>
<path fill-rule="evenodd" clip-rule="evenodd" d="M22.7665 34.9086C22.8656 34.8391 22.973 34.7822 23.0861 34.7391C23.4899 34.5787 23.9171 34.5476 24.0854 34.4959C24.246 34.4447 24.3728 34.3741 24.5721 34.3353C24.5668 34.3807 24.5624 34.4234 24.5576 34.4637C23.9699 34.6484 23.3715 34.797 22.7656 34.9086H22.7665Z" fill="#D2BA6B"/>
<path fill-rule="evenodd" clip-rule="evenodd" d="M30.2145 24.2875C30.2145 24.2875 30.1318 24.7353 29.9841 25.0176C29.8365 25.2999 29.6769 25.6907 29.6769 25.6907C29.6779 25.6026 29.6883 25.5149 29.708 25.4291C29.5216 25.5378 29.0685 25.7994 28.94 25.9158C28.8183 26.0245 28.6137 26.2162 28.562 26.3068C28.6837 25.9496 28.8105 25.6286 28.8313 25.481C28.6449 25.6156 27.7749 26.3328 27.3219 26.8065L25.9108 27.9483C25.748 28.0361 25.5803 28.1146 25.4086 28.1835C25.1654 28.2869 24.878 28.3749 24.6657 28.4579C24.7227 28.3051 24.8131 28.1703 24.9401 28.041C25.0747 27.9142 25.4785 27.4766 25.5407 27.273C25.5977 27.0606 25.6106 26.9338 25.5355 26.7552C25.4656 26.7732 25.3051 26.7811 25.1964 26.8122C25.0877 26.8432 24.9712 26.9596 24.9712 26.9596C24.9712 26.9596 25.0539 26.4858 25.2326 26.038C25.098 26.0431 24.8676 26.0819 24.8676 26.0819C24.8676 26.0819 25.1886 25.5434 25.738 25.1681C25.5697 25.2039 25.4051 25.255 25.2461 25.3207C24.9251 25.4554 24.573 25.6547 24.3115 25.7634C24.459 25.5586 25.4946 24.0806 26.1109 22.7032C26.7253 21.3285 26.9548 20.9764 27.0895 20.2386C27.1593 19.8735 27.1407 19.3341 27.1593 18.8509C27.1774 18.3718 27.2369 17.9421 27.1982 17.6547C27.3586 17.854 27.9594 18.4159 27.98 19.6716C27.9981 20.9272 27.4054 22.6231 26.7761 23.5369C26.9297 23.5809 27.3277 23.6328 27.7366 22.9225C28.1456 22.2122 28.1406 22.0139 28.2882 21.7186C28.3063 21.8662 28.301 21.9179 28.301 21.9179C28.301 21.9179 28.8967 21.1957 29.1788 20.2869C29.2358 20.6779 29.404 21.0223 29.1399 21.7394C28.9043 22.3866 28.5963 22.5446 28.5963 22.5446C28.5963 22.5446 28.749 22.5187 28.9741 22.384C29.013 22.4798 29.0054 22.5888 29.0701 22.6274C29.1347 22.666 29.2228 22.731 29.2358 22.7931C29.3056 22.6895 29.4143 22.5574 29.4481 22.4591C29.4221 22.6639 29.404 23.5594 29.4993 24.0151C29.6988 23.997 29.9032 23.984 30.043 23.6241C29.9473 23.9764 29.9473 24.1885 30.012 24.4889C30.1181 24.4165 30.2139 24.287 30.2139 24.287L30.2145 24.2875Z" fill="#C0993A"/>
<path fill-rule="evenodd" clip-rule="evenodd" d="M23.4879 10.0168C23.4879 10.0168 23.2885 10.0996 22.9494 10.0996C22.6543 10.0996 22.7371 9.98578 22.2763 9.98578C21.567 9.98578 19.0893 10.3954 18.6542 10.3896C18.372 10.3845 19.6069 10.5113 19.6069 10.5113L22.763 10.5553L23.3972 10.5041L23.6329 10.0245L23.4879 10.0168Z" fill="#A88F33"/>
<path fill-rule="evenodd" clip-rule="evenodd" d="M15.3039 16.1865C15.3039 16.1865 14.9 16.4945 14.7291 16.7302C14.5583 16.9659 14.4677 17.121 14.2734 17.3127C14.319 17.3144 14.3646 17.3083 14.4081 17.2946C14.4081 17.2946 14.4081 17.3458 14.377 17.3593C14.4039 17.3563 14.431 17.3593 14.4566 17.3682C14.4821 17.377 14.5053 17.3915 14.5245 17.4105C14.4675 17.4415 14.3122 17.597 14.4339 17.7808C14.5245 17.9206 14.7161 17.9334 14.7161 17.9334C14.7161 17.9334 14.6721 18.0604 14.8559 18.0474C15.252 18.0293 15.6947 17.8557 15.8992 17.8998C16.104 17.951 16.2204 17.9697 16.3653 18.221C16.5189 18.4695 16.6527 18.5084 16.6527 18.5084C16.6527 18.5084 16.7433 18.2778 16.7227 17.9336C16.797 17.748 16.8382 17.5509 16.8444 17.3511L16.7097 16.3595L16.1221 15.6164L15.3609 16.0385L15.3039 16.1859V16.1865Z" fill="#E3C571"/>
<path fill-rule="evenodd" clip-rule="evenodd" d="M16.0254 16.0388C16.0254 16.0388 16.0824 16.1735 16.3206 16.1863C16.2947 16.2433 16.2947 16.2511 16.3026 16.295C16.3077 16.339 16.3154 16.4037 16.3154 16.4037C16.3416 16.391 16.3653 16.3737 16.3853 16.3525C16.3983 16.4095 16.3724 16.5 16.3853 16.5648C16.3933 16.6043 16.4063 16.6425 16.4241 16.6787C16.4278 16.6698 16.4322 16.6612 16.437 16.6529C16.4422 16.6399 16.4882 16.7927 16.6157 16.9089C16.6156 16.891 16.62 16.8734 16.6285 16.8577C16.6305 16.8902 16.6412 16.9215 16.6596 16.9483C16.65 16.9438 16.6413 16.9377 16.6338 16.9302C16.6338 16.9302 16.6466 17.3398 16.7166 17.5516C16.7283 17.5379 16.7387 17.5232 16.7477 17.5076C16.7477 17.4948 16.7425 17.6216 16.7296 17.7124C16.7115 17.803 16.7244 17.9298 16.7244 17.9298C16.7711 17.8931 16.8224 17.8626 16.877 17.8392C16.9547 17.808 17.0818 17.7122 17.1593 17.4999C17.2042 17.3797 17.2389 17.2558 17.2629 17.1297C17.2879 17.1779 17.3052 17.2298 17.3141 17.2833C17.3194 17.348 17.4411 17.3144 17.4411 17.3144L17.467 17.0321L17.6206 16.3926L17.7604 15.9965L18.4335 14.9481L19.6497 14.0115L20.7112 14.2549L21.6069 13.038L20.0639 12.1111L18.6037 12.2639L17.2784 14.0994L16.217 15.7642L16.0254 16.0387V16.0388Z" fill="#D8B65B"/>
<path fill-rule="evenodd" clip-rule="evenodd" d="M23.6734 13.3826C23.6734 13.3826 23.5828 13.4007 23.3213 13.5362C23.0599 13.6717 22.8786 13.7147 22.7776 13.914C22.6766 14.1134 22.6689 14.2714 22.6689 14.2714C22.6689 14.2714 22.8476 14.1937 22.9512 14.1678C23.0599 14.142 23.1816 14.1497 23.1686 14.1937C23.1561 14.2239 23.1388 14.2519 23.1174 14.2765C23.1174 14.2765 23.3222 14.2714 23.3167 14.3724C23.3113 14.4735 23.278 14.5847 23.2392 14.6339C23.2003 14.6851 23.0399 14.7609 23.0218 14.8204C22.9778 14.9421 23.0399 14.9472 23.0165 15.0455C22.9984 15.1415 22.9131 15.3278 22.6334 15.654C22.346 15.9803 22.2238 16.2107 22.2238 16.2107C22.2238 16.2107 22.084 15.9492 22.0115 15.7239C21.9603 15.7497 21.6853 15.9025 21.6853 15.9025L21.0484 13.6838L21.0612 13.5362C21.0612 13.5362 21.1182 13.4664 21.1312 13.3368C21.0354 13.3058 21.0225 13.2798 20.8955 13.1583C20.7685 13.0368 20.6651 12.889 20.4529 12.788C20.4219 12.731 20.383 12.6535 20.2277 12.6222C20.0724 12.591 19.9792 12.5654 19.9792 12.5654C19.9792 12.5654 20.0619 12.5342 20.1009 12.4695C20.0049 12.4825 19.9275 12.5135 19.7177 12.5084C19.5054 12.5031 19.482 12.4954 19.3656 12.5135C19.2492 12.5316 19.1096 12.5835 19.0576 12.4048C19.0006 12.3608 18.8789 12.3997 18.7753 12.5523C18.6717 12.7049 18.6355 12.8267 18.4362 12.8863C18.4222 12.9741 18.3914 13.0585 18.3455 13.1348C18.2885 13.2307 18.1979 13.3264 18.0762 13.4688C17.8846 13.694 17.9156 14.0642 17.6101 14.3465C17.3021 14.6286 17.6613 13.5645 17.6613 13.5645L18.1532 12.3869L19.5539 11.0173L21.7287 10.8698L21.941 11.9962L23.0025 12.3613L23.6731 13.3839L23.6734 13.3826Z" fill="#D3AE4D"/>
<path fill-rule="evenodd" clip-rule="evenodd" d="M24.0181 13.6311L23.1042 12.3133L22.4647 11.8213C22.4647 11.8213 22.0091 10.9826 21.978 10.9567C21.9521 10.9386 21.5223 10.892 21.2479 10.8739L21.2991 11.0007C21.359 11.0202 21.4122 11.0561 21.4527 11.1043C21.5744 11.2441 21.652 11.5081 21.375 11.7904C21.4837 11.8292 21.5286 11.8416 21.6235 11.8292C21.5278 11.9432 21.3104 12.1865 21.2974 12.3988C21.2844 12.5722 21.3931 12.6239 21.3931 12.6239C21.3931 12.6239 21.2274 12.8156 21.2197 13.1359C21.298 13.0477 21.3836 12.9663 21.4757 12.8926C21.6674 12.739 21.9314 12.5663 22.1101 12.4575C22.1077 12.5032 22.1138 12.5488 22.1282 12.5922C22.1282 12.5922 22.462 12.3178 22.7426 12.4395C22.8694 12.4965 22.8124 12.6751 22.8124 12.6751C22.8124 12.6751 22.986 12.6105 23.1076 12.7322C23.2293 12.8538 23.4027 13.167 23.4908 13.2889C23.5295 13.3459 23.6306 13.4546 23.734 13.6227C23.8753 13.8583 23.9933 14.1072 24.0862 14.3658C24.0914 14.2622 24.1122 14.1173 24.291 14.1173L24.0192 13.6305L24.0181 13.6311Z" fill="#CAA13E"/>
<path fill-rule="evenodd" clip-rule="evenodd" d="M10.3168 17.3748C10.3168 17.3748 10.2522 17.2142 10.3168 16.901C10.3815 16.5879 10.4826 16.4402 10.5162 15.9794C10.5498 15.5186 10.8502 14.9438 10.8502 14.9438L11.6811 14.566L12.2689 14.7264L12.4423 15.5135L11.6992 15.9231C11.6992 15.9231 11.6605 16.0965 11.4507 16.2363C11.241 16.3761 10.951 16.4848 10.8812 16.6273C10.8395 16.7146 10.809 16.8068 10.7906 16.9017C10.7906 16.9017 10.5783 16.8577 10.4515 16.9975C10.3168 17.14 10.322 17.2668 10.3168 17.3755V17.3748Z" fill="#F4EFC8"/>
<path fill-rule="evenodd" clip-rule="evenodd" d="M11.9951 17.1651C11.9951 17.1651 11.9252 17.2091 11.8735 17.3187C11.8223 17.2359 11.6999 16.7439 11.6948 16.3012C11.6897 15.8584 11.6632 15.7487 11.7656 15.5961C11.868 15.4436 12.2696 15.2828 12.2126 15.008C12.1556 14.7466 11.9173 14.6378 11.6248 14.7129C11.42 14.7641 11.2676 15.1997 11.0553 15.4171C10.8947 15.5828 10.7032 15.5569 10.6515 15.6475C10.5815 15.7692 10.6462 15.8909 10.6255 15.9685C10.6203 15.9945 10.5556 16.1342 10.439 16.3025C10.2035 16.6416 9.80481 17.1207 9.75293 17.5504C9.77102 17.3071 9.75822 17.3019 9.8229 17.0326L9.78399 16.968L10.04 16.1291L10.2057 15.4379L10.5761 14.2805L11.2283 13.0974L11.8627 12.3879L12.5228 12.432L12.6005 13.4235L12.9785 15.2852L13.7733 16.2638L12.4995 17.121L11.9946 17.1651H11.9951Z" fill="#EBCC73"/>
<path fill-rule="evenodd" clip-rule="evenodd" d="M12.3908 17.5168C12.3908 17.5168 12.2821 17.5428 12.2432 17.5221C12.2043 17.5015 12.1657 17.4781 12.1785 17.4521C12.1913 17.4262 12.2613 17.3823 12.2613 17.3615C12.2628 17.3427 12.2568 17.3241 12.2447 17.3096C12.2326 17.2951 12.2154 17.2858 12.1966 17.2839C12.1371 17.2762 12.119 17.3149 12.119 17.3149C12.119 17.3149 12.062 17.2711 12.0156 17.2637C12.043 17.2604 12.0707 17.2586 12.0983 17.2584C12.0268 17.226 11.9509 17.2042 11.873 17.1937C11.9377 17.155 12.0647 17.041 12.1475 17.041C12.2303 17.041 12.2821 17.0282 12.2692 16.9842C12.2562 16.9401 12.1915 16.8754 12.1217 16.8495C12.1475 16.8184 12.1657 16.7719 12.1036 16.6447C12.0388 16.5179 12.0647 16.4324 12.0855 16.4015C12.1036 16.3626 12.1683 16.2928 12.1994 16.2488C12.2304 16.2047 12.2564 16.1452 12.3081 16.1141C12.334 16.096 12.4168 16.0629 12.4997 16.0313C12.5904 16.0003 12.6655 15.9614 12.7172 16.0003C12.7742 16.039 12.7482 16.0909 12.7482 16.0909C12.7482 16.0909 12.9269 16.026 13.0873 16.109C13.2479 16.1865 13.6389 16.2358 13.6389 16.2358L13.7791 16.5181L12.8522 17.3129L12.469 17.5045L12.3914 17.5173L12.3908 17.5168Z" fill="#E5C66B"/>
<path fill-rule="evenodd" clip-rule="evenodd" d="M13.6774 16.2175C13.6774 16.2175 13.39 16.4092 13.3253 16.479C13.3641 16.4843 13.4288 16.5102 13.4028 16.5489C13.3718 16.5877 13.1854 16.7223 13.0818 16.8493C12.9731 16.9761 12.8695 17.1367 12.8333 17.2144C12.7946 17.2842 12.4993 17.4888 12.3984 17.5146C12.6107 17.5146 13.0379 17.2531 13.1984 17.2531C13.1932 17.3308 13.2424 17.4188 13.333 17.4265C13.4236 17.4342 13.6851 17.4835 14.0372 17.2661C14.3893 17.0538 14.2729 16.8957 14.4203 16.7923C14.7026 16.6058 14.8164 16.4401 14.9718 16.3366C15.1271 16.2332 15.2074 16.2097 15.2074 16.2097C15.2074 16.2097 15.2126 16.132 15.2586 16.1399C15.2713 16.1413 15.2832 16.1462 15.2933 16.1539C15.3033 16.1617 15.3111 16.1721 15.3156 16.1839C15.3156 16.1839 15.585 15.9922 15.93 15.9405C15.922 15.9369 15.9156 15.9305 15.912 15.9224C15.912 15.9224 15.9377 15.9095 15.943 15.8965C15.943 15.8965 15.9611 15.8705 15.9741 15.8835C15.987 15.8965 16.0051 15.9922 16.0311 16.0311C16.0881 16.0052 16.1968 15.7618 16.1968 15.7618L16.4584 15.0136V14.3301L16.2536 14.369L14.7176 15.0213L13.7854 15.9871L13.6767 16.2175H13.6774Z" fill="#E6BD62"/>
<path fill-rule="evenodd" clip-rule="evenodd" d="M18.0999 12.8648C18.1829 12.8446 18.2626 12.8123 18.3362 12.7688C18.3052 12.8518 18.3052 12.9424 18.1705 13.1392C18.0359 13.336 18.0307 13.3645 17.922 13.5689C17.8133 13.7812 17.8003 14.0867 17.6967 14.2212C17.7432 14.1987 17.793 14.1838 17.8442 14.1774C17.8442 14.1774 17.7408 14.268 17.6967 14.3637C17.6527 14.4595 17.5751 14.6588 17.3836 14.7807C17.1921 14.9025 16.9485 14.98 16.6871 15.2674C16.4255 15.5495 16.1563 15.9069 16.0215 16.0354C16.0915 15.9137 16.1872 15.6703 16.2131 15.5099C16.2391 15.3495 16.2079 15.1577 16.2519 14.9455C16.2959 14.7334 16.2959 14.5805 16.5079 14.2101C16.7199 13.8398 17.0827 12.5531 17.0827 12.5531L17.8645 12.3046L18.1002 12.8639L18.0999 12.8648Z" fill="#B6933F"/>
<path fill-rule="evenodd" clip-rule="evenodd" d="M17.5354 12.391C17.5354 12.391 17.2999 12.7301 17.2352 13.0305C17.1706 13.3309 17.2299 13.3049 17.1912 13.4525C17.168 13.5426 17.168 13.637 17.1912 13.727C17.2728 13.5956 17.3845 13.4855 17.517 13.4058C17.7397 13.2713 17.921 13.1754 18.029 13.0616C18.1377 12.9399 18.2283 12.7405 18.4639 12.5878C18.3681 12.5748 18.2335 12.5308 18.2079 12.5366C18.3038 12.4279 18.591 12.2621 18.881 12.0628C19.1684 11.858 19.1503 11.7754 19.6164 11.5709C19.4636 11.5969 19.3911 11.558 19.2641 11.5709C19.3153 11.4622 19.4945 11.4104 19.6737 11.2318C19.8529 11.0533 19.5599 10.7891 19.5599 10.7891L18.1946 11.615L17.5344 12.3917L17.5354 12.391Z" fill="#C49937"/>
<path fill-rule="evenodd" clip-rule="evenodd" d="M13.8301 11.7747L13.8611 11.5262L14.2521 10.8997L14.6612 9.79943V8.29518L14.6302 7.42529L14.6948 6.8556L14.744 6.67453L14.7959 6.60455L15.1297 6.77795L15.5907 7.40447L15.6347 8.61364L15.1867 10.5217L13.9077 11.9172L13.8301 11.7747Z" fill="#DFC068"/>
<path fill-rule="evenodd" clip-rule="evenodd" d="M14.848 6.53458C14.848 6.53458 14.6432 6.53988 14.5995 7.39167C14.5558 8.24347 14.5346 8.6913 14.5036 9.11336C14.4725 9.53542 14.4001 9.79159 14.3638 10.0402C14.3274 10.2889 14.3068 10.6279 14.1904 10.835C14.1392 10.9308 14.0298 11.2312 13.7734 11.4564C13.486 11.7049 13.0566 11.8785 12.9916 11.8915C12.8776 11.9172 12.3002 11.9742 12.0647 12.1038C11.982 12.1478 11.8394 12.1995 11.6816 12.3471C11.3682 12.6293 10.9515 13.1341 10.6511 13.7425C10.1903 14.6513 9.72949 17.217 9.72949 17.217L9.83309 17.0436C9.83309 17.0436 9.84606 16.8132 10.0765 16.4092C10.3017 16.0054 10.2371 15.5523 10.5502 14.7781C10.6719 14.483 10.8247 14.0999 11.011 13.7736C11.3063 13.2428 11.6635 12.7871 12.0234 12.5386C12.611 12.1348 13.2584 12.0468 13.2584 12.0468L13.9549 11.586C13.9549 11.586 14.0765 11.3505 14.2371 11.0811C14.4623 10.7033 14.7491 10.2812 14.8118 9.66768C14.9077 8.75888 14.6771 8.16343 14.6901 7.62497C14.7031 7.08652 14.7082 6.6904 14.8171 6.59449C14.926 6.49857 14.8481 6.53493 14.8481 6.53493L14.848 6.53458Z" fill="#A88F33"/>
<path fill-rule="evenodd" clip-rule="evenodd" d="M14.848 10.5993C14.848 10.5993 15.1552 9.84327 15.2958 9.17272C15.3218 9.03807 15.3735 8.90358 15.3864 8.79487C15.4511 8.1605 15.4692 7.89904 15.3864 7.55207C15.3218 7.29607 15.0733 7.06533 14.9437 6.88647C14.8169 6.69993 14.7574 6.63047 14.7833 6.59122C14.8093 6.55196 14.9101 6.48779 15.0084 6.49547C15.1129 6.49852 15.2157 6.52278 15.3105 6.56679C15.4054 6.6108 15.4902 6.67363 15.56 6.75147C15.7594 6.98187 15.9172 7.76387 15.9172 7.76387L16.0833 8.79572L16.5053 10.0953L14.8483 10.6003L14.848 10.5993Z" fill="#C99E3D"/>
<path fill-rule="evenodd" clip-rule="evenodd" d="M17.7345 9.81238C17.7345 9.81238 17.6775 9.83815 17.5741 9.81238C17.5785 9.85465 17.5712 9.89731 17.5529 9.93567C17.5346 9.97404 17.5061 10.0066 17.4705 10.0298C17.3618 9.98578 16.3441 10.0738 16.3441 10.0738C16.3441 10.0738 15.8703 9.9909 15.7227 9.36438C15.6193 8.94745 15.8004 8.37281 15.7408 7.99478C15.6502 7.43807 15.5234 7.32918 15.5104 7.15596C15.4974 6.98273 15.4845 6.93853 15.4845 6.82981C15.4275 6.81684 15.3938 6.79875 15.337 6.79875C15.324 6.74755 15.3498 6.70284 15.293 6.61221C15.324 6.62518 15.5363 6.65113 15.7848 6.88665C15.9896 7.0783 15.9896 7.14811 16.0205 7.18702C16.0593 7.22576 16.3726 7.49422 16.5073 7.76182C16.6419 8.02943 16.9034 8.88276 16.9629 9.02254C16.981 9.07954 17.0199 9.13654 17.1165 9.26591C17.2667 9.45245 17.4867 9.76084 17.7352 9.81204L17.7345 9.81238Z" fill="#B58634"/>
<path fill-rule="evenodd" clip-rule="evenodd" d="M16.0566 7.20001C16.2135 7.45337 16.3544 7.71625 16.4785 7.98713C16.6313 8.33136 16.7219 8.61364 16.9136 8.84404C16.81 8.54384 16.6262 7.95351 16.5174 7.74376C16.3958 7.52189 16.1473 7.28296 16.0566 7.20018V7.20001Z" fill="#A88F33"/>
<path fill-rule="evenodd" clip-rule="evenodd" d="M14.2969 11.4564C14.2969 11.4564 14.0354 11.5211 13.5487 11.7775C13.3881 11.8602 13.2355 11.93 13.0879 11.9949C12.7044 12.1683 12.2931 12.3285 11.9668 12.417C11.9927 12.448 12.0055 12.4608 12.0055 12.4608C12.0055 12.4608 12.0055 12.5878 12.0755 12.6602C12.0368 12.6991 11.5188 13.0511 11.6717 14.2291C11.7751 14.1903 11.8968 14.1385 11.9149 14.1385C11.9461 14.1438 11.9538 14.2291 11.9926 14.2291C12.0313 14.2291 12.1583 14.1779 12.2929 14.0038C12.2878 14.0738 12.2102 14.778 12.6269 15.2517C12.7046 15.1611 12.9014 14.8607 12.9014 14.8607L12.9065 14.765C12.9065 14.765 12.9246 14.431 13.0335 14.1255C13.1423 13.82 13.3545 13.5947 13.3545 13.5947L14.4623 12.0128L14.2966 11.4563L14.2969 11.4564Z" fill="#E6C367"/>
<path fill-rule="evenodd" clip-rule="evenodd" d="M13.2607 13.7792C13.2099 13.815 13.1541 13.843 13.0949 13.862C13.0769 13.7973 13.0509 13.5746 13.2037 13.3571C13.3823 13.0955 13.7732 12.7564 13.8819 12.4867C13.9519 12.3132 13.9208 11.8783 14.5422 11.3216C15.1636 10.7649 15.4068 10.5734 15.4068 10.5734L16.4113 10.0686L17.6463 10.5553L17.0327 12.96L16.5564 14.0864L14.662 13.7292L13.2605 13.7792H13.2607Z" fill="#DCBA5A"/>
<path fill-rule="evenodd" clip-rule="evenodd" d="M13.9844 13.1262L14.2201 12.8311V12.6214C14.2201 12.6214 14.4815 12.5514 14.7636 12.264C15.0458 11.9766 15.4367 11.4252 15.7812 11.4588C16.1256 11.4977 16.1592 12.207 16.1722 12.4065C16.1851 12.606 16.2292 13.0588 16.299 13.3023C16.3766 13.5457 15.4601 14.4673 15.4601 14.4673L14.8377 14.9411L13.9844 13.1262Z" fill="#E9CE77"/>
<path fill-rule="evenodd" clip-rule="evenodd" d="M14.7129 15.5831C14.7129 15.5831 14.9045 15.2828 14.7641 15.2181C14.8469 15.0317 14.9996 14.8349 14.9996 14.8349C14.9996 14.8349 15.1083 14.5658 15.4604 14.2344C15.8125 13.9029 16.0301 13.6828 16.0871 13.4602C16.1222 13.3152 16.1414 13.1667 16.1441 13.0175C16.1822 13.0486 16.2229 13.0763 16.2658 13.1003C16.3228 13.1262 16.5919 13.3488 16.5532 13.7968C16.5144 14.2448 16.3484 14.4311 16.3484 14.4311C16.3484 14.4311 16.188 14.5916 16.0741 14.6745C15.9523 14.7573 15.9084 14.853 15.7038 14.8609C15.7248 14.8442 15.7485 14.831 15.7738 14.822C15.7738 14.822 15.5614 14.7962 15.4474 14.8996C15.3334 15.0031 15.0911 15.3217 14.9694 15.4176C14.8477 15.4953 14.7134 15.5833 14.7134 15.5833L14.7129 15.5831Z" fill="#CDAE50"/>
<path fill-rule="evenodd" clip-rule="evenodd" d="M23.3212 10.5475C23.0154 10.436 22.6939 10.3731 22.3686 10.3611C21.8248 10.343 21.03 10.3741 20.2508 10.3792C19.4119 10.3843 18.6508 10.0918 17.5945 10.0401C17.4211 9.93647 16.9801 9.48335 15.6035 10.4439C15.6863 10.4387 16.6029 10.2316 16.9212 10.6304C17.2423 11.0265 17.1516 11.6996 17.1078 11.8601C17.0248 12.2174 16.7555 12.7378 16.647 13.1028C16.5384 13.4679 16.564 13.6597 16.4864 13.9157C16.4087 14.1717 16.2379 14.2989 16.3387 14.594C16.4734 14.5112 16.5435 14.5112 16.7685 14.0064C16.9934 13.5015 16.9472 13.1416 17.3201 12.7144C17.6851 12.2847 18.2929 11.6969 18.524 11.5493C18.755 11.4016 20.5899 10.449 22.5111 11.3578C22.9744 11.3086 23.3214 10.5473 23.3214 10.5473L23.3212 10.5475Z" fill="#D2A83E"/>
<path fill-rule="evenodd" clip-rule="evenodd" d="M16.3783 10.1952C16.3764 10.1757 16.3721 10.1566 16.3655 10.1382C16.3475 10.1003 16.3239 10.0654 16.2955 10.0346C16.2955 10.0346 15.8398 9.95183 15.6094 9.9776C15.2054 10.0216 14.8404 10.5213 14.6695 10.7777C14.4987 11.034 14.2864 11.43 14.056 11.6346C14.0585 11.6147 14.0539 11.5945 14.043 11.5776C14.043 11.5776 14.056 11.5957 14.0302 11.6216C14.0045 11.6476 14.0043 11.6604 14.0173 11.6728L14.0562 11.7116C14.069 11.7116 14.4263 11.551 14.9131 11.0972C15.4309 10.6234 15.827 10.3804 16.0342 10.2971C16.1447 10.2501 16.2602 10.2159 16.3784 10.1952H16.3783Z" fill="#C29637"/>
<path fill-rule="evenodd" clip-rule="evenodd" d="M25.2167 8.24857C25.2167 8.24857 25.1338 8.35199 25.0302 8.46599C24.7998 8.70937 24.4994 8.98363 24.2431 9.26591C23.9999 9.53522 23.7254 9.74497 23.4172 10.0971C23.109 10.4491 22.7516 10.84 22.6612 10.954C22.5784 11.068 22.5137 11.2543 22.5137 11.3501C22.4697 11.319 22.418 11.2854 22.418 11.2854C22.4397 11.3261 22.4658 11.3643 22.4956 11.3994C22.5603 11.49 22.6612 11.6042 22.7131 11.6738C22.7767 11.7625 22.8224 11.8627 22.8475 11.9689C22.8786 11.974 23.0779 12.013 23.3266 11.6039C23.5753 11.1948 23.9012 10.747 23.9012 10.747L24.419 9.97793L24.7454 9.32564L25.155 8.59553L25.2172 8.24857H25.2167Z" fill="#AC8132"/>
<path fill-rule="evenodd" clip-rule="evenodd" d="M25.7479 7.72565C25.7479 7.72565 25.4346 7.98165 25.3129 8.13525C25.1912 8.28885 24.9033 8.69196 24.9033 8.69196L25.0069 8.67899L25.5326 8.21307L25.7374 7.84801L25.7478 7.72633L25.7479 7.72565Z" fill="#A88F33"/>
<path fill-rule="evenodd" clip-rule="evenodd" d="M25.6518 28.3004C25.6518 28.3004 25.6466 28.0881 25.7658 27.9613C25.8874 27.8343 26.1955 27.6479 26.4959 26.9489C26.7962 26.2498 26.8297 26.0919 26.8297 26.0919C26.8297 26.0919 26.2912 26.5527 25.9593 26.6615C26.037 26.5009 26.081 26.387 26.1199 26.3041C26.0759 26.2653 25.8895 26.2213 25.8714 26.2007C25.9748 26.0971 26.0318 25.8433 26.2416 25.675C26.5109 25.4702 27.0028 25.1183 27.385 24.8046C27.7673 24.4909 28.519 23.7613 28.6149 23.549C28.6719 23.6318 28.6847 23.6835 28.6847 23.6835C28.6847 23.6835 28.3068 24.1755 28.11 24.4887C27.9365 24.758 27.9494 24.9108 27.9494 24.9108L28.3068 24.7572C28.3068 24.7572 28.4102 25.1403 27.9418 25.723C28.1466 25.6453 28.2292 25.6919 28.3456 25.627C28.1539 25.7489 27.8899 25.9146 27.6414 26.3701C27.398 26.8258 27.0666 27.3566 26.5075 27.6878C25.9637 28.0374 25.6504 28.2988 25.6504 28.2988L25.6518 28.3004Z" fill="#A67A2E"/>
<path fill-rule="evenodd" clip-rule="evenodd" d="M24.2489 10.8169C24.2489 10.8169 24.0366 11.2595 24.0055 11.6039C24.0004 11.6868 23.9796 11.7515 23.9796 11.8473C23.9745 12.1553 23.9977 12.4997 23.9284 12.6601C23.9024 12.5955 23.8895 12.5514 23.8635 12.5257C23.8248 12.6344 23.7548 12.9735 23.6978 13.1003C23.672 13.0175 23.615 12.7301 23.6203 12.391C23.6256 12.0519 23.6331 11.987 23.6331 11.9172C23.6203 12.0207 23.5504 12.1606 23.5244 12.2434C23.4857 12.1736 23.4416 12.0829 23.3898 12.0079C23.3587 12.0591 23.32 12.1347 23.2863 12.1736C23.281 12.1425 23.2682 12.0596 23.2604 11.9432C23.2553 11.8085 23.2474 11.6351 23.2553 11.5988C23.2681 11.529 23.377 11.2545 23.6074 11.0033C23.8818 10.7029 24.1641 10.1257 24.2469 9.94705C24.3296 9.76836 24.6817 9.02545 24.6817 9.02545H24.951L24.56 9.91599C24.56 9.91599 24.3245 10.4027 24.2028 10.5816C24.0811 10.7604 23.8248 11.273 23.7108 11.4723C23.7936 11.3636 23.8635 11.3066 23.9465 11.203C24.0267 11.1305 24.2492 10.8173 24.2492 10.8173L24.2489 10.8169Z" fill="#8C6228"/>
<path fill-rule="evenodd" clip-rule="evenodd" d="M25.7531 7.69186C25.7091 7.82726 25.6396 7.95297 25.5483 8.06221C25.3877 8.25387 25.0433 8.51004 24.8752 8.7145C24.7216 8.91384 24.4144 9.45758 24.554 10.1022C24.6052 9.96241 24.7016 9.68542 24.958 9.37208C25.2143 9.05873 25.4888 8.69897 25.6236 8.41942C25.7581 8.13713 25.7762 7.91458 25.7762 7.91458L25.8274 7.8499L25.7963 7.70227L25.7523 7.69186H25.7531Z" fill="#CBA94C"/>
<path fill-rule="evenodd" clip-rule="evenodd" d="M30.996 24.8647C30.996 24.8647 30.8924 24.5826 30.8613 24.3262C30.8303 24.0699 30.9125 24.019 30.8173 23.7256C30.7603 23.547 30.6569 23.572 30.6309 23.547C30.605 23.5219 30.5869 23.2519 30.592 23.1042C30.5971 22.9566 30.5869 22.7651 30.561 22.6822C30.5222 22.6511 30.4963 22.6252 30.4393 22.4337C30.3746 22.242 30.3435 22.1463 30.3125 22.0895C30.2814 22.0326 30.1906 21.9807 30.1906 21.9237C30.1906 21.8097 30.2942 21.7503 30.2942 21.7189C30.2891 21.6543 30.2114 21.7061 30.1906 21.6879C30.1648 21.6568 30.2555 21.4705 30.2218 21.4445C30.2089 21.4317 30.1182 21.5404 30.0949 21.5094C30.0689 21.4781 30.0379 21.1701 29.9913 20.9656C29.9474 20.7663 29.9006 20.6214 29.8955 20.5618C29.8904 20.5048 29.5382 19.5003 29.4528 19.2569C29.384 19.0513 29.3262 18.8421 29.2794 18.6304C29.2535 18.5087 29.2354 18.26 29.2224 18.286C29.2094 18.3119 29.2173 18.4387 29.1965 18.4336C29.1784 18.4283 29.1137 17.9858 29.0931 17.9158C29.075 17.8458 28.9661 17.6086 28.9395 17.4369C28.9135 17.2633 28.8567 16.8102 28.8178 16.5022C28.7789 16.1941 28.7608 16.0673 28.7608 15.9902C28.7671 15.8015 28.7567 15.6126 28.7297 15.4258C28.6785 15.0995 28.5761 14.7033 28.4863 14.4731C28.3129 14.0381 27.852 12.9248 27.7695 12.6478C27.7695 12.5779 27.8602 12.6168 27.8602 12.6168C27.8602 12.6168 28.0853 13.1812 28.251 13.616C28.4116 14.0511 28.5643 14.4342 28.6032 14.4731C28.6343 14.5119 28.8777 14.939 28.9864 15.6381C29.0951 16.3371 29.1338 16.9817 29.1987 17.4115C29.2298 17.6163 29.2557 17.8335 29.3204 18.051C29.3902 18.2867 29.4989 18.53 29.6414 18.9028C29.7631 19.2161 29.8537 19.4776 29.9029 19.7029C29.9599 19.9903 29.9599 20.2077 29.9935 20.3502C30.0247 20.4719 30.0711 20.7151 30.18 21.067C30.2889 21.4189 30.4492 21.8722 30.5579 22.1543C30.7704 22.7187 30.8651 23.1899 30.8972 23.4411C30.9255 23.7 31.0214 24.5959 30.9955 24.865L30.996 24.8647Z" fill="#A88F33"/>
<path fill-rule="evenodd" clip-rule="evenodd" d="M25.7658 7.66079L25.7528 7.69185C25.7528 7.69185 25.7916 7.70482 25.7839 7.75671C25.7844 7.82769 25.7801 7.89863 25.7709 7.96902C25.7581 8.05964 25.7322 8.12944 25.727 8.18645C25.727 8.30813 25.7451 8.44791 25.5734 8.79487C25.5222 8.89062 25.4907 8.97339 25.4647 9.03039C25.4 9.17017 25.3871 9.19099 25.3301 9.25567C25.4207 9.20447 25.747 8.99967 25.9126 9.03039C25.7987 9.09508 25.6252 9.22205 25.5164 9.38777C25.5424 9.39289 25.6511 9.41371 25.8236 9.38777C26.111 9.34374 26.4321 9.24014 26.7142 9.26079C27.0224 9.27888 26.9007 8.89062 26.9007 8.89062L26.5451 8.10879L25.8719 7.63519L25.7658 7.66096V7.66079Z" fill="#BE9C44"/>
<path fill-rule="evenodd" clip-rule="evenodd" d="M27.5213 13.5172C27.5213 13.5172 27.2209 13.2169 27.0992 12.186C26.9776 11.1504 27.0035 9.62603 27.0035 9.62603L26.7601 9.03058C26.7601 9.03058 26.7089 8.63446 26.5814 8.48701C26.454 8.33955 26.2036 8.09089 26.0896 7.9692C25.9756 7.84752 25.8462 7.6818 25.7686 7.65586C25.8073 7.59118 25.9809 7.22612 26.6461 7.221C27.3114 7.21588 27.5165 7.58606 27.586 7.72071C27.6554 7.85537 27.9691 8.43751 28.0855 9.54685C28.1942 10.6548 28.1995 10.7378 28.1814 11.1209C28.1685 11.3332 28.0985 11.8251 27.9766 12.3506C27.8654 12.796 27.7437 13.2931 27.521 13.5183L27.5213 13.5172Z" fill="#A17C34"/>
<path fill-rule="evenodd" clip-rule="evenodd" d="M26.5792 14.4001C26.6793 14.4073 26.7793 14.3847 26.8666 14.3352C26.9624 14.3301 27.3093 14.3741 27.5759 14.035C27.594 14.1125 27.6408 14.3224 27.5189 14.5088C27.5838 14.444 27.6795 14.4182 27.6925 14.4001C27.6976 14.4958 27.7882 14.7909 27.4051 15.5081C27.5085 15.3942 27.6302 15.3993 27.7389 15.3864C27.7442 15.521 27.8166 15.974 27.6251 16.2175C27.4983 16.3832 27.2911 16.3314 27.2911 16.3314C27.2941 16.2952 27.2941 16.2588 27.2911 16.2226C27.286 16.1527 27.26 16.0829 27.2783 16.0363C27.1782 15.9905 27.087 15.9274 27.009 15.8497C26.7837 15.6374 26.4912 15.2751 26.4705 15.0058C26.4446 14.7054 26.7139 14.6407 26.7139 14.6407C26.6913 14.6205 26.6721 14.5969 26.6569 14.5708C26.6439 14.5269 26.6309 14.4569 26.5792 14.4001Z" fill="#8C6228"/>
<path fill-rule="evenodd" clip-rule="evenodd" d="M24.5828 11.1431C24.5828 11.1431 24.5698 11.125 24.5 11.2078C24.513 11.125 24.5259 11.0472 24.5311 10.9721C24.5641 10.9026 24.6069 10.8381 24.658 10.7806C24.6191 10.8581 24.5932 10.9281 24.5932 10.9281C24.5932 10.9281 24.6891 10.7494 24.8289 10.6407C24.9246 10.563 25.0463 10.5268 25.098 10.4543C25.155 10.3766 25.142 10.3637 25.155 10.3507C25.155 10.3507 25.282 10.2679 25.4762 10.0244C25.502 9.99332 25.5409 9.9597 25.5668 9.92863C25.6107 9.91054 25.7143 9.86395 25.836 9.80166C25.963 9.73186 26.1053 9.63611 26.1934 9.59686C26.3668 9.51921 26.5507 9.52706 26.6361 9.4052C26.7007 9.38711 26.7705 9.19289 26.7577 9.02734C26.8535 9.06609 27.3454 9.37158 27.5138 10.0396C27.6355 10.5133 27.4179 11.2435 27.3273 11.5957C27.2366 11.948 27.2238 12.2093 27.0969 12.3697C26.9363 12.5822 26.4186 12.8817 26.2917 13.03C26.1829 13.1517 25.8568 13.4597 25.8696 13.6823C25.8826 13.848 26.087 13.9383 26.1312 13.9697C26.1754 14.0011 26.1751 14.0397 26.258 14.0209C26.341 14.0021 26.3719 13.9639 26.4057 13.9639C26.4444 13.969 26.4444 13.9768 26.4625 13.9768C26.4756 13.9765 26.4887 13.9747 26.5014 13.9716C26.5014 13.9716 26.4884 14.2072 25.937 14.2788C25.8981 14.284 25.8594 14.2968 25.81 14.3047C25.8749 14.2736 25.9136 14.2736 25.9836 14.1779C25.906 14.1649 25.6832 14.152 25.6262 14.1339C25.6443 14.1028 25.7039 14.0199 25.753 13.9811C25.7971 13.9424 25.7479 13.9299 25.7092 13.9501C25.6425 13.9954 25.5785 14.0447 25.5175 14.0975C25.4528 14.1545 25.3958 14.2322 25.2922 14.3023C25.2612 14.1987 25.2663 14.0019 25.3881 13.8596C25.3569 13.8647 25.2974 13.9553 25.2405 13.9373C25.2302 13.8428 25.2364 13.7473 25.2586 13.655C25.2897 13.5384 25.458 13.3339 25.458 13.3339L26.2708 11.8814L26.4442 10.7811L24.5828 11.1428V11.1431Z" fill="#92723A"/>
<path fill-rule="evenodd" clip-rule="evenodd" d="M24.5381 11.2052C24.5381 11.2052 24.4941 11.2363 24.5821 11.2958C24.5692 11.3139 24.5381 11.3786 24.4992 11.4226C24.4553 11.4738 24.4086 11.5056 24.3905 11.5496C24.3517 11.6402 24.3207 11.7024 24.3207 11.7413C24.3207 11.7802 24.3077 12.0287 24.199 12.1891C24.1601 12.2461 24.116 12.3419 24.085 12.4065C24.0203 12.5204 23.9633 12.6113 23.9503 12.6625C23.9246 12.7532 23.9065 13.0017 23.9065 13.0017C23.9065 13.0017 23.9635 12.9317 23.9841 12.9059C23.9529 12.9706 23.9193 13.0404 23.8701 13.0923C23.9012 13.0663 23.9918 13.0017 24.1445 12.867C24.3569 12.6885 24.6883 12.3881 25.0923 12.1502C24.9704 12.1942 24.867 12.1942 24.7842 12.2072C24.8489 12.1425 25.4314 11.459 25.7369 11.3943C25.7554 11.3708 25.7646 11.3413 25.7628 11.3114L25.5012 11.2856L24.9704 11.3994L24.8929 10.9898L24.5381 11.2047V11.2052Z" fill="#B18E3E"/>
<path fill-rule="evenodd" clip-rule="evenodd" d="M25.3828 13.5353C25.3828 13.5353 25.3128 13.6051 25.2481 13.7787C25.1983 13.7267 25.1556 13.6683 25.1211 13.6051C25.0254 13.4447 24.8779 13.2401 24.5335 13.3566C24.5284 13.2479 24.5205 13.1909 24.5335 13.1133C24.5905 13.1005 24.7639 12.9607 24.9373 12.756C25.0592 12.6163 25.173 12.4557 25.2507 12.2512C25.3019 12.2123 25.3904 12.1476 25.5067 12.0725C25.6724 11.9587 25.8717 11.8032 25.9028 11.6298C25.8251 11.6609 25.6594 11.7385 25.4107 11.7257C25.5067 11.6817 25.6541 11.6351 25.636 11.4435C25.6749 11.4175 25.706 11.3994 25.706 11.3994C25.6768 11.3897 25.6461 11.3853 25.6154 11.3864C25.6101 11.3684 25.6024 11.3426 25.5584 11.3554C25.5143 11.3682 25.5072 11.3684 25.5014 11.3864C25.4833 11.3917 25.4237 11.3864 25.3797 11.4177C25.3357 11.4489 25.214 11.5522 25.1674 11.5703C25.1855 11.5392 25.2112 11.4928 25.2112 11.4928C25.2112 11.4928 25.0844 11.5056 24.9938 11.544C24.8281 11.601 24.6366 11.7046 24.4424 11.8054C24.4605 11.7744 24.4683 11.7542 24.4811 11.7484C24.4939 11.7426 24.5252 11.7356 24.5252 11.7303C24.5252 11.7251 24.5124 11.6791 24.52 11.6605C24.5781 11.5375 24.6466 11.4197 24.7248 11.3085C24.8155 11.1866 24.8335 11.0132 24.8335 11.0132L25.2297 10.8139L26.3429 10.5579L27.0654 10.6019L26.9747 11.1016L26.5481 11.9741L26.183 12.7688L25.7661 13.2558L25.3829 13.5353H25.3828Z" fill="#543E26"/>
<path fill-rule="evenodd" clip-rule="evenodd" d="M27.1874 11.3728C27.1874 11.3728 26.7524 11.9113 26.6307 11.9942C26.7084 11.8285 27.1874 10.842 27.3608 10.5676C27.3221 10.5365 27.2702 10.5365 27.3919 10.0556C27.2885 10.2988 27.2521 10.4258 27.1668 10.4905C27.0814 10.5551 27.0709 10.5345 27.0132 10.5345C27.0241 10.5148 27.0285 10.4922 27.026 10.4698C27.026 10.4698 26.6609 10.4258 26.4116 10.4258C26.1622 10.4258 25.6687 10.5604 25.3941 10.6691C25.1766 10.7598 25.0549 10.7598 24.9773 10.8166C24.8996 10.8813 24.8556 10.9513 24.8167 10.9694C24.7856 10.9874 24.6382 11.034 24.6044 11.0832C24.5733 11.1344 24.5216 11.1919 24.5216 11.2049C24.5216 11.2178 24.5086 11.2361 24.5475 11.223C24.5603 11.2178 24.6563 11.166 24.765 11.1013C24.9124 11.0185 25.0911 10.9228 25.2207 10.8658C25.5908 10.7181 25.7074 10.7441 25.8729 10.713C26.0463 10.6819 26.295 10.6094 26.4606 10.6094C26.6263 10.6043 26.9396 10.6094 27.0121 10.6224C26.9811 10.6483 26.9551 10.6794 26.9681 10.7881C26.9681 10.8192 26.9422 10.8528 26.9169 10.9279C26.8394 11.1402 26.6918 11.4923 26.6097 11.671C26.4959 11.9142 26.3665 12.1188 26.3025 12.2456C26.2385 12.3724 26.0977 12.7064 25.9583 12.8851C25.8188 13.0638 25.746 13.1725 25.7023 13.2114C25.6586 13.2503 25.3449 13.4805 25.3683 13.5635C25.4253 13.5454 25.7852 13.4099 26.0465 13.1157C26.3078 12.8214 26.3599 12.6419 26.5643 12.4813C26.7688 12.3207 26.9294 12.0515 27.0251 11.829C27.1053 11.6218 27.0872 11.5571 27.1881 11.3733L27.1874 11.3728Z" fill="#806031"/>
<path fill-rule="evenodd" clip-rule="evenodd" d="M17.8121 15.3917C17.8121 15.3917 17.7551 15.6272 17.6256 15.7438C17.4988 15.8578 17.2735 15.9561 17.2477 16.1477C17.2167 16.3392 17.473 16.4351 17.473 16.4351C17.473 16.4351 17.3331 16.6655 17.3331 16.8389C17.3331 17.0176 17.3279 17.0512 17.346 17.2221C17.3255 17.2353 17.308 17.2527 17.2948 17.2733C17.2948 17.2733 17.3076 17.439 17.4346 17.5424C17.5616 17.6458 17.6701 17.7081 17.7348 17.6822C17.7447 17.7033 17.7533 17.7249 17.7608 17.747C17.7608 17.747 17.8567 17.5037 17.9213 17.2914C17.986 17.0739 18.043 17.1048 18.0688 16.8123C18.0946 16.5198 18.376 16.0175 18.376 16.0175L18.568 15.5883L18.2548 15.3449L17.8121 15.3915V15.3917Z" fill="#B6903C"/>
<path fill-rule="evenodd" clip-rule="evenodd" d="M18.3946 15.8135C18.33 15.8798 18.2704 15.9508 18.2162 16.0258C18.1334 16.1399 18.0687 16.2433 17.9471 16.2875C17.8254 16.3317 17.7477 16.3313 17.7554 16.4532C17.7631 16.5751 17.8771 16.6266 17.9418 16.6887C18.0117 16.7534 18.0687 16.8621 18.0377 16.984C18.0764 16.9659 18.1464 16.9451 18.2111 16.8053C18.2758 16.6655 18.7282 15.8137 18.7282 15.8137H18.3946V15.8135Z" fill="#685026"/>
<path fill-rule="evenodd" clip-rule="evenodd" d="M20.1797 13.8485C20.1797 13.8485 20.2184 13.7451 20.1797 13.67C20.1407 13.5923 19.9052 13.5664 19.7887 13.4783C19.667 13.3877 19.5193 13.3247 19.3977 13.3645C19.4158 13.3204 19.4883 13.2245 19.4287 13.2039C19.3717 13.1858 19.1596 13.2815 19.1026 13.3256C19.0456 13.3696 18.916 13.4213 18.8903 13.4525C18.8645 13.4838 18.8203 13.5432 18.7944 13.5172C18.7684 13.4991 18.7556 13.4525 18.7116 13.4783C18.6675 13.5041 18.4556 13.6776 18.4165 13.7787C18.3774 13.8797 18.2895 14.105 18.0255 14.3612C17.7615 14.6173 17.6475 14.7832 17.7251 14.879C17.8028 14.9747 17.8391 14.9049 17.8521 14.9877C17.8621 15.0689 17.8577 15.1513 17.8391 15.2311C17.8081 15.3657 17.7564 15.4925 17.8262 15.5185C18.0048 15.5755 18.1784 15.4673 18.2172 15.5004C18.2948 15.5702 18.1731 15.8214 18.3569 15.8705C18.5435 15.9217 18.7273 15.8265 18.7273 15.8265L19.4055 15.4615L20.058 15.1172L20.3918 14.4569L20.2128 13.9055L20.1786 13.8485H20.1797Z" fill="#D4B968"/>
<path fill-rule="evenodd" clip-rule="evenodd" d="M19.5389 15.4253C19.5389 15.4253 19.4249 15.2519 19.5648 15.099C19.7048 14.9461 19.9039 14.8815 19.9816 14.7858C19.9668 14.7676 19.947 14.7541 19.9246 14.7471C19.9761 14.6548 20.0548 14.5807 20.1499 14.5346C20.1111 14.4958 20.0593 14.4648 20.0024 14.4648C19.8754 14.4648 19.7976 14.5424 19.6812 14.5424C19.5674 14.5424 19.5544 14.4854 19.5544 14.4854C19.5544 14.4854 19.7461 14.4673 19.7278 14.3818C19.7097 14.2912 19.6766 14.2912 19.6766 14.2912C19.6766 14.2912 20.0468 14.1376 20.1115 14.0557C20.1762 13.9738 20.1685 13.877 20.1815 13.8383C20.2253 13.8383 20.4817 13.7036 20.5853 13.7606C20.6888 13.8176 20.6163 13.9729 20.6163 13.9729C20.6163 13.9729 20.9298 13.7372 21.0896 13.5061C21.2293 13.5191 21.2944 13.4104 21.3968 13.4104C21.5237 13.4104 21.7231 13.5838 21.7618 13.954C21.7878 14.1663 21.8265 14.288 21.7878 14.6634C21.7697 14.8757 21.7748 15.329 21.839 15.554C21.8828 15.7327 21.9864 15.7146 21.9864 15.7146C21.9705 15.769 21.939 15.8176 21.8958 15.8543C21.8258 15.919 21.8181 16.09 21.8258 16.1547C21.8361 16.202 21.8491 16.2487 21.8647 16.2945C21.8647 16.2945 21.782 16.3902 21.7611 16.4551C21.7431 16.5198 21.6577 16.5638 21.5954 16.5638C21.5331 16.5638 21.5644 16.5585 21.4816 16.5638C21.3988 16.5691 21.3729 16.5819 21.321 16.5638C21.2691 16.5457 21.2304 16.5249 21.2512 16.359C21.2693 16.1933 20.6117 15.8076 20.6117 15.8076L19.5365 15.4244L19.5389 15.4253Z" fill="#CCA849"/>
<path fill-rule="evenodd" clip-rule="evenodd" d="M18.3046 17.0615C18.3046 17.0615 18.5401 17.3748 19.5084 17.3748C19.9692 17.3748 20.1298 17.3308 20.2252 17.3048C20.3288 17.2789 20.7171 17.1263 21.1081 16.6654C21.4602 16.2486 21.3825 16.0778 21.3825 16.0778L21.1777 16.0467L20.5121 16.1373L18.5426 16.9761L18.3037 17.0615H18.3046Z" fill="#585136"/>
<path fill-rule="evenodd" clip-rule="evenodd" d="M19.0263 17.1391C19.0263 17.1391 18.1875 17.3257 18.1875 16.7949C18.1875 16.2771 18.7053 15.7333 18.8348 15.6376C18.9695 15.5417 19.2905 15.4328 19.2905 15.4328H20.0647L20.2121 15.8238L20.1474 16.6677L19.0263 17.139V17.1391Z" fill="#252211"/>
<path fill-rule="evenodd" clip-rule="evenodd" d="M19.8004 15.591C19.8004 15.591 19.64 15.4434 19.2749 15.6422C18.9098 15.841 18.6146 16.2566 18.5965 16.6339C18.5784 16.9678 18.8709 17.2164 19.3266 17.2294C19.6657 17.2422 19.8704 17.2034 19.9739 17.1782C19.948 17.1471 19.8133 16.9788 19.8133 16.9788L19.8005 15.5912L19.8004 15.591Z" fill="#C3B378"/>
<path fill-rule="evenodd" clip-rule="evenodd" d="M19.6425 15.6736C19.6425 15.6736 19.6038 15.6425 19.4889 15.7047C19.3932 15.7559 19.2534 15.8912 19.1447 15.9869C19.0747 16.0439 19.0307 16.0697 18.9911 16.1137C18.8305 16.3054 18.6958 16.6187 18.7737 16.7741C18.8515 16.9294 19.1077 17.1081 19.7601 16.9864L19.6407 15.6738L19.6425 15.6736Z" fill="#E6D89C"/>
<path fill-rule="evenodd" clip-rule="evenodd" d="M19.4305 15.9948C19.4305 15.9948 19.3269 16.1554 19.3269 16.4117C19.3269 16.6732 19.4745 17.09 20.0182 17.121C20.435 17.147 20.7146 16.5205 21.0175 16.2771C21.2479 16.0907 21.3877 16.0854 21.3877 16.0854C21.3877 16.0854 21.1521 15.8294 20.5231 15.4978C19.9017 15.1638 19.2052 15.1198 18.8271 15.6325C19.0058 15.6195 19.5832 15.4719 19.5832 15.4719L19.8655 15.5625L19.4305 15.995V15.9948Z" fill="#252211"/>
<path fill-rule="evenodd" clip-rule="evenodd" d="M20.2438 16.3339C20.2257 16.2952 20.2127 16.2433 20.2878 16.2305C20.3629 16.2177 20.3965 16.2252 20.4224 16.2817C20.4484 16.3382 20.4736 16.3853 20.4352 16.4087C20.3965 16.4293 20.2955 16.4087 20.2436 16.3336L20.2438 16.3339ZM20.1221 15.9688C20.1221 15.9688 20.0961 15.9869 20.1091 15.9508C20.1142 15.9069 20.148 15.8291 20.2308 15.8473C20.3136 15.8656 20.2956 15.956 20.282 15.982C20.2683 16.0079 20.1992 16.0518 20.1473 16.0332C20.1408 16.0315 20.1347 16.0283 20.1296 16.0238C20.1245 16.0193 20.1205 16.0137 20.118 16.0074C20.1154 16.0011 20.1144 15.9943 20.115 15.9876C20.1156 15.9808 20.1178 15.9743 20.1214 15.9685L20.1221 15.9688Z" fill="#6F674D"/>
<path fill-rule="evenodd" clip-rule="evenodd" d="M13.1133 16.1344C13.1133 16.1344 13.3181 16.288 13.556 16.282C13.7915 16.2767 14.0944 16.0335 14.2342 15.8781C14.317 15.7874 14.3878 15.6917 14.4646 15.6166C14.5295 15.5519 14.5733 15.5208 14.6044 15.4768C14.6484 15.4256 14.695 15.3294 14.7184 15.2981C14.6614 15.3422 14.5786 15.42 14.4931 15.4717C14.4103 15.5229 14.2317 15.6192 14.1591 15.6451C14.0893 15.671 13.3643 16.0547 13.3643 16.0547L13.1133 16.1344Z" fill="#AC924C"/>
<path fill-rule="evenodd" clip-rule="evenodd" d="M13.4268 14.2214C13.4268 14.2214 13.5406 14.1437 13.7608 14.0944C13.9731 14.0432 14.4002 14.0038 14.4002 14.0038L14.7523 14.1574L14.8921 14.6882L14.6361 15.2398L14.31 15.4446L13.9396 14.8491L13.4276 14.2224L13.4268 14.2214Z" fill="#9F8E57"/>
<path fill-rule="evenodd" clip-rule="evenodd" d="M12.9656 14.6952L12.8438 14.7861C12.8438 14.7861 12.875 14.7291 12.9008 14.5557C12.9265 14.3823 13.0613 13.9603 13.2581 13.7169C13.4549 13.4735 13.4498 13.4865 13.4498 13.4865C13.4317 13.4832 13.4131 13.4838 13.3952 13.4882C13.3773 13.4927 13.3606 13.5009 13.3462 13.5123C13.3721 13.4549 13.5379 13.2501 13.7036 13.1477C13.8693 13.0453 13.934 13.0131 14.1074 13.0965C14.2808 13.18 14.3248 13.2233 14.4518 13.2182C14.5787 13.2131 14.6873 13.0784 14.6873 13.0784C14.6873 13.0784 14.7132 13.1612 14.6175 13.3529C14.5217 13.5445 14.1437 13.9354 14.1437 13.9354L13.3566 14.4738L12.9656 14.6957V14.6952Z" fill="#EAC970"/>
<path fill-rule="evenodd" clip-rule="evenodd" d="M13.5485 14.1567C13.5485 14.1567 14.1182 14.2344 14.2916 14.0739C14.2967 14.092 14.3176 14.092 14.3176 14.105C14.3162 14.1148 14.3116 14.1238 14.3046 14.1308C14.3234 14.1277 14.3425 14.126 14.3616 14.1256C14.3844 14.1324 14.4078 14.1368 14.4316 14.1386C14.4507 14.1382 14.4697 14.1364 14.4886 14.1333C14.4868 14.1462 14.4824 14.1586 14.4757 14.1697C14.469 14.1808 14.4602 14.1905 14.4497 14.1982C14.4756 14.1982 14.5009 14.2033 14.5009 14.2239C14.5009 14.2446 14.506 14.3069 14.4749 14.3199C14.4492 14.327 14.4218 14.3251 14.3973 14.3146C14.3993 14.3636 14.4126 14.4115 14.4362 14.4545C14.4874 14.5503 14.5966 14.6593 14.7434 14.6279C14.7434 14.6279 14.8209 14.8143 14.4947 15.2285C14.4508 15.2855 14.4041 15.3631 14.3473 15.4278C14.3248 15.4768 14.3076 15.528 14.2961 15.5806C14.2961 15.5806 14.8476 15.3683 15.0055 14.8841C15.1661 14.3973 15.1972 13.9184 15.1661 13.4706C15.1608 13.3436 15.1402 13.2532 15.1091 13.1883C15.0315 13.0277 14.8139 13.0537 14.726 13.1443C14.599 13.2713 14.3867 13.587 14.0916 13.8044C13.7912 14.0219 13.7784 14.0604 13.5479 14.1567H13.5485Z" fill="#D7BC6B"/>
<path fill-rule="evenodd" clip-rule="evenodd" d="M12.8644 14.8558C12.8644 14.8558 12.7557 14.9204 12.6987 15.163C12.6417 15.4114 12.7499 15.7144 12.8125 15.8101C12.8752 15.9059 13.0173 16.1675 13.3122 16.1805C13.3852 16.1801 13.4574 16.1651 13.5245 16.1364C13.6275 16.0892 13.7241 16.0292 13.8119 15.9577C13.9389 15.862 14.0423 15.7792 14.0294 15.7714C13.9983 15.7584 13.2475 15.137 13.2475 15.137L12.9653 14.822L12.8642 14.8561L12.8644 14.8558Z" fill="#585136"/>
<path fill-rule="evenodd" clip-rule="evenodd" d="M13.5745 15.8861C13.5745 15.8861 13.7273 15.8733 13.8179 15.8163C13.9085 15.7593 13.2871 15.1432 13.2871 15.1432L13.3311 15.8088L13.5745 15.8861Z" fill="#453A25"/>
<path fill-rule="evenodd" clip-rule="evenodd" d="M12.9142 14.809C12.9142 14.809 12.8365 14.9566 12.8365 14.9955C12.8236 15.1223 12.8625 15.521 12.8936 15.6478C12.9246 15.7825 13.0929 15.9869 13.3105 15.9869C13.445 15.9869 13.6315 15.9042 13.6315 15.8835C13.6315 15.8576 13.4399 15.8323 13.3881 15.7359C13.3571 15.6847 13.3441 15.5574 13.3369 15.4287C13.3318 15.3459 13.3318 15.2553 13.3629 15.2239C13.4329 15.1462 13.4457 14.9235 13.4457 14.9235L13.6941 14.4619H13.3673L12.9763 14.7052L12.9142 14.809Z" fill="#84754B"/>
<path fill-rule="evenodd" clip-rule="evenodd" d="M12.8184 14.9515C12.8184 14.9515 13.0744 14.6124 13.3051 14.5346C13.5358 14.4567 13.6391 14.5035 13.6391 14.5035L13.5044 14.8479L13.3128 15.0602L13.3258 15.1689C13.3258 15.1689 13.2945 15.4563 13.4862 15.6557C13.6778 15.855 13.8202 15.8473 13.9031 15.8473C13.9861 15.8473 14.2241 15.7774 14.3458 15.49C14.4545 15.2208 14.5452 14.8756 14.3277 14.5294C14.1153 14.185 13.74 14.1717 13.6674 14.1717C13.5949 14.1717 13.0254 14.2002 12.8184 14.951V14.9515Z" fill="#252211"/>
<path fill-rule="evenodd" clip-rule="evenodd" d="M19.3913 16.1035C19.2956 16.0595 19.3862 15.7904 19.482 15.7074C19.5777 15.6245 19.6994 15.5289 19.9119 15.5157C19.9893 15.5106 20.0644 15.5598 20.0516 15.6117C20.0335 15.7074 19.8989 15.8421 19.7772 15.9378C19.6089 16.0699 19.5 16.1527 19.3913 16.1035Z" fill="#F7F7E7"/>
<path fill-rule="evenodd" clip-rule="evenodd" d="M14.2136 14.6356C14.2835 14.6305 14.3742 14.6868 14.3923 14.7626C14.4103 14.8454 14.3482 15.0111 14.2136 15.0111C14.1049 15.0111 14.0479 14.8764 14.0479 14.8377C14.0491 14.8058 14.058 14.7747 14.0738 14.7471C14.0789 14.7392 14.0919 14.6486 14.2136 14.6356Z" fill="#F8F6DE"/>
<path fill-rule="evenodd" clip-rule="evenodd" d="M13.2041 14.6952C13.2041 14.6952 13.0254 14.7779 12.9426 14.9512C12.8835 15.0791 12.8656 15.2222 12.8914 15.3608C12.9044 15.4254 12.9691 15.5859 13.0131 15.6429C13.0571 15.6999 13.1167 15.7388 13.1607 15.7335C13.2047 15.7282 13.2952 15.6118 13.2952 15.542C13.2952 15.4722 13.3005 15.177 13.3858 15.0164C13.4609 14.8559 13.2046 14.6953 13.2046 14.6953L13.2041 14.6952Z" fill="#D4C38B"/>
<path fill-rule="evenodd" clip-rule="evenodd" d="M13.2302 14.6822C13.1991 14.7003 13.1474 14.7262 13.1602 14.7599C13.1732 14.7909 13.2819 14.8111 13.3208 14.8868C13.3648 14.9645 13.3648 15.0473 13.3519 15.0862C13.3857 15.0701 13.4164 15.0482 13.4425 15.0213C13.4995 14.9566 13.5693 14.8688 13.6289 14.8688C13.6678 14.8688 13.7065 14.8868 13.7429 14.8868C13.7999 14.8868 13.8567 14.8688 13.8645 14.8092C13.8773 14.7315 13.7558 14.6616 13.6859 14.6745C13.6988 14.6233 13.7169 14.5477 13.6599 14.4958C13.6029 14.444 13.4244 14.5348 13.3855 14.5607C13.3466 14.5866 13.2302 14.6824 13.2302 14.6824V14.6822Z" fill="#E2D59D"/>
<path fill-rule="evenodd" clip-rule="evenodd" d="M17.3436 20.1217L17.7267 20.0085L17.8354 20.0862C17.8354 20.0862 17.9129 20.2519 18.0348 20.2726C17.9959 20.3553 17.8948 20.4262 17.9001 20.4849C17.9054 20.5436 17.9571 20.5885 17.9571 20.5885C17.9571 20.5885 17.6127 21.158 18.2911 21.7319C18.1305 21.7966 17.9261 21.8855 17.8173 21.9367C17.8948 21.9548 18.0605 21.9879 18.1305 22.0507C18.2005 22.1135 18.2005 22.1335 18.2652 22.1724C18.3299 22.2113 18.3686 22.2631 18.3558 22.2863C18.3118 22.2603 18.1641 22.1828 18.1384 22.2552C18.1126 22.3276 17.4989 22.2992 17.4989 22.2992L16.4633 22.4986C16.4633 22.4986 16.502 22.395 16.3933 22.2992C16.2665 22.1854 16.1112 22.3044 15.9455 22.1775C15.728 22.0118 15.7202 21.8202 15.6504 21.7478C15.7202 21.7038 15.8627 21.6391 16.2018 21.5942C16.1888 21.5683 16.1448 21.4906 16.1708 21.4208C16.2018 21.3302 16.3312 21.2732 16.2924 21.1648C16.3494 21.1518 16.3752 21.1518 16.5177 20.9732C16.6524 20.7945 16.7351 20.7557 16.8387 20.7428C16.9423 20.7298 17.0045 20.7428 17.1961 20.5641C17.3306 20.4373 17.2867 20.3285 17.2867 20.3285C17.2867 20.3285 17.3746 20.3 17.3437 20.1214L17.3436 20.1217Z" fill="#CBAC5A"/>
<path fill-rule="evenodd" clip-rule="evenodd" d="M16.2125 20.1792C16.2176 20.1532 16.2385 20.1403 16.3782 20.1532C16.518 20.1662 17.4034 20.0705 17.6442 20.0575C17.8876 20.0394 18.7445 20.0522 19.1615 20.1403C19.5784 20.2283 20.0003 20.3319 20.2047 20.3836C20.4095 20.4406 20.4741 20.4611 20.4662 20.4871C20.4611 20.513 20.415 20.5383 20.3886 20.5311C20.3628 20.526 19.6844 20.3188 19.4748 20.2751C19.2652 20.2314 18.5401 20.1145 18.1436 20.1215C17.7734 20.1268 17.6258 20.1164 17.3126 20.1526C16.9993 20.1915 16.4815 20.2432 16.3262 20.2225C16.1726 20.2044 16.2043 20.2044 16.2122 20.1785L16.2125 20.1792Z" fill="#D6BC6F"/>
<path fill-rule="evenodd" clip-rule="evenodd" d="M18.2968 22.2084C18.2968 22.2084 18.8275 22.4958 19.0192 22.8479C19.159 23.1094 18.9364 23.2389 18.9364 23.2389C18.9364 23.2389 19.2368 23.2389 19.1979 23.4046C19.1798 23.508 18.6801 23.7876 18.3461 23.9352C18.007 24.0828 18.0199 24.0752 17.8542 24.1009C17.6936 24.1269 17.2535 24.0497 17.1628 24.1786C17.0722 24.3074 17.1116 24.4402 17.1369 24.4609C17.1628 24.479 17.3726 24.5049 17.3726 24.5049C17.3726 24.5049 17.3286 24.6266 16.8937 24.6396C16.4588 24.6525 16.35 24.6834 16.324 24.7302C16.2981 24.774 16.4068 24.7483 16.6063 24.7814C16.8056 24.8124 17.0852 24.8326 17.0852 24.8326C17.0852 24.8326 16.9946 24.9102 16.7591 24.9724C16.4897 25.0422 16.0677 25.107 15.9409 25.1847C16.0056 25.2287 16.1015 25.2934 16.1457 25.2985C16.037 25.3244 15.884 25.3814 15.8583 25.4021C15.897 25.428 15.9489 25.4591 15.9489 25.4591C15.9489 25.4591 15.7313 25.7206 15.6045 25.7854C15.4777 25.8503 14.7476 26.1892 14.4964 26.1245C13.8698 25.9588 13.7922 25.2727 13.6394 25.221C13.409 25.1434 13.3003 25.2985 13.0957 25.1898C13.1863 25.1251 13.2356 25.0864 13.3314 25.0423C13.2278 24.9911 12.6919 24.6513 12.6919 24.6513C12.6359 24.5292 12.5737 24.41 12.5055 24.2941C12.4019 24.1154 12.2495 23.8772 12.1352 23.6674C11.8867 23.2066 11.8737 22.9943 11.6484 22.7329C11.6873 22.6817 11.8218 22.6888 11.8218 22.6888L13.7094 23.3102L17.0564 23.4072L17.9268 22.1646L18.2969 22.2086L18.2968 22.2084Z" fill="#DFC677"/>
<path fill-rule="evenodd" clip-rule="evenodd" d="M13.3389 24.1035C13.3591 24.126 13.3826 24.1452 13.4087 24.1605C13.4735 24.2045 13.5693 24.2564 13.6339 24.3339C13.6599 24.2952 13.7246 24.2252 13.8387 24.3339C13.9529 24.4426 14.0948 24.3651 14.183 24.3909C14.2736 24.4221 14.2787 24.4349 14.2787 24.4349C14.2787 24.4349 14.3299 24.3909 14.4444 24.3443C14.5144 24.3184 14.5972 24.3003 14.6878 24.2745C14.7706 24.2564 14.8612 24.2305 14.9235 24.2305C14.9805 24.2692 15.185 24.4865 16.0057 24.1658C16.7798 23.8654 16.9584 23.8318 17.0879 23.8782C17.1009 23.8472 17.1138 23.7876 17.3132 23.7954C17.3132 23.7127 17.1475 23.4304 17.1475 23.4304L16.2335 23.1172H15.7337L14.2347 23.3916L13.4041 23.8656L13.3394 24.1045L13.3389 24.1035Z" fill="#C4A859"/>
<path fill-rule="evenodd" clip-rule="evenodd" d="M12.8389 23.578C12.8389 23.578 12.857 23.7178 13.0641 23.8654C13.2689 24.0129 13.3333 24.101 13.3333 24.101C13.3333 24.101 13.3722 24.0498 13.4033 23.9975C13.4343 23.9405 13.4603 23.8758 13.512 23.8578C13.6156 23.8137 13.8511 23.8965 13.903 23.8835C13.947 23.8707 13.934 23.7801 13.9806 23.7801C14.0893 23.7748 14.1591 23.8499 14.1981 23.8499C14.237 23.8499 14.3325 23.8448 14.3455 23.8241C14.3585 23.8035 14.3636 23.5884 14.5112 23.4848C14.6718 23.371 14.8686 23.4202 14.9208 23.4461C14.9208 23.4848 14.9259 23.5808 15.0295 23.5859C15.1331 23.591 15.1434 23.5729 15.2343 23.604C15.3253 23.635 15.4337 23.5989 15.4828 23.7514C15.5269 23.7386 15.6305 23.7257 15.6045 23.578C15.6557 23.5393 15.7004 23.5133 15.8093 23.3606C15.8353 23.3219 15.8791 23.2778 15.9129 23.2208C16.0035 23.2208 16.1123 23.2027 16.2571 23.3295C16.2131 23.3606 16.1872 23.3807 16.1744 23.4123C16.2123 23.4498 16.2469 23.4905 16.2778 23.534C16.3167 23.5852 16.3427 23.648 16.3918 23.661C16.5005 23.692 16.6792 23.648 16.8785 23.661C17.0702 23.6739 17.2306 23.7437 17.3006 23.7878C17.3265 23.775 17.3265 23.7697 17.3912 23.7827C17.4559 23.7956 17.5051 23.8007 17.4353 23.718C17.474 23.7361 17.518 23.775 17.5569 23.7361C17.5959 23.6972 17.6267 23.6403 17.7355 23.6274C17.8442 23.6144 17.8831 23.6325 17.9271 23.5186C17.9841 23.3789 17.7873 23.3789 17.7873 23.3789C17.7873 23.3789 17.878 23.2959 17.979 23.1872C18.1007 23.0734 18.2405 22.9257 18.2741 22.7445C18.3311 22.4105 18.0049 22.3666 18.0049 22.3666L16.423 22.8534L14.489 22.7575L12.8399 23.5782L12.8389 23.578Z" fill="#927D49"/>
<path fill-rule="evenodd" clip-rule="evenodd" d="M11.4177 19.0084C11.4177 19.0084 11.3665 19.0731 11.3349 19.2258C11.3033 19.3786 11.3168 19.3605 11.2909 19.4692C11.2649 19.5779 10.9463 20.6601 11.0658 21.0252C11.1852 21.3902 11.3921 21.5249 11.5214 21.82C11.5474 21.8847 11.5726 21.9236 11.5861 21.9806C11.6302 22.1721 11.5914 22.3197 11.6431 22.5113C11.6612 22.576 11.708 22.6511 11.7778 22.7288C11.9314 22.8892 12.1818 23.042 12.2898 23.1507C12.4424 23.3113 12.66 23.6376 12.937 23.6685C13.0846 23.6866 13.2943 23.6244 13.4677 23.521C13.6213 23.4251 13.7162 23.2906 13.8773 23.2138C13.9912 23.1568 14.1128 23.1362 14.2216 23.1102C14.4468 23.0662 14.6515 23.059 14.7732 23.0843C14.9595 23.1232 15.3997 23.2578 15.6436 23.2578C15.8341 23.2548 16.0236 23.2287 16.2079 23.1802C16.5781 23.0715 17.026 22.8849 17.3212 22.8022C17.4946 22.751 17.6344 22.7375 17.7769 22.7064C18.0203 22.6494 18.2247 22.5718 18.3413 22.4241C18.2636 22.3335 18.1679 22.1937 17.6499 22.1989C17.0623 22.2118 16.3839 22.538 16.0499 22.5899C15.7159 22.6417 15.571 22.6856 15.1981 22.5509C14.8325 22.4149 14.8204 22.325 14.8204 22.325C14.8204 22.325 14.4366 22.0565 14.276 21.3721C14.1154 20.6878 14.276 20.1891 14.6929 19.7151C14.8017 19.5935 14.7757 19.4847 14.7757 19.4847C14.7757 19.4847 15.0501 19.1146 14.9751 18.7679C14.8923 18.4235 14.3615 18.4935 14.3615 18.4935L11.4178 19.0084H11.4177Z" fill="#6E6342"/>
<path fill-rule="evenodd" clip-rule="evenodd" d="M11.8605 20.1606C11.8377 20.2035 11.827 20.2518 11.8295 20.3004C11.8346 20.3702 11.8554 20.4608 12.065 20.6654C12.2437 20.8439 12.2048 21.0433 12.2048 21.0433C12.2048 21.0433 12.2947 21.0614 12.5387 20.9472C12.7304 20.8566 12.7947 21.0172 12.7947 21.0172C12.8505 20.9879 12.911 20.9686 12.9734 20.9602C13.03 20.9549 13.0847 20.9375 13.1339 20.909C13.1339 20.909 13.3591 21.1394 13.5559 21.2481C13.7346 21.344 13.8382 21.4087 13.9263 21.344C14.009 21.287 14.009 21.1704 14.0038 21.1187C13.9832 21.071 13.9572 21.0258 13.9263 20.9841C13.8693 20.9013 13.7786 20.8054 13.7727 20.7281C13.7597 20.5495 13.9073 20.3371 13.8761 20.2853C13.8449 20.2336 13.7286 20.2207 13.4412 20.3243C13.1436 20.4226 11.8593 20.1611 11.8593 20.1611L11.8605 20.1606Z" fill="#39331F"/>
<path fill-rule="evenodd" clip-rule="evenodd" d="M12.5384 21.3179C12.5384 21.3179 12.3909 21.1781 12.4426 20.4997C12.5052 20.4988 12.5677 20.5049 12.629 20.5178C12.629 20.5178 12.7094 21.0435 12.5384 21.3179Z" fill="#292311"/>
<path fill-rule="evenodd" clip-rule="evenodd" d="M11.4877 18.4906C11.5083 18.4754 11.5274 18.4583 11.5447 18.4394C11.4935 18.5352 11.2571 18.9183 11.4488 19.5216C11.6404 20.1222 12.1219 20.57 12.7148 20.5909C13.3077 20.6117 13.6193 20.3215 13.9757 19.8867C14.1154 19.7133 14.276 19.4957 14.4184 19.3482C14.6307 19.1177 14.7964 19.053 14.7964 18.8304C14.7964 18.3748 14.3303 18.1701 13.6442 17.9657C12.9582 17.7612 12.3393 17.7865 12.0183 17.9264C11.7051 18.079 11.5705 18.2396 11.4875 18.4908L11.4877 18.4906Z" fill="#252211"/>
<path fill-rule="evenodd" clip-rule="evenodd" d="M13.6909 21.5224L13.7421 21.4964C13.7421 21.4964 13.7549 21.2916 13.8379 21.2971C13.9207 21.31 13.9596 21.4189 13.9517 21.4577C13.9466 21.4964 13.9259 21.5613 13.843 21.5534C13.7343 21.556 13.6904 21.5224 13.6904 21.5224H13.6909Z" fill="#3F3824"/>
<path fill-rule="evenodd" clip-rule="evenodd" d="M13.46 20.6524C13.46 20.6524 13.5112 20.6344 13.5738 20.6965C13.625 20.6965 13.8482 20.6705 13.9182 20.7146C13.9882 20.7586 14.0088 20.7973 14.0088 20.7973C14.0088 20.7973 13.7474 20.8543 13.6049 20.7973C13.46 20.7482 13.46 20.6524 13.46 20.6524Z" fill="#2D2815"/>
<path fill-rule="evenodd" clip-rule="evenodd" d="M14.6124 20.6912C14.6124 20.6782 14.4726 20.5825 14.325 20.5513C14.299 20.5461 14.2937 20.5642 14.2738 20.5642C14.2608 20.5591 14.2557 20.5202 14.2557 20.5202L14.1717 20.5644C14.1717 20.5644 14.1587 20.5825 14.2028 20.6156C14.2415 20.6467 14.3064 20.6726 14.3245 20.7243C14.3425 20.776 14.3425 20.7941 14.3504 20.802C14.3555 20.8071 14.4461 20.802 14.4902 20.776C14.5342 20.7501 14.6171 20.7078 14.6119 20.6907L14.6124 20.6912Z" fill="#82764F"/>
<path fill-rule="evenodd" clip-rule="evenodd" d="M13.3047 21.2168C13.3047 21.2168 13.3305 21.0383 13.504 21.0305C13.6825 21.0175 13.7163 21.1909 13.7163 21.1909L13.6127 21.2945C13.6127 21.2919 13.5351 21.1832 13.3055 21.2168H13.3047Z" fill="#2D2816"/>
<path fill-rule="evenodd" clip-rule="evenodd" d="M14.4307 20.4478C14.4307 20.4478 14.3348 20.5514 14.1226 20.5825C14.1045 20.5565 14.0656 20.5048 14.1226 20.4221C14.1796 20.3393 14.2443 20.3133 14.309 20.3391C14.3375 20.3437 14.3642 20.3564 14.3857 20.3757C14.4073 20.395 14.4229 20.42 14.4307 20.4478Z" fill="#574F35"/>
<path fill-rule="evenodd" clip-rule="evenodd" d="M14.8222 20.5748C14.8275 20.5489 14.8094 20.5437 14.8222 20.5308C14.835 20.5178 14.9051 20.492 14.9181 20.5048C14.9232 20.5101 14.9181 20.5308 14.9181 20.556C14.9181 20.5813 14.9181 20.6072 14.9051 20.6258C14.887 20.6518 14.8353 20.6648 14.8094 20.6571C14.7834 20.6494 14.7783 20.613 14.7783 20.6059C14.7911 20.6008 14.8222 20.5878 14.8222 20.5748ZM15.2642 20.2953C15.2642 20.2823 15.3082 20.2563 15.3342 20.2563C15.3729 20.2563 15.3729 20.2874 15.3782 20.2953C15.391 20.3004 15.391 20.29 15.404 20.3133C15.417 20.3367 15.4352 20.378 15.4221 20.404C15.4089 20.4299 15.3574 20.4478 15.3446 20.4427C15.3265 20.4297 15.2695 20.3133 15.2642 20.2953Z" fill="#82764F"/>
<path fill-rule="evenodd" clip-rule="evenodd" d="M14.374 20.6344C14.374 20.6344 14.431 20.6472 14.5087 20.712C14.4827 20.7301 14.4438 20.7508 14.4438 20.7508C14.4438 20.7508 14.4387 20.6912 14.374 20.6342V20.6344Z" fill="#6E6342"/>
<path fill-rule="evenodd" clip-rule="evenodd" d="M14.2472 20.0647C14.2342 20.0519 14.2859 20.0208 14.317 20.0259C14.348 20.0311 14.361 20.0519 14.3946 20.057C14.4282 20.0621 14.4335 20.044 14.4458 20.0311C14.4581 20.0181 14.5028 20.0259 14.5105 20.0311C14.5153 20.0367 14.5196 20.0428 14.5235 20.0492C14.524 20.0393 14.5266 20.0297 14.531 20.0209C14.5355 20.0121 14.5417 20.0043 14.5492 19.998C14.5592 19.9907 14.5706 19.9857 14.5827 19.9835C14.5949 19.9812 14.6073 19.9817 14.6192 19.985C14.6243 20.0031 14.6503 20.0678 14.6452 20.0807C14.64 20.0937 14.5624 20.112 14.5492 20.0988C14.5622 20.13 14.6192 20.1947 14.6269 20.2075C14.6346 20.2203 14.5699 20.2516 14.5441 20.2464C14.5079 20.2439 14.2852 20.1143 14.2465 20.0652L14.2472 20.0647ZM14.5863 19.6349C14.5815 19.6219 14.5723 19.6109 14.5603 19.6039C14.5422 19.5988 14.4827 19.6039 14.4827 19.6349C14.4827 19.666 14.5339 19.8397 14.5914 19.9302C14.6563 20.0208 14.7001 20.0957 14.7441 20.1166C14.758 20.1229 14.7737 20.1237 14.7881 20.1189C14.8025 20.1141 14.8145 20.104 14.8218 20.0906C14.8269 20.0777 14.8399 19.9819 14.8348 19.7566C14.8296 19.5313 14.8218 19.3139 14.8088 19.3009C14.7959 19.288 14.7441 19.2881 14.7261 19.3139C14.708 19.3397 14.5914 19.5962 14.5861 19.6349H14.5863Z" fill="#585136"/>
<path fill-rule="evenodd" clip-rule="evenodd" d="M14.356 20.9605C14.356 20.9605 14.2654 20.9035 14.1773 20.9424C14.0946 20.9813 14.0997 21.1341 14.0997 21.1341C14.1183 21.1414 14.1384 21.144 14.1583 21.1417C14.1782 21.1395 14.1972 21.1324 14.2137 21.1211C14.2707 21.0824 14.343 21.0177 14.356 20.9607V20.9605Z" fill="#574F35"/>
<path fill-rule="evenodd" clip-rule="evenodd" d="M14.5268 21.1651C14.5217 21.1139 14.4756 21.1139 14.4756 21.0875C14.4788 21.0748 14.4861 21.0636 14.4964 21.0556C14.5067 21.0477 14.5194 21.0434 14.5324 21.0435C14.5584 21.0435 14.5836 21.0745 14.6154 21.0947C14.6464 21.1127 14.693 21.1459 14.6981 21.1853C14.7033 21.2247 14.6469 21.3327 14.5843 21.3327C14.5217 21.3327 14.5403 21.2162 14.5273 21.1645L14.5268 21.1651ZM15.0265 21.0952C15.0265 21.0952 14.9229 21.1262 14.9306 21.0952C14.9383 21.0641 14.9618 21.0564 14.9954 21.0564C15.0125 21.0385 15.0355 21.0275 15.0601 21.0252C15.0742 21.0245 15.088 21.0291 15.0989 21.0382C15.0989 21.0382 15.1688 21.0071 15.1895 21.0252C15.2101 21.0433 15.1948 21.0433 15.2076 21.0641C15.2239 21.0872 15.2346 21.1138 15.2388 21.1418C15.2388 21.1624 15.1612 21.2064 15.0989 21.1988C15.0265 21.1832 15.0393 21.1081 15.0265 21.0952ZM15.6296 20.9786C15.6296 20.9786 15.6607 20.9967 15.6349 21.0175C15.6168 21.0356 15.5262 21.0687 15.4484 21.0745C15.3707 21.0745 15.3009 21.0873 15.3009 21.0615C15.3009 21.0358 15.3656 20.9839 15.4044 20.9709C15.4121 20.9612 15.422 20.9533 15.4332 20.948C15.4445 20.9426 15.4568 20.9398 15.4692 20.9399C15.5003 20.9399 15.6218 20.9269 15.6556 20.9218C15.6866 20.9165 15.7126 20.9346 15.6943 20.9605C15.6866 20.9786 15.6296 20.9786 15.6296 20.9786ZM15.8083 20.1792C15.8083 20.1792 15.7694 20.262 15.7255 20.262C15.6815 20.2569 15.6815 20.2439 15.6815 20.2309C15.6815 20.2128 15.7255 20.1662 15.7203 20.1533C15.7075 20.1533 15.6762 20.1533 15.6815 20.1222C15.6815 20.0963 15.7255 20.0652 15.7643 20.071C15.7936 20.0469 15.83 20.0333 15.8679 20.0323C15.9119 20.0323 15.9507 20.0451 15.9507 20.071C15.9507 20.0969 15.8995 20.1538 15.8807 20.1669C15.86 20.1876 15.8341 20.201 15.8083 20.1797V20.1792ZM15.218 21.7092C15.218 21.7092 15.1668 21.7145 15.1668 21.7403C15.1668 21.7533 15.1796 21.7533 15.1978 21.7456C15.2084 21.745 15.2188 21.7432 15.2289 21.7403C15.234 21.7456 15.234 21.7714 15.2729 21.7714C15.3049 21.767 15.3357 21.7565 15.3636 21.7403C15.3946 21.7275 15.4206 21.7143 15.4206 21.6891C15.4076 21.6451 15.3817 21.6242 15.3429 21.6242C15.3231 21.623 15.3033 21.6275 15.2859 21.6372C15.2859 21.6372 15.2729 21.6113 15.2289 21.6372C15.1849 21.6631 15.19 21.6631 15.203 21.6761C15.2262 21.6968 15.2185 21.7103 15.2185 21.7103L15.218 21.7092ZM14.9255 21.9785C14.9255 21.9656 14.9901 21.9396 15.0082 21.9475C15.0263 21.9526 15.078 22.0509 15.078 22.0613C15.078 22.0743 15.0134 22.1053 14.9874 22.1053C14.9615 22.1053 14.9176 22.0613 14.9176 22.0541C14.9176 22.049 14.9487 22.0413 14.9487 22.0361C14.9564 22.0233 14.9255 21.992 14.9255 21.9791V21.9785ZM14.7207 21.6005C14.7336 21.5954 14.7336 21.5824 14.7517 21.5695C14.7574 21.5657 14.7638 21.5633 14.7706 21.5624C14.7773 21.5615 14.7842 21.5622 14.7906 21.5643C14.7952 21.5562 14.8015 21.5492 14.8091 21.5438C14.8168 21.5384 14.8255 21.5347 14.8347 21.5331C14.8657 21.528 14.8917 21.5331 14.8859 21.5461C14.8859 21.585 14.9118 21.6108 14.9118 21.6418C14.9118 21.6729 14.8937 21.7118 14.829 21.7377C14.7644 21.7558 14.6763 21.7558 14.6633 21.7507C14.6503 21.7456 14.6374 21.6937 14.6503 21.6678C14.6633 21.6418 14.6995 21.6135 14.7203 21.6005H14.7207Z" fill="#82764F"/>
<path fill-rule="evenodd" clip-rule="evenodd" d="M14.8031 21.6181C14.8031 21.6181 14.7591 21.644 14.7591 21.657C14.7552 21.6695 14.7535 21.6826 14.754 21.6958C14.754 21.7034 14.811 21.6906 14.8187 21.6828C14.8212 21.6777 14.8031 21.6316 14.8031 21.6181Z" fill="#6E6342"/>
<path fill-rule="evenodd" clip-rule="evenodd" d="M14.418 21.4964C14.4438 21.5017 14.4878 21.4964 14.5214 21.5094C14.5474 21.5224 14.5654 21.5483 14.5395 21.5794C14.5136 21.6104 14.4883 21.657 14.4308 21.6492C14.3661 21.644 14.304 21.6104 14.304 21.5845C14.3029 21.5681 14.3051 21.5516 14.3104 21.536C14.3157 21.5205 14.3241 21.5061 14.335 21.4939C14.361 21.4732 14.3738 21.4862 14.4178 21.4964H14.418Z" fill="#585136"/>
<path fill-rule="evenodd" clip-rule="evenodd" d="M14.3875 21.5223C14.3875 21.5223 14.3047 21.587 14.2839 21.6183C14.258 21.6493 14.1312 21.8097 14.0924 21.8434C14.1053 21.8207 14.12 21.799 14.1363 21.7787C14.0851 21.8114 14.0467 21.8608 14.0276 21.9185C13.9965 22.0144 14.2011 22.0661 14.3356 22.105C14.4701 22.1439 14.5222 22.1562 14.5222 22.1562C14.4727 22.0818 14.4301 22.0029 14.3952 21.9207C14.344 21.799 14.3175 21.786 14.3512 21.729C14.3771 21.672 14.416 21.6333 14.416 21.5892C14.4005 21.5483 14.3875 21.5223 14.3875 21.5223Z" fill="#574F35"/>
<path fill-rule="evenodd" clip-rule="evenodd" d="M11.4359 21.727C11.4547 21.7304 11.474 21.7304 11.4929 21.727C11.5316 21.7217 11.9356 21.5734 12.3577 21.6C12.6736 21.6191 12.9868 21.6706 13.2922 21.7536C13.823 21.8934 14.4831 22.1704 14.9103 22.3284C15.0242 22.3723 15.1356 22.4501 15.2175 22.481C15.5438 22.608 15.5566 22.608 15.7483 22.6416C15.9736 22.6726 16.204 22.5975 16.4448 22.5458C16.7399 22.481 17.2447 22.4499 17.6874 22.3852C17.8306 22.3654 17.9718 22.3334 18.1095 22.2895C18.1095 22.2895 17.7574 22.6416 16.9133 22.7684C16.5721 22.8202 16.2253 22.8246 15.8829 22.7814C15.6136 22.7554 15.4351 22.7165 15.3005 22.6778C15.1477 22.6337 14.8344 22.5172 14.4487 22.4218C14.1794 22.3518 13.879 22.3001 13.5347 22.2354C12.6855 22.0799 11.7639 21.9014 11.4355 21.728L11.4359 21.727Z" fill="#252211"/>
<path fill-rule="evenodd" clip-rule="evenodd" d="M10.4831 20.127C10.2783 20.3004 10.061 20.4661 9.84891 20.6265L9.20942 21.1179C8.99199 21.2783 8.77968 21.444 8.56208 21.6046C8.34448 21.7652 8.12723 21.9178 7.89648 22.0654C8.10128 21.892 8.31854 21.7314 8.53597 21.5736C8.7534 21.4157 8.97885 21.2609 9.1886 21.1008L9.82809 20.6088C10.0481 20.4483 10.2604 20.2826 10.4831 20.1273V20.127ZM9.35176 21.9393C9.35176 21.9393 9.58216 21.7476 9.86956 21.4785C10.2268 21.1447 10.6644 20.7173 10.8041 20.6398L9.35159 21.9395L9.35176 21.9393Z" fill="#CFB66C"/>
<path fill-rule="evenodd" clip-rule="evenodd" d="M9.35156 21.9391C9.46557 21.8253 9.58725 21.714 9.70894 21.6051L9.89531 21.4447C9.95231 21.3935 10.0172 21.336 10.074 21.279C10.1878 21.1651 10.2993 21.0433 10.4131 20.9269C10.4695 20.8683 10.5292 20.813 10.5918 20.7612C10.6231 20.7335 10.6579 20.7099 10.6952 20.6912C10.7265 20.6731 10.7601 20.64 10.8039 20.6342C10.7782 20.6731 10.7471 20.6912 10.7212 20.7248C10.6901 20.7508 10.6642 20.7818 10.6384 20.8076C10.5814 20.8646 10.5167 20.9163 10.4597 20.9682C10.338 21.0718 10.2112 21.173 10.0895 21.2814C9.96784 21.3897 9.854 21.5066 9.73215 21.6153C9.60022 21.7268 9.47854 21.8355 9.35156 21.9396V21.9391ZM10.8999 20.9035C10.8999 20.9035 10.0559 21.7295 9.88234 21.864L10.8999 20.9035Z" fill="#CFB66C"/>
<path fill-rule="evenodd" clip-rule="evenodd" d="M10.8994 20.9035C10.8234 20.9914 10.742 21.0744 10.6556 21.152L10.3996 21.3954C10.3169 21.4781 10.239 21.5611 10.1511 21.6439C10.0605 21.7215 9.97775 21.7975 9.88184 21.8691L10.1303 21.6258C10.2133 21.543 10.3039 21.4732 10.392 21.3902L10.6404 21.1469C10.7258 21.0615 10.8087 20.9786 10.8994 20.9035ZM10.9381 21.3513C10.8603 21.5684 10.7686 21.7803 10.6637 21.9857C10.4462 22.4207 10.1201 22.9643 9.97758 23.2415L10.9381 21.3513Z" fill="#CFB66C"/>
<path fill-rule="evenodd" clip-rule="evenodd" d="M10.9384 21.3515C10.9384 21.4472 10.9125 21.5302 10.8814 21.613C10.8511 21.6958 10.8166 21.777 10.778 21.8563C10.7391 21.934 10.695 22.0169 10.651 22.092C10.607 22.1671 10.5553 22.2446 10.5164 22.3224L10.2549 22.7832C10.1643 22.9368 10.0762 23.0913 9.98047 23.2389C10.0452 23.0732 10.1332 22.9179 10.2162 22.7651C10.3068 22.6115 10.3896 22.4579 10.4722 22.299C10.5125 22.2199 10.5488 22.1387 10.5809 22.0558C10.6196 21.9729 10.6584 21.8952 10.6896 21.8202C10.7283 21.7374 10.7594 21.6596 10.7983 21.5846C10.8422 21.5042 10.8785 21.4266 10.9381 21.3515H10.9384Z" fill="#CFB66C"/>
<path fill-rule="evenodd" clip-rule="evenodd" d="M11.8601 23.4744C11.8601 23.4744 11.6041 23.8135 11.6297 24.2433C11.6995 24.0182 11.7876 23.6738 11.8601 23.4744ZM12.1035 23.8144C12.1035 23.8144 12.0129 24.736 11.9378 25.1891C12.0439 24.6653 12.0646 24.7094 12.1035 23.8144ZM13.7992 25.2436C13.7992 25.2436 13.4161 26.37 13.4082 26.683C13.4912 26.3611 13.6516 25.7035 13.7992 25.2427V25.2436Z" fill="#DEC270"/>
<path fill-rule="evenodd" clip-rule="evenodd" d="M14.6953 23.4048C14.6953 23.4048 15.3167 24.43 15.7828 25.305C15.6567 24.8647 15.3665 24.0571 14.6953 23.4048Z" fill="#CBAF59"/>
<path fill-rule="evenodd" clip-rule="evenodd" d="M16.3652 24.914C16.7064 25.5171 17.0141 26.1385 17.2868 26.7755C17.2351 26.3353 17.0952 25.582 16.3652 24.914Z" fill="#E3C677"/>
<path fill-rule="evenodd" clip-rule="evenodd" d="M21.2737 26.4256C21.3771 26.3609 21.5817 26.0087 21.7604 25.9208C21.9389 25.8302 22.0736 25.8121 22.2342 25.6334C22.3946 25.4468 22.439 25.333 22.7907 25.1855C23.2827 24.9731 22.9443 24.6986 22.9443 24.6986C22.9985 24.6454 23.0565 24.5961 23.1177 24.5512C23.2447 24.4554 23.3921 24.3389 23.3793 24.1342C23.3613 23.79 23.2966 23.2903 23.0143 23.0003C23.2887 22.9433 23.8142 22.9046 24.1407 22.8218C24.5185 22.7259 24.6921 22.5912 24.6921 22.5912C24.6921 22.5912 24.4747 22.2211 24.8268 21.8483C25.1789 21.4756 25.4663 21.2529 25.6786 20.8359C25.4352 20.8049 25.0642 20.6755 24.1173 21.0353C24.1684 21.0593 24.2178 21.087 24.2649 21.118C24.2649 21.118 23.6824 21.2786 23.4701 21.4573C23.0998 21.7705 23.0532 22.0268 22.652 22.2185C22.2507 22.4102 21.8468 22.3583 21.5129 22.5136C21.1791 22.6689 21.1298 22.801 21.0079 22.858C21.0339 22.8891 21.0028 22.9408 21.052 22.9848C21.0209 23.0288 20.8397 23.3239 20.6558 23.3239C20.6739 23.3939 20.8292 23.4456 20.8292 23.4456C20.8292 23.4456 20.7154 23.5285 20.4254 23.5492C20.5729 23.7028 20.7128 23.8702 21.0986 24.1136C21.0675 24.1783 20.938 24.2742 20.9898 24.3959C21.0468 24.5176 21.1946 24.6833 21.7846 24.8179C21.4843 24.8307 21.1323 24.9007 20.6582 24.836C20.1845 24.779 20.1068 24.7454 19.8143 24.8179C19.8453 24.849 19.9281 24.849 20.0007 24.9318C19.923 24.9369 19.4363 24.8748 19.2705 25.0924C19.0971 25.3175 19.0221 25.6878 19.035 25.9363C18.9444 25.9803 18.8563 26.058 18.9004 26.2186C18.9444 26.3792 19.1748 26.4309 19.3224 26.5318C19.4699 26.6405 19.4829 26.6792 19.6228 26.6535C19.7703 26.6224 19.9877 26.4749 20.1147 26.4749C20.2416 26.4749 20.3321 26.5707 20.3321 26.5707C20.3321 26.5707 20.6765 26.405 20.7101 26.436C20.7412 26.4671 20.7152 26.6664 20.7489 26.6975C20.783 26.7209 21.1709 26.4905 21.2745 26.4256H21.2737Z" fill="#ECD592"/>
<path fill-rule="evenodd" clip-rule="evenodd" d="M28.8002 16.0648C27.1821 11.8862 23.182 11.112 23.182 11.112H11.7697L11.8137 15.3683H14.0865V24.8725H11.7695V29.1211H22.8661C25.5405 29.1211 27.6842 26.4336 27.6842 26.4336C31.1172 21.5613 28.8 16.0648 28.8 16.0648H28.8002ZM22.9257 23.5702C22.9257 23.5702 22.0553 24.8259 21.1082 24.8259H19.2138L19.169 15.3787H21.6001C21.6001 15.3787 22.7265 15.6142 23.5134 17.8433C23.5134 17.8433 24.5567 21.0348 22.9257 23.5702Z" fill="white" fill-opacity="0.8"/>
</svg>
