<svg width="40" height="40" viewBox="0 0 40 40" fill="none" xmlns="http://www.w3.org/2000/svg">
<path d="M20 36C28.8366 36 36 28.8366 36 20C36 11.1634 28.8366 4 20 4C11.1634 4 4 11.1634 4 20C4 28.8366 11.1634 36 20 36Z" fill="black"/>
<path d="M29.995 15.2835H27.2588C27.0788 14.703 26.7582 14.1545 26.297 13.6922C25.8443 13.2396 25.299 12.9115 24.7057 12.7283V9.99428H22.7619V12.6431C22.076 12.7922 21.4487 13.132 20.9428 13.6379L19.6476 14.933C19.2684 15.3122 19.2684 15.9278 19.6476 16.3081C20.0268 16.6872 20.6424 16.6872 21.0226 16.3081L22.3178 15.0129C22.6544 14.6764 23.1092 14.4953 23.5959 14.5006C24.0933 14.507 24.5641 14.7083 24.923 15.0672C25.6558 15.8 25.6803 16.9695 24.9773 17.6724L22.2539 20.3958C21.5509 21.0988 20.3815 21.0743 19.6487 20.3415C19.2695 19.9623 18.6539 19.9623 18.2736 20.3415C17.8945 20.7207 17.8945 21.3363 18.2736 21.7165C19.0288 22.4717 20.0183 22.8508 21.0013 22.8508C21.9578 22.8508 22.9079 22.4919 23.6289 21.7708L26.3524 19.0474C26.8689 18.5309 27.1981 17.8972 27.345 17.2283H29.9971V15.2835H29.995Z" fill="white"/>
<path d="M18.9705 23.6795L17.6753 24.9746C16.9724 25.6775 15.804 25.653 15.0701 24.9203C14.3373 24.1875 14.3128 23.018 15.0158 22.3151L17.7392 19.5917C18.4422 18.8887 19.6117 18.9132 20.3445 19.646C20.7236 20.0252 21.3393 20.0252 21.7195 19.646C22.0987 19.2668 22.0987 18.6512 21.7195 18.271C20.2284 16.7799 17.8266 16.7554 16.3653 18.2167L13.6418 20.9401C13.1253 21.4566 12.7961 22.0904 12.6492 22.7592H9.99707V24.703H12.7333C12.9133 25.2835 13.2339 25.832 13.6951 26.2942C14.1563 26.7554 14.7048 27.076 15.2863 27.256V29.9932H17.2301V27.3412C17.9001 27.1953 18.5338 26.8651 19.0493 26.3485L20.3445 25.0534C20.7236 24.6742 20.7236 24.0586 20.3445 23.6784C19.9653 23.2992 19.3497 23.2992 18.9705 23.6795Z" fill="white"/>
</svg>
