<svg width="40" height="40" viewBox="0 0 40 40" fill="none" xmlns="http://www.w3.org/2000/svg">
<g clip-path="url(#clip0_2025_313708)">
<path d="M20 36C28.8366 36 36 28.8366 36 20C36 11.1634 28.8366 4 20 4C11.1634 4 4 11.1634 4 20C4 28.8366 11.1634 36 20 36Z" fill="#212529"/>
<path d="M17.3833 11.8764L20.5647 10.0392C20.6553 9.98693 20.7677 9.98693 20.8582 10.0392L29.2428 14.88C29.3334 14.9323 29.3891 15.029 29.39 15.1335L29.4013 18.463C29.4013 18.5683 29.3456 18.666 29.2541 18.7182L26.0772 20.5527C25.882 20.6661 25.6372 20.5249 25.6363 20.2993L25.6259 17.3113C25.6259 17.2068 25.5693 17.1101 25.4787 17.0578L17.3833 12.3851C17.1873 12.2719 17.1873 11.9896 17.3833 11.8764Z" fill="#AAF8B0"/>
<path d="M15.3277 26.9566L12.1472 25.1203C12.0558 25.068 12 24.9713 12 24.8658V15.1842C12 15.0797 12.0558 14.983 12.1463 14.9299L15.0245 13.2547C15.116 13.2016 15.2284 13.2016 15.319 13.2547L18.496 15.0893C18.6911 15.2025 18.692 15.4839 18.4968 15.598L15.9148 17.1007C15.8242 17.153 15.7685 17.2497 15.7685 17.3551V26.7031C15.7685 26.9296 15.5237 27.0698 15.3277 26.9566Z" fill="#AAF8B0"/>
<path d="M29.4012 21.1935V24.8662C29.4012 24.9716 29.3454 25.0683 29.2539 25.1205L20.8694 29.9614C20.7788 30.0137 20.6673 30.0137 20.5767 29.9614L17.6872 28.3063C17.5957 28.254 17.5391 28.1564 17.5391 28.051V24.3827C17.5391 24.1572 17.783 24.016 17.979 24.1275L20.5715 25.6127C20.6621 25.6651 20.7735 25.6642 20.8641 25.6127L28.9595 20.9384C29.1554 20.8251 29.4002 20.9662 29.4002 21.1927L29.4012 21.1935Z" fill="#AAF8B0"/>
</g>
<defs>
<clipPath id="clip0_2025_313708">
<rect width="32" height="32" fill="white" transform="translate(4 4)"/>
</clipPath>
</defs>
</svg>
