<svg width="40" height="40" viewBox="0 0 40 40" fill="none" xmlns="http://www.w3.org/2000/svg">
<g clip-path="url(#clip0_2025_313748)">
<path d="M20 36C28.8366 36 36 28.8366 36 20C36 11.1634 28.8366 4 20 4C11.1634 4 4 11.1634 4 20C4 28.8366 11.1634 36 20 36Z" fill="#00193C"/>
<g clip-path="url(#clip1_2025_313748)">
<path d="M15.0543 21.6649C15.744 21.6649 16.4169 21.435 16.9608 21.0145L12.587 16.6406C11.5328 18.0032 11.7851 19.9659 13.1478 21.0201C13.6973 21.435 14.3646 21.6649 15.0543 21.6649Z" fill="#E9ECEF"/>
<path d="M28.0634 18.5413C28.0634 17.8516 27.8335 17.1787 27.4129 16.6348L23.0391 21.0086C24.4017 22.0628 26.3587 21.8105 27.4129 20.4478C27.8335 19.9039 28.0634 19.231 28.0634 18.5413Z" fill="#E9ECEF"/>
<path d="M30.2673 13.7813L28.3327 15.7159C29.8916 17.5832 29.6449 20.3645 27.7776 21.9234C26.1402 23.2916 23.7626 23.2916 22.1252 21.9234L20 24.0486L17.8804 21.929C16.0131 23.4879 13.2318 23.2411 11.6729 21.3738C10.3047 19.7365 10.3047 17.3589 11.6729 15.7215L10.6804 14.729L9.73832 13.7813C8.6 15.6542 8 17.8075 8 20C8 26.628 13.372 32 20 32C26.628 32 32 26.628 32 20C32.0056 17.8075 31.4 15.6542 30.2673 13.7813Z" fill="#E9ECEF"/>
<path d="M28.6804 11.717C24.1103 6.92256 16.5178 6.74312 11.7234 11.3132C11.5832 11.4478 11.4486 11.5824 11.3196 11.717C11.0224 12.031 10.7421 12.3562 10.4785 12.6983L20 22.2254L29.5215 12.6983C29.2636 12.3562 28.9776 12.031 28.6804 11.717ZM20 9.56929C22.8037 9.56929 25.4168 10.6515 27.3794 12.6254L20 20.0048L12.6206 12.6254C14.5832 10.6515 17.1963 9.56929 20 9.56929Z" fill="#E9ECEF"/>
</g>
</g>
<defs>
<clipPath id="clip0_2025_313748">
<rect width="32" height="32" fill="white" transform="translate(4 4)"/>
</clipPath>
<clipPath id="clip1_2025_313748">
<rect width="24" height="24" fill="white" transform="translate(8 8)"/>
</clipPath>
</defs>
</svg>
