<svg width="40" height="40" viewBox="0 0 40 40" fill="none" xmlns="http://www.w3.org/2000/svg">
<g clip-path="url(#clip0_5336_126580)">
<path d="M20 36C28.8366 36 36 28.8366 36 20C36 11.1634 28.8366 4 20 4C11.1634 4 4 11.1634 4 20C4 28.8366 11.1634 36 20 36Z" fill="#E9ECEF"/>
<g clip-path="url(#clip1_5336_126580)">
<path d="M19.5528 24.9576C19.1328 25.5593 18.5467 26.0092 17.7946 26.3071C17.0425 26.6051 16.167 26.7542 15.168 26.7545C14.1577 26.7545 13.2608 26.5175 12.4775 26.0435C11.687 25.5616 11.0551 24.8586 10.6598 24.0214C10.2313 23.1473 10.0113 22.1341 10 20.9818V19.9005C10 18.033 10.4357 16.5856 11.3072 15.5582C12.1786 14.5308 13.4032 14.0171 14.9811 14.0171C16.2753 14.0171 17.3169 14.3477 18.1058 15.009C18.8948 15.6702 19.3772 16.6082 19.5533 17.8229H17.9181C17.6116 16.1768 16.6353 15.3538 14.9892 15.3538C13.8937 15.3538 13.0636 15.7387 12.4988 16.5085C11.934 17.2783 11.6487 18.3932 11.6431 19.8532V20.8673C11.6431 22.2591 11.961 23.3654 12.5967 24.1863C13.2325 25.0072 14.0924 25.4177 15.1765 25.4177C15.7199 25.4268 16.2618 25.3581 16.7857 25.2138C17.2215 25.0924 17.6159 24.8546 17.9267 24.5258V21.7481H15.0573V20.4112H19.5528V24.9576ZM21.6133 21.8925C21.6133 20.99 21.7907 20.1783 22.1455 19.4574C22.4696 18.7709 22.9837 18.1918 23.6269 17.7886C24.2791 17.3916 25.0305 17.1879 25.7938 17.2011C27.0483 17.2011 28.0629 17.6354 28.8377 18.5038C29.6125 19.3723 29.9998 20.5275 29.9998 21.9694V22.0801C29.9998 22.9769 29.8281 23.7815 29.4847 24.4939C29.165 25.1795 28.6534 25.7577 28.0118 26.1584C27.3731 26.5558 26.6394 26.7545 25.8108 26.7545C24.5621 26.7545 23.5503 26.3202 22.7755 25.4518C22.0006 24.5833 21.6133 23.4339 21.6133 22.0035V21.8925ZM23.1967 22.0801C23.1967 23.1018 23.4336 23.922 23.9076 24.5408C24.3815 25.1595 25.0159 25.4689 25.8105 25.4691C26.6109 25.4691 27.2466 25.1555 27.7177 24.5283C28.1889 23.901 28.4244 23.0226 28.4244 21.8931C28.4244 20.8827 28.1846 20.0639 27.705 19.4367C27.2253 18.8095 26.5883 18.4958 25.7938 18.4956C25.4285 18.4868 25.0665 18.5667 24.7389 18.7284C24.4112 18.8901 24.1275 19.1287 23.9122 19.424C23.4352 20.0424 23.1967 20.9278 23.1967 22.0801ZM22.9924 14.9068C22.9852 14.6695 23.069 14.4383 23.2265 14.2607C23.3826 14.0867 23.614 13.9997 23.9204 13.9997C24.2269 13.9997 24.4596 14.0867 24.6186 14.2607C24.7785 14.4372 24.864 14.6687 24.857 14.9068C24.8644 15.1436 24.7789 15.3739 24.6186 15.5484C24.4596 15.7195 24.2269 15.805 23.9204 15.805C23.614 15.805 23.3826 15.7195 23.2265 15.5484C23.0688 15.3727 22.985 15.1428 22.9926 14.9068H22.9924ZM26.6535 14.9238C26.6469 14.6854 26.7306 14.4532 26.8877 14.2738C27.0438 14.0969 27.2751 14.0085 27.5816 14.0085C27.8881 14.0085 28.1208 14.0969 28.2797 14.2738C28.4393 14.4521 28.5246 14.6847 28.5182 14.9239C28.5256 15.1607 28.44 15.391 28.2797 15.5655C28.1208 15.7365 27.8881 15.8221 27.5816 15.8221C27.2751 15.8221 27.0438 15.7365 26.8877 15.5655C26.7299 15.3897 26.6461 15.1598 26.6537 14.9237L26.6535 14.9238Z" fill="#4A4F55"/>
</g>
</g>
<defs>
<clipPath id="clip0_5336_126580">
<rect width="32" height="32" fill="white" transform="translate(4 4)"/>
</clipPath>
<clipPath id="clip1_5336_126580">
<rect width="20" height="12.7544" fill="white" transform="translate(10 14)"/>
</clipPath>
</defs>
</svg>
