<svg width="40" height="40" viewBox="0 0 40 40" fill="none" xmlns="http://www.w3.org/2000/svg">
<g clip-path="url(#clip0_5336_126594)">
<path d="M20 36C28.8366 36 36 28.8366 36 20C36 11.1634 28.8366 4 20 4C11.1634 4 4 11.1634 4 20C4 28.8366 11.1634 36 20 36Z" fill="#E9ECEF"/>
<g clip-path="url(#clip1_5336_126594)">
<path d="M25.1555 11C24.1246 10.9992 23.1355 11.4075 22.4054 12.1352C21.6752 12.8629 21.2636 13.8507 21.2609 14.8816V19.1853C20.8598 19.2123 20.4497 19.2294 20.0246 19.2294C19.5994 19.2294 19.1913 19.2464 18.7882 19.2705V14.8816C18.7718 13.8596 18.3543 12.885 17.6258 12.1681C16.8973 11.4512 15.9162 11.0494 14.8941 11.0494C13.872 11.0494 12.8909 11.4512 12.1624 12.1681C11.4339 12.885 11.0164 13.8596 11 14.8816V25.1676C11.0164 26.1895 11.4339 27.1641 12.1624 27.881C12.8909 28.5979 13.872 28.9997 14.8941 28.9997C15.9162 28.9997 16.8973 28.5979 17.6258 27.881C18.3543 27.1641 18.7718 26.1895 18.7882 25.1676V20.8638C19.1893 20.8368 19.5994 20.8197 20.0246 20.8197C20.4497 20.8197 20.8578 20.8027 21.2609 20.7786V25.1676C21.2773 26.1895 21.6948 27.1641 22.4233 27.881C23.1518 28.5979 24.1329 28.9997 25.155 28.9997C26.1771 28.9997 27.1583 28.5979 27.8868 27.881C28.6153 27.1641 29.0327 26.1895 29.0491 25.1676V14.8816C29.0465 13.8508 28.635 12.8633 27.9051 12.1356C27.1751 11.4078 26.1863 10.9995 25.1555 11ZM14.8936 12.5903C15.502 12.59 16.0857 12.8311 16.5165 13.2607C16.9474 13.6902 17.1903 14.2732 17.1919 14.8816V19.439C16.0525 19.6041 14.94 19.9186 13.8828 20.3745C13.4248 20.5755 12.9937 20.8329 12.5994 21.1406V14.8816C12.6009 14.2738 12.8433 13.6915 13.2733 13.2621C13.7033 12.8327 14.2859 12.5911 14.8936 12.5903ZM17.1919 25.1676C17.1919 25.7771 16.9497 26.3617 16.5187 26.7927C16.0877 27.2237 15.5031 27.4658 14.8936 27.4658C14.2841 27.4658 13.6995 27.2237 13.2685 26.7927C12.8375 26.3617 12.5953 25.7771 12.5953 25.1676V24.1357C12.5953 23.2243 13.3173 22.3609 14.5276 21.8235C15.3804 21.4555 16.2752 21.1939 17.1919 21.0443V25.1676ZM25.1555 27.4588C24.5471 27.4591 23.9635 27.218 23.5326 26.7884C23.1017 26.3589 22.8589 25.776 22.8573 25.1676V20.6101C23.9966 20.4451 25.1092 20.1305 26.1663 19.6746C26.6243 19.4736 27.0555 19.2162 27.4498 18.9085V25.1676C27.4482 25.7753 27.2059 26.3576 26.7759 26.787C26.3459 27.2164 25.7632 27.458 25.1555 27.4588ZM25.5215 18.2196C24.6687 18.5876 23.7739 18.8492 22.8573 18.9988V14.8816C22.8573 14.272 23.0994 13.6874 23.5304 13.2564C23.9614 12.8254 24.546 12.5833 25.1555 12.5833C25.7651 12.5833 26.3496 12.8254 26.7806 13.2564C27.2117 13.6874 27.4538 14.272 27.4538 14.8816V15.9134C27.4538 16.8208 26.7318 17.6842 25.5215 18.2196Z" fill="url(#paint0_linear_5336_126594)"/>
</g>
</g>
<defs>
<linearGradient id="paint0_linear_5336_126594" x1="12.1431" y1="27.6586" x2="27.8031" y2="11.9559" gradientUnits="userSpaceOnUse">
<stop stop-color="#00AEE9"/>
<stop offset="1" stop-color="#69FABD"/>
</linearGradient>
<clipPath id="clip0_5336_126594">
<rect width="32" height="32" fill="white" transform="translate(4 4)"/>
</clipPath>
<clipPath id="clip1_5336_126594">
<rect width="18.0491" height="18" fill="white" transform="translate(11 11)"/>
</clipPath>
</defs>
</svg>
