<svg width="40" height="40" viewBox="0 0 40 40" fill="none" xmlns="http://www.w3.org/2000/svg">
<g clip-path="url(#clip0_5336_126602)">
<path d="M20 36C28.8366 36 36 28.8366 36 20C36 11.1634 28.8366 4 20 4C11.1634 4 4 11.1634 4 20C4 28.8366 11.1634 36 20 36Z" fill="#00D4D5"/>
<path d="M22.5186 9V14.457L27.2566 11.732L22.5186 9Z" fill="white"/>
<path opacity="0.9" d="M27.2568 11.732V17.189L31.9938 14.457L27.2568 11.732Z" fill="white"/>
<path opacity="0.8" d="M22.5186 14.457V19.914L27.2566 17.189L22.5186 14.457ZM27.2566 17.189V22.646L31.9936 19.914L27.2566 17.189Z" fill="white"/>
<path opacity="0.8" d="M22.5186 19.914V25.371L27.2566 22.646L22.5186 19.914Z" fill="white"/>
<path d="M27.2568 22.646V28.103L31.9938 25.371L27.2568 22.646Z" fill="white"/>
<path opacity="0.4" d="M10.2734 14.273V19.73L15.0114 16.998L10.2734 14.273Z" fill="white"/>
<path opacity="0.2" d="M16.25 16.302V21.759L20.98 19.034L16.25 16.302Z" fill="white"/>
<path opacity="0.3" d="M12.7383 19.753V25.21L17.4753 22.478L12.7383 19.753Z" fill="white"/>
<path opacity="0.9" d="M15.8604 23.871V29.328L20.5904 26.596L15.8604 23.871Z" fill="white"/>
<path opacity="0.7" d="M22.4805 26.22V31.678L27.2105 28.945L22.4805 26.22Z" fill="white"/>
<path opacity="0.9" d="M17.0391 13.607V19.065L21.7691 16.34L17.0391 13.607Z" fill="white"/>
<path opacity="0.8" d="M22.5192 9V14.457L17.7812 11.732L22.5192 9Z" fill="white"/>
<path opacity="0.6" d="M17.0388 11.32V16.776L12.2998 14.044L17.0388 11.32Z" fill="white"/>
<path opacity="0.6" d="M21.7771 14.02V19.478L17.0391 16.745L21.7771 14.02Z" fill="white"/>
<path opacity="0.95" d="M16.2282 16.302V21.759L11.4902 19.034L16.2282 16.302Z" fill="white"/>
<path opacity="0.6" d="M22.5191 19.914V25.371L17.7891 22.646L22.5191 19.914Z" fill="white"/>
<path opacity="0.55" d="M12.738 21.185V26.642L8 23.909L12.738 21.185Z" fill="white"/>
<path d="M31.9938 14.457V19.914L27.2568 17.189L31.9938 14.457Z" fill="white"/>
<path opacity="0.95" d="M27.2566 17.19V22.646L22.5186 19.914L27.2566 17.19Z" fill="white"/>
<path opacity="0.9" d="M31.9938 19.914V25.371L27.2568 22.646L31.9938 19.914Z" fill="white"/>
<path opacity="0.7" d="M27.2566 22.646V28.103L22.5186 25.371L27.2566 22.646Z" fill="white"/>
<path opacity="0.4" d="M21.4704 24.92V30.377L16.7334 27.652L21.4704 24.92Z" fill="white"/>
<path d="M27.2566 11.732V17.189L22.5186 14.457L27.2566 11.732Z" fill="white"/>
</g>
<defs>
<clipPath id="clip0_5336_126602">
<rect width="32" height="32" fill="white" transform="translate(4 4)"/>
</clipPath>
</defs>
</svg>
