<svg xmlns="http://www.w3.org/2000/svg" viewBox="0 0 200 200"><path fill="#baf10b" d="M85.5 1.03C25.082 10.363-13.47 71.562 4.656 129.365c25.798 82.267 134.239 95.623 180.827 22.271 6.686-10.527 13.49-30.334 13.51-39.327.004-1.755.457-3.469 1.007-3.809.55-.34 1-4.668 1-9.618s-.387-8.761-.86-8.468c-.474.292-1.135-2.089-1.469-5.292-3.266-31.24-29.062-64.45-60.035-77.287C123.441 1.537 100.902-1.349 85.5 1.03m8.935 43.86c-12.827 5.826-19.397 20.246-15.541 34.106.614 2.209.117 2.842-4.315 5.5C57.628 94.661 52.818 121.414 64.78 139c9.555 14.046 28.344 18.911 43.282 11.207l5.825-3.004.306 2.649.307 2.648h20v-74l-16.718-.5c-18.325-.548-19.199-.836-20.377-6.723-1.222-6.112 3.56-9.277 14.018-9.277H120V43l-10.75.022c-8.282.017-11.683.446-14.815 1.868M.36 100c0 5.225.169 7.362.375 4.75s.206-6.888 0-9.5S.36 94.775.36 100m88.024-.087c-13.539 6.148-13.761 26.262-.366 33.096 7.356 3.753 15.794 2.136 21.598-4.14 4.357-4.711 5.384-8.624 5.384-20.518V98l-11.25.022c-8.818.017-12.14.426-15.366 1.891" fill-rule="evenodd"/></svg>