<svg width="40" height="40" viewBox="0 0 40 40" fill="none" xmlns="http://www.w3.org/2000/svg">
<g clip-path="url(#clip0_5379_140920)">
<path d="M20 36C28.8366 36 36 28.8366 36 20C36 11.1634 28.8366 4 20 4C11.1634 4 4 11.1634 4 20C4 28.8366 11.1634 36 20 36Z" fill="#E9ECEF"/>
<g clip-path="url(#clip1_5379_140920)">
<path opacity="0.2" d="M13.6172 25.997L14.6199 29L21.5022 20L14.6199 11L13.5684 13.9378L18.14 19.9984L13.6172 25.997Z" fill="#FF564F"/>
<path d="M28.2868 28.9984H25.0207L18.1367 19.9984L25.0207 11H28.2868L21.4997 19.9984L28.2868 28.9984Z" fill="#F08179"/>
<path d="M12 11H14.6177V28.9984H12V11Z" fill="#FF564F"/>
<path d="M28.2897 28.9984H25.0236L18.1396 19.9984L25.0236 11H28.2897L21.5026 19.9984L28.2897 28.9984Z" fill="#FF564F"/>
<path d="M28.2897 28.9984H25.0236L18.1396 19.9984L25.0236 11H28.2897L21.5026 19.9984L28.2897 28.9984Z" fill="#FF564F"/>
<path d="M28.2897 28.9984H25.0236L18.1396 19.9984L25.0236 11H28.2897L21.5026 19.9984L28.2897 28.9984Z" fill="#FF564F"/>
<path d="M28.2897 28.9984H25.0236L18.1396 19.9984L25.0236 11H28.2897L21.5026 19.9984L28.2897 28.9984Z" fill="#FF564F"/>
</g>
</g>
<defs>
<clipPath id="clip0_5379_140920">
<rect width="32" height="32" fill="white" transform="translate(4 4)"/>
</clipPath>
<clipPath id="clip1_5379_140920">
<rect width="16.2896" height="18" fill="white" transform="translate(12 11)"/>
</clipPath>
</defs>
</svg>
