<svg width="40" height="40" viewBox="0 0 40 40" fill="none" xmlns="http://www.w3.org/2000/svg">
<g clip-path="url(#clip0_5342_127021)">
<path d="M20 36C28.8366 36 36 28.8366 36 20C36 11.1634 28.8366 4 20 4C11.1634 4 4 11.1634 4 20C4 28.8366 11.1634 36 20 36Z" fill="white"/>
<g clip-path="url(#clip1_5342_127021)">
<path d="M24.6517 4.68726V10.6567C24.6517 12.5935 23.0841 14.1612 21.1473 14.1612H21.0962C20.125 14.1554 19.2503 14.1612 19.2503 14.1612C19.0855 14.1612 18.9038 14.1441 18.7448 14.1612C17.6543 14.2748 16.7057 14.7689 15.9105 15.6492C15.8878 15.6719 15.8651 15.7004 15.8481 15.7231C15.2062 16.5524 14.8541 17.6259 14.8541 18.7845V18.8413C14.8541 19.5853 15.0075 20.2953 15.2858 20.9315C15.5641 21.5676 15.4221 22.306 14.8882 22.749C14.3656 23.1864 13.7466 23.6976 13.3319 24.0326C12.1221 22.6581 11.4121 20.8633 11.4121 18.9038V18.847C11.4121 14.5814 14.8257 11.0259 19.4604 11.0259C19.75 11.0259 20.693 11.0259 21.1359 11.0259V4.04544C20.7611 4.01704 20.3805 4 20 4C11.1622 4 4 11.1622 4 20C4 27.219 8.78238 33.3191 15.3482 35.307V29.383C15.3482 27.4292 16.9329 25.8445 18.8868 25.8445H18.9038C19.875 25.8501 20.7497 25.8445 20.7497 25.8445C20.9144 25.8445 21.0962 25.8615 21.2552 25.8445C22.3458 25.7309 23.2943 25.2368 24.0894 24.3564C24.1122 24.3337 24.1349 24.3053 24.152 24.2826C24.7937 23.4533 25.1459 22.3798 25.1459 21.2212V21.1644C25.1459 20.585 24.9016 19.8069 24.6574 19.1821C24.3848 18.4835 24.5949 17.6827 25.1686 17.2055C25.6628 16.7909 26.1682 16.382 26.6681 15.9787C27.8779 17.3532 28.5879 19.148 28.5879 21.1076V21.1644C28.5879 25.4299 25.1743 28.9855 20.5396 28.9855C20.2499 28.9855 19.3071 28.9855 18.864 28.9855V35.9546C19.2389 35.9829 19.6194 36 20 36C28.8378 36 36 28.8377 36 20C36 12.781 31.2176 6.68086 24.6517 4.68726Z" fill="#1D8AED"/>
</g>
</g>
<defs>
<clipPath id="clip0_5342_127021">
<rect width="32" height="32" fill="white" transform="translate(4 4)"/>
</clipPath>
<clipPath id="clip1_5342_127021">
<rect width="32" height="32" fill="white" transform="translate(4 4)"/>
</clipPath>
</defs>
</svg>
