<svg width="40" height="40" viewBox="0 0 40 40" fill="none" xmlns="http://www.w3.org/2000/svg">
<g clip-path="url(#clip0_5342_126823)">
<path d="M20 36C28.8366 36 36 28.8366 36 20C36 11.1634 28.8366 4 20 4C11.1634 4 4 11.1634 4 20C4 28.8366 11.1634 36 20 36Z" fill="#010E35"/>
<path fill-rule="evenodd" clip-rule="evenodd" d="M30.0931 18.7994C30.1397 19.1923 30.1656 19.5929 30.1656 20C30.1656 25.5221 25.6836 30 20.1536 30C16.1271 30 12.6569 27.626 11.0667 24.2026L12.6685 23.3975C13.9624 26.2368 16.827 28.2101 20.1536 28.2101C24.6925 28.2101 28.3736 24.5348 28.3736 20C28.3736 19.916 28.3723 19.832 28.3697 19.748L30.0931 18.7994ZM20.1536 10C24.3703 10 27.9789 12.604 29.4539 16.291L27.7409 16.8364C26.5013 13.8731 23.5707 11.7899 20.1536 11.7899C15.6147 11.7899 11.9336 15.4652 11.9336 20C11.9336 20.0556 11.9349 20.1124 11.9362 20.168L10.2593 21.5379C10.1817 21.0364 10.1416 20.5234 10.1416 20C10.1429 14.4766 14.6249 10 20.1536 10Z" fill="white"/>
<path fill-rule="evenodd" clip-rule="evenodd" d="M9 23.9983L18.792 15.9988L18.3858 19.3253L24.1008 16.0906L23.811 19.249L31.3077 16.8647L21.1404 22.4579L21.8999 19.2749L16.0257 22.7137L16.4139 20.2726L9 23.9983Z" fill="white"/>
</g>
<defs>
<clipPath id="clip0_5342_126823">
<rect width="32" height="32" fill="white" transform="translate(4 4)"/>
</clipPath>
</defs>
</svg>
