<svg width="40" height="40" viewBox="0 0 40 40" fill="none" xmlns="http://www.w3.org/2000/svg">
<g clip-path="url(#clip0_5342_126856)">
<path d="M20 36C28.8366 36 36 28.8366 36 20C36 11.1634 28.8366 4 20 4C11.1634 4 4 11.1634 4 20C4 28.8366 11.1634 36 20 36Z" fill="#E9ECEF"/>
<path d="M36 19.57C35.808 10.9257 28.704 4 20 4C11.168 4 4 11.1294 4 19.9138C4 26.2538 7.7888 31.9955 13.6384 34.5162C14.4192 33.3577 15.008 32.0719 15.4048 30.7351C15.7248 29.9203 16.0704 29.131 16.4416 28.3544C16.9024 28.4945 17.3888 28.5708 17.888 28.5708C19.232 28.5708 20.512 28.0361 21.4464 27.094L21.4976 27.0431C20.9472 26.8394 20.3584 26.7376 19.7696 26.7376C18.6816 26.7376 17.6192 27.094 16.7488 27.7561C17.1968 26.8394 17.6704 25.9483 18.1696 25.0825C18.7072 25.2735 19.2704 25.3626 19.8336 25.3626C21.088 25.3626 22.2912 24.8916 23.2128 24.0513L23.264 24.0004C22.6496 23.7458 21.984 23.6057 21.3184 23.6057C20.3328 23.6057 19.3728 23.8986 18.5536 24.4333C19.0528 23.6185 19.552 22.8292 20.0896 22.078C20.4992 22.1926 20.9344 22.2435 21.3568 22.2435C22.7648 22.2435 24.1088 21.6579 25.056 20.614L25.0944 20.563C24.608 20.3975 24.0832 20.3211 23.5712 20.3211C22.5472 20.3211 21.5488 20.6394 20.7168 21.2251C20.7552 21.1741 20.8064 21.1105 20.8448 21.0468C21.1648 20.6394 21.4976 20.2193 21.8304 19.8246C23.904 19.1499 25.44 17.393 25.8112 15.2415L25.824 15.1651H25.8112C23.648 15.7253 21.9968 17.4567 21.5488 19.6337C21.2288 20.0156 20.9088 20.4103 20.6016 20.8049C20.8192 20.2448 20.9216 19.6591 20.9216 19.0608C20.9216 18.2078 20.704 17.3803 20.2816 16.6419L20.2432 16.6928C19.616 17.5458 19.2704 18.577 19.2704 19.6337C19.2704 20.4103 19.4496 21.1869 19.808 21.8871C19.296 22.6 18.8096 23.3384 18.336 24.115C18.4 23.8094 18.4256 23.4912 18.4256 23.1856C18.4256 21.9125 17.9264 20.6903 17.0432 19.7737L17.0176 19.8374C16.7744 20.423 16.6592 21.0595 16.6592 21.6834C16.6592 22.8801 17.0944 24.0259 17.8752 24.9298C17.4016 25.7446 16.9664 26.5848 16.5312 27.4505C16.5696 27.1832 16.5952 26.9031 16.5952 26.6357C16.5952 25.2608 16.0448 23.9368 15.0592 22.9819L15.0336 23.0456C14.8544 23.5803 14.752 24.1532 14.752 24.7133C14.752 26.0246 15.2512 27.285 16.16 28.2398C15.8784 28.8382 15.6096 29.4366 15.3536 30.0604C15.2896 29.9967 15.2 29.9458 15.1104 29.9203C14.6496 29.793 14.2144 29.5893 13.8176 29.3474C13.4848 29.1437 13.1264 28.991 12.7552 28.8637C11.3088 28.3926 11.5264 27.7051 10.7712 26.3047C10.528 26.0246 10.272 25.7446 10.0032 25.4772C9.7472 25.3117 9.5424 25.0953 9.4016 24.8279C9.2352 24.4969 9.1328 24.1405 9.0944 23.7713C9.0816 23.3511 8.8128 22.9947 8.416 22.8674C6.2912 22.1417 7.2384 19.3918 7.3152 19.0353C7.2768 18.577 7.1744 18.1187 7.008 17.6731C6.9952 17.6222 6.9824 17.5585 6.9696 17.4949C6.944 17.3803 6.9312 17.253 6.9312 17.1257C6.9312 16.6674 7.0976 16.2218 7.4048 15.878C7.6608 15.6234 8.544 15.216 8.736 14.9741C8.928 14.7322 9.056 14.4649 9.248 14.2485C9.8368 13.6628 10.528 13.1663 11.2832 12.7971C11.8976 12.4661 12 11.6131 12.2432 11.3458C12.64 10.8875 13.2544 10.8875 13.7152 10.4928C13.9456 10.2891 14.2784 10.1873 14.496 9.97084C15.5584 9.00329 16.9152 8.37947 18.3488 8.20123C18.5792 8.1885 18.8224 8.17577 19.0656 8.17577C19.8336 8.17577 20.5888 8.27762 21.3184 8.46858C21.4592 8.49405 21.6 8.51951 21.728 8.5577C23.9296 8.63409 26.5792 9.0924 27.552 10.0218C28.0256 10.4801 28.384 11.0402 28.576 11.6768C28.7296 12.1606 28.9472 12.6316 29.216 13.0645L29.8048 14.0193C30.0736 14.4394 30.2144 14.9359 30.2144 15.4324C30.2144 15.6361 30.1888 15.8398 30.1504 16.0435C30.0864 16.2218 30.0608 16.4127 30.0608 16.6037C30.0608 16.7692 30.0864 16.922 30.1248 17.0747C30.432 17.5458 30.8032 17.9659 31.2128 18.3478C31.3792 18.5133 31.5584 18.6534 31.7504 18.768C32.1984 19.0353 32.6464 19.3281 33.056 19.6464C33.056 19.6719 33.056 19.6973 33.056 19.7228C33.056 19.9647 32.9408 20.1811 32.7488 20.3084C32.3776 20.6394 31.648 21.1614 31.648 21.1614C31.6736 21.3142 31.7248 21.4542 31.776 21.5815C31.8784 21.7725 32.1216 22.0653 32.0448 22.3072C31.968 22.5618 31.4432 22.7782 31.584 23.0583C31.7248 23.3511 32.1088 23.4275 31.9936 23.6949C31.8912 23.9495 31.3664 24.3951 31.4176 24.586C31.4688 24.777 31.904 26.5593 30.9056 26.8649C29.6768 27.1068 28.4352 27.2468 27.1808 27.2723C26.7712 27.2977 26.4 27.5269 26.208 27.8834C26.016 28.2398 25.9008 28.6218 25.8496 29.0164C25.4912 30.4296 25.0048 31.8172 24.416 33.154C23.8272 34.4908 24.3776 33.2304 24.3264 33.3577C24.1984 33.6251 24.1088 33.9051 24.0832 34.1979C24.1728 34.4144 24.3008 34.6053 24.4544 34.7708C24.5824 34.9109 24.7616 35 24.9664 35C25.0304 35 25.1072 34.9873 25.1712 34.9745C31.648 32.7339 35.9872 26.6485 35.9872 19.8246C35.9872 19.7355 35.9872 19.6337 35.9872 19.5446L36 19.57Z" fill="#00DACC"/>
</g>
<defs>
<clipPath id="clip0_5342_126856">
<rect width="32" height="32" fill="white" transform="translate(4 4)"/>
</clipPath>
</defs>
</svg>
