<svg width="40" height="40" viewBox="0 0 40 40" fill="none" xmlns="http://www.w3.org/2000/svg">
<g clip-path="url(#clip0_5342_126880)">
<path d="M20 36C28.8366 36 36 28.8366 36 20C36 11.1634 28.8366 4 20 4C11.1634 4 4 11.1634 4 20C4 28.8366 11.1634 36 20 36Z" fill="#1D1336"/>
<g clip-path="url(#clip1_5342_126880)">
<path d="M19.7816 10C17.8005 10 15.9005 10.7938 14.4996 12.2067C13.0988 13.6197 12.3118 15.5361 12.3118 17.5343C12.2867 17.9037 12.2867 18.2744 12.3118 18.6437C13.559 17.8579 14.9584 17.3498 16.4161 17.1534C19.5354 17.1534 21.0129 20.0347 23.8859 20.0347C25.039 19.929 26.1409 19.505 27.0709 18.8093C27.1506 18.3892 27.189 17.9621 27.1858 17.5343C27.1816 15.5488 26.4023 13.6449 25.0165 12.2348C23.6307 10.8246 21.75 10.0218 19.7816 10V10Z" fill="#F2B705"/>
<path d="M23.9842 21.9886C22.6063 21.8957 21.2892 21.3816 20.2082 20.5149C19.1492 19.6746 17.8596 19.1832 16.5143 19.1074C15.1197 19.2687 13.7817 19.7563 12.607 20.5315C12.5605 20.5696 12.5064 20.597 12.4483 20.6118C12.3902 20.6266 12.3296 20.6283 12.2707 20.617C12.2119 20.6056 12.1562 20.5814 12.1076 20.546C12.059 20.5106 12.0187 20.4649 11.9895 20.4121C11.9603 20.3594 11.9429 20.3008 11.9386 20.2405C11.9342 20.1802 11.943 20.1197 11.9643 20.0633C11.9856 20.0068 12.0189 19.9557 12.0619 19.9135C12.1048 19.8714 12.1564 19.8393 12.213 19.8194C13.5088 18.9763 14.9815 18.449 16.5143 18.2794C18.011 18.3593 19.4482 18.8964 20.6351 19.8194C21.5726 20.5865 22.716 21.0536 23.9185 21.1607C25.0195 21.0464 26.0664 20.6218 26.9393 19.9353C26.9844 19.9044 27.0352 19.8828 27.0887 19.8719C27.1421 19.8609 27.1972 19.8608 27.2507 19.8716C27.3042 19.8824 27.3551 19.9039 27.4003 19.9347C27.4454 19.9656 27.4841 20.0052 27.5139 20.0513C27.5708 20.1418 27.5906 20.2511 27.5691 20.3562C27.5477 20.4612 27.4867 20.5537 27.399 20.6143C26.4097 21.3839 25.2271 21.8599 23.9842 21.9886Z" fill="#53CBC8"/>
<path d="M13.2473 25.6151C13.1385 25.6151 13.0341 25.5714 12.9571 25.4938C12.8802 25.4162 12.8369 25.3109 12.8369 25.2011V21.5912C12.8558 21.4977 12.9061 21.4135 12.9794 21.3531C13.0527 21.2927 13.1445 21.2596 13.2391 21.2596C13.3338 21.2596 13.4256 21.2927 13.4989 21.3531C13.5722 21.4135 13.6225 21.4977 13.6414 21.5912V25.2011C13.6414 25.3081 13.6005 25.4109 13.527 25.4881C13.4536 25.5653 13.3533 25.6108 13.2473 25.6151Z" fill="#53CBC8"/>
<path d="M15.0862 25.7641C14.9774 25.7641 14.873 25.7205 14.796 25.6428C14.719 25.5652 14.6758 25.4599 14.6758 25.3501V20.3824C14.6758 20.2726 14.719 20.1673 14.796 20.0897C14.873 20.0121 14.9774 19.9685 15.0862 19.9685C15.1951 19.9685 15.2995 20.0121 15.3764 20.0897C15.4534 20.1673 15.4966 20.2726 15.4966 20.3824V25.3501C15.4966 25.4599 15.4534 25.5652 15.3764 25.6428C15.2995 25.7205 15.1951 25.7641 15.0862 25.7641Z" fill="#53CBC8"/>
<path d="M16.9246 30.3012C16.8707 30.2991 16.8177 30.2863 16.7688 30.2635C16.7198 30.2407 16.6757 30.2083 16.6391 30.1684C16.6025 30.1284 16.5741 30.0815 16.5555 30.0304C16.5369 29.9793 16.5284 29.9251 16.5306 29.8707V20.4487C16.5305 20.3417 16.5715 20.2388 16.645 20.1617C16.7184 20.0845 16.8186 20.039 16.9246 20.0347C17.0335 20.0347 17.1379 20.0783 17.2148 20.1559C17.2918 20.2336 17.3351 20.3389 17.3351 20.4487V29.8707C17.3373 29.9264 17.3283 29.982 17.3087 30.0342C17.289 30.0863 17.2591 30.134 17.2208 30.1742C17.1825 30.2144 17.1365 30.2464 17.0856 30.2682C17.0347 30.29 16.9799 30.3013 16.9246 30.3012Z" fill="#53CBC8"/>
<path d="M18.78 25.3832C18.7201 25.384 18.6607 25.3716 18.6061 25.3467C18.5515 25.3219 18.5029 25.2854 18.4638 25.2396C18.4247 25.1938 18.396 25.14 18.3797 25.0818C18.3634 25.0237 18.36 24.9627 18.3696 24.903V21.2435C18.3696 21.1337 18.4128 21.0284 18.4898 20.9508C18.5667 20.8731 18.6711 20.8295 18.78 20.8295C18.8888 20.8295 18.9932 20.8731 19.0702 20.9508C19.1472 21.0284 19.1904 21.1337 19.1904 21.2435V24.903C19.2 24.9627 19.1965 25.0237 19.1802 25.0818C19.164 25.14 19.1353 25.1938 19.0961 25.2396C19.057 25.2854 19.0085 25.3219 18.9538 25.3467C18.8992 25.3716 18.8399 25.384 18.78 25.3832Z" fill="#53CBC8"/>
<path d="M20.6184 24.1579C20.5096 24.1579 20.4052 24.1143 20.3282 24.0366C20.2512 23.959 20.208 23.8537 20.208 23.7439V22.237C20.208 22.1272 20.2512 22.0219 20.3282 21.9443C20.4052 21.8667 20.5096 21.8231 20.6184 21.8231C20.7273 21.8231 20.8317 21.8667 20.9087 21.9443C20.9856 22.0219 21.0289 22.1272 21.0289 22.237V23.7439C21.0289 23.8537 20.9856 23.959 20.9087 24.0366C20.8317 24.1143 20.7273 24.1579 20.6184 24.1579Z" fill="#53CBC8"/>
<path d="M22.4573 28.3804C22.3485 28.3804 22.2441 28.3368 22.1671 28.2591C22.0901 28.1815 22.0469 28.0762 22.0469 27.9664V22.9987C22.0469 22.8889 22.0901 22.7836 22.1671 22.706C22.2441 22.6284 22.3485 22.5848 22.4573 22.5848C22.5662 22.5848 22.6706 22.6284 22.7475 22.706C22.8245 22.7836 22.8677 22.8889 22.8677 22.9987V27.9664C22.8677 28.0762 22.8245 28.1815 22.7475 28.2591C22.6706 28.3368 22.5662 28.3804 22.4573 28.3804Z" fill="#53CBC8"/>
<path d="M24.2962 28.0492C24.1873 28.0492 24.0829 28.0056 24.006 27.9279C23.929 27.8503 23.8857 27.745 23.8857 27.6352V23.2471C23.8857 23.1373 23.929 23.032 24.006 22.9544C24.0829 22.8768 24.1873 22.8331 24.2962 22.8331C24.405 22.8331 24.5094 22.8768 24.5864 22.9544C24.6634 23.032 24.7066 23.1373 24.7066 23.2471V27.6683C24.6983 27.7723 24.6515 27.8693 24.5754 27.9399C24.4993 28.0105 24.3996 28.0495 24.2962 28.0492Z" fill="#53CBC8"/>
<path d="M26.1516 25.2176C26.0428 25.2176 25.9384 25.174 25.8614 25.0964C25.7845 25.0188 25.7412 24.9135 25.7412 24.8037V22.6344C25.7412 22.5247 25.7845 22.4194 25.8614 22.3417C25.9384 22.2641 26.0428 22.2205 26.1516 22.2205C26.2605 22.2205 26.3649 22.2641 26.4419 22.3417C26.5188 22.4194 26.5621 22.5247 26.5621 22.6344V24.8037C26.5621 24.9135 26.5188 25.0188 26.4419 25.0964C26.3649 25.174 26.2605 25.2176 26.1516 25.2176Z" fill="#53CBC8"/>
</g>
</g>
<defs>
<clipPath id="clip0_5342_126880">
<rect width="32" height="32" fill="white" transform="translate(4 4)"/>
</clipPath>
<clipPath id="clip1_5342_126880">
<rect width="15.58" height="20.3012" fill="white" transform="translate(12 10)"/>
</clipPath>
</defs>
</svg>
