<svg width="40" height="40" viewBox="0 0 40 40" fill="none" xmlns="http://www.w3.org/2000/svg">
<g clip-path="url(#clip0_5342_126872)">
<path d="M20 36C28.8366 36 36 28.8366 36 20C36 11.1634 28.8366 4 20 4C11.1634 4 4 11.1634 4 20C4 28.8366 11.1634 36 20 36Z" fill="#1D1336"/>
<path d="M13.5114 19.5263C13.5114 19.2988 13.6968 19.1144 13.9253 19.1144H29.2394C29.468 19.1144 29.6533 19.2988 29.6533 19.5263C29.6533 19.7538 29.468 19.9382 29.2394 19.9382H13.9253C13.6968 19.9382 13.5114 19.7538 13.5114 19.5263Z" fill="#E1147B"/>
<path d="M10.4072 21.3387C10.4072 21.1112 10.5925 20.9268 10.8211 20.9268H21.9963C22.2249 20.9268 22.4102 21.1112 22.4102 21.3387C22.4102 21.5661 22.2249 21.7506 21.9963 21.7506H10.8211C10.5925 21.7506 10.4072 21.5661 10.4072 21.3387Z" fill="#E1147B"/>
<path d="M20.796 26.3638C20.5674 26.3638 20.3821 26.5482 20.3821 26.7757C20.3821 27.0032 20.5674 27.1876 20.796 27.1876H27.708C27.9366 27.1876 28.1219 27.0032 28.1219 26.7757C28.1219 26.5482 27.9366 26.3638 27.708 26.3638H20.796Z" fill="#E1147B"/>
<path d="M16.1604 28.5881C16.1604 28.3606 16.3457 28.1762 16.5743 28.1762H23.4449C23.6735 28.1762 23.8588 28.3606 23.8588 28.5881C23.8588 28.8156 23.6735 29 23.4449 29H16.5743C16.3457 29 16.1604 28.8156 16.1604 28.5881Z" fill="#E1147B"/>
<path d="M13.9253 22.7391C13.6968 22.7391 13.5114 22.9235 13.5114 23.151C13.5114 23.3785 13.6968 23.5629 13.9253 23.5629H27.4183C27.6469 23.5629 27.8322 23.3785 27.8322 23.151C27.8322 22.9235 27.6469 22.7391 27.4183 22.7391H13.9253Z" fill="#E1147B"/>
<path d="M11.1936 24.9634C11.1936 24.7359 11.3789 24.5515 11.6075 24.5515H16.9882C17.2168 24.5515 17.4021 24.7359 17.4021 24.9634C17.4021 25.1909 17.2168 25.3753 16.9882 25.3753H11.6075C11.3789 25.3753 11.1936 25.1909 11.1936 24.9634Z" fill="#E1147B"/>
<path d="M18.561 24.5515C18.3324 24.5515 18.1471 24.7359 18.1471 24.9634C18.1471 25.1909 18.3324 25.3753 18.561 25.3753H29.7361C29.9647 25.3753 30.15 25.1909 30.15 24.9634C30.15 24.7359 29.9647 24.5515 29.7361 24.5515H18.561Z" fill="#E1147B"/>
<path d="M12.932 19.5263C12.932 19.7538 12.7467 19.9382 12.5181 19.9382C12.2895 19.9382 12.1042 19.7538 12.1042 19.5263C12.1042 19.2988 12.2895 19.1144 12.5181 19.1144C12.7467 19.1144 12.932 19.2988 12.932 19.5263Z" fill="#E1147B"/>
<path d="M9.41389 21.7506C9.64249 21.7506 9.82779 21.5661 9.82779 21.3387C9.82779 21.1112 9.64249 20.9268 9.41389 20.9268C9.1853 20.9268 9 21.1112 9 21.3387C9 21.5661 9.1853 21.7506 9.41389 21.7506Z" fill="#E1147B"/>
<path d="M19.8026 26.7757C19.8026 27.0032 19.6173 27.1876 19.3887 27.1876C19.1602 27.1876 18.9749 27.0032 18.9749 26.7757C18.9749 26.5482 19.1602 26.3638 19.3887 26.3638C19.6173 26.3638 19.8026 26.5482 19.8026 26.7757Z" fill="#E1147B"/>
<path d="M15.167 29C15.3956 29 15.5809 28.8156 15.5809 28.5881C15.5809 28.3606 15.3956 28.1762 15.167 28.1762C14.9384 28.1762 14.7531 28.3606 14.7531 28.5881C14.7531 28.8156 14.9384 29 15.167 29Z" fill="#E1147B"/>
<path d="M12.932 23.151C12.932 23.3785 12.7467 23.5629 12.5181 23.5629C12.2895 23.5629 12.1042 23.3785 12.1042 23.151C12.1042 22.9235 12.2895 22.7391 12.5181 22.7391C12.7467 22.7391 12.932 22.9235 12.932 23.151Z" fill="#E1147B"/>
<path d="M10.2003 25.3753C10.4289 25.3753 10.6142 25.1909 10.6142 24.9634C10.6142 24.7359 10.4289 24.5515 10.2003 24.5515C9.9717 24.5515 9.7864 24.7359 9.7864 24.9634C9.7864 25.1909 9.9717 25.3753 10.2003 25.3753Z" fill="#E1147B"/>
<path d="M27.7005 15.0684C28.0333 15.8679 28.2046 16.7249 28.2046 17.5904C28.2046 17.7724 28.0563 17.9199 27.8735 17.9199H15.2911C15.1082 17.9199 14.96 17.7724 14.96 17.5904C14.96 16.7249 15.1312 15.8679 15.4641 15.0684C15.7969 14.2688 16.2847 13.5423 16.8996 12.9303C17.5145 12.3183 18.2446 11.8329 19.048 11.5017C19.8515 11.1705 20.7126 11 21.5823 11C22.4519 11 23.3131 11.1705 24.1165 11.5017C24.92 11.8329 25.65 12.3183 26.265 12.9303C26.8799 13.5423 27.3677 14.2688 27.7005 15.0684Z" fill="#53CBC7"/>
</g>
<defs>
<clipPath id="clip0_5342_126872">
<rect width="32" height="32" fill="white" transform="translate(4 4)"/>
</clipPath>
</defs>
</svg>
