<svg width="40" height="40" viewBox="0 0 40 40" fill="none" xmlns="http://www.w3.org/2000/svg">
<g clip-path="url(#clip0_5342_126907)">
<path d="M20 36C28.8366 36 36 28.8366 36 20C36 11.1634 28.8366 4 20 4C11.1634 4 4 11.1634 4 20C4 28.8366 11.1634 36 20 36Z" fill="black"/>
<g clip-path="url(#clip1_5342_126907)">
<path d="M24.8356 12.8178L21.4933 17.7778C21.2622 18.1156 21.7067 18.5244 22.0267 18.24L25.3156 15.3778C25.4044 15.3067 25.5289 15.36 25.5289 15.4844V24.4267C25.5289 24.5511 25.3689 24.6044 25.2978 24.5156L15.3422 12.6044C15.0222 12.2133 14.56 12 14.0444 12H13.6889C12.7644 12 12 12.7644 12 13.7067V26.2933C12 27.2356 12.7644 28 13.7067 28C14.2933 28 14.8444 27.6978 15.1644 27.1822L18.5067 22.2222C18.7378 21.8844 18.2933 21.4756 17.9733 21.76L14.6844 24.6044C14.5956 24.6756 14.4711 24.6222 14.4711 24.4978V15.5733C14.4711 15.4489 14.6311 15.3956 14.7022 15.4844L24.6578 27.3956C24.9778 27.7867 25.4578 28 25.9556 28H26.3111C27.2533 28 28.0178 27.2356 28.0178 26.2933V13.7067C28.0178 12.7644 27.2533 12 26.3111 12C25.7067 12 25.1556 12.3022 24.8356 12.8178Z" fill="white"/>
</g>
</g>
<defs>
<clipPath id="clip0_5342_126907">
<rect width="32" height="32" fill="white" transform="translate(4 4)"/>
</clipPath>
<clipPath id="clip1_5342_126907">
<rect width="16.0178" height="16" fill="white" transform="translate(12 12)"/>
</clipPath>
</defs>
</svg>
