<svg width="40" height="40" viewBox="0 0 40 40" fill="none" xmlns="http://www.w3.org/2000/svg">
<g clip-path="url(#clip0_5342_126945)">
<path d="M20 36C28.8366 36 36 28.8366 36 20C36 11.1634 28.8366 4 20 4C11.1634 4 4 11.1634 4 20C4 28.8366 11.1634 36 20 36Z" fill="#E9ECEF"/>
<g clip-path="url(#clip1_5342_126945)">
<mask id="mask0_5342_126945" style="mask-type:luminance" maskUnits="userSpaceOnUse" x="10" y="9" width="21" height="21">
<path d="M31 9H10V30H31V9Z" fill="white"/>
</mask>
<g mask="url(#mask0_5342_126945)">
<path fill-rule="evenodd" clip-rule="evenodd" d="M28.8672 13.1672C27.2758 11.1328 24.9461 9.83672 22.3703 9.83672C17.3828 9.83672 13.7242 14.4797 13.7242 19.5C13.7242 22.9945 16.0539 25.6195 18.6297 25.6195C18.8758 25.6195 19.1055 25.6031 19.3516 25.5539C17.6125 24.2906 16.5133 21.9937 16.5133 19.5C16.5133 15.5297 19.2039 12.4289 22.3703 12.4289C25.832 12.4289 28.2273 15.8578 28.2273 19.5C28.2109 22.1906 27.2594 24.8648 25.5695 26.8336C24.093 28.5562 22.1898 29.6391 20.0898 29.9836C20.0898 29.9836 20.2703 30 20.5 30C26.2914 30 31 25.2914 31 19.5C31 17.1211 30.2125 14.9227 28.8672 13.1672ZM27.2758 19.5C27.2758 16.0055 24.9461 13.3805 22.3703 13.3805C22.1242 13.3805 21.8945 13.3969 21.6484 13.4461C23.3875 14.7094 24.4867 17.0063 24.4867 19.5C24.4867 23.4703 21.7961 26.5711 18.6297 26.5711C15.168 26.5711 12.7727 23.1422 12.7727 19.5C12.7891 16.8094 13.7406 14.1352 15.4305 12.1664C16.907 10.4437 18.8102 9.36094 20.9102 9.01641C20.9102 9.01641 20.7297 9 20.5 9C14.7086 9 10 13.7086 10 19.5C10 21.8789 10.7875 24.0773 12.1328 25.8328C13.7242 27.8672 16.0539 29.1469 18.6297 29.1469C23.6172 29.1633 27.2758 24.5203 27.2758 19.5Z" fill="#0089DB"/>
</g>
</g>
</g>
<defs>
<clipPath id="clip0_5342_126945">
<rect width="32" height="32" fill="white" transform="translate(4 4)"/>
</clipPath>
<clipPath id="clip1_5342_126945">
<rect width="21" height="21" fill="white" transform="translate(10 9)"/>
</clipPath>
</defs>
</svg>
