<svg version="1.0" xmlns="http://www.w3.org/2000/svg"
 width="40t" height="450.000000pt" viewBox="0 0 450.000000 450.000000"
 preserveAspectRatio="xMidYMid meet">
<g transform="translate(0.000000,450.000000) scale(0.050000,-0.050000)"
fill="#06d35a" stroke="none">
<path d="M4122 7257 c-1570 -260 -2280 -2231 -1233 -3425 67 -76 66 -80 -37
-150 -1122 -773 -128 -1950 1648 -1951 1761 -1 2745 1158 1647 1942 -114 81
-126 96 -103 126 185 248 237 324 300 447 184 356 275 898 209 1244 -7 33 -21
105 -31 160 -200 1048 -1307 1789 -2400 1607z m2013 -3910 c281 -275 285 -558
10 -837 -116 -118 -127 -114 -90 33 68 267 -75 522 -409 730 l-147 92 96 60
c52 33 121 82 152 108 l57 48 102 -56 c57 -30 159 -110 229 -178z m-2827 111
c85 -57 151 -105 148 -108 -3 -4 -76 -53 -162 -110 -292 -195 -455 -530 -353
-722 57 -107 5 -107 -100 -1 -313 318 -256 644 166 956 143 106 116 108 301
-15z m664 -301 c239 -65 748 -65 994 1 204 54 238 50 446 -51 417 -203 511
-466 258 -720 -135 -135 -162 -136 -174 -10 -68 703 -1855 721 -2000 20 -30
-144 -32 -144 -176 0 -266 265 -140 540 340 746 157 67 121 66 312 14z m781
-516 c386 -73 579 -264 422 -416 -302 -292 -1245 -255 -1405 55 -58 112 78
251 320 327 169 53 481 69 663 34z"/>
</g>
</svg>