<svg width="40" height="40" viewBox="0 0 40 40" fill="none" xmlns="http://www.w3.org/2000/svg">
<g clip-path="url(#clip0_5342_126920)">
<path d="M20 36C28.8366 36 36 28.8366 36 20C36 11.1634 28.8366 4 20 4C11.1634 4 4 11.1634 4 20C4 28.8366 11.1634 36 20 36Z" fill="black"/>
<path d="M15.4526 17H9.14663C9.10774 17 9.07044 17.0154 9.04295 17.043C9.01544 17.0704 9 17.1077 9 17.1467V23.4526C9 23.4915 9.01544 23.5288 9.04295 23.5563C9.07044 23.5838 9.10774 23.5992 9.14663 23.5992H15.4526C15.4915 23.5992 15.5288 23.5838 15.5563 23.5563C15.5838 23.5288 15.5992 23.4915 15.5992 23.4526V17.1467C15.5992 17.1077 15.5838 17.0704 15.5563 17.043C15.5288 17.0154 15.4915 17 15.4526 17ZM13.3995 21.2529C13.3995 21.2917 13.384 21.329 13.3565 21.3566C13.329 21.384 13.2917 21.3995 13.2529 21.3995H11.3464C11.3075 21.3995 11.2702 21.384 11.2427 21.3566C11.2152 21.329 11.1998 21.2917 11.1998 21.2529V19.3464C11.1998 19.3075 11.2152 19.2702 11.2427 19.2427C11.2702 19.2152 11.3075 19.1998 11.3464 19.1998H13.2529C13.2917 19.1998 13.329 19.2152 13.3565 19.2427C13.384 19.2702 13.3995 19.3075 13.3995 19.3464V21.2529Z" fill="white"/>
<path d="M28.6537 19.2H26.7472C26.6663 19.2 26.6006 19.2656 26.6006 19.3466V21.2531C26.6006 21.3341 26.6663 21.3998 26.7472 21.3998H28.6537C28.7347 21.3998 28.8003 21.3341 28.8003 21.2531V19.3466C28.8003 19.2656 28.7347 19.2 28.6537 19.2Z" fill="white"/>
<path d="M26.4545 17.0002H24.548C24.467 17.0002 24.4014 17.0658 24.4014 17.1468V19.0532C24.4014 19.1342 24.467 19.1999 24.548 19.1999H26.4545C26.5355 19.1999 26.6011 19.1342 26.6011 19.0532V17.1468C26.6011 17.0658 26.5355 17.0002 26.4545 17.0002Z" fill="white"/>
<path d="M30.8539 17.0002H28.9474C28.8665 17.0002 28.8008 17.0658 28.8008 17.1468V19.0532C28.8008 19.1342 28.8665 19.1999 28.9474 19.1999H30.8539C30.9349 19.1999 31.0005 19.1342 31.0005 19.0532V17.1468C31.0005 17.0658 30.9349 17.0002 30.8539 17.0002Z" fill="white"/>
<path d="M26.4545 21.3996H24.548C24.467 21.3996 24.4014 21.4653 24.4014 21.5463V23.4527C24.4014 23.5337 24.467 23.5994 24.548 23.5994H26.4545C26.5355 23.5994 26.6011 23.5337 26.6011 23.4527V21.5463C26.6011 21.4653 26.5355 21.3996 26.4545 21.3996Z" fill="white"/>
<path d="M30.8539 21.3996H28.9474C28.8665 21.3996 28.8008 21.4653 28.8008 21.5463V23.4527C28.8008 23.5337 28.8665 23.5994 28.9474 23.5994H30.8539C30.9349 23.5994 31.0005 23.5337 31.0005 23.4527V21.5463C31.0005 21.4653 30.9349 21.3996 30.8539 21.3996Z" fill="white"/>
<path d="M23.1517 17.0002H21.2453C21.1643 17.0002 21.0986 17.0658 21.0986 17.1468V19.0532C21.0986 19.1342 21.1643 19.1999 21.2453 19.1999H23.1517C23.2327 19.1999 23.2984 19.1342 23.2984 19.0532V17.1468C23.2984 17.0658 23.2327 17.0002 23.1517 17.0002Z" fill="white"/>
<path d="M23.1517 21.3996H21.2453C21.1643 21.3996 21.0986 21.4653 21.0986 21.5463V23.4527C21.0986 23.5337 21.1643 23.5994 21.2453 23.5994H23.1517C23.2327 23.5994 23.2984 23.5337 23.2984 23.4527V21.5463C23.2984 21.4653 23.2327 21.3996 23.1517 21.3996Z" fill="white"/>
<path d="M21.0978 19.3447C21.0978 19.3058 21.0823 19.2686 21.0548 19.2411C21.0273 19.2135 20.99 19.1981 20.9511 19.1981H18.898V17.1467C18.898 17.1077 18.8825 17.0704 18.855 17.043C18.8275 17.0154 18.7902 17 18.7513 17H16.8449C16.806 17 16.7687 17.0154 16.7412 17.043C16.7137 17.0704 16.6982 17.1077 16.6982 17.1467V23.4493C16.6982 23.4882 16.7137 23.5255 16.7412 23.553C16.7687 23.5805 16.806 23.5959 16.8449 23.5959H18.7513C18.7902 23.5959 18.8275 23.5805 18.855 23.553C18.8825 23.5255 18.898 23.4882 18.898 23.4493V21.3979H20.9511C20.99 21.3979 21.0273 21.3824 21.0548 21.3549C21.0823 21.3274 21.0978 21.2901 21.0978 21.2512V19.3447Z" fill="white"/>
</g>
<defs>
<clipPath id="clip0_5342_126920">
<rect width="32" height="32" fill="white" transform="translate(4 4)"/>
</clipPath>
</defs>
</svg>
