<svg width="40" height="40" viewBox="0 0 40 40" fill="none" xmlns="http://www.w3.org/2000/svg">
<path fill-rule="evenodd" clip-rule="evenodd" d="M20 4C28.8372 4 36 11.1628 36 20C36 28.8372 28.8372 36 20 36C11.1628 36 4 28.8372 4 20C4 11.1628 11.1628 4 20 4Z" fill="black"/>
<path d="M12.7938 20.0001L12.8053 24.2308L16.4002 26.3462V28.8231L10.7015 25.4808V18.7629L12.7938 20.0001ZM12.7938 15.7693V18.2347L10.7002 16.9962V14.5308L12.7938 13.2924L14.8976 14.5308L12.7938 15.7693ZM17.9015 14.5308L19.9951 13.2924L22.0989 14.5308L19.9951 15.7693L17.9015 14.5308Z" fill="#F0B90B"/>
<path d="M14.3066 23.3539V20.877L16.4002 22.1154V24.5808L14.3066 23.3539ZM17.9015 27.2334L19.9951 28.4718L22.0989 27.2334V29.6988L19.9951 30.9372L17.9015 29.6988V27.2334ZM25.1015 14.5308L27.1951 13.2924L29.2989 14.5308V16.9962L27.1951 18.2347V15.7693L25.1015 14.5308ZM27.1951 24.2308L27.2066 20.0001L29.3002 18.7616V25.4795L23.6015 28.8218V26.3449L27.1951 24.2308Z" fill="#F0B90B"/>
<path d="M25.6932 23.3539L23.5996 24.5808V22.1154L25.6932 20.877V23.3539Z" fill="#F0B90B"/>
<path d="M25.6938 16.6462L25.7054 19.1231L22.1002 21.2385V25.4795L20.0066 26.7065L17.913 25.4795V21.2385L14.3079 19.1231V16.6462L16.4105 15.4077L19.9938 17.5334L23.5989 15.4077L25.7028 16.6462H25.6938ZM14.3066 12.4167L19.9951 9.06287L25.6938 12.4167L23.6002 13.6552L19.9951 11.5295L16.4002 13.6552L14.3066 12.4167Z" fill="#F0B90B"/>
</svg>
