<svg width="40" height="40" viewBox="0 0 40 40" fill="none" xmlns="http://www.w3.org/2000/svg">
<g clip-path="url(#clip0_5342_126972)">
<path d="M20 36C28.8366 36 36 28.8366 36 20C36 11.1634 28.8366 4 20 4C11.1634 4 4 11.1634 4 20C4 28.8366 11.1634 36 20 36Z" fill="#FF0420"/>
<path d="M14.5528 24.6922C13.5089 24.6922 12.6536 24.4409 11.9869 23.9383C11.329 23.4268 11 22.6999 11 21.7576C11 21.5601 11.0219 21.3178 11.0658 21.0307C11.1799 20.3845 11.3421 19.6083 11.5527 18.7018C12.1491 16.2339 13.6887 15 16.1713 15C16.8468 15 17.4521 15.1167 17.9871 15.35C18.5223 15.5743 18.9433 15.9154 19.2504 16.373C19.5574 16.8218 19.711 17.3602 19.711 17.9884C19.711 18.1769 19.689 18.4147 19.6451 18.7018C19.5136 19.5006 19.3557 20.2768 19.1715 21.0307C18.8644 22.2601 18.3337 23.18 17.5792 23.7902C16.8248 24.3915 15.816 24.6922 14.5528 24.6922ZM14.737 22.7537C15.2283 22.7537 15.645 22.6056 15.9871 22.3095C16.338 22.0134 16.588 21.5601 16.7371 20.9499C16.9389 20.1063 17.0924 19.3705 17.1976 18.7423C17.2327 18.5538 17.2503 18.3608 17.2503 18.1634C17.2503 17.3467 16.8336 16.9384 16.0003 16.9384C15.509 16.9384 15.0879 17.0865 14.737 17.3827C14.3949 17.6788 14.1493 18.132 14.0001 18.7423C13.8422 19.3435 13.6843 20.0794 13.5265 20.9499C13.4914 21.1294 13.4738 21.3178 13.4738 21.5153C13.4738 22.3409 13.8948 22.7537 14.737 22.7537Z" fill="white"/>
<path d="M20.3156 24.5576C20.2191 24.5576 20.1446 24.5261 20.0919 24.4633C20.0481 24.3915 20.0349 24.3108 20.0524 24.221L21.8683 15.4712C21.8858 15.3725 21.9341 15.2917 22.0131 15.2289C22.092 15.166 22.1754 15.1346 22.2631 15.1346H25.7632C26.737 15.1346 27.5177 15.341 28.1054 15.7538C28.702 16.1667 29.0002 16.7634 29.0002 17.5442C29.0002 17.7686 28.9739 18.0019 28.9213 18.2442C28.702 19.2762 28.259 20.039 27.5922 20.5326C26.9343 21.0262 26.0308 21.273 24.8816 21.273H23.1052L22.4999 24.221C22.4824 24.3197 22.4341 24.4005 22.3551 24.4633C22.2762 24.5261 22.1929 24.5576 22.1052 24.5576H20.3156ZM24.9737 19.4153C25.3421 19.4153 25.6623 19.3121 25.9343 19.1057C26.215 18.8993 26.3992 18.6031 26.487 18.2172C26.5133 18.0647 26.5264 17.9301 26.5264 17.8134C26.5264 17.5532 26.4519 17.3557 26.3028 17.2211C26.1536 17.0775 25.8992 17.0057 25.5395 17.0057H23.9605L23.4605 19.4153H24.9737Z" fill="white"/>
</g>
<defs>
<clipPath id="clip0_5342_126972">
<rect width="32" height="32" fill="white" transform="translate(4 4)"/>
</clipPath>
</defs>
</svg>
