<svg width="40" height="40" viewBox="0 0 40 40" fill="none" xmlns="http://www.w3.org/2000/svg">
<g clip-path="url(#clip0_5342_126778)">
<path d="M20 36C28.8366 36 36 28.8366 36 20C36 11.1634 28.8366 4 20 4C11.1634 4 4 11.1634 4 20C4 28.8366 11.1634 36 20 36Z" fill="#E9ECEF"/>
<rect x="14.5459" y="10.9091" width="3.63636" height="3.63636" fill="#D1345B"/>
<rect x="14.5459" y="25.4545" width="10.9091" height="3.63636" fill="#D1345B"/>
<rect x="18.1816" y="18.1818" width="3.63636" height="3.63636" fill="#D1345B"/>
<rect x="25.4551" y="18.1818" width="3.63636" height="7.27273" fill="#D1345B"/>
<rect x="10.9092" y="18.1818" width="3.63636" height="7.27273" fill="#D1345B"/>
<rect x="21.8184" y="10.9091" width="3.63636" height="3.63636" fill="#D1345B"/>
<rect x="10.9092" y="14.5455" width="18.1818" height="3.63636" fill="#D1345B"/>
</g>
<defs>
<clipPath id="clip0_5342_126778">
<rect width="32" height="32" fill="white" transform="translate(4 4)"/>
</clipPath>
</defs>
</svg>
