<svg width="40" height="40" viewBox="0 0 40 40" fill="none" xmlns="http://www.w3.org/2000/svg">
<g clip-path="url(#clip0_5342_127021)">
<path d="M20 36C28.8366 36 36 28.8366 36 20C36 11.1634 28.8366 4 20 4C11.1634 4 4 11.1634 4 20C4 28.8366 11.1634 36 20 36Z" fill="#231F20"/>
<g clip-path="url(#clip1_5342_127021)">
<path d="M19.4865 4.01649C17.1941 4.08681 14.9052 4.66656 12.869 5.68778C11.2649 6.48826 9.94912 7.43915 8.6814 8.71312C7.68245 9.71519 6.97495 10.6212 6.26432 11.8025C3.48822 16.4292 3.24796 22.2334 5.63651 27.0648C6.45301 28.7201 7.39101 30.0296 8.6814 31.3196C9.98115 32.626 11.438 33.6601 13.0674 34.4442C13.5062 34.6556 14.3543 35.0173 14.409 35.0173C14.4188 35.0173 14.4282 32.4338 14.4313 29.2768V23.5394L14.5016 23.6324C14.5399 23.6836 14.6586 23.8438 14.7641 23.9844C14.9946 24.2981 15.5134 24.8392 15.8271 25.0986C16.4034 25.5694 17.2359 26.0303 17.9243 26.2577C19.3041 26.7156 20.8441 26.6964 22.2271 26.2097C24.241 25.499 25.8353 23.7606 26.3666 21.6923C26.5237 21.0903 26.5713 20.6934 26.5713 20.0179C26.5713 19.3425 26.5264 18.9838 26.3889 18.433C26.344 18.2599 26.3057 18.1001 26.2994 18.0775C26.2897 18.0392 26.61 18.0326 28.2684 18.0232L30.2436 18.0169L30.2757 18.0939C30.2917 18.1357 30.3366 18.4142 30.3749 18.7084C30.4581 19.339 30.4741 20.5239 30.4069 21.0903C30.1124 23.5812 29.1005 25.6909 27.3781 27.4133C25.3419 29.4464 22.5533 30.5539 19.7104 30.4613C19.2142 30.4422 18.7947 30.407 18.5192 30.359L18.4298 30.343V35.9393L18.5353 35.9584C18.7595 36.0034 20.6898 36.0194 21.1828 35.9807C24.7078 35.7119 27.9285 34.3575 30.573 32.0396C32.6474 30.2211 34.2515 27.8294 35.1383 25.2396C35.7755 23.3828 36.0349 21.6923 35.9963 19.6816C35.9482 17.2387 35.4134 15.0361 34.3379 12.8847C32.7627 9.72808 30.2014 7.17935 27.0573 5.64285C26.526 5.38344 25.6775 5.01856 25.6037 5.01856C25.5779 5.01856 25.5685 6.5074 25.5685 10.7079V16.3941L25.3829 16.1347C24.323 14.649 22.7225 13.6758 20.9297 13.4262C20.4624 13.359 19.5659 13.359 19.0982 13.4262C16.5432 13.7817 14.4145 15.6256 13.7035 18.0974C13.5144 18.7506 13.4538 19.1893 13.4538 19.9382C13.4538 20.6266 13.5116 21.0938 13.6585 21.6318C13.6937 21.7568 13.7226 21.8721 13.7226 21.8912C13.7226 21.9135 13.0565 21.9232 11.7407 21.9232H9.75886L9.73972 21.8369C9.57017 21.0431 9.51899 19.7077 9.62447 18.8018C9.81668 17.1274 10.3738 15.5905 11.2926 14.1915C11.6642 13.6246 12.0224 13.1832 12.5189 12.6741C13.4058 11.7713 14.2062 11.1759 15.2595 10.6411C16.6331 9.94295 17.984 9.57807 19.492 9.50462C20.0268 9.47884 20.9008 9.50775 21.2946 9.56557C21.4196 9.58158 21.538 9.5976 21.5602 9.5976C21.5891 9.5976 21.5985 9.02761 21.5985 6.84728V4.09658L21.4801 4.07743C21.3266 4.05165 20.094 3.99422 19.9018 4.00047C19.8217 4.0036 19.6362 4.01024 19.4858 4.01649H19.4865Z" fill="white"/>
</g>
</g>
<defs>
<clipPath id="clip0_5342_127021">
<rect width="32" height="32" fill="white" transform="translate(4 4)"/>
</clipPath>
<clipPath id="clip1_5342_127021">
<rect width="32" height="32" fill="white" transform="translate(4 4)"/>
</clipPath>
</defs>
</svg>
