<svg width="40" height="40" viewBox="0 0 40 40" fill="none" xmlns="http://www.w3.org/2000/svg">
<g clip-path="url(#clip0_5379_144351)">
<path d="M20 36C28.8366 36 36 28.8366 36 20C36 11.1634 28.8366 4 20 4C11.1634 4 4 11.1634 4 20C4 28.8366 11.1634 36 20 36Z" fill="#E9ECEF"/>
<path d="M24.6292 16.8407C24.3003 16.6527 23.8773 16.6527 23.5013 16.8407L20.8695 18.3916L19.0836 19.3786L16.4987 20.9295C16.1697 21.1175 15.7467 21.1175 15.3708 20.9295L13.3499 19.7076C13.0209 19.5196 12.7859 19.1436 12.7859 18.7206V16.3708C12.7859 15.9948 12.9739 15.6188 13.3499 15.3838L15.3708 14.2089C15.6997 14.0209 16.1227 14.0209 16.4987 14.2089L18.5196 15.4308C18.8486 15.6188 19.0836 15.9948 19.0836 16.4178V17.9687L20.8695 16.9347V15.3368C20.8695 14.9608 20.6815 14.5849 20.3055 14.3499L16.5457 12.141C16.2167 11.953 15.7937 11.953 15.4178 12.141L11.564 14.3969C11.188 14.5849 11 14.9608 11 15.3368V19.7546C11 20.1305 11.188 20.5065 11.564 20.7415L15.3708 22.9504C15.6997 23.1384 16.1227 23.1384 16.4987 22.9504L19.0836 21.4465L20.8695 20.4125L23.4543 18.9086C23.7833 18.7206 24.2063 18.7206 24.5822 18.9086L26.6031 20.0836C26.9321 20.2715 27.1671 20.6475 27.1671 21.0705V23.4204C27.1671 23.7963 26.9791 24.1723 26.6031 24.4073L24.6292 25.5822C24.3003 25.7702 23.8773 25.7702 23.5013 25.5822L21.4804 24.4073C21.1514 24.2193 20.9164 23.8433 20.9164 23.4204V21.9164L19.1305 22.9504V24.5013C19.1305 24.8773 19.3185 25.2533 19.6945 25.4883L23.5013 27.6971C23.8303 27.8851 24.2533 27.8851 24.6292 27.6971L28.436 25.4883C28.765 25.3003 29 24.9243 29 24.5013V20.0366C29 19.6606 28.812 19.2846 28.436 19.0496L24.6292 16.8407Z" fill="#8247E5"/>
</g>
<defs>
<clipPath id="clip0_5379_144351">
<rect width="32" height="32" fill="white" transform="translate(4 4)"/>
</clipPath>
</defs>
</svg>
