<svg width="40" height="40" viewBox="0 0 40 40" fill="none" xmlns="http://www.w3.org/2000/svg">
<path d="M20 36C28.8366 36 36 28.8366 36 20C36 11.1634 28.8366 4 20 4C11.1634 4 4 11.1634 4 20C4 28.8366 11.1634 36 20 36Z" fill="#052CC0"/>
<path d="M17.9098 26.9693C17.6104 26.9693 17.3225 26.8311 17.1497 26.5777L13.4299 21.4299H11V19.5528H13.9021C14.2015 19.5528 14.4894 19.7025 14.6622 19.9443L17.7025 24.1593L22.3436 13.5643C22.4933 13.2188 22.8273 13 23.2073 13H29V14.8772H23.8177L18.7735 26.4165C18.6353 26.7274 18.3474 26.9347 18.0134 26.9693C17.9789 26.9693 17.9443 26.9808 17.9098 26.9808V26.9693Z" fill="#00C389"/>
</svg>
