<svg width="40" height="40" viewBox="0 0 40 40" fill="none" xmlns="http://www.w3.org/2000/svg">
<g clip-path="url(#clip0_5342_127054)">
<path d="M20 36C28.8366 36 36 28.8366 36 20C36 11.1634 28.8366 4 20 4C11.1634 4 4 11.1634 4 20C4 28.8366 11.1634 36 20 36Z" fill="#FFDBB0"/>
<g clip-path="url(#clip1_5342_127054)">
<path d="M28.1442 23.1738V12.0997C28.1294 11.1731 27.4088 10.4272 26.5043 10.4272H15.2233C12.7891 10.4649 10.833 12.5065 10.833 15.0076C10.833 15.8513 11.0536 16.5745 11.3919 17.2074C11.6787 17.7347 12.1273 18.2319 12.5685 18.6011C12.6935 18.7065 12.6347 18.6613 13.0171 18.9024C13.5466 19.2338 14.1496 19.3996 14.1496 19.3996L14.1423 26.0215C14.157 26.3379 14.1864 26.6392 14.2673 26.918C14.5173 27.8522 15.1498 28.5678 16.0102 28.9143C16.3705 29.0575 16.775 29.1554 17.2089 29.163L26.2174 29.1931C28.0118 29.1931 29.4678 27.7015 29.4678 25.8557C29.4752 24.7634 28.9458 23.7841 28.1442 23.1738Z" fill="#FFEEDA"/>
<path d="M28.3652 25.9387C28.3285 27.1214 27.3798 28.0706 26.2179 28.0706L20.0186 28.048C20.5112 27.4604 20.8127 26.6995 20.8127 25.8708C20.8127 24.5676 20.0553 23.6711 20.0553 23.6711H26.2252C27.4092 23.6711 28.3726 24.6579 28.3726 25.8708L28.3652 25.9387Z" fill="#EBC28E"/>
<path d="M13.1568 17.667C12.4435 16.9739 11.9434 16.0774 11.9434 15.0152V14.9022C12.0023 13.0866 13.4584 11.6251 15.2307 11.5724H26.5116C26.8058 11.5874 27.0411 11.7984 27.0411 12.1073V21.8857C27.2984 21.9309 27.4234 21.9686 27.6735 22.059C27.8721 22.1343 28.1442 22.2925 28.1442 22.2925V12.1073C28.1294 11.1806 27.4088 10.4348 26.5043 10.4348H15.2233C12.7891 10.4725 10.833 12.5141 10.833 15.0152C10.833 16.4691 11.4802 17.7122 12.5391 18.586C12.6127 18.6463 12.6788 18.7217 12.87 18.7217C13.201 18.7217 13.4363 18.4504 13.4216 18.1566C13.4142 17.908 13.3113 17.8176 13.1568 17.667Z" fill="#101010"/>
<path d="M26.2174 22.526H17.3706C16.775 22.5335 16.297 23.0233 16.297 23.6334V24.9367C16.3117 25.5394 16.8117 26.0517 17.4074 26.0517H18.0619V24.9367H17.4074V23.6636C17.4074 23.6636 17.5692 23.6636 17.7678 23.6636C18.8855 23.6636 19.7092 24.7258 19.7092 25.8633C19.7092 26.8728 18.812 28.161 17.3118 28.0556C15.9807 27.9652 15.2601 26.7523 15.2601 25.8633V14.8193C15.2601 14.3221 14.863 13.9153 14.3776 13.9153H13.4951V15.0453H14.1496V25.8708C14.1129 28.0707 15.6792 29.1781 17.3118 29.1781L26.2248 29.2082C28.0191 29.2082 29.4752 27.7166 29.4752 25.8708C29.4752 24.0252 28.0118 22.526 26.2174 22.526ZM28.3647 25.9387C28.328 27.1214 27.3793 28.0707 26.2174 28.0707L20.0181 28.048C20.5108 27.4604 20.8123 26.6995 20.8123 25.8708C20.8123 24.5676 20.0548 23.6711 20.0548 23.6711H26.2248C27.4087 23.6711 28.3721 24.658 28.3721 25.8708L28.3647 25.9387Z" fill="#101010"/>
<path d="M23.835 15.2488H17.165V14.1188H23.835C24.1365 14.1188 24.3866 14.3674 24.3866 14.6838C24.3866 14.9927 24.144 15.2488 23.835 15.2488Z" fill="#101010"/>
<path d="M23.835 20.5672H17.165V19.4372H23.835C24.1365 19.4372 24.3866 19.6858 24.3866 20.0022C24.3866 20.3111 24.144 20.5672 23.835 20.5672Z" fill="#101010"/>
<path d="M25.0117 17.908H17.165V16.778H25.0043C25.3059 16.778 25.5559 17.0266 25.5559 17.343C25.5632 17.6519 25.3132 17.908 25.0117 17.908Z" fill="#101010"/>
</g>
</g>
<defs>
<clipPath id="clip0_5342_127054">
<rect width="32" height="32" fill="white" transform="translate(4 4)"/>
</clipPath>
<clipPath id="clip1_5342_127054">
<rect width="20" height="20" fill="white" transform="translate(10 10)"/>
</clipPath>
</defs>
</svg>
