<svg width="40" height="40" viewBox="0 0 40 40" fill="none" xmlns="http://www.w3.org/2000/svg">
<g clip-path="url(#clip0_10125_71125)">
<path d="M20 36C28.8366 36 36 28.8366 36 20C36 11.1634 28.8366 4 20 4C11.1634 4 4 11.1634 4 20C4 28.8366 11.1634 36 20 36Z" fill="#E9ECEF"/>
<g clip-path="url(#clip1_10125_71125)">
<path d="M27.9176 24.1131L25.2763 26.9033C25.2189 26.9639 25.1494 27.0122 25.0722 27.0452C24.995 27.0783 24.9118 27.0953 24.8276 27.0952H12.3066C12.2469 27.0952 12.1884 27.078 12.1385 27.0458C12.0885 27.0135 12.0492 26.9676 12.0254 26.9136C12.0016 26.8596 11.9943 26.8 12.0044 26.742C12.0146 26.684 12.0417 26.6302 12.0824 26.5871L14.7257 23.797C14.783 23.7365 14.8522 23.6883 14.9292 23.6553C15.0061 23.6222 15.0891 23.6051 15.1731 23.605H27.6934C27.7531 23.605 27.8116 23.6222 27.8615 23.6544C27.9114 23.6867 27.9507 23.7327 27.9747 23.7866C27.9984 23.8406 28.0057 23.9002 27.9956 23.9582C27.9854 24.0162 27.9583 24.0701 27.9176 24.1131ZM25.2763 18.4945C25.2189 18.4338 25.1494 18.3855 25.0722 18.3525C24.995 18.3195 24.9118 18.3025 24.8276 18.3025H12.3066C12.2469 18.3025 12.1884 18.3197 12.1385 18.352C12.0885 18.3842 12.0492 18.4302 12.0254 18.4841C12.0016 18.5381 11.9943 18.5978 12.0044 18.6558C12.0146 18.7137 12.0417 18.7676 12.0824 18.8106L14.7257 21.6008C14.783 21.6612 14.8522 21.7094 14.9292 21.7425C15.0061 21.7755 15.0891 21.7926 15.1731 21.7927H27.6934C27.7531 21.7927 27.8116 21.7756 27.8615 21.7433C27.9114 21.711 27.9507 21.6651 27.9747 21.6111C27.9984 21.5571 28.0057 21.4975 27.9956 21.4395C27.9854 21.3815 27.9583 21.3277 27.9176 21.2846L25.2763 18.4945ZM12.3066 16.4903H24.8276C24.9118 16.4903 24.995 16.4733 25.0722 16.4402C25.1494 16.4072 25.2189 16.3589 25.2763 16.2983L27.9176 13.5081C27.9583 13.4651 27.9854 13.4113 27.9956 13.3533C28.0057 13.2953 27.9984 13.2356 27.9747 13.1816C27.9507 13.1277 27.9114 13.0817 27.8615 13.0495C27.8116 13.0172 27.7531 13 27.6934 13H15.1731C15.0891 13.0001 15.0061 13.0173 14.9292 13.0503C14.8522 13.0833 14.783 13.1315 14.7257 13.192L12.0831 15.9822C12.0424 16.0251 12.0153 16.0789 12.0052 16.1368C11.995 16.1947 12.0022 16.2544 12.026 16.3083C12.0497 16.3622 12.0889 16.4082 12.1387 16.4405C12.1886 16.4728 12.2469 16.4901 12.3066 16.4903Z" fill="url(#paint0_linear_10125_71125)"/>
</g>
</g>
<defs>
<linearGradient id="paint0_linear_10125_71125" x1="13.3506" y1="27.4312" x2="26.2592" y2="12.6578" gradientUnits="userSpaceOnUse">
<stop offset="0.08" stop-color="#9945FF"/>
<stop offset="0.3" stop-color="#8752F3"/>
<stop offset="0.5" stop-color="#5497D5"/>
<stop offset="0.6" stop-color="#43B4CA"/>
<stop offset="0.72" stop-color="#28E0B9"/>
<stop offset="0.97" stop-color="#19FB9B"/>
</linearGradient>
<clipPath id="clip0_10125_71125">
<rect width="32" height="32" fill="white" transform="translate(4 4)"/>
</clipPath>
<clipPath id="clip1_10125_71125">
<rect width="16" height="14.0952" fill="white" transform="translate(12 13)"/>
</clipPath>
</defs>
</svg>
