<svg version="1.1" id="Layer_1" xmlns="http://www.w3.org/2000/svg" xmlns:xlink="http://www.w3.org/1999/xlink" x="0px" y="0px"
	 width="100%" viewBox="0 0 350 350" enable-background="new 0 0 350 350" xml:space="preserve">
<path fill="#010101" opacity="1.000000" stroke="none" 
	d="
M241.000000,351.000000 
	C160.666687,351.000000 80.833359,351.000000 1.000032,351.000000 
	C1.000021,234.333374 1.000021,117.666740 1.000011,1.000079 
	C117.666603,1.000053 234.333206,1.000053 350.999878,1.000026 
	C350.999908,117.666588 350.999908,234.333176 350.999939,350.999878 
	C314.500000,351.000000 278.000000,351.000000 241.000000,351.000000 
M285.623993,199.093140 
	C218.571182,215.316162 163.692505,250.658508 119.415581,304.523468 
	C169.293091,322.831940 215.157227,317.803741 256.689484,285.448761 
	C285.916992,262.679565 301.960754,232.092804 306.508392,194.614975 
	C299.112274,196.218521 292.780396,197.591309 285.623993,199.093140 
M284.940430,107.591675 
	C271.774323,88.240051 255.021225,72.807701 234.042892,62.368011 
	C196.770813,43.819893 158.739410,42.893944 119.536804,58.297153 
	C168.541382,117.748550 230.256393,154.255936 306.340668,167.800507 
	C304.285278,145.712906 296.808319,126.263824 284.940430,107.591675 
M151.152374,153.379959 
	C119.881226,140.435928 91.184891,123.453423 66.816605,98.894424 
	C50.181396,120.676460 40.542698,144.374542 38.822098,171.568008 
	C93.620621,171.568008 147.479401,171.568008 200.977982,171.568008 
	C184.777298,165.695618 168.299286,159.722702 151.152374,153.379959 
M113.427422,227.892471 
	C140.985550,211.661224 170.663605,200.512131 201.149353,191.316788 
	C147.175339,191.316788 93.201317,191.316788 38.696075,191.316788 
	C40.879322,218.470184 50.147327,242.310318 66.936752,263.693970 
	C80.986176,249.372589 96.204994,237.921463 113.427422,227.892471 
M107.178024,254.690872 
	C97.969536,262.186066 88.761055,269.681213 78.720581,277.853577 
	C87.313881,284.350922 94.610428,289.867798 102.133499,295.555939 
	C127.912407,262.771240 158.146347,236.574738 192.749115,215.208954 
	C162.355347,223.930801 133.839371,236.456894 107.178024,254.690872 
M99.914093,102.576027 
	C128.135056,123.949913 159.934982,137.878708 193.723602,147.816055 
	C158.390686,126.466522 127.864784,99.721664 101.948265,66.980843 
	C94.222160,72.950317 87.050461,78.491447 79.169083,84.580887 
	C86.346413,90.818481 92.851654,96.471992 99.914093,102.576027 
z"/>
<path fill="#FDFDFD" opacity="1.000000" stroke="none" 
	d="
M286.036255,199.028625 
	C292.780396,197.591309 299.112274,196.218521 306.508392,194.614975 
	C301.960754,232.092804 285.916992,262.679565 256.689484,285.448761 
	C215.157227,317.803741 169.293091,322.831940 119.415581,304.523468 
	C163.692505,250.658508 218.571182,215.316162 286.036255,199.028625 
z"/>
<path fill="#FDFDFD" opacity="1.000000" stroke="none" 
	d="
M285.135590,107.895676 
	C296.808319,126.263824 304.285278,145.712906 306.340668,167.800507 
	C230.256393,154.255936 168.541382,117.748550 119.536804,58.297153 
	C158.739410,42.893944 196.770813,43.819893 234.042892,62.368011 
	C255.021225,72.807701 271.774323,88.240051 285.135590,107.895676 
z"/>
<path fill="#FAFAFA" opacity="1.000000" stroke="none" 
	d="
M151.486832,153.564865 
	C168.299286,159.722702 184.777298,165.695618 200.977982,171.568008 
	C147.479401,171.568008 93.620621,171.568008 38.822098,171.568008 
	C40.542698,144.374542 50.181396,120.676460 66.816605,98.894424 
	C91.184891,123.453423 119.881226,140.435928 151.486832,153.564865 
z"/>
<path fill="#FDFDFD" opacity="1.000000" stroke="none" 
	d="
M113.112167,228.078568 
	C96.204994,237.921463 80.986176,249.372589 66.936752,263.693970 
	C50.147327,242.310318 40.879322,218.470184 38.696075,191.316788 
	C93.201317,191.316788 147.175339,191.316788 201.149353,191.316788 
	C170.663605,200.512131 140.985550,211.661224 113.112167,228.078568 
z"/>
<path fill="#F9F9F9" opacity="1.000000" stroke="none" 
	d="
M107.461708,254.467499 
	C133.839371,236.456894 162.355347,223.930801 192.749115,215.208954 
	C158.146347,236.574738 127.912407,262.771240 102.133499,295.555939 
	C94.610428,289.867798 87.313881,284.350922 78.720581,277.853577 
	C88.761055,269.681213 97.969536,262.186066 107.461708,254.467499 
z"/>
<path fill="#FAFAFA" opacity="1.000000" stroke="none" 
	d="
M99.635498,102.350761 
	C92.851654,96.471992 86.346413,90.818481 79.169083,84.580887 
	C87.050461,78.491447 94.222160,72.950317 101.948265,66.980843 
	C127.864784,99.721664 158.390686,126.466522 193.723602,147.816055 
	C159.934982,137.878708 128.135056,123.949913 99.635498,102.350761 
z"/>
</svg>