<svg width="40" height="40" viewBox="0 0 40 40" fill="none" xmlns="http://www.w3.org/2000/svg">
<g clip-path="url(#clip0_5342_127137)">
<path d="M35.5 20C35.5 28.5604 28.5604 35.5 20 35.5C11.4396 35.5 4.5 28.5604 4.5 20C4.5 11.4396 11.4396 4.5 20 4.5C28.5604 4.5 35.5 11.4396 35.5 20Z" fill="#0C0C4F" stroke="#E87887"/>
<path fill-rule="evenodd" clip-rule="evenodd" d="M15.0192 17.2234L15.3449 16.2173C15.4111 16.0126 15.5726 15.8534 15.778 15.7906L16.7891 15.4797C16.929 15.4369 16.9302 15.2395 16.7914 15.1945L15.7848 14.8688C15.5806 14.8026 15.4213 14.6411 15.3581 14.4357L15.0476 13.4246C15.0049 13.2851 14.8074 13.2835 14.7624 13.4227L14.4367 14.4289C14.3705 14.6331 14.209 14.7924 14.0036 14.8556L12.9925 15.1661C12.8526 15.2092 12.8511 15.4063 12.9903 15.4513L13.9968 15.777C14.2011 15.8432 14.3603 16.0051 14.4235 16.2105L14.734 17.2212C14.7768 17.3611 14.9742 17.3626 15.0192 17.2234Z" fill="#FAFAFA"/>
<path fill-rule="evenodd" clip-rule="evenodd" d="M31 16.6378C30.5833 16.1717 29.9327 15.9093 29.3003 15.8017C28.6628 15.6983 27.9943 15.7079 27.3651 15.8197C26.0917 16.0351 24.9348 16.5624 23.9259 17.2128C23.4019 17.5321 22.9551 17.9014 22.4921 18.2776C22.2691 18.4679 22.0657 18.6705 21.8539 18.8702L21.2752 19.446C20.6465 20.1032 20.0267 20.7019 19.427 21.1981C18.8249 21.692 18.262 22.0672 17.7072 22.3291C17.1529 22.5925 16.5596 22.7473 15.7864 22.7721C15.02 22.7991 14.1133 22.6608 13.1434 22.4325C12.1683 22.2052 11.1443 21.8812 10 21.6024C10.3993 22.7101 11.0005 23.6889 11.7724 24.5837C12.5534 25.463 13.5286 26.2644 14.7814 26.7913C16.0161 27.3301 17.5677 27.5234 19.0185 27.2317C20.4732 26.9518 21.7497 26.2786 22.7815 25.5002C23.816 24.7136 24.6529 23.8178 25.3585 22.8865C25.5533 22.6292 25.6563 22.4852 25.7972 22.2841L26.1869 21.707C26.4576 21.3501 26.7041 20.9437 26.9721 20.59C27.4975 19.8493 28.0154 19.1095 28.6172 18.4279C28.9202 18.0822 29.2396 17.7515 29.6167 17.4337C29.8049 17.2786 30.008 17.1268 30.2331 16.99C30.4616 16.8426 30.7029 16.7271 31 16.6378Z" fill="url(#paint0_linear_5342_127137)"/>
<path fill-rule="evenodd" clip-rule="evenodd" d="M31 16.6378C30.5523 15.5079 29.7198 14.5567 28.6025 13.8549C27.4918 13.1607 25.9494 12.8065 24.421 13.1084C23.6658 13.2545 22.9342 13.5356 22.2922 13.9101C21.6531 14.283 21.0805 14.7319 20.5847 15.2135C20.3372 15.4552 20.1125 15.7072 19.8894 15.9607L19.3109 16.6982L18.4175 17.8854C17.2785 19.4128 16.0519 21.2029 14.0391 21.7333C12.0631 22.2541 11.206 21.7929 10 21.6024C10.2205 22.1717 10.4937 22.7246 10.864 23.211C11.2274 23.7072 11.6567 24.1734 12.1903 24.5728C12.46 24.7647 12.7448 24.9541 13.061 25.1148C13.3758 25.2699 13.7153 25.4065 14.0776 25.5094C14.7984 25.707 15.6099 25.7761 16.3956 25.6699C17.1816 25.565 17.933 25.3158 18.5897 24.985C19.2513 24.6572 19.8276 24.2582 20.3423 23.8369C21.3652 22.9874 22.1609 22.0488 22.8331 21.0999C23.1711 20.6256 23.478 20.1422 23.7618 19.6588L24.0959 19.0832C24.198 18.9149 24.3013 18.7456 24.4063 18.588C24.8295 17.9545 25.2435 17.4466 25.7463 17.0654C26.2421 16.6743 26.9327 16.3854 27.8554 16.3182C28.7742 16.2503 29.835 16.3758 31 16.6378Z" fill="#FAFAFA"/>
<path fill-rule="evenodd" clip-rule="evenodd" d="M26.0293 26.0259C26.0293 26.8559 26.7025 27.5289 27.5323 27.5289C28.3623 27.5289 29.0345 26.8559 29.0345 26.0259C29.0345 25.1961 28.3623 24.5229 27.5323 24.5229C26.7025 24.5229 26.0293 25.1961 26.0293 26.0259Z" fill="url(#paint1_linear_5342_127137)"/>
</g>
<defs>
<linearGradient id="paint0_linear_5342_127137" x1="30.8878" y1="16.2414" x2="-3.43148" y2="34.0969" gradientUnits="userSpaceOnUse">
<stop stop-color="#EC796B"/>
<stop offset="1" stop-color="#D672EF"/>
</linearGradient>
<linearGradient id="paint1_linear_5342_127137" x1="29.0335" y1="24.9717" x2="23.5565" y2="25.485" gradientUnits="userSpaceOnUse">
<stop stop-color="#EC796B"/>
<stop offset="1" stop-color="#D672EF"/>
</linearGradient>
<clipPath id="clip0_5342_127137">
<rect width="32" height="32" fill="white" transform="translate(4 4)"/>
</clipPath>
</defs>
</svg>
