<svg width="40" height="40" viewBox="0 0 40 40" fill="none" xmlns="http://www.w3.org/2000/svg">
<g clip-path="url(#clip0_5379_145733)">
<path d="M20 36C28.8366 36 36 28.8366 36 20C36 11.1634 28.8366 4 20 4C11.1634 4 4 11.1634 4 20C4 28.8366 11.1634 36 20 36Z" fill="#6FBCF0"/>
<path fill-rule="evenodd" clip-rule="evenodd" d="M14.8525 25.8719C15.9804 27.8281 18.0071 29 20.2629 29C22.5187 29 24.5453 27.8281 25.6732 25.8719C26.8011 23.9157 26.8011 21.5806 25.6732 19.6244L20.9149 11.3767C20.6242 10.8744 19.9016 10.8744 19.6108 11.3767L14.8525 19.6244C13.7158 21.5806 13.7158 23.9157 14.8525 25.8719ZM18.9235 15.2979L19.9369 13.5356C20.0778 13.2888 20.4479 13.2888 20.5889 13.5356L24.4925 20.3029C25.2062 21.5453 25.3472 22.9816 24.8978 24.3034C24.8538 24.0919 24.7833 23.8716 24.6951 23.6513C24.1576 22.2855 22.9328 21.2369 21.0647 20.532C19.7782 20.0474 18.9588 19.3248 18.6327 18.3996C18.2098 17.2012 18.6592 15.8971 18.9235 15.2979ZM17.1876 18.2938L16.0333 20.3029C15.1521 21.8361 15.1521 23.6601 16.0333 25.1934C16.9145 26.7266 18.5006 27.6342 20.2629 27.6342C21.4348 27.6342 22.5275 27.2289 23.391 26.5151C23.5056 26.2331 23.8492 25.2022 23.4175 24.136C23.0209 23.1491 22.0693 22.3648 20.5801 21.8009C18.9059 21.1664 17.8132 20.1707 17.3374 18.849C17.2757 18.6639 17.2317 18.4789 17.1876 18.2938Z" fill="white"/>
</g>
<defs>
<clipPath id="clip0_5379_145733">
<rect width="32" height="32" fill="white" transform="translate(4 4)"/>
</clipPath>
</defs>
</svg>
