<svg version="1.1" id="Layer_1" xmlns="http://www.w3.org/2000/svg" xmlns:xlink="http://www.w3.org/1999/xlink" x="0px" y="0px"
	 width="100%" viewBox="0 0 340 340" enable-background="new 0 0 340 340" xml:space="preserve">
<path fill="#111113" opacity="1.000000" stroke="none" 
	d="
M220.000000,341.000000 
	C146.666687,341.000000 73.833359,341.000000 1.000029,341.000000 
	C1.000020,227.666702 1.000020,114.333397 1.000010,1.000075 
	C114.333282,1.000050 227.666565,1.000050 340.999878,1.000025 
	C340.999939,114.333260 340.999939,227.666519 340.999969,340.999878 
	C300.833344,341.000000 260.666656,341.000000 220.000000,341.000000 
M105.537277,79.739883 
	C104.745354,78.489822 104.000053,76.181549 103.154694,76.144295 
	C81.419273,75.186615 64.209053,90.450737 62.177589,109.681206 
	C60.958122,121.225121 61.660912,132.964417 61.310436,144.610199 
	C61.019436,154.279724 55.713768,160.700836 47.286327,164.717590 
	C44.945889,165.833099 42.287254,166.281021 39.831760,167.018082 
	C39.831760,171.058762 39.831760,174.868439 39.831760,178.665512 
	C58.028191,182.996460 62.149933,194.063629 61.583248,208.314224 
	C61.160778,218.938354 61.295467,229.654129 62.180218,240.245712 
	C63.819027,259.864288 83.023712,276.634583 101.964432,275.615479 
	C101.964432,271.681763 101.964432,267.745331 101.964432,263.915833 
	C101.449860,263.656708 101.160339,263.386200 100.865616,263.380402 
	C86.071190,263.090179 73.050453,249.527893 73.919960,232.211380 
	C74.428787,222.077682 74.107651,211.895447 73.963348,201.737823 
	C73.827194,192.153183 70.269493,183.929047 63.410728,177.190262 
	C61.919487,175.725098 60.327927,174.362045 58.662498,172.842392 
	C69.945686,164.135788 74.620628,152.869308 74.072586,139.095779 
	C73.755005,131.114243 73.895859,123.106606 74.062988,115.115578 
	C74.278839,104.795647 78.693474,96.562256 88.069687,92.111885 
	C93.286377,89.635796 99.318336,88.877335 105.535378,87.195297 
	C105.535378,85.580925 105.535378,83.115440 105.537277,79.739883 
M257.944092,258.603790 
	C252.927307,260.569885 247.910522,262.535980 242.376205,264.704926 
	C242.376205,267.719543 242.376205,271.635376 242.376205,275.538483 
	C260.589325,276.902771 280.412994,260.372345 281.948059,241.790649 
	C282.973816,229.373886 282.729584,216.841751 282.795837,204.359863 
	C282.840271,195.995209 285.484528,188.807281 292.302307,183.941803 
	C295.950562,181.338242 300.529419,180.038635 304.795105,178.102097 
	C304.795105,174.674713 304.795105,170.883881 304.795105,167.135162 
	C287.092041,161.526199 282.889832,155.751343 282.854401,137.080750 
	C282.841736,130.416275 283.003113,123.747612 282.816711,117.088371 
	C282.596497,109.220192 281.443298,101.626328 277.019470,94.710251 
	C268.570496,81.501328 252.875351,73.778442 239.506958,76.621193 
	C239.506958,80.530975 239.506958,84.414169 239.506958,88.570564 
	C241.185684,88.570564 242.506607,88.495720 243.816940,88.581917 
	C260.377838,89.671227 270.238495,100.041931 270.460754,116.729614 
	C270.569489,124.892006 270.518524,133.057587 270.451904,141.221008 
	C270.352417,153.416672 274.357605,163.716690 284.106964,171.456512 
	C284.677246,171.909241 285.038605,172.625107 285.491608,173.211258 
	C274.433441,182.368515 270.538300,190.565903 270.483185,204.618240 
	C270.446625,213.948334 270.502533,223.278793 270.459686,232.608841 
	C270.412201,242.947678 267.411774,251.939728 257.944092,258.603790 
M147.961594,206.448441 
	C150.280060,204.299149 152.598343,202.149673 154.917007,200.000580 
	C166.272858,189.475220 178.519073,189.479797 189.903687,200.052536 
	C198.315430,207.864380 206.666626,215.741684 215.115723,223.512711 
	C216.268326,224.572830 217.798615,225.814987 219.212891,225.892014 
	C224.421875,226.175674 229.655594,226.004623 236.388229,226.004623 
	C221.336075,212.176773 207.810059,198.927750 193.375488,186.756195 
	C182.237686,177.364563 163.048645,177.134949 151.874634,186.416061 
	C137.122604,198.669037 123.359505,212.112656 108.113197,226.008865 
	C113.560379,226.008865 117.509148,225.753860 121.409340,226.079956 
	C125.381660,226.412033 128.274384,225.163971 131.077103,222.314911 
	C136.322968,216.982239 141.963211,212.037552 147.961594,206.448441 
M135.159470,133.347641 
	C128.645767,123.825409 119.061081,125.913521 108.985916,126.212761 
	C121.297691,137.736526 132.962860,148.610779 144.578445,159.537704 
	C161.718933,175.661957 182.596802,175.830902 199.845566,159.852783 
	C210.596298,149.894043 221.238083,139.817734 231.977615,129.846786 
	C233.089828,128.814194 234.535477,128.140717 235.826401,127.300613 
	C235.423553,126.864342 235.020691,126.428078 234.617844,125.991806 
	C230.808334,125.991806 226.971634,126.276436 223.196609,125.915688 
	C219.006180,125.515259 216.061600,127.026237 213.111221,129.912628 
	C205.138031,137.712967 196.983002,145.339340 188.669342,152.776794 
	C178.583389,161.799759 165.196548,161.513214 155.319427,152.321060 
	C148.736389,146.194565 142.216263,140.000504 135.159470,133.347641 
z"/>
<path fill="#F8F8F8" opacity="1.000000" stroke="none" 
	d="
M105.536331,80.194916 
	C105.535378,83.115440 105.535378,85.580925 105.535378,87.195297 
	C99.318336,88.877335 93.286377,89.635796 88.069687,92.111885 
	C78.693474,96.562256 74.278839,104.795647 74.062988,115.115578 
	C73.895859,123.106606 73.755005,131.114243 74.072586,139.095779 
	C74.620628,152.869308 69.945686,164.135788 58.662498,172.842392 
	C60.327927,174.362045 61.919487,175.725098 63.410728,177.190262 
	C70.269493,183.929047 73.827194,192.153183 73.963348,201.737823 
	C74.107651,211.895447 74.428787,222.077682 73.919960,232.211380 
	C73.050453,249.527893 86.071190,263.090179 100.865616,263.380402 
	C101.160339,263.386200 101.449860,263.656708 101.964432,263.915833 
	C101.964432,267.745331 101.964432,271.681763 101.964432,275.615479 
	C83.023712,276.634583 63.819027,259.864288 62.180218,240.245712 
	C61.295467,229.654129 61.160778,218.938354 61.583248,208.314224 
	C62.149933,194.063629 58.028191,182.996460 39.831760,178.665512 
	C39.831760,174.868439 39.831760,171.058762 39.831760,167.018082 
	C42.287254,166.281021 44.945889,165.833099 47.286327,164.717590 
	C55.713768,160.700836 61.019436,154.279724 61.310436,144.610199 
	C61.660912,132.964417 60.958122,121.225121 62.177589,109.681206 
	C64.209053,90.450737 81.419273,75.186615 103.154694,76.144295 
	C104.000053,76.181549 104.745354,78.489822 105.536331,80.194916 
z"/>
<path fill="#F7F7F7" opacity="1.000000" stroke="none" 
	d="
M258.243866,258.393250 
	C267.411774,251.939728 270.412201,242.947678 270.459686,232.608841 
	C270.502533,223.278793 270.446625,213.948334 270.483185,204.618240 
	C270.538300,190.565903 274.433441,182.368515 285.491608,173.211258 
	C285.038605,172.625107 284.677246,171.909241 284.106964,171.456512 
	C274.357605,163.716690 270.352417,153.416672 270.451904,141.221008 
	C270.518524,133.057587 270.569489,124.892006 270.460754,116.729614 
	C270.238495,100.041931 260.377838,89.671227 243.816940,88.581917 
	C242.506607,88.495720 241.185684,88.570564 239.506958,88.570564 
	C239.506958,84.414169 239.506958,80.530975 239.506958,76.621193 
	C252.875351,73.778442 268.570496,81.501328 277.019470,94.710251 
	C281.443298,101.626328 282.596497,109.220192 282.816711,117.088371 
	C283.003113,123.747612 282.841736,130.416275 282.854401,137.080750 
	C282.889832,155.751343 287.092041,161.526199 304.795105,167.135162 
	C304.795105,170.883881 304.795105,174.674713 304.795105,178.102097 
	C300.529419,180.038635 295.950562,181.338242 292.302307,183.941803 
	C285.484528,188.807281 282.840271,195.995209 282.795837,204.359863 
	C282.729584,216.841751 282.973816,229.373886 281.948059,241.790649 
	C280.412994,260.372345 260.589325,276.902771 242.376205,275.538483 
	C242.376205,271.635376 242.376205,267.719543 242.376205,264.704926 
	C247.910522,262.535980 252.927307,260.569885 258.243866,258.393250 
z"/>
<path fill="#F9F9F9" opacity="1.000000" stroke="none" 
	d="
M147.700500,206.689941 
	C141.963211,212.037552 136.322968,216.982239 131.077103,222.314911 
	C128.274384,225.163971 125.381660,226.412033 121.409340,226.079956 
	C117.509148,225.753860 113.560379,226.008865 108.113197,226.008865 
	C123.359505,212.112656 137.122604,198.669037 151.874634,186.416061 
	C163.048645,177.134949 182.237686,177.364563 193.375488,186.756195 
	C207.810059,198.927750 221.336075,212.176773 236.388229,226.004623 
	C229.655594,226.004623 224.421875,226.175674 219.212891,225.892014 
	C217.798615,225.814987 216.268326,224.572830 215.115723,223.512711 
	C206.666626,215.741684 198.315430,207.864380 189.903687,200.052536 
	C178.519073,189.479797 166.272858,189.475220 154.917007,200.000580 
	C152.598343,202.149673 150.280060,204.299149 147.700500,206.689941 
z"/>
<path fill="#F9F9F9" opacity="1.000000" stroke="none" 
	d="
M135.413727,133.592163 
	C142.216263,140.000504 148.736389,146.194565 155.319427,152.321060 
	C165.196548,161.513214 178.583389,161.799759 188.669342,152.776794 
	C196.983002,145.339340 205.138031,137.712967 213.111221,129.912628 
	C216.061600,127.026237 219.006180,125.515259 223.196609,125.915688 
	C226.971634,126.276436 230.808334,125.991806 234.617844,125.991806 
	C235.020691,126.428078 235.423553,126.864342 235.826401,127.300613 
	C234.535477,128.140717 233.089828,128.814194 231.977615,129.846786 
	C221.238083,139.817734 210.596298,149.894043 199.845566,159.852783 
	C182.596802,175.830902 161.718933,175.661957 144.578445,159.537704 
	C132.962860,148.610779 121.297691,137.736526 108.985916,126.212761 
	C119.061081,125.913521 128.645767,123.825409 135.413727,133.592163 
z"/>
</svg>