<svg width="230" height="56" viewBox="0 0 230 56" fill="none" xmlns="http://www.w3.org/2000/svg">
<path d="M83.5287 15.6426H77.3032L82.5643 39.9385H94.7617L100.023 15.6426H93.8776L89.4017 36.3529C89.241 37.1009 88.1653 37.1009 88.0046 36.3529L83.5287 15.6426Z" fill="#FCF8F2"/>
<path fill-rule="evenodd" clip-rule="evenodd" d="M76.8212 27.7967C76.8212 34.5043 71.3561 39.9447 64.6237 39.9447C57.8913 39.9447 52.4263 34.5043 52.4263 27.7967C52.4263 21.089 57.8851 15.6487 64.6237 15.6487C71.3623 15.6487 76.8212 21.089 76.8212 27.7967ZM71.1645 27.8461C71.1645 31.4194 68.2588 34.3127 64.6732 34.3127C61.0875 34.3127 58.1819 31.4194 58.1819 27.8461C58.1819 24.2728 61.0875 21.3796 64.6732 21.3796C68.2588 21.3796 71.1645 24.2728 71.1645 27.8461Z" fill="#FCF8F2"/>
<path d="M44.2104 25.5278V39.9694H38.2075V22.8077C38.2075 18.8696 41.4099 15.6858 45.3603 15.6858H52.4204V21.664L43.8457 21.6207C43.4253 21.6207 43.1533 22.0534 43.3325 22.4305L43.654 23.1044C44.0188 23.8648 44.2104 24.6932 44.2104 25.5402V25.5278Z" fill="#FCF8F2"/>
<path fill-rule="evenodd" clip-rule="evenodd" d="M34.3805 15.6487H28.3776V18.6223C28.3776 18.9561 27.9448 19.1169 27.7099 18.8758C25.7378 16.8851 22.9929 15.6487 19.9575 15.6487C13.9422 15.6487 9.06445 20.5079 9.06445 26.4984C9.06445 32.4889 13.9422 37.3481 19.9575 37.3481C22.9929 37.3481 25.7378 36.1117 27.7099 34.121C27.9448 33.8861 28.3776 34.0407 28.3776 34.3745V40.7854C28.3776 41.3727 27.8954 41.8549 27.3019 41.8549H12.4832V47.8331H27.2277C31.1781 47.8331 34.3805 44.6431 34.3805 40.7112V15.6487ZM21.9419 33.0762C25.6327 33.0762 28.4332 30.2819 28.4332 26.6035C28.4332 22.9251 25.441 19.9453 21.7503 19.9453C18.0595 19.9453 15.0673 22.9251 15.0673 26.6035C15.0673 30.2819 18.2512 33.0762 21.9481 33.0762H21.9419Z" fill="#FCF8F2"/>
<path d="M123.923 28.3902C124.381 28.3902 124.77 28.0316 124.758 27.5679C124.739 26.8013 124.646 26.0471 124.492 25.3176C123.311 19.8773 118.384 15.6487 112.56 15.6487C110.366 15.6487 108.307 16.2236 106.533 17.2375C103.547 18.9314 101.346 21.8494 100.622 25.2991C100.456 26.1089 100.363 26.9435 100.363 27.7967C100.363 34.5043 105.828 39.9447 112.56 39.9447C117.846 39.9447 122.347 36.5939 124.041 31.914H117.673C116.48 33.4163 114.631 34.3807 112.554 34.3807C109.37 34.3807 106.724 32.1118 106.149 29.1073C106.106 28.8724 106.069 28.6313 106.05 28.3902H123.911H123.923ZM118.118 25.3176H110.427C109.58 25.3176 108.746 25.5093 107.985 25.8678L107.312 26.1893C106.934 26.3686 106.502 26.0966 106.502 25.6885C106.502 25.4845 106.551 25.2187 106.768 24.8169C106.91 24.5757 107.064 24.347 107.231 24.1245C108.468 22.5109 110.452 21.3857 112.573 21.3857C115.256 21.3857 117.568 23.0055 118.563 25.3114H118.124L118.118 25.3176Z" fill="#FCF8F2"/>
<path d="M155.238 35.4526C155.238 37.3552 155.408 38.9534 155.452 39.2993H150.739C150.655 38.8254 150.525 37.4417 150.525 36.5769C149.55 38.348 147.383 39.8182 144.454 39.8182C138.508 39.8182 134.519 35.0617 134.519 28.7071C134.519 22.3524 138.552 17.6824 144.372 17.6824C147.981 17.6824 149.809 19.3671 150.444 20.7093V8H155.241V35.4526H155.238ZM145.004 35.4111C148.232 35.4111 150.481 32.6887 150.481 28.6656C150.481 24.6425 148.273 22.138 145.045 22.138C141.817 22.138 139.439 24.6874 139.439 28.7105C139.439 32.7336 141.647 35.4111 145.001 35.4111H145.004Z" fill="#33B0FF"/>
<path d="M180.572 28.9126C180.572 35.2294 175.96 39.8179 169.666 39.8179C163.371 39.8179 158.801 35.2294 158.801 28.9126C158.801 22.5957 163.413 18.0476 169.666 18.0476C175.919 18.0476 180.572 22.6362 180.572 28.9126ZM175.529 28.9126C175.529 24.6609 172.77 22.4711 169.666 22.4711C166.562 22.4711 163.802 24.6609 163.802 28.9126C163.802 33.1642 166.603 35.4383 169.666 35.4383C172.728 35.4383 175.529 33.208 175.529 28.9126Z" fill="#33B0FF"/>
<path d="M187.347 28.9159C187.347 33.0429 190.116 35.3574 193.328 35.3574C196.54 35.3574 198.208 33.1272 198.693 31.5673L203.179 33.1238C202.169 36.3243 198.957 39.8179 193.328 39.8179C187.041 39.8179 182.246 35.1452 182.246 28.9126C182.246 22.68 187.038 18.0476 193.195 18.0476C198.954 18.0476 202.12 21.5008 203 24.7856L198.426 26.3858C197.944 24.5767 196.491 22.5553 193.237 22.5553C189.983 22.5553 187.344 24.7856 187.344 28.9126L187.347 28.9159Z" fill="#33B0FF"/>
<path d="M209.867 32.45C210.032 34.3029 211.394 35.9436 213.957 35.9436C215.94 35.9436 216.972 34.8487 216.972 33.5853C216.972 32.4904 216.228 31.6482 214.618 31.3113L211.642 30.6375C208.088 29.8357 206.23 27.4807 206.23 24.6575C206.23 21.0797 209.454 18.0476 213.626 18.0476C219.247 18.0476 221.065 21.7535 221.396 23.7749L217.346 24.954C217.18 23.7749 216.314 21.8815 213.626 21.8815C211.933 21.8815 210.733 22.9764 210.733 24.2398C210.733 25.3347 211.517 26.1332 212.757 26.3858L215.815 27.0158C219.617 27.8581 221.6 30.2164 221.6 33.2484C221.6 36.2805 219.121 39.8179 213.996 39.8179C208.171 39.8179 205.939 35.9436 205.691 33.6291L209.864 32.45H209.867Z" fill="#33B0FF"/>
</svg>
