<svg width="271" height="56" viewBox="0 0 271 56" fill="none" xmlns="http://www.w3.org/2000/svg">
<path d="M89.9105 12.4067H83.0625L88.8496 39.1323H102.267L108.054 12.4067H101.294L96.3709 35.1881C96.1941 36.0109 95.0108 36.0109 94.834 35.1881L89.9105 12.4067Z" fill="#FCF8F2"/>
<path fill-rule="evenodd" clip-rule="evenodd" d="M82.5321 25.7764C82.5321 33.1548 76.5206 39.1391 69.1149 39.1391C61.7093 39.1391 55.6978 33.1548 55.6978 25.7764C55.6978 18.3979 61.7025 12.4136 69.1149 12.4136C76.5274 12.4136 82.5321 18.3979 82.5321 25.7764ZM76.3098 25.8308C76.3098 29.7614 73.1136 32.944 69.1693 32.944C65.2251 32.944 62.0289 29.7614 62.0289 25.8308C62.0289 21.9001 65.2251 18.7175 69.1693 18.7175C73.1136 18.7175 76.3098 21.9001 76.3098 25.8308Z" fill="#FCF8F2"/>
<path d="M46.6603 23.2806V39.1663H40.0571V20.2884C40.0571 15.9566 43.5797 12.4543 47.9252 12.4543H55.6912V19.0303L46.2591 18.9827C45.7967 18.9827 45.4974 19.4588 45.6947 19.8736L46.0483 20.6148C46.4495 21.4513 46.6603 22.3625 46.6603 23.2942V23.2806Z" fill="#FCF8F2"/>
<path fill-rule="evenodd" clip-rule="evenodd" d="M35.8476 12.4136H29.2444V15.6846C29.2444 16.0518 28.7684 16.2286 28.51 15.9634C26.3407 13.7737 23.3213 12.4136 19.9823 12.4136C13.3655 12.4136 8 17.7587 8 24.3483C8 30.9379 13.3655 36.283 19.9823 36.283C23.3213 36.283 26.3407 34.9229 28.51 32.7332C28.7684 32.4747 29.2444 32.6448 29.2444 33.012V40.064C29.2444 40.71 28.714 41.2405 28.0612 41.2405H11.7606V47.8164H27.9796C32.325 47.8164 35.8476 44.3074 35.8476 39.9824V12.4136ZM22.1652 31.5839C26.2251 31.5839 29.3056 28.5101 29.3056 24.4639C29.3056 20.4176 26.0143 17.1399 21.9544 17.1399C17.8946 17.1399 14.6032 20.4176 14.6032 24.4639C14.6032 28.5101 18.1054 31.5839 22.172 31.5839H22.1652Z" fill="#FCF8F2"/>
<path d="M134.345 26.4292C134.848 26.4292 135.276 26.0348 135.263 25.5247C135.242 24.6815 135.14 23.8518 134.97 23.0494C133.671 17.065 128.251 12.4136 121.845 12.4136C119.431 12.4136 117.167 13.046 115.215 14.1613C111.93 16.0246 109.509 19.2344 108.714 23.029C108.53 23.9198 108.428 24.8379 108.428 25.7764C108.428 33.1548 114.44 39.1391 121.845 39.1391C127.66 39.1391 132.61 35.4533 134.474 30.3054H127.469C126.157 31.9579 124.124 33.0188 121.839 33.0188C118.336 33.0188 115.426 30.523 114.793 27.218C114.746 26.9596 114.705 26.6944 114.685 26.4292H134.331H134.345ZM127.959 23.0494H119.499C118.568 23.0494 117.65 23.2602 116.813 23.6546L116.072 24.0083C115.657 24.2055 115.181 23.9062 115.181 23.4574C115.181 23.233 115.235 22.9406 115.473 22.4986C115.63 22.2333 115.8 21.9817 115.983 21.7369C117.344 19.962 119.526 18.7243 121.859 18.7243C124.81 18.7243 127.354 20.506 128.449 23.0426H127.966L127.959 23.0494Z" fill="#FCF8F2"/>
<path d="M193.032 21.6417L187.149 15.7594C184.871 13.4812 181.172 13.4812 178.901 15.7594L173.018 21.6417C170.74 23.9199 170.74 27.6193 173.018 29.8974L178.901 35.7797C181.179 38.0579 184.878 38.0579 187.149 35.7797L193.032 29.8974C195.31 27.6193 195.31 23.9199 193.032 21.6417ZM183.028 31.5091C179.859 31.5091 177.289 28.9385 177.289 25.7696C177.289 22.6006 179.859 20.03 183.028 20.03C186.197 20.03 188.768 22.6006 188.768 25.7696C188.768 28.9385 186.197 31.5091 183.028 31.5091Z" fill="#33B0FF"/>
<path d="M201.757 23.7225V36.5413H196.446V21.3152C196.446 17.8334 199.282 15.0044 202.784 15.0044H209.033V20.2951L201.437 20.2611C201.07 20.2611 200.825 20.6419 200.982 20.9751L201.267 21.5736C201.594 22.2468 201.757 22.9813 201.757 23.7293V23.7225Z" fill="#FCF8F2"/>
<path fill-rule="evenodd" clip-rule="evenodd" d="M159.962 15.0248C157.275 15.0248 154.841 16.1197 153.093 17.881C152.882 18.0918 152.502 17.949 152.502 17.6565V15.0044H147.184V39.4722C147.184 39.513 147.184 39.547 147.184 39.5878V43.5253H152.495V31.6178C152.495 31.3253 152.876 31.1825 153.086 31.3934C154.834 33.1547 157.269 34.2495 159.955 34.2495C165.279 34.2495 169.605 29.9449 169.605 24.6406C169.605 19.3362 165.286 15.0316 159.955 15.0316L159.962 15.0248ZM158.207 30.4549C154.936 30.4549 152.461 27.9796 152.461 24.7222C152.461 21.4648 155.113 18.8262 158.377 18.8262C161.641 18.8262 164.293 21.4648 164.293 24.7222C164.293 27.9796 161.471 30.4549 158.2 30.4549H158.207Z" fill="#FCF8F2"/>
<path fill-rule="evenodd" clip-rule="evenodd" d="M241.648 15.086V16.0924C241.648 16.3508 241.376 16.5072 241.151 16.378C239.587 15.5008 237.778 14.9976 235.854 14.9976C229.89 14.9976 225.055 19.8122 225.055 25.7558C225.055 31.6993 229.89 36.514 235.854 36.514C237.316 36.514 238.71 36.0992 239.982 35.494C240.383 35.3035 240.764 35.0791 241.131 34.8343C241.348 34.6915 241.641 34.8479 241.641 35.1131V36.4392C241.641 36.4868 241.682 36.5276 241.729 36.5276H246.564C246.612 36.5276 246.653 36.4868 246.653 36.4392V15.086C246.653 15.0384 246.612 14.9976 246.564 14.9976H241.729C241.682 14.9976 241.641 15.0384 241.641 15.086H241.648ZM235.901 31.5293C232.726 31.5293 230.155 28.9656 230.155 25.8034C230.155 22.6412 232.732 20.0775 235.901 20.0775C239.07 20.0775 241.648 22.6412 241.648 25.8034C241.648 28.9656 239.077 31.5293 235.901 31.5293Z" fill="#FCF8F2"/>
<path d="M223.919 15.0043V20.2542H219.35V36.5276H214.1V20.2542H211.305V15.0043C212.848 15.0043 214.1 13.753 214.1 12.2093V9.75439H219.35V15.0043H223.919Z" fill="#FCF8F2"/>
<path d="M254.324 29.9517L254.038 30.5501C253.882 30.8833 254.12 31.2642 254.494 31.2642L262.09 31.2302V36.5209H255.84C252.345 36.5209 249.502 33.6987 249.502 30.2101V8H254.814V27.796C254.814 28.544 254.644 29.2784 254.324 29.9517Z" fill="#FCF8F2"/>
</svg>
