<svg width="142" height="32" viewBox="0 0 142 32" fill="none" xmlns="http://www.w3.org/2000/svg">
<path d="M49.3122 9.72021H45.5239L48.7253 24.9052H56.1476L59.349 9.72021H55.6096L52.886 22.6642C52.7882 23.1317 52.1336 23.1317 52.0358 22.6642L49.3122 9.72021Z" fill="#242224"/>
<path fill-rule="evenodd" clip-rule="evenodd" d="M45.2308 17.3166C45.2308 21.5089 41.9052 24.9091 37.8085 24.9091C33.7118 24.9091 30.3862 21.5089 30.3862 17.3166C30.3862 13.1243 33.708 9.72412 37.8085 9.72412C41.909 9.72412 45.2308 13.1243 45.2308 17.3166ZM41.7886 17.3475C41.7886 19.5808 40.0205 21.3891 37.8386 21.3891C35.6567 21.3891 33.8886 19.5808 33.8886 17.3475C33.8886 15.1142 35.6567 13.3059 37.8386 13.3059C40.0205 13.3059 41.7886 15.1142 41.7886 17.3475Z" fill="#242224"/>
<path d="M25.3867 15.8986V24.9246H21.7339V14.1985C21.7339 11.7372 23.6826 9.74731 26.0864 9.74731H30.3825V13.4837L25.1648 13.4566C24.9089 13.4566 24.7434 13.7271 24.8525 13.9628L25.0481 14.3839C25.2701 14.8592 25.3867 15.377 25.3867 15.9063V15.8986Z" fill="#242224"/>
<path fill-rule="evenodd" clip-rule="evenodd" d="M19.4051 9.72388H15.7522V11.5824C15.7522 11.791 15.4889 11.8915 15.346 11.7408C14.1459 10.4966 12.4756 9.72388 10.6285 9.72388C6.96816 9.72388 4 12.7609 4 16.505C4 20.249 6.96816 23.286 10.6285 23.286C12.4756 23.286 14.1459 22.5133 15.346 21.2691C15.4889 21.1223 15.7522 21.2189 15.7522 21.4275V25.4343C15.7522 25.8014 15.4588 26.1028 15.0977 26.1028H6.08034V29.8391H15.0525C17.4564 29.8391 19.4051 27.8454 19.4051 25.388V9.72388ZM11.8361 20.6161C14.082 20.6161 15.7861 18.8696 15.7861 16.5706C15.7861 14.2716 13.9653 12.4093 11.7195 12.4093C9.4736 12.4093 7.65283 14.2716 7.65283 16.5706C7.65283 18.8696 9.59022 20.6161 11.8398 20.6161H11.8361Z" fill="#242224"/>
<path d="M73.8928 17.6875C74.1712 17.6875 74.4082 17.4634 74.4007 17.1736C74.3894 16.6945 74.333 16.2231 74.2389 15.7672C73.5204 12.367 70.5222 9.72412 66.9784 9.72412C65.6429 9.72412 64.3902 10.0835 63.3106 10.7171C61.4935 11.7758 60.1543 13.5996 59.7142 15.7556C59.6126 16.2618 59.5562 16.7834 59.5562 17.3166C59.5562 21.5089 62.8817 24.9091 66.9784 24.9091C70.1949 24.9091 72.9335 22.8149 73.9643 19.8899H70.0895C69.3635 20.8289 68.2387 21.4316 66.9747 21.4316C65.0373 21.4316 63.4272 20.0136 63.0773 18.1357C63.051 17.9889 63.0284 17.8382 63.0171 17.6875H73.8853H73.8928ZM70.3604 15.7672H65.6806C65.1652 15.7672 64.6573 15.887 64.1946 16.1111L63.7846 16.312C63.5551 16.4241 63.2917 16.254 63.2917 15.999C63.2917 15.8715 63.3218 15.7054 63.4535 15.4542C63.54 15.3035 63.6341 15.1606 63.7356 15.0215C64.488 14.013 65.6956 13.3098 66.9859 13.3098C68.6186 13.3098 70.0256 14.3221 70.6313 15.7633H70.3642L70.3604 15.7672Z" fill="#242224"/>
<path d="M80.71 17.37C80.71 18.77 81.06 19.9 81.76 20.76C82.48 21.6 83.44 22.02 84.64 22.02C85.2 22.02 85.72 21.91 86.2 21.69C86.68 21.45 87.09 21.13 87.43 20.73C87.77 20.31 88.03 19.82 88.21 19.26C88.41 18.68 88.51 18.04 88.51 17.34C88.51 15.94 88.15 14.84 87.43 14.04C86.73 13.22 85.81 12.81 84.67 12.81C83.53 12.81 82.58 13.22 81.82 14.04C81.08 14.86 80.71 15.97 80.71 17.37ZM91.87 22.05C91.87 22.71 91.89 23.29 91.93 23.79C91.97 24.29 92 24.6 92.02 24.72H88.69C88.65 24.56 88.61 24.28 88.57 23.88C88.55 23.48 88.54 23.13 88.54 22.83C88.2 23.45 87.66 23.98 86.92 24.42C86.18 24.86 85.29 25.08 84.25 25.08C83.19 25.08 82.23 24.89 81.37 24.51C80.51 24.11 79.77 23.57 79.15 22.89C78.55 22.19 78.08 21.37 77.74 20.43C77.4 19.49 77.23 18.47 77.23 17.37C77.23 16.33 77.4 15.35 77.74 14.43C78.08 13.49 78.55 12.67 79.15 11.97C79.77 11.27 80.51 10.72 81.37 10.32C82.23 9.92 83.17 9.72 84.19 9.72C84.83 9.72 85.39 9.79 85.87 9.93C86.35 10.05 86.76 10.22 87.1 10.44C87.46 10.64 87.75 10.86 87.97 11.1C88.19 11.34 88.36 11.58 88.48 11.82V3H91.87V22.05Z" fill="#389F58"/>
<path d="M101.908 22.05C102.448 22.05 102.958 21.95 103.438 21.75C103.938 21.55 104.378 21.26 104.758 20.88C105.138 20.48 105.438 19.99 105.658 19.41C105.878 18.83 105.988 18.16 105.988 17.4C105.988 16.64 105.878 15.98 105.658 15.42C105.438 14.84 105.138 14.36 104.758 13.98C104.378 13.58 103.938 13.29 103.438 13.11C102.958 12.91 102.448 12.81 101.908 12.81C101.368 12.81 100.848 12.91 100.348 13.11C99.8676 13.29 99.4376 13.58 99.0576 13.98C98.6976 14.36 98.3976 14.84 98.1576 15.42C97.9376 15.98 97.8276 16.64 97.8276 17.4C97.8276 18.16 97.9376 18.83 98.1576 19.41C98.3976 19.99 98.6976 20.48 99.0576 20.88C99.4376 21.26 99.8676 21.55 100.348 21.75C100.848 21.95 101.368 22.05 101.908 22.05ZM101.908 9.66C103.008 9.66 104.018 9.86 104.938 10.26C105.858 10.64 106.658 11.18 107.338 11.88C108.018 12.56 108.548 13.37 108.928 14.31C109.308 15.25 109.498 16.28 109.498 17.4C109.498 18.52 109.308 19.56 108.928 20.52C108.548 21.46 108.018 22.28 107.338 22.98C106.658 23.66 105.858 24.2 104.938 24.6C104.018 24.98 103.008 25.17 101.908 25.17C100.828 25.17 99.8176 24.98 98.8776 24.6C97.9576 24.2 97.1576 23.66 96.4776 22.98C95.8176 22.28 95.2976 21.46 94.9176 20.52C94.5376 19.56 94.3476 18.52 94.3476 17.4C94.3476 16.28 94.5376 15.25 94.9176 14.31C95.2976 13.37 95.8176 12.56 96.4776 11.88C97.1576 11.18 97.9576 10.64 98.8776 10.26C99.8176 9.86 100.828 9.66 101.908 9.66Z" fill="#389F58"/>
<path d="M118.555 12.87C118.015 12.87 117.505 12.97 117.025 13.17C116.545 13.37 116.115 13.66 115.735 14.04C115.375 14.42 115.085 14.89 114.865 15.45C114.645 16.01 114.535 16.66 114.535 17.4C114.535 18.14 114.645 18.8 114.865 19.38C115.085 19.94 115.375 20.42 115.735 20.82C116.115 21.2 116.555 21.49 117.055 21.69C117.555 21.89 118.075 21.99 118.615 21.99C119.175 21.99 119.665 21.9 120.085 21.72C120.525 21.54 120.885 21.32 121.165 21.06C121.465 20.78 121.705 20.49 121.885 20.19C122.065 19.87 122.195 19.57 122.275 19.29L125.335 20.4C125.155 20.98 124.885 21.55 124.525 22.11C124.165 22.67 123.705 23.18 123.145 23.64C122.605 24.1 121.955 24.47 121.195 24.75C120.435 25.03 119.575 25.17 118.615 25.17C117.535 25.17 116.535 24.98 115.615 24.6C114.695 24.2 113.895 23.65 113.215 22.95C112.555 22.25 112.025 21.43 111.625 20.49C111.245 19.55 111.055 18.52 111.055 17.4C111.055 16.28 111.245 15.25 111.625 14.31C112.005 13.35 112.535 12.53 113.215 11.85C113.895 11.15 114.685 10.61 115.585 10.23C116.485 9.85 117.465 9.66 118.525 9.66C119.505 9.66 120.375 9.8 121.135 10.08C121.895 10.36 122.555 10.73 123.115 11.19C123.675 11.63 124.125 12.14 124.465 12.72C124.805 13.3 125.055 13.88 125.215 14.46L122.095 15.6C122.015 15.28 121.885 14.96 121.705 14.64C121.545 14.3 121.315 14 121.015 13.74C120.735 13.48 120.395 13.27 119.995 13.11C119.595 12.95 119.115 12.87 118.555 12.87Z" fill="#389F58"/>
<path d="M129.56 19.92C129.62 20.58 129.89 21.16 130.37 21.66C130.87 22.16 131.59 22.41 132.53 22.41C133.25 22.41 133.79 22.25 134.15 21.93C134.53 21.59 134.72 21.19 134.72 20.73C134.72 20.33 134.58 19.99 134.3 19.71C134.02 19.43 133.59 19.23 133.01 19.11L130.85 18.63C129.55 18.35 128.57 17.83 127.91 17.07C127.25 16.29 126.92 15.39 126.92 14.37C126.92 13.73 127.06 13.13 127.34 12.57C127.62 11.99 128 11.49 128.48 11.07C128.96 10.63 129.52 10.29 130.16 10.05C130.82 9.79 131.53 9.66 132.29 9.66C133.31 9.66 134.16 9.81 134.84 10.11C135.54 10.39 136.11 10.74 136.55 11.16C136.99 11.58 137.31 12.03 137.51 12.51C137.73 12.97 137.87 13.38 137.93 13.74L134.99 14.58C134.95 14.38 134.88 14.15 134.78 13.89C134.68 13.63 134.52 13.39 134.3 13.17C134.1 12.95 133.83 12.77 133.49 12.63C133.17 12.47 132.77 12.39 132.29 12.39C131.67 12.39 131.16 12.56 130.76 12.9C130.38 13.22 130.19 13.61 130.19 14.07C130.19 14.47 130.32 14.8 130.58 15.06C130.84 15.32 131.2 15.5 131.66 15.6L133.88 16.05C135.26 16.35 136.3 16.9 137 17.7C137.72 18.48 138.08 19.41 138.08 20.49C138.08 21.05 137.96 21.61 137.72 22.17C137.5 22.71 137.16 23.21 136.7 23.67C136.26 24.11 135.69 24.47 134.99 24.75C134.29 25.03 133.48 25.17 132.56 25.17C131.5 25.17 130.6 25.02 129.86 24.72C129.12 24.42 128.51 24.05 128.03 23.61C127.55 23.15 127.19 22.67 126.95 22.17C126.71 21.65 126.57 21.18 126.53 20.76L129.56 19.92Z" fill="#389F58"/>
</svg>
