<svg width="57" height="56" viewBox="0 0 57 56" fill="none" xmlns="http://www.w3.org/2000/svg">
<g clip-path="url(#clip0_5615_205835)">
<path d="M45.3717 20.9539L35.3308 10.9138C31.4455 7.02873 25.1231 7.02873 21.2406 10.9138L11.1998 20.9539C7.31427 24.839 7.31427 31.1609 11.1998 35.046L21.2406 45.0862C25.1259 48.9713 31.4479 48.9713 35.3308 45.0862L45.3717 35.046C49.257 31.1609 49.257 24.839 45.3717 20.9539ZM28.2867 37.8013C22.8711 37.8013 18.4849 33.4154 18.4849 28C18.4849 22.5845 22.8711 18.1987 28.2867 18.1987C33.7027 18.1987 38.089 22.5845 38.089 28C38.089 33.4154 33.7027 37.8013 28.2867 37.8013Z" fill="#33B0FF"/>
</g>
<defs>
<clipPath id="clip0_5615_205835">
<rect width="40" height="40" fill="white" transform="translate(8.28564 8)"/>
</clipPath>
</defs>
</svg>
