<svg width="143" height="56" viewBox="0 0 143 56" fill="none" xmlns="http://www.w3.org/2000/svg">
<path d="M89.9105 12.4067H83.0625L88.8496 39.1323H102.267L108.054 12.4067H101.294L96.3709 35.1881C96.1941 36.0109 95.0108 36.0109 94.834 35.1881L89.9105 12.4067Z" fill="#FCF8F2"/>
<path fill-rule="evenodd" clip-rule="evenodd" d="M82.5321 25.7764C82.5321 33.1548 76.5206 39.1391 69.1149 39.1391C61.7093 39.1391 55.6978 33.1548 55.6978 25.7764C55.6978 18.3979 61.7025 12.4136 69.1149 12.4136C76.5274 12.4136 82.5321 18.3979 82.5321 25.7764ZM76.3098 25.8308C76.3098 29.7614 73.1136 32.944 69.1693 32.944C65.2251 32.944 62.0289 29.7614 62.0289 25.8308C62.0289 21.9001 65.2251 18.7175 69.1693 18.7175C73.1136 18.7175 76.3098 21.9001 76.3098 25.8308Z" fill="#FCF8F2"/>
<path d="M46.6603 23.2806V39.1663H40.0571V20.2884C40.0571 15.9566 43.5797 12.4543 47.9252 12.4543H55.6912V19.0303L46.2591 18.9827C45.7967 18.9827 45.4974 19.4588 45.6947 19.8736L46.0483 20.6148C46.4495 21.4513 46.6603 22.3625 46.6603 23.2942V23.2806Z" fill="#FCF8F2"/>
<path fill-rule="evenodd" clip-rule="evenodd" d="M35.8476 12.4136H29.2444V15.6846C29.2444 16.0518 28.7684 16.2286 28.51 15.9634C26.3407 13.7737 23.3213 12.4136 19.9823 12.4136C13.3655 12.4136 8 17.7587 8 24.3483C8 30.9379 13.3655 36.283 19.9823 36.283C23.3213 36.283 26.3407 34.9229 28.51 32.7332C28.7684 32.4747 29.2444 32.6448 29.2444 33.012V40.064C29.2444 40.71 28.714 41.2405 28.0612 41.2405H11.7606V47.8164H27.9796C32.325 47.8164 35.8476 44.3074 35.8476 39.9824V12.4136ZM22.1652 31.5839C26.2251 31.5839 29.3056 28.5101 29.3056 24.4639C29.3056 20.4176 26.0143 17.1399 21.9544 17.1399C17.8946 17.1399 14.6032 20.4176 14.6032 24.4639C14.6032 28.5101 18.1054 31.5839 22.172 31.5839H22.1652Z" fill="#FCF8F2"/>
<path d="M134.345 26.4292C134.848 26.4292 135.276 26.0348 135.263 25.5247C135.242 24.6815 135.14 23.8518 134.97 23.0494C133.671 17.065 128.251 12.4136 121.845 12.4136C119.431 12.4136 117.167 13.046 115.215 14.1613C111.93 16.0246 109.509 19.2344 108.714 23.029C108.53 23.9198 108.428 24.8379 108.428 25.7764C108.428 33.1548 114.44 39.1391 121.845 39.1391C127.66 39.1391 132.61 35.4533 134.474 30.3054H127.469C126.157 31.9579 124.124 33.0188 121.839 33.0188C118.336 33.0188 115.426 30.523 114.793 27.218C114.746 26.9596 114.705 26.6944 114.685 26.4292H134.331H134.345ZM127.959 23.0494H119.499C118.568 23.0494 117.65 23.2602 116.813 23.6546L116.072 24.0083C115.657 24.2055 115.181 23.9062 115.181 23.4574C115.181 23.233 115.235 22.9406 115.473 22.4986C115.63 22.2333 115.8 21.9817 115.983 21.7369C117.344 19.962 119.526 18.7243 121.859 18.7243C124.81 18.7243 127.354 20.506 128.449 23.0426H127.966L127.959 23.0494Z" fill="#FCF8F2"/>
</svg>
