<svg width="132" height="40" viewBox="0 0 132 40" fill="none" xmlns="http://www.w3.org/2000/svg">
<path d="M13.7572 13.3152V9.89344C13.7572 9.45767 13.5251 9.05488 13.1481 8.83635L8.53608 6.16296C7.31424 5.45471 5.78418 6.33632 5.78418 7.7486V11.186C5.78418 11.6229 6.01744 12.0265 6.39596 12.2447L11.0093 14.9032C12.2311 15.6073 13.7572 14.7254 13.7572 13.3152Z" fill="#389F58"/>
<path d="M13.7564 19.2111V15.7819C13.7564 15.3479 13.9866 14.9466 14.3611 14.7274L21.2951 10.6688C22.517 9.9537 24.0537 10.8349 24.0537 12.2506V15.7526C24.0537 16.19 23.8199 16.594 23.4408 16.812L16.5025 20.8001C15.2807 21.5024 13.7564 20.6204 13.7564 19.2111Z" fill="#389F58"/>
<path d="M13.7564 7.49989V4.07452C13.7564 3.64307 13.9839 3.2436 14.355 3.02355L16.3672 1.8304C17.5889 1.10596 19.1348 1.9865 19.1348 3.40686V6.86261C19.1348 7.29896 18.9021 7.70219 18.5243 7.92052L16.5062 9.08675C15.2843 9.79284 13.7564 8.91109 13.7564 7.49989Z" fill="#389F58"/>
<path d="M13.7297 25.038V21.62C13.7297 21.1859 13.4994 20.7843 13.1246 20.5652L2.7578 14.5043C1.53598 13.79 0 14.6712 0 16.0865V19.5658C0 20.0018 0.232402 20.4049 0.609821 20.6233L10.9789 26.6243C12.2008 27.3314 13.7297 26.4497 13.7297 25.038Z" fill="#389F58"/>
<path d="M13.7566 30.8736V27.4579C13.7566 27.0237 13.987 26.6222 14.3617 26.4031L24.7402 20.3353C25.9594 19.6225 27.4928 20.4985 27.498 21.9108L27.5107 25.3741C27.5123 25.8115 27.28 26.2164 26.9016 26.4357L16.5084 32.4593C15.2865 33.1675 13.7566 32.2858 13.7566 30.8736Z" fill="#389F58"/>
<path d="M12.1358 31.61L13.1694 32.2378C13.5342 32.4594 13.757 32.8553 13.757 33.2821V36.8105C13.757 38.2247 12.2232 39.1061 11.0013 38.394L9.95816 37.786C9.58256 37.5671 9.35156 37.1651 9.35156 36.7304V33.1765C9.35156 31.7474 10.9144 30.8681 12.1358 31.61Z" fill="#389F58"/>
<path fill-rule="evenodd" clip-rule="evenodd" d="M95.3722 17.0284C95.3722 22.096 91.264 26.2042 86.1963 26.2042C81.1287 26.2042 77.0205 22.096 77.0205 17.0284C77.0205 11.9607 81.1287 7.85254 86.1963 7.85254C91.264 7.85254 95.3722 11.9607 95.3722 17.0284ZM91.119 17.0678C91.119 19.7648 88.9327 21.9511 86.2358 21.9511C83.5388 21.9511 81.3525 19.7648 81.3525 17.0678C81.3525 14.3709 83.5388 12.1845 86.2358 12.1845C88.9327 12.1845 91.119 14.3709 91.119 17.0678Z" fill="#1A1B1E"/>
<path d="M70.9531 15.4375V26.22H66.4395V13.2299C66.4395 10.2579 68.8487 7.84863 71.8207 7.84863L77.1299 7.84863V12.3623L70.786 12.3309C70.4225 12.3291 70.1822 12.7081 70.3391 13.0361L70.471 13.3118C70.7884 13.9755 70.9531 14.7018 70.9531 15.4375Z" fill="#1A1B1E"/>
<path fill-rule="evenodd" clip-rule="evenodd" d="M122.464 26.2065C126.786 26.2065 130.41 23.219 131.383 19.1965H126.901C126.11 20.8282 124.438 21.9533 122.503 21.9533C119.806 21.9533 117.62 19.7669 117.62 17.0699L130.727 17.0699C131.232 17.0699 131.647 16.6608 131.599 16.1581C131.537 15.5036 131.405 14.8558 131.205 14.2294C130.021 10.5315 126.555 7.85449 122.464 7.85449C117.396 7.85449 113.288 11.9627 113.288 17.0305C113.288 22.0983 117.396 26.2065 122.464 26.2065ZM127.153 15.5734C126.521 13.6084 124.678 12.1865 122.503 12.1865C120.354 12.1865 118.53 13.5745 117.877 15.5028C117.732 15.9306 118.175 16.2664 118.587 16.0819Lnan nanL118.587 16.0819C119.336 15.7466 120.147 15.5734 120.967 15.5734H127.153Z" fill="#1A1B1E"/>
<path d="M100.54 7.84082L95.71 7.84082L99.6693 26.2251C102.847 26.2251 106.024 26.2251 109.201 26.2251L113.161 7.84082L108.33 7.84082L105.043 23.1019C104.902 23.7567 103.968 23.7567 103.827 23.1019L100.54 7.84082Z" fill="#1A1B1E"/>
<path fill-rule="evenodd" clip-rule="evenodd" d="M63.5581 7.84863H59.0444V9.97567C59.0444 10.2677 58.6668 10.4082 58.4588 10.2034C56.9794 8.74715 54.9494 7.84863 52.7095 7.84863C48.1831 7.84863 44.5137 11.518 44.5137 16.0445C44.5137 20.5709 48.1831 24.2403 52.7095 24.2403C54.9494 24.2403 56.9794 23.3418 58.4588 21.8855C58.6668 21.6807 59.0444 21.8213 59.0444 22.1133V26.7121C59.0444 27.2275 58.6266 27.6453 58.1113 27.6453H47.0873V32.159H57.337C60.7728 32.159 63.5581 29.3737 63.5581 25.9379L63.5581 7.84863ZM54.0557 21.152C56.8328 21.152 59.0841 18.9008 59.0841 16.1237C59.0841 13.3466 56.8328 11.0953 54.0557 11.0953C51.2786 11.0953 49.0273 13.3466 49.0273 16.1237C49.0273 18.9008 51.2786 21.152 54.0557 21.152Z" fill="#1A1B1E"/>
</svg>
