<svg width="256" height="256" viewBox="0 0 256 256" fill="none" xmlns="http://www.w3.org/2000/svg">
    <style>
        .triangle { stroke: #282828; }

        @media (prefers-color-scheme: dark) {
        .triangle { stroke: #FCF8F2; }
        }
    </style>
    <path d="M58.1376 174.926C57.772 174.763 57.3394 174.783 56.9609 174.911C56.5789 175.039 56.2381 175.259 55.9105 175.487C55.4213 175.826 54.9444 176.183 54.4797 176.562C53.9815 176.969 53.5027 177.395 53.0238 177.821L51.9128 178.808C51.7331 178.969 51.55 179.13 51.3862 179.309C51.1116 179.614 50.8994 179.965 50.7105 180.328C50.7329 179.57 50.7277 178.81 50.6912 178.05C51.6479 177.776 52.5555 177.333 53.353 176.747C54.3684 176 55.2143 175.026 56.3041 174.391C56.6759 174.173 57.0908 173.983 57.328 173.624C57.5652 173.265 57.4946 172.671 57.0847 172.539C56.8408 172.461 56.5783 172.57 56.3438 172.679C55.6364 173.007 54.9256 173.335 54.2857 173.776C53.3152 174.441 52.5311 175.337 51.7651 176.225C51.3054 176.759 50.836 177.326 50.6876 178.009C50.6731 177.712 50.6584 177.418 50.6333 177.124C50.6716 177.079 50.7004 177.023 50.7131 176.952C50.7419 176.765 50.955 176.535 51.0544 176.378C51.1813 176.181 51.7679 175.668 51.8277 175.442C52.0541 174.567 51.1405 175.085 51.1405 175.085C51.0333 175.252 50.7092 175.611 50.49 175.875C50.4387 175.517 50.3806 175.158 50.308 174.805L50.3557 174.775C50.6035 174.76 50.8346 174.651 51.0554 174.542C52.2484 173.963 53.434 173.347 54.4536 172.503C55.4697 171.66 56.3151 170.562 56.6397 169.285C56.7064 169.015 56.748 168.713 56.5929 168.48C56.3816 168.168 55.9141 168.147 55.5504 168.263C54.8019 168.498 54.2554 169.118 53.7458 169.71C52.4082 171.27 51.0464 172.874 50.3028 174.784C50.2437 174.48 50.1777 174.176 50.1045 173.874C49.9734 173.341 49.7801 172.848 49.5652 172.363L51.1994 170.18C52.7869 168.059 54.4166 165.844 54.9502 163.257C54.9945 163.051 55.0209 162.809 54.877 162.653C54.7683 162.534 54.597 162.503 54.4339 162.501C53.823 162.493 53.2445 162.818 52.8203 163.255C52.3961 163.692 52.1027 164.232 51.8234 164.771C50.6668 166.978 49.6016 169.303 49.2941 171.757C49.1077 171.35 48.9176 170.946 48.7467 170.52C48.4804 169.853 48.4626 169.163 48.4658 168.473C48.5669 168.381 48.6617 168.282 48.7467 168.175C49.0067 167.835 49.1673 167.436 49.3209 167.035C49.9091 165.504 50.4314 163.927 50.5552 162.293C50.5738 162.061 50.5797 161.814 50.464 161.609C50.205 161.155 49.4674 161.209 49.1037 161.586C48.74 161.962 48.6471 162.515 48.5814 163.033C48.4457 164.077 48.3376 165.124 48.2465 166.176C47.8956 165.089 47.283 164.06 46.7107 163.048C47.6268 162.152 48.5045 161.215 49.3299 160.236C50.0898 159.337 50.8367 158.342 50.9474 157.175C50.9655 156.949 50.9639 156.708 50.8475 156.513C50.6278 156.131 50.0707 156.059 49.667 156.24C49.2634 156.421 48.9807 156.783 48.7193 157.141C47.541 158.752 46.4729 160.591 46.4334 162.562C46.3937 162.493 46.3577 162.422 46.318 162.353C46.0554 161.858 45.793 161.359 45.5303 160.863C46.1447 159.352 46.5707 157.763 46.7972 156.148C46.848 155.774 46.8215 155.28 46.4557 155.162C46.2558 155.097 46.033 155.19 45.8886 155.343C45.7443 155.497 45.6692 155.697 45.6048 155.894C45.1495 157.285 45.093 158.772 45.1912 160.238C44.91 159.713 44.6285 159.192 44.3329 158.674C44.0768 158.227 43.806 157.789 43.5238 157.364C43.6725 156.331 43.8175 155.301 43.9662 154.268C44.0196 153.904 44.0701 153.534 44.0229 153.169C43.9756 152.804 43.8104 152.437 43.5113 152.224C43.38 152.127 43.2112 152.066 43.0523 152.098C42.7626 152.157 42.6256 152.479 42.5643 152.767C42.2902 154.065 42.6185 155.391 43.0305 156.668C42.4749 155.926 41.8516 155.247 41.1264 154.67C41.0654 154.476 40.9867 154.287 40.8933 154.108L41.0704 154.631C40.6387 154.294 40.1763 153.992 39.6685 153.738C39.2243 153.514 38.9647 154.239 39.4023 154.46C40.5682 155.044 41.4822 155.912 42.254 156.905C41.5641 156.582 40.829 156.344 40.0786 156.212C39.4857 156.11 38.8418 156.079 38.3213 156.374C38.0816 156.503 37.8569 156.749 37.8796 157.03C37.8969 157.248 38.0556 157.436 38.2522 157.541C38.4454 157.646 38.6722 157.678 38.8929 157.699C39.7207 157.775 40.5603 157.705 41.3593 157.49C41.7073 157.398 42.0577 157.275 42.4136 157.3C42.4723 157.304 42.5301 157.319 42.588 157.334C43.1346 158.103 43.6141 158.929 44.0622 159.756C43.2167 159.379 42.3128 159.124 41.3899 159.019C40.9041 158.967 40.405 158.951 39.9245 159.05C39.444 159.149 38.9818 159.366 38.6476 159.721C38.5526 159.824 38.4668 159.94 38.442 160.076C38.3928 160.344 38.6082 160.605 38.8643 160.705C39.1207 160.801 39.4079 160.772 39.6822 160.732C41.0263 160.523 42.3455 160.017 43.7038 160.109C43.9041 160.125 44.1102 160.155 44.304 160.208C44.7939 161.121 45.2803 162.033 45.7631 162.948C45.0034 162.324 44.1399 161.825 43.2459 161.402C42.3248 160.971 41.3183 160.609 40.3075 160.734C39.9145 160.782 39.4731 160.956 39.3596 161.332C39.2617 161.644 39.436 161.985 39.6677 162.216C40.1604 162.703 40.8876 162.864 41.5814 162.923C42.648 163.012 43.7397 162.917 44.7781 163.186C45.2071 163.296 45.6347 163.467 46.0683 163.519C46.3368 164.029 46.6337 164.531 46.8982 165.047C46.5157 164.92 46.1266 164.789 45.9749 164.688C45.5629 164.407 45.1197 165.039 45.5317 165.319C45.8184 165.514 46.9935 165.811 47.2844 165.996C47.3043 166.008 47.3211 166.016 47.3412 166.024C47.5451 166.56 47.6852 167.111 47.7006 167.7C47.7105 168.141 47.6938 168.566 47.6979 168.992C46.3915 167.557 45.0352 166.139 43.3505 165.175C42.8321 164.88 42.2515 164.623 41.6566 164.675C41.4291 164.695 41.1867 164.772 41.0635 164.965C40.8852 165.239 41.0366 165.606 41.2272 165.872C41.6369 166.441 42.2286 166.863 42.8558 167.188C43.4834 167.51 44.1528 167.743 44.8137 167.995C45.8016 168.373 46.7643 168.804 47.7058 169.285C47.7221 169.689 47.7736 170.088 47.9044 170.494C48.0883 171.062 48.3445 171.595 48.5972 172.127L48.5811 172.112C48.3204 171.896 48.0561 171.682 47.7722 171.494C47.112 171.06 46.3516 170.793 45.6001 170.543C45.1531 170.398 44.7023 170.255 44.2513 170.116C43.4817 169.875 42.6567 169.634 41.8847 169.858C41.6641 169.922 41.4319 170.045 41.3693 170.263C41.2978 170.505 41.4619 170.755 41.6496 170.929C42.2415 171.478 43.083 171.645 43.8807 171.795C45.5448 172.103 47.2089 172.412 48.8732 172.717C49.0619 173.138 49.2289 173.57 49.345 174.03C49.4263 174.36 49.5002 174.696 49.5637 175.031C48.8657 174.765 48.1674 174.503 47.4693 174.238C46.1643 173.741 44.804 173.24 43.412 173.352C43.1601 173.374 42.8542 173.463 42.8031 173.709C42.7741 173.855 42.8527 174.002 42.9438 174.123C43.2886 174.591 43.8232 174.902 44.3788 175.08C44.9343 175.259 45.5282 175.306 46.1128 175.339C47.0504 175.39 47.9913 175.4 48.9325 175.407C49.1617 175.408 49.3944 175.409 49.6234 175.414C49.7705 176.268 49.861 177.135 49.9061 178.005C48.3545 177.289 46.7105 176.773 45.0246 176.476C44.3289 176.355 43.5882 176.275 42.9436 176.557C42.7708 176.633 42.5941 176.756 42.5085 176.914C42.3375 176.88 42.1659 176.852 41.994 176.873C41.7974 176.898 41.6019 176.996 41.5085 177.164C41.3509 177.44 41.5039 177.786 41.6991 178.039C41.9479 178.361 42.2631 178.634 42.6226 178.831C42.9787 179.028 43.3721 179.149 43.7623 179.266C44.3052 179.43 44.8443 179.597 45.3869 179.764C46.7267 180.174 48.063 180.583 49.4031 180.99C49.5658 181.041 49.7323 181.088 49.9001 181.119C49.8708 181.615 49.8383 182.108 49.7924 182.596C49.7461 183.087 50.5195 183.149 50.5658 182.657C50.6212 182.095 50.6565 181.523 50.6884 180.952C51.663 180.366 52.5922 179.698 53.6033 179.177C53.9187 179.013 54.2432 178.867 54.5647 178.714C55.6661 178.194 56.7404 177.623 57.7874 177.002C58.2361 176.736 58.7297 176.387 58.7643 175.867C58.7926 175.47 58.5102 175.09 58.1446 174.927L58.1376 174.926ZM49.3145 179.969C48.19 179.301 47.0479 178.635 45.866 178.077C47.2213 178.075 48.5728 178.121 49.9245 178.209C49.9574 178.927 49.9555 179.645 49.9329 180.362C49.7358 180.219 49.5236 180.092 49.3145 179.969Z" fill="#AACEAA" stroke="#242224" stroke-width="0.463479" stroke-linejoin="round"/>
    <path d="M71.0604 173.786C71.4474 173.683 71.8712 173.772 72.2246 173.959C72.5815 174.145 72.8829 174.417 73.17 174.694C73.5991 175.107 74.0131 175.535 74.4116 175.983C74.8388 176.464 75.2438 176.961 75.6489 177.458L76.5888 178.609C76.7406 178.796 76.8958 178.984 77.029 179.187C77.2516 179.532 77.4053 179.912 77.5341 180.3C77.6325 179.548 77.7585 178.799 77.9153 178.055C77.0144 177.632 76.1888 177.05 75.4946 176.345C74.611 175.446 73.9308 174.35 72.9558 173.55C72.6233 173.275 72.244 173.022 72.0669 172.629C71.8898 172.237 72.054 171.662 72.4797 171.597C72.7329 171.558 72.9746 171.708 73.1889 171.853C73.835 172.289 74.4846 172.727 75.0463 173.263C75.8988 174.074 76.5303 175.084 77.1454 176.082C77.5144 176.682 77.8875 177.317 77.9255 178.014C77.987 177.724 78.0482 177.436 78.1198 177.15C78.0891 177.099 78.0696 177.039 78.0684 176.967C78.0696 176.778 77.896 176.517 77.8228 176.346C77.7287 176.132 77.2311 175.532 77.208 175.299C77.1237 174.399 77.9434 175.056 77.9434 175.056C78.0226 175.237 78.2855 175.644 78.4599 175.939C78.5675 175.594 78.6819 175.249 78.8097 174.912L78.7675 174.874C78.5251 174.82 78.3143 174.676 78.1137 174.533C77.0279 173.772 75.9555 172.975 75.0829 171.98C74.2139 170.986 73.5538 169.768 73.4365 168.455C73.4134 168.178 73.4205 167.873 73.6106 167.668C73.8689 167.393 74.3337 167.447 74.6744 167.619C75.376 167.971 75.8169 168.67 76.2259 169.335C77.2983 171.088 78.3879 172.888 78.8182 174.892C78.9249 174.601 79.0384 174.311 79.1586 174.025C79.3728 173.52 79.6421 173.064 79.9314 172.619L78.6652 170.204C77.4352 167.857 76.1784 165.412 76.063 162.773C76.052 162.562 76.0645 162.319 76.2314 162.188C76.3575 162.088 76.5315 162.085 76.693 162.108C77.2974 162.198 77.8169 162.61 78.1661 163.109C78.5154 163.608 78.7191 164.188 78.9094 164.764C79.7002 167.127 80.3821 169.592 80.2955 172.064C80.5442 171.692 80.796 171.323 81.0326 170.93C81.4016 170.313 81.5288 169.636 81.6355 168.953C81.5502 168.847 81.4724 168.734 81.4054 168.615C81.2028 168.238 81.1079 167.818 81.0198 167.398C80.6826 165.793 80.4178 164.152 80.5553 162.52C80.5739 162.288 80.6074 162.043 80.7542 161.859C81.0821 161.452 81.8016 161.623 82.1009 162.052C82.4001 162.482 82.4038 163.043 82.3865 163.564C82.3543 164.617 82.2946 165.668 82.2173 166.72C82.7365 165.703 83.505 164.785 84.2309 163.877C83.469 162.846 82.7515 161.781 82.0923 160.683C81.4849 159.676 80.9059 158.574 80.9821 157.404C81.0001 157.179 81.04 156.941 81.186 156.767C81.4635 156.425 82.0251 156.442 82.3948 156.685C82.7646 156.928 82.986 157.331 83.1873 157.725C84.0944 159.503 84.8563 161.489 84.582 163.441C84.6321 163.379 84.679 163.314 84.7291 163.253C85.0672 162.806 85.4056 162.355 85.7437 161.907C85.3775 160.317 85.2096 158.681 85.2428 157.051C85.2521 156.673 85.3568 156.19 85.7368 156.131C85.9444 156.099 86.1497 156.226 86.2678 156.4C86.3859 156.575 86.4282 156.785 86.4604 156.99C86.6887 158.435 86.508 159.913 86.178 161.344C86.539 160.871 86.8997 160.401 87.274 159.936C87.598 159.536 87.9349 159.147 88.2811 158.772C88.2986 157.728 88.3192 156.688 88.3367 155.645C88.3418 155.277 88.3509 154.903 88.4556 154.55C88.5602 154.198 88.7817 153.861 89.111 153.699C89.2559 153.624 89.4324 153.59 89.5842 153.647C89.8608 153.752 89.9447 154.092 89.9595 154.385C90.0237 155.711 89.4888 156.968 88.8788 158.163C89.5454 157.519 90.2688 156.947 91.0765 156.493C91.1675 156.311 91.2753 156.138 91.396 155.975L91.138 156.464C91.6178 156.199 92.1222 155.975 92.664 155.805C93.1382 155.654 93.2792 156.411 92.8121 156.56C91.568 156.952 90.5277 157.663 89.6077 158.521C90.3403 158.311 91.1038 158.194 91.8657 158.182C92.4674 158.175 93.108 158.247 93.5749 158.622C93.791 158.787 93.9737 159.066 93.9067 159.339C93.8549 159.552 93.6683 159.712 93.4575 159.785C93.2502 159.857 93.0212 159.853 92.7999 159.839C91.9704 159.782 91.1527 159.58 90.398 159.241C90.0692 159.094 89.7428 158.917 89.3875 158.885C89.3288 158.88 89.2693 158.886 89.2097 158.891C88.5478 159.564 87.9432 160.302 87.3693 161.047C88.264 160.809 89.1969 160.702 90.1247 160.745C90.6126 160.771 91.1079 160.834 91.5665 161.008C92.0252 161.183 92.4469 161.471 92.7204 161.874C92.798 161.991 92.8641 162.12 92.867 162.257C92.873 162.529 92.6188 162.753 92.3501 162.811C92.0817 162.865 91.8027 162.791 91.5383 162.708C90.2445 162.288 89.0225 161.578 87.6669 161.453C87.4667 161.437 87.2584 161.434 87.0586 161.456C86.4298 162.279 85.8045 163.102 85.1823 163.929C86.0317 163.433 86.9636 163.078 87.9133 162.803C88.8913 162.524 89.9426 162.326 90.9206 162.61C91.301 162.72 91.709 162.962 91.7613 163.352C91.8084 163.675 91.5821 163.984 91.3166 164.175C90.7528 164.577 90.0091 164.621 89.3149 164.569C88.2477 164.487 87.1849 164.22 86.1171 164.32C85.676 164.36 85.2266 164.462 84.7902 164.444C84.444 164.904 84.0711 165.352 83.7279 165.82C84.1257 165.756 84.5307 165.688 84.6967 165.612C85.1479 165.401 85.4851 166.095 85.0338 166.306C84.7197 166.453 83.5124 166.559 83.1957 166.695C83.1742 166.704 83.1564 166.709 83.1351 166.715C82.8487 167.211 82.6228 167.733 82.5139 168.312C82.434 168.745 82.3828 169.168 82.311 169.588C83.8289 168.379 85.3936 167.194 87.21 166.511C87.7689 166.302 88.3829 166.141 88.9619 166.287C89.1834 166.343 89.4105 166.457 89.5014 166.667C89.6338 166.967 89.4261 167.304 89.1955 167.537C88.7006 168.033 88.0493 168.356 87.3783 168.577C86.7076 168.795 86.0097 168.918 85.3171 169.062C84.2817 169.278 83.2626 169.551 82.2566 169.876C82.1763 170.272 82.062 170.658 81.8683 171.038C81.5964 171.57 81.2587 172.055 80.9245 172.54L80.9429 172.528C81.2347 172.356 81.5297 172.187 81.8397 172.046C82.5606 171.723 83.3539 171.58 84.1354 171.453C84.6 171.38 85.0676 171.311 85.5351 171.245C86.3331 171.131 87.186 171.023 87.9126 171.367C88.1201 171.466 88.3299 171.624 88.357 171.849C88.3891 172.1 88.1872 172.321 87.9744 172.462C87.3026 172.91 86.4453 172.941 85.634 172.962C83.942 173.002 82.25 173.042 80.5583 173.078C80.3051 173.464 80.0715 173.865 79.8837 174.3C79.751 174.613 79.6246 174.932 79.5086 175.253C80.24 175.102 80.9711 174.954 81.7025 174.803C83.0699 174.521 84.4925 174.242 85.849 174.574C86.0943 174.635 86.3822 174.772 86.3933 175.024C86.3988 175.172 86.2979 175.305 86.1887 175.41C85.7739 175.816 85.1967 176.038 84.6198 176.126C84.0429 176.214 83.449 176.167 82.8666 176.106C81.9328 176.008 81.0023 175.868 80.072 175.725C79.8455 175.689 79.6156 175.654 79.3888 175.622C79.1077 176.442 78.8806 177.283 78.6977 178.135C80.3434 177.675 82.0486 177.426 83.7602 177.402C84.4663 177.393 85.2103 177.432 85.8018 177.813C85.9604 177.915 86.1152 178.065 86.1746 178.235C86.3489 178.228 86.5226 178.228 86.6891 178.276C86.8792 178.332 87.0566 178.46 87.1221 178.64C87.2337 178.938 87.0277 179.255 86.7948 179.474C86.4979 179.752 86.1433 179.972 85.757 180.109C85.3742 180.247 84.9666 180.304 84.5627 180.357C84.0007 180.433 83.4418 180.512 82.8795 180.591C81.4916 180.782 80.1072 180.974 78.7196 181.162C78.5508 181.186 78.3789 181.207 78.2084 181.21C78.1584 181.705 78.1121 182.196 78.0799 182.685C78.0475 183.178 77.274 183.116 77.3065 182.623C77.3412 182.059 77.3973 181.489 77.4567 180.92C76.5876 180.187 75.7765 179.379 74.8611 178.704C74.5757 178.492 74.2786 178.297 73.9855 178.095C72.9808 177.406 72.011 176.671 71.0761 175.892C70.6755 175.557 70.2437 175.134 70.2922 174.615C70.3273 174.219 70.6665 173.889 71.0535 173.786L71.0604 173.786ZM78.9694 180.168C80.1858 179.687 81.4192 179.212 82.675 178.848C81.3371 178.631 79.9955 178.462 78.6471 178.333C78.5004 179.037 78.3881 179.746 78.2964 180.458C78.5137 180.348 78.7434 180.256 78.9694 180.168Z" fill="#AACEAA" stroke="#242224" stroke-width="0.579349" stroke-linejoin="round"/>
    <path d="M76.1002 175.261C75.6907 174.913 75.1261 174.777 74.5906 174.799C74.0509 174.82 73.5294 174.976 73.022 175.147C72.2647 175.399 71.5166 175.68 70.776 175.994C69.9817 176.331 69.2052 176.699 68.4288 177.068L66.6276 177.922C66.3358 178.062 66.0397 178.2 65.7614 178.369C65.2935 178.658 64.8885 179.031 64.509 179.427C64.8224 178.46 65.1012 177.479 65.3392 176.487C66.6739 176.494 68.009 176.264 69.2558 175.809C70.8438 175.228 72.2986 174.291 73.9402 173.883C74.5008 173.742 75.1063 173.653 75.5467 173.279C75.987 172.906 76.1189 172.115 75.6409 171.791C75.356 171.599 74.9769 171.641 74.6342 171.693C73.6001 171.85 72.5616 172.006 71.5724 172.333C70.073 172.825 68.7268 173.685 67.4073 174.54C66.6149 175.055 65.7975 175.609 65.3501 176.433C65.4429 176.045 65.5341 175.662 65.6122 175.273C65.6785 175.23 65.7367 175.168 65.7797 175.081C65.887 174.852 66.2478 174.635 66.4348 174.47C66.6718 174.265 67.62 173.824 67.7816 173.556C68.402 172.513 67.031 172.838 67.031 172.838C66.8304 173.012 66.2782 173.353 65.8967 173.611C65.9652 173.131 66.025 172.647 66.0641 172.165L66.1369 172.143C66.4616 172.218 66.7999 172.165 67.1253 172.106C68.8785 171.81 70.6368 171.461 72.2662 170.758C73.8913 170.053 75.3919 168.957 76.2893 167.434C76.4765 167.112 76.6437 166.738 76.5312 166.38C76.3765 165.899 75.7821 165.697 75.2706 165.709C74.2182 165.732 73.2818 166.324 72.4036 166.895C70.0954 168.402 67.74 169.955 66.0653 172.136C66.1033 171.722 66.1326 171.306 66.1515 170.89C66.1829 170.154 66.1192 169.447 66.0245 168.742L68.9482 166.544C71.7887 164.409 74.7185 162.169 76.377 159.038C76.5115 158.789 76.6362 158.488 76.5095 158.233C76.4141 158.039 76.2052 157.935 75.9962 157.87C75.2124 157.631 74.3455 157.833 73.6352 158.236C72.925 158.64 72.3443 159.225 71.7826 159.813C69.4646 162.221 67.2203 164.815 65.9029 167.859C65.8157 167.266 65.7225 166.674 65.6624 166.061C65.5702 165.102 65.8059 164.208 66.0693 163.32C66.234 163.24 66.3932 163.148 66.5427 163.042C67.0052 162.702 67.362 162.247 67.7101 161.79C69.0422 160.039 70.3071 158.204 71.0797 156.147C71.1908 155.855 71.2911 155.539 71.2193 155.232C71.0562 154.55 70.086 154.343 69.4763 154.691C68.8666 155.04 68.5394 155.717 68.2606 156.358C67.6936 157.652 67.1614 158.96 66.6493 160.28C66.6057 158.748 66.2031 157.194 65.846 155.676C67.3621 154.866 68.844 153.989 70.2745 153.038C71.5903 152.166 72.9257 151.165 73.5064 149.704C73.6143 149.42 73.7027 149.11 73.6259 148.815C73.4866 148.24 72.7962 147.938 72.2086 148.02C71.6209 148.101 71.1209 148.462 70.6502 148.823C68.5281 150.455 66.4621 152.423 65.6716 154.945C65.6462 154.842 65.6268 154.737 65.6014 154.634C65.4492 153.897 65.2986 153.156 65.1464 152.419C66.505 150.704 67.65 148.818 68.5479 146.824C68.7538 146.361 68.905 145.715 68.4786 145.425C68.2453 145.268 67.9237 145.303 67.6803 145.446C67.4368 145.589 67.2649 145.819 67.1077 146.049C65.9995 147.669 65.3683 149.563 64.9445 151.487C64.7793 150.706 64.6125 149.929 64.4267 149.151C64.2646 148.479 64.0803 147.814 63.8764 147.161C64.4558 145.886 65.0292 144.614 65.6086 143.34C65.8139 142.892 66.0181 142.433 66.0942 141.946C66.1703 141.458 66.0955 140.923 65.7902 140.537C65.6574 140.363 65.4632 140.221 65.2466 140.202C64.8513 140.17 64.5538 140.534 64.3671 140.881C63.5267 142.449 63.4516 144.28 63.5025 146.079C63.0658 144.915 62.5182 143.807 61.801 142.791C61.7954 142.518 61.7648 142.246 61.7119 141.98L61.7436 142.72C61.3143 142.124 60.8322 141.562 60.2736 141.044C59.7859 140.588 59.1794 141.425 59.66 141.873C60.9416 143.064 61.7929 144.524 62.4137 146.093C61.6468 145.418 60.7895 144.836 59.8729 144.384C59.1479 144.029 58.3305 143.748 57.5493 143.932C57.1925 144.008 56.8104 144.241 56.7345 144.611C56.6749 144.898 56.8087 145.2 57.0224 145.409C57.2317 145.616 57.5118 145.743 57.788 145.853C58.8252 146.262 59.9327 146.487 61.0421 146.51C61.5248 146.522 62.0223 146.495 62.4711 146.661C62.545 146.689 62.6139 146.73 62.6828 146.771C63.0978 147.966 63.4052 149.209 63.6719 150.442C62.7248 149.639 61.6564 148.972 60.5074 148.491C59.9017 148.24 59.265 148.033 58.6091 147.98C57.9532 147.927 57.2765 148.033 56.7129 148.365C56.5521 148.461 56.3977 148.579 56.3149 148.745C56.1511 149.071 56.3303 149.488 56.6227 149.712C56.9167 149.933 57.2973 150.004 57.6654 150.055C59.4745 150.291 61.3633 150.134 63.0779 150.762C63.3298 150.858 63.5838 150.974 63.8133 151.116C64.1016 152.474 64.3855 153.832 64.6634 155.191C63.9198 154.102 62.9951 153.135 62.0025 152.256C60.9784 151.355 59.8185 150.51 58.4699 150.292C57.946 150.206 57.3122 150.265 57.0249 150.706C56.7817 151.071 56.8783 151.575 57.0896 151.961C57.5414 152.772 58.4173 153.253 59.2884 153.589C60.6285 154.104 62.0698 154.391 63.3059 155.127C63.8171 155.43 64.3031 155.812 64.8421 156.041C64.9964 156.798 65.1904 157.556 65.3371 158.32C64.8923 158.013 64.4403 157.698 64.2831 157.511C63.858 156.995 63.0502 157.641 63.4753 158.157C63.7714 158.516 65.173 159.339 65.4782 159.687C65.4994 159.709 65.5178 159.726 65.5406 159.745C65.6021 160.511 65.5756 161.273 65.3743 162.037C65.2215 162.608 65.0405 163.149 64.8856 163.7C63.7422 161.362 62.5283 159.026 60.7207 157.153C60.1643 156.578 59.5128 156.03 58.7273 155.874C58.4271 155.814 58.086 155.822 57.855 156.024C57.5223 156.31 57.5797 156.839 57.7253 157.253C58.0391 158.14 58.6425 158.905 59.3281 159.56C60.0153 160.21 60.79 160.76 61.5463 161.333C62.6763 162.191 63.7542 163.108 64.7858 164.08C64.6553 164.606 64.5716 165.14 64.5877 165.711C64.6111 166.512 64.741 167.294 64.8665 168.075L64.8513 168.049C64.5971 167.672 64.337 167.298 64.042 166.95C63.355 166.142 62.4761 165.513 61.602 164.91C61.0812 164.554 60.5544 164.202 60.0259 163.853C59.1252 163.254 58.1534 162.634 57.0755 162.632C56.7671 162.633 56.4222 162.703 56.2595 162.961C56.0767 163.245 56.194 163.629 56.3707 163.923C56.9267 164.852 57.9474 165.383 58.9183 165.876C60.9452 166.898 62.9721 167.92 65.0006 168.937C65.0857 169.55 65.1381 170.17 65.115 170.805C65.096 171.261 65.065 171.721 65.021 172.176C64.2219 171.572 63.4211 170.972 62.622 170.368C61.1279 169.239 59.5644 168.084 57.73 167.705C57.3978 167.638 56.9704 167.638 56.812 167.937C56.72 168.113 56.7659 168.332 56.8379 168.522C57.1063 169.253 57.6779 169.854 58.3262 170.293C58.9746 170.731 59.7214 171.016 60.4618 171.278C61.6499 171.695 62.8577 172.061 64.0671 172.423C64.3619 172.511 64.661 172.6 64.9541 172.692C64.8228 173.847 64.6139 174.997 64.3453 176.134C62.6161 174.63 60.6932 173.348 58.6337 172.333C57.7833 171.916 56.8596 171.535 55.9238 171.656C55.6729 171.688 55.3991 171.781 55.2294 171.952C55.0221 171.844 54.8116 171.744 54.5825 171.706C54.3197 171.665 54.0313 171.718 53.848 171.899C53.5414 172.195 53.6086 172.698 53.7651 173.097C53.9643 173.605 54.2678 174.075 54.6566 174.464C55.0411 174.851 55.5023 175.154 55.9608 175.452C56.5983 175.867 57.2299 176.284 57.8658 176.703C59.4371 177.733 61.004 178.762 62.577 179.789C62.7674 179.915 62.9638 180.039 63.1684 180.142C62.9444 180.77 62.7178 181.391 62.4753 182.003C62.2313 182.618 63.2039 182.988 63.448 182.373C63.7307 181.669 63.9906 180.946 64.2462 180.222C65.721 179.834 67.1683 179.323 68.6658 179.032C69.1334 178.939 69.606 178.873 70.0774 178.797C71.6911 178.54 73.2885 178.209 74.8698 177.802C75.5477 177.627 76.3142 177.363 76.554 176.707C76.7392 176.207 76.5184 175.611 76.1089 175.264L76.1002 175.261ZM62.8464 178.44C61.649 177.159 60.4283 175.873 59.1162 174.71C60.8619 175.217 62.5847 175.784 64.2923 176.404C64.0652 177.34 63.7931 178.265 63.4949 179.179C63.2949 178.921 63.0693 178.678 62.8464 178.44Z" fill="#AACEAA" stroke="#242224" stroke-width="0.579349" stroke-linejoin="round"/>
    <mask id="mask0_3838_87443" style="mask-type:luminance" maskUnits="userSpaceOnUse" x="81" y="49" width="65" height="139">
        <path d="M112.642 49.4956L145.006 125.135L81.0006 187.363L112.642 49.4956ZM106.348 71.8961L89.5489 158.289L133.056 121.585L106.348 71.8961Z" fill="white"/>
    </mask>
    <g mask="url(#mask0_3838_87443)">
        <path d="M-73.2859 70.0702L132.957 52.0265V-154.105L-73.2859 -136.083V70.0702Z" fill="#AACEAA"/>
        <path d="M-73.2859 276.203L132.957 258.181V52.0273L-73.2859 70.071V276.203Z" fill="#AACEAA"/>
        <path d="M132.956 52.0257L339.22 33.982V-172.15L132.956 -154.106V52.0257Z" fill="#AACEAA"/>
        <path d="M132.956 258.179L339.22 240.136V33.9824L132.956 52.0261V258.179Z" fill="#AACEAA"/>
        <path d="M-73.2859 276.203L132.957 258.181V52.0273L-73.2859 70.071V276.203Z" fill="#AACEAA"/>
        <path d="M132.956 258.179L339.22 240.136V33.9824L132.956 52.0261V258.179Z" fill="#AACEAA"/>
    </g>
    <path d="M81.0011 187.704C81.0011 187.704 81.1713 187.661 81.2351 187.597L145.241 125.369C145.241 125.369 145.368 125.114 145.326 124.986L112.961 49.3472C112.898 49.1985 112.77 49.1348 112.6 49.1348C112.451 49.1348 112.324 49.2623 112.281 49.4111L107.007 72.4066L106.646 71.7266C106.582 71.5991 106.433 71.5141 106.284 71.5566C106.136 71.5566 106.029 71.6841 105.987 71.8329L99.6074 104.669L80.6397 187.3C80.5971 187.449 80.6822 187.597 80.8098 187.682C80.8736 187.704 80.9161 187.725 80.9799 187.725L81.0011 187.704ZM144.582 125.05L81.5965 186.28L95.631 125.093L89.1879 158.205C89.1667 158.353 89.2304 158.502 89.358 158.566C89.4856 158.651 89.6557 158.63 89.762 158.523L133.269 121.82C133.397 121.713 133.439 121.522 133.354 121.395L107.518 73.3206L112.728 50.6012L144.582 125.029V125.05ZM132.588 121.501L90.0598 157.376L100.267 104.796L107.241 74.362L132.567 121.48L132.588 121.501ZM106.752 73.4481L104.243 84.372L106.476 72.9379L106.752 73.4692V73.4481Z" fill="#242224"/>
    <mask id="mask1_3838_87443" style="mask-type:luminance" maskUnits="userSpaceOnUse" x="77" y="48" width="78" height="147">
        <path d="M113.024 48.2222L154.064 126.518L77.215 194.74L113.024 48.2222ZM115.406 73.2793L90.0587 169.3L142.794 123.882L115.406 73.2793Z" fill="white"/>
    </mask>
    <g mask="url(#mask1_3838_87443)">
        <path d="M-73.2917 70.0716L132.951 52.0279V-154.104L-73.2917 -136.082V70.0716Z" fill="#AACEAA"/>
        <path d="M-73.2917 276.203L132.951 258.181V52.0273L-73.2917 70.071V276.203Z" fill="#AACEAA"/>
        <path d="M132.95 52.0262L339.214 33.9825V-172.149L132.95 -154.106V52.0262Z" fill="#AACEAA"/>
        <path d="M132.95 258.181L339.214 240.138V33.9844L132.95 52.0281V258.181Z" fill="#AACEAA"/>
        <path d="M-73.2917 276.203L132.951 258.181V52.0273L-73.2917 70.071V276.203Z" fill="#AACEAA"/>
        <path d="M132.95 258.181L339.214 240.138V33.9844L132.95 52.0281V258.181Z" fill="#AACEAA"/>
    </g>
    <path d="M77.2138 195.082C77.2138 195.082 77.384 195.061 77.4478 194.997L154.297 126.775C154.425 126.669 154.446 126.499 154.382 126.35L113.342 48.0541C113.278 47.9266 113.151 47.8628 112.98 47.8628C112.832 47.8628 112.725 47.9903 112.683 48.1178L76.8736 194.635C76.831 194.784 76.8949 194.933 77.0224 195.018C77.0862 195.06 77.15 195.06 77.1925 195.06L77.2138 195.082ZM153.638 126.435L77.8305 193.722L113.151 49.2017L153.638 126.435ZM90.0575 169.642C90.0575 169.642 90.2276 169.621 90.2914 169.557L143.027 124.14C143.155 124.033 143.176 123.842 143.112 123.714L115.724 73.1113C115.66 72.9837 115.511 72.9199 115.383 72.9412C115.235 72.9412 115.128 73.0688 115.086 73.1964L89.7386 169.217C89.696 169.366 89.7598 169.515 89.8874 169.6C89.9511 169.642 90.0149 169.642 90.0787 169.642H90.0575ZM142.347 123.8L90.6741 168.303L115.511 74.2165L142.347 123.8Z" fill="#242224"/>
    <path d="M142.814 124.224C142.963 124.224 143.112 124.118 143.154 123.948C143.197 123.757 143.09 123.565 142.899 123.523L133.139 121.227C132.947 121.185 132.756 121.312 132.713 121.483C132.671 121.674 132.777 121.865 132.969 121.908L142.729 124.203C142.729 124.203 142.793 124.203 142.814 124.203V124.224Z" fill="#242224"/>
    <mask id="mask2_3838_87443" style="mask-type:luminance" maskUnits="userSpaceOnUse" x="65" y="45" width="49" height="150">
        <path d="M77.2201 194.744L65.0569 189.984L103.588 45.7402L113.029 48.2269L77.2201 194.744Z" fill="white"/>
    </mask>
    <g mask="url(#mask2_3838_87443)">
        <path d="M-73.283 70.0726L132.96 52.0289V-154.103L-73.283 -136.081V70.0726Z" fill="#AACEAA"/>
        <path d="M-73.283 276.205L132.96 258.183V52.0293L-73.283 70.073V276.205Z" fill="#AACEAA"/>
    </g>
    <path d="M77.2158 195.082C77.2158 195.082 77.3221 195.082 77.3859 195.04C77.4709 194.997 77.5348 194.912 77.556 194.806L113.365 48.2886C113.408 48.0973 113.301 47.9273 113.11 47.8635L103.669 45.377C103.477 45.3345 103.286 45.4407 103.243 45.632L64.7336 189.897C64.6911 190.067 64.7762 190.258 64.9463 190.322L77.1095 195.061C77.1095 195.061 77.1946 195.082 77.2371 195.082H77.2158ZM112.6 48.48L76.9819 194.275L65.4779 189.791L103.818 46.1633L112.6 48.48Z" fill="#242224"/>
    <mask id="mask3_3838_87443" style="mask-type:luminance" maskUnits="userSpaceOnUse" x="106" y="43" width="73" height="155">
        <path d="M142.141 43.0449L178.388 127.758L106.704 197.451L142.141 43.0449ZM135.092 68.1326L116.278 164.89L165.004 123.783L135.092 68.1326Z" fill="white"/>
    </mask>
    <g mask="url(#mask3_3838_87443)">
        <path d="M-66.0924 66.0846L164.892 45.8763V-184.983L-66.0924 -164.799V66.0846Z" fill="#389F58"/>
        <path d="M-66.0924 296.941L164.892 276.757V45.8735L-66.0924 66.0818V296.941Z" fill="#389F58"/>
        <path d="M164.889 45.8731L395.897 25.6649V-205.195L164.889 -184.987V45.8731Z" fill="#389F58"/>
        <path d="M164.889 276.76L395.897 256.552V25.668L164.889 45.8762V276.76Z" fill="#389F58"/>
        <path d="M-66.0924 296.941L164.892 276.757V45.8735L-66.0924 66.0818V296.941Z" fill="#389F58"/>
        <path d="M164.889 276.76L395.897 256.552V25.668L164.889 45.8762V276.76Z" fill="#389F58"/>
    </g>
    <path d="M106.708 197.832C106.708 197.832 106.899 197.785 106.97 197.713L178.654 128.02C178.654 128.02 178.797 127.734 178.749 127.591L142.502 42.8786C142.431 42.712 142.288 42.6406 142.097 42.6406C141.931 42.6406 141.788 42.7835 141.74 42.9501L135.834 68.7042L135.429 67.9426C135.358 67.7998 135.191 67.7045 135.024 67.7522C134.858 67.7522 134.738 67.895 134.691 68.0616L127.546 104.836L106.303 197.38C106.256 197.547 106.351 197.713 106.494 197.809C106.565 197.832 106.613 197.856 106.684 197.856L106.708 197.832ZM177.916 127.663L107.375 196.238L123.093 127.71L115.877 164.795C115.853 164.961 115.924 165.128 116.067 165.199C116.21 165.295 116.401 165.271 116.52 165.152L165.246 124.045C165.389 123.926 165.436 123.712 165.341 123.569L136.406 69.7278L142.24 44.283L177.916 127.639V127.663ZM164.484 123.688L116.853 163.866L128.285 104.979L136.096 70.8941L164.46 123.664L164.484 123.688ZM135.548 69.8706L132.738 82.1049L135.239 69.2992L135.548 69.8943V69.8706Z" fill="#242224"/>
    <mask id="mask4_3838_87443" style="mask-type:luminance" maskUnits="userSpaceOnUse" x="102" y="41" width="87" height="165">
        <path d="M142.575 41.6128L188.538 129.301L102.47 205.707L142.575 41.6128ZM145.242 69.6758L116.854 177.215L175.916 126.349L145.242 69.6758Z" fill="white"/>
    </mask>
    <g mask="url(#mask4_3838_87443)">
        <path d="M-66.0904 66.0816L164.894 45.8734V-184.986L-66.0904 -164.802V66.0816Z" fill="#389F58"/>
        <path d="M-66.0904 296.941L164.894 276.757V45.8735L-66.0904 66.0818V296.941Z" fill="#389F58"/>
        <path d="M164.892 45.8731L395.899 25.6649V-205.195L164.892 -184.987V45.8731Z" fill="#389F58"/>
        <path d="M164.892 276.757L395.899 256.549V25.665L164.892 45.8733V276.757Z" fill="#389F58"/>
        <path d="M-66.0904 296.941L164.894 276.757V45.8735L-66.0904 66.0818V296.941Z" fill="#389F58"/>
        <path d="M164.892 276.757L395.899 256.549V25.665L164.892 45.8733V276.757Z" fill="#389F58"/>
    </g>
    <path d="M102.47 206.09C102.47 206.09 102.661 206.067 102.732 205.995L188.8 129.589C188.943 129.47 188.967 129.28 188.896 129.113L142.932 41.4252C142.861 41.2824 142.718 41.2109 142.527 41.2109C142.361 41.2109 142.241 41.3537 142.194 41.4966L102.089 205.59C102.041 205.757 102.113 205.924 102.256 206.019C102.327 206.067 102.399 206.067 102.446 206.067L102.47 206.09ZM188.062 129.209L103.161 204.567L142.718 42.7105L188.062 129.209ZM116.854 177.599C116.854 177.599 117.045 177.575 117.116 177.504L176.178 126.638C176.321 126.519 176.345 126.305 176.273 126.162L145.599 69.4882C145.528 69.3454 145.361 69.274 145.218 69.2978C145.052 69.2978 144.933 69.4407 144.885 69.5835L116.497 177.123C116.45 177.289 116.521 177.456 116.664 177.551C116.735 177.599 116.807 177.599 116.878 177.599H116.854ZM175.416 126.257L117.545 176.099L145.361 70.726L175.416 126.257Z" fill="#242224"/>
    <path d="M175.937 126.732C176.104 126.732 176.271 126.612 176.318 126.422C176.366 126.208 176.247 125.994 176.032 125.946L165.101 123.375C164.887 123.328 164.673 123.471 164.625 123.661C164.577 123.875 164.696 124.09 164.911 124.137L175.842 126.708C175.842 126.708 175.913 126.708 175.937 126.708V126.732Z" fill="#242224"/>
    <mask id="mask5_3838_87443" style="mask-type:luminance" maskUnits="userSpaceOnUse" x="88" y="38" width="55" height="168">
        <path d="M102.473 205.711L88.8505 200.379L132.004 38.832L142.578 41.617L102.473 205.711Z" fill="white"/>
    </mask>
    <g mask="url(#mask5_3838_87443)">
        <path d="M-66.0914 66.0865L164.893 45.8783V-184.981L-66.0914 -164.797V66.0865Z" fill="#389F58"/>
        <path d="M-66.0914 296.945L164.893 276.761V45.8774L-66.0914 66.0857V296.945Z" fill="#389F58"/>
    </g>
    <path d="M102.47 206.093C102.47 206.093 102.589 206.093 102.66 206.045C102.756 205.997 102.827 205.902 102.851 205.783L142.956 41.6893C143.004 41.4751 142.884 41.2846 142.67 41.2132L132.096 38.4284C131.882 38.3808 131.667 38.4998 131.62 38.714L88.4904 200.285C88.4428 200.475 88.5381 200.69 88.7286 200.761L102.351 206.069C102.351 206.069 102.446 206.093 102.494 206.093H102.47ZM142.099 41.9036L102.208 205.188L89.324 200.166L132.263 39.3091L142.099 41.9036Z" fill="#242224"/>
    <path class="triangle" d="M115.707 211.358L161.133 41.3145L171.876 44.0769L219.757 136.465L130.132 217.19L115.707 211.358Z" stroke="#FCF8F2" stroke-width="0.869023" stroke-linecap="round" stroke-linejoin="round" stroke-dasharray="2.57 2.57"/>
    <path class="triangle" d="M172.181 44.0762L129.593 217.38M175.25 74.77L145.478 186.802L207.478 133.702L175.25 74.77Z" stroke="#FCF8F2" stroke-width="0.869023" stroke-linejoin="round" stroke-dasharray="2.57 2.57"/>
    <path class="triangle" d="M149.779 169.308L196.126 130.327M196.126 130.327L172.492 86.4346M196.126 130.327L207.176 133.396" stroke="#FCF8F2" stroke-width="0.869023" stroke-linejoin="round" stroke-dasharray="2.57 2.57"/>
</svg>