<svg xmlns="http://www.w3.org/2000/svg" width="32" height="32" viewBox="0 0 32 32" fill="none">
    <g clip-path="url(#clip0_5872_36923)">
        <path d="M16 32C24.8366 32 32 24.8366 32 16C32 7.16344 24.8366 0 16 0C7.16344 0 0 7.16344 0 16C0 24.8366 7.16344 32 16 32Z" fill="#E84142"/>
        <path fill-rule="evenodd" clip-rule="evenodd" d="M11.5186 22.7506H8.49064C7.85464 22.7506 7.54064 22.7506 7.34864 22.6276C7.24748 22.5616 7.16327 22.4727 7.10282 22.3682C7.04236 22.2636 7.00736 22.1462 7.00064 22.0256C6.98864 21.7996 7.14564 21.5226 7.46064 20.9706L14.9326 7.77763C15.2506 7.21763 15.4126 6.93763 15.6146 6.83363C15.7228 6.77866 15.8423 6.75 15.9636 6.75C16.0849 6.75 16.2045 6.77866 16.3126 6.83363C16.5156 6.93763 16.6766 7.21763 16.9946 7.77763L18.5306 10.4636L18.5386 10.4776C18.8816 11.0776 19.0556 11.3836 19.1316 11.7036C19.2166 12.0539 19.2166 12.4194 19.1316 12.7696C19.0556 13.0926 18.8826 13.3996 18.5346 14.0096L14.6086 20.9596L14.5986 20.9766C14.2526 21.5826 14.0786 21.8896 13.8346 22.1216C13.572 22.3731 13.2532 22.5582 12.9046 22.6616C12.5856 22.7506 12.2306 22.7506 11.5186 22.7506ZM19.1616 22.7506H23.4976C24.1376 22.7506 24.4596 22.7506 24.6516 22.6246C24.7536 22.5582 24.8383 22.4686 24.8988 22.3631C24.9593 22.2575 24.9939 22.1391 24.9996 22.0176C25.0106 21.7986 24.8576 21.5336 24.5566 21.0126L24.5246 20.9586L22.3526 17.2366L22.3276 17.1946C22.0226 16.6776 21.8676 16.4166 21.6706 16.3156C21.5634 16.2609 21.4446 16.2323 21.3241 16.2323C21.2037 16.2323 21.0849 16.2609 20.9776 16.3156C20.7776 16.4196 20.6176 16.6926 20.2996 17.2406L18.1346 20.9626L18.1276 20.9756C17.8106 21.5236 17.6516 21.7966 17.6636 22.0216C17.6703 22.1428 17.7052 22.2607 17.7657 22.366C17.8261 22.4712 17.9103 22.5608 18.0116 22.6276C18.1996 22.7506 18.5216 22.7506 19.1616 22.7506Z" fill="white"/>
    </g>
    <defs>
        <clipPath id="clip0_5872_36923">
            <rect width="32" height="32" fill="white"/>
        </clipPath>
    </defs>
</svg>