<svg xmlns="http://www.w3.org/2000/svg" width="17" height="13" viewBox="0 0 17 13"><g fill="none" fill-rule="evenodd" transform="translate(1 1)"><polyline stroke="#1D8AED" stroke-linecap="round" stroke-linejoin="round" stroke-width="2" points="0 0 12.188 0 15 6 12.188 11 0 11 0 6.5"/><path fill="#1D8AED" fill-rule="nonzero" d="M6.63038,7.86034 C6.49219,7.95262 6.32954,8.00126 6.16345,7.99999999 C6.05205,7.99913 5.94197,7.97583 5.83975,7.93148 C5.73753,7.88713 5.64527,7.82263 5.56846,7.74182 L4.49684,6.67022 L3.42521,7.74182 C3.27487,7.89678 3.07019,7.98705 2.85454,7.99348 C2.68774,7.99839 2.52333,7.95284 2.38276,7.86278 C2.2422,7.77271 2.132,7.64231 2.06654,7.48858 C2.00108,7.33486 1.9834,7.16494 2.0158,7.001 C2.04821,6.83706 2.1292,6.68671 2.2482,6.56955 L3.32145,5.49471 L2.2482,4.42311 C2.17087,4.34572 2.10953,4.25383 2.06766,4.15269 C2.0258,4.05156 2.00424,3.94315 2.00422,3.83366 C2.0042,3.72418 2.02572,3.61576 2.06754,3.51461 C2.10937,3.41346 2.17068,3.32155 2.24798,3.24413 C2.32529,3.16671 2.41706,3.10531 2.51806,3.06342 C2.61907,3.02153 2.72732,2.99999999 2.83664,2.99999999 C2.94596,2.99999999 3.05421,3.02161 3.1552,3.06354 C3.25619,3.10546 3.34794,3.1669 3.42521,3.24435 L4.49684,4.31757 L5.56846,3.24435 C5.72456,3.08812 5.93623,3.00038 6.15691,3.00042 C6.37759,3.00046 6.58923,3.08827 6.74527,3.24455 C6.90132,3.40083 6.989,3.61277 6.98904,3.83379 C6.98908,4.0548 6.90146,4.26678 6.74547,4.42311 L5.67222,5.49471 L6.74547,6.56955 C6.86515,6.68489 6.94753,6.83353 6.98196,6.99626 C7.0164,7.15898 7.0013,7.32831 6.93862,7.48235 C6.87595,7.63639 6.76857,7.76806 6.63038,7.86034 Z"/></g></svg>