<svg width="17" height="13" viewBox="0 0 17 13" fill="none" xmlns="http://www.w3.org/2000/svg">
<path d="M1 1H13.1875L16 7L13.1875 12H1V7.5" stroke="#C5EC4B" stroke-width="2" stroke-linecap="round" stroke-linejoin="round"/>
<path d="M7.63038 8.86034C7.49219 8.95262 7.32954 9.00126 7.16345 8.99998C7.05205 8.99913 6.94197 8.97583 6.83975 8.93148C6.73753 8.88713 6.64527 8.82263 6.56846 8.74182L5.49684 7.67022L4.42521 8.74182C4.27487 8.89678 4.07019 8.98705 3.85454 8.99348C3.68774 8.99839 3.52333 8.95284 3.38276 8.86278C3.2422 8.77271 3.132 8.64231 3.06654 8.48858C3.00108 8.33486 2.9834 8.16494 3.0158 8.001C3.04821 7.83706 3.1292 7.68671 3.2482 7.56955L4.32145 6.49471L3.2482 5.42311C3.17087 5.34572 3.10953 5.25383 3.06766 5.15269C3.0258 5.05156 3.00424 4.94315 3.00422 4.83366C3.0042 4.72418 3.02572 4.61576 3.06754 4.51461C3.10937 4.41346 3.17068 4.32155 3.24798 4.24413C3.32529 4.16671 3.41706 4.10531 3.51806 4.06342C3.61907 4.02153 3.72732 3.99998 3.83664 4C3.94596 4.00002 4.05421 4.02161 4.1552 4.06354C4.25619 4.10546 4.34794 4.1669 4.42521 4.24435L5.49684 5.31757L6.56846 4.24435C6.72456 4.08812 6.93623 4.00038 7.15691 4.00042C7.37759 4.00046 7.58923 4.08827 7.74527 4.24455C7.90132 4.40083 7.989 4.61277 7.98904 4.83379C7.98908 5.0548 7.90146 5.26678 7.74547 5.42311L6.67222 6.49471L7.74547 7.56955C7.86515 7.68489 7.94753 7.83353 7.98196 7.99626C8.0164 8.15898 8.0013 8.32831 7.93862 8.48235C7.87595 8.63639 7.76857 8.76806 7.63038 8.86034Z" fill="#C5EC4B"/>
</svg>
