<svg width="406" height="113" viewBox="0 0 406 113" fill="none" xmlns="http://www.w3.org/2000/svg">
    <path d="M261.211 -3.05176e-05H239.376L257.84 85.2318H300.622L319.086 -3.05176e-05H297.537L281.831 72.6406C281.259 75.2672 277.489 75.2672 276.923 72.6406L261.211 -3.05176e-05Z" fill="#FCF8F2"/>
    <path fill-rule="evenodd" clip-rule="evenodd" d="M237.69 42.6338C237.69 66.1663 218.529 85.2497 194.896 85.2497C171.262 85.2497 152.107 66.1723 152.107 42.6338C152.107 19.0952 171.268 0.0178528 194.896 0.0178528C218.529 0.0178528 237.69 19.0952 237.69 42.6338ZM217.856 42.8184C217.856 55.3441 207.659 65.4933 195.08 65.4933C182.507 65.4933 172.304 55.3381 172.304 42.8184C172.304 30.2987 182.501 20.1376 195.08 20.1376C207.659 20.1376 217.856 30.2927 217.856 42.8184Z" fill="#FCF8F2"/>
    <path d="M123.297 34.6704V85.3271H102.248V25.1168C102.248 11.3106 113.487 0.125046 127.347 0.125046H152.107V21.0846L122.029 20.9357C120.563 20.9297 119.592 22.4545 120.224 23.7708L121.355 26.1294C122.636 28.7977 123.297 31.7103 123.297 34.6704Z" fill="#FCF8F2"/>
    <path fill-rule="evenodd" clip-rule="evenodd" d="M88.8114 0.0178833H67.7626V10.4411C67.7626 11.6144 66.2437 12.1743 65.4158 11.3404C58.4889 4.35392 48.8579 0.0238407 38.2203 0.0238407C17.1119 0.0238407 0 17.0642 0 38.0833C0 59.1024 17.1119 76.1428 38.2203 76.1428C48.8638 76.1428 58.4889 71.8127 65.4158 64.8262C66.2437 63.9924 67.7626 64.5523 67.7626 65.7256V88.2099C67.7626 90.2826 66.077 91.9563 63.9983 91.9563H12.0015V112.916H63.7184C77.5782 112.916 88.8174 101.724 88.8174 87.924V0.0178833H88.8114ZM45.1711 61.1454C58.1196 61.1454 67.9412 51.3416 67.9412 38.4467C67.9412 25.5517 57.4406 15.0928 44.4921 15.0928C31.5435 15.0928 21.0429 25.5457 21.0429 38.4467C21.0429 51.3416 32.2165 61.1454 45.1711 61.1454Z" fill="#FCF8F2"/>
    <path d="M402.912 44.7124C404.526 44.7124 405.873 43.4438 405.843 41.8356C405.783 39.1435 405.462 36.5049 404.908 33.9379C400.768 14.8605 383.484 0.0178528 363.06 0.0178528C355.365 0.0178528 348.146 2.04293 341.91 5.58085C331.433 11.525 323.726 21.7457 321.177 33.8604C320.587 36.6955 320.271 39.6259 320.271 42.6338C320.271 66.1663 339.432 85.2497 363.066 85.2497C381.613 85.2497 397.403 73.5042 403.347 57.0714H381.018C376.831 62.3485 370.344 65.7315 363.066 65.7315C351.904 65.7315 342.607 57.7682 340.6 47.2378C340.445 46.4099 340.326 45.5761 340.26 44.7243H389.029L402.924 44.7184L402.912 44.7124ZM382.537 33.9379H355.549C352.583 33.9379 349.653 34.6049 346.979 35.8795L344.608 37.0052C343.292 37.6306 341.773 36.6836 341.755 35.2422C341.767 34.5275 341.922 33.5864 342.684 32.1868C343.173 31.3529 343.715 30.5429 344.31 29.7686C344.31 29.7686 344.31 29.7626 344.316 29.7567C348.64 24.1043 355.615 20.1614 363.054 20.1614C372.477 20.1614 380.571 25.8376 384.073 33.9379C384.073 33.9379 384.073 33.9498 384.079 33.9498L382.537 33.9379Z" fill="#FCF8F2"/>
</svg>