<?xml version="1.0" encoding="utf-8"?>
<!-- Generator: Adobe Illustrator 24.0.2, SVG Export Plug-In . SVG Version: 6.00 Build 0)  -->
<svg version="1.1" id="Finales" xmlns="http://www.w3.org/2000/svg" xmlns:xlink="http://www.w3.org/1999/xlink" x="0px" y="0px"
	 viewBox="0 0 620.7 170" style="enable-background:new 0 0 620.7 170;" xml:space="preserve">
<style type="text/css">
	.st0{fill:#1D8AED;}
	.st1{fill:#FFFFFF;}
	.st2{fill:url(#SVGID_1_);}
	.st3{fill:url(#SVGID_2_);}
	.st4{fill:url(#SVGID_3_);}
	.st5{fill:url(#SVGID_4_);}
	.st6{fill:url(#SVGID_5_);}
	.st7{fill:url(#SVGID_6_);}
	.st8{fill:url(#SVGID_7_);}
	.st9{fill:url(#SVGID_8_);}
	.st10{fill:url(#SVGID_9_);}
</style>
<g>
	<g>
		<path class="st0" d="M201.5,114.5h5.2c1.7,0,3.1,1.4,3.1,3.1l0,0h0c0,0.8,0,1.6,0,1.6c0,0.1,0,0.3,0,0.4c0.1,1,0.5,1.8,1.3,2.5
			c0,0,0,0,0.1,0.1c0.7,0.6,1.7,0.9,2.7,0.9h0c0.6,0,1.3-0.1,1.8-0.4c0.6-0.2,1.2-0.1,1.6,0.3c0.4,0.5,0.8,1,1.1,1.4
			c-1.2,1.1-2.8,1.7-4.5,1.7h0c-3.7,0-6.8-3-6.8-7c0-0.3,0-1.1,0-1.5H201c0,0.3,0,0.7,0,1c0,7.7,6.2,14,14,14
			c6.3,0,11.6-4.2,13.4-9.9h-5.2c-1.7,0-3.1-1.4-3.1-3.1l0,0h0c0-0.8,0-1.6,0-1.6c0-0.1,0-0.3,0-0.4c-0.1-1-0.5-1.8-1.3-2.5
			c0,0,0,0-0.1-0.1c-0.7-0.6-1.7-0.9-2.7-0.9h0c-0.5,0-1.2,0.2-1.7,0.4c-0.6,0.2-1.3,0.1-1.7-0.4c-0.4-0.4-0.7-0.9-1.1-1.3
			c1.2-1.1,2.8-1.7,4.5-1.7h0c3.7,0,6.8,3,6.8,7c0,0.3,0,1.1,0,1.5h6.1c0-0.3,0-0.7,0-1c0-7.7-6.2-14-14-14
			C208.6,104.6,203.3,108.8,201.5,114.5z"/>
		<g>
			<g>
				<path class="st1" d="M213.3,45.5h11v0c0-1.8-1.4-3.2-3.2-3.2h-11v0C210.1,44.1,211.5,45.5,213.3,45.5z"/>
				<path class="st1" d="M208.7,51.3L208.7,51.3V40.6c0-1.8-1.5-3.2-3.2-3.2l0,0v10.7C205.5,49.9,206.9,51.3,208.7,51.3z"/>
			</g>
			<path class="st1" d="M205.5,89.3c0.3,0.4,0.7,0.9,1.1,1.3c0.5,0.5,1.2,0.7,1.9,0.4c0.6-0.2,1.2-0.4,1.9-0.4h0.1
				c1.1,0,2.1,0.3,2.8,0.9c0,0,0,0,0,0c0.8,0.7,1.3,1.6,1.4,2.7c0,0.1,0,0.3,0,0.5c0,0,0,0.8,0,1.7l0,0v0c0,1.8,1.5,3.3,3.3,3.3h6.4
				v0c0-1.8-1.5-3.3-3.3-3.3h-3.5c0-0.4,0-1.3,0-1.6c0-4.3-3.3-7.5-7.3-7.5h-0.1C208.4,87.5,206.8,88.2,205.5,89.3z"/>
			<g>
				<path class="st1" d="M205.5,62.9h16.1c1.5,0,2.7,1.2,2.7,2.7V66h-16.1c-1.5,0-2.7-1.2-2.7-2.7V62.9z"/>
			</g>
			<g>
				<path class="st1" d="M215,67.7c1.3,0,2.5,0.2,3.6,0.7c1.2,0.5,2.2,1.2,3,2c0.5,0.5,0.9,1,1.3,1.6c0.3,0.4,0.5,0.9,0.8,1.4
					c0.1,0.3,0.3,0.6,0.4,1c0.1,0.3,0.2,0.7,0.3,1.1c0,0,0,0,0,0l-1.9,0h-0.1c-0.6,0-1.2-0.4-1.5-0.9c0-0.1-0.1-0.1-0.1-0.2
					c-0.3-0.7-0.8-1.3-1.3-1.8c-0.6-0.6-1.3-1-2-1.4c-0.8-0.3-1.6-0.5-2.5-0.5h0c-0.9,0-1.7,0.2-2.5,0.5c-0.8,0.3-1.5,0.8-2,1.4
					c-0.5,0.5-0.9,1.1-1.3,1.8c0,0.1-0.1,0.1-0.1,0.2c-0.3,0.5-0.9,0.9-1.5,0.9h-0.1l-1.9,0c0,0,0,0,0,0c0.1-0.4,0.2-0.7,0.3-1.1
					c0.1-0.3,0.2-0.6,0.4-1c0.2-0.5,0.5-1,0.8-1.4c0.4-0.6,0.8-1.1,1.3-1.6c0.9-0.9,1.9-1.5,3-2C212.5,67.9,213.7,67.7,215,67.7
					L215,67.7z"/>
				<path class="st1" d="M215,86.4c1.3,0,2.5-0.2,3.6-0.7c1.2-0.5,2.2-1.2,3-2c0.5-0.5,0.9-1,1.3-1.6c0.3-0.4,0.5-0.9,0.8-1.4
					c0.1-0.3,0.3-0.6,0.4-1c0.1-0.3,0.2-0.7,0.3-1.1c0,0,0,0,0,0l-1.9,0h-0.1c-0.6,0-1.2,0.4-1.5,0.9c0,0.1-0.1,0.1-0.1,0.2
					c-0.3,0.7-0.8,1.3-1.3,1.8c-0.6,0.6-1.3,1-2,1.4c-0.8,0.3-1.6,0.5-2.5,0.5h0c-0.9,0-1.7-0.2-2.5-0.5c-0.8-0.3-1.5-0.8-2-1.4
					c-0.5-0.5-0.9-1.1-1.3-1.8c0-0.1-0.1-0.1-0.1-0.2c-0.3-0.5-0.9-0.9-1.5-0.9h-0.1l-1.9,0c0,0,0,0,0,0c0.1,0.4,0.2,0.7,0.3,1.1
					c0.1,0.3,0.2,0.6,0.4,1c0.2,0.5,0.5,1,0.8,1.4c0.4,0.6,0.8,1.1,1.3,1.6c0.9,0.9,1.9,1.5,3,2C212.5,86.2,213.7,86.5,215,86.4
					L215,86.4z"/>
			</g>
			<path class="st1" d="M215.7,60.7c-0.5,0.3-1,0.3-1.5,0.1l-7.1-4.2c-0.9-0.4-1.5-1.3-1.5-2.4v-1.8l0.4,0.2l9,5l9.4-6.5v2.3
				c0,0.9-0.5,1.8-1.3,2.3L215.7,60.7z"/>
		</g>
	</g>
	<g>
		<path class="st1" d="M297.4,43.5c-3.6-2.9-8.3-4.7-14-5.6c-1.2-0.2-2.6-0.4-4.2-0.4c-1.6-0.1-2.8-0.1-3.7-0.1h-40.2v95.2h18v-32.3
			h22.2c0.9,0,2.1,0,3.7-0.1c1.6-0.1,3-0.2,4.2-0.4c5.6-0.9,10.3-2.8,13.9-5.6c3.6-2.9,6.3-6.5,8.1-10.8c1.7-4.3,2.6-9.2,2.6-14.5
			c0-5.3-0.9-10.2-2.6-14.5C303.7,50,301,46.4,297.4,43.5z M289.1,74.3c-0.5,1.9-1.4,3.7-2.7,5.2c-1.3,1.6-3.2,2.7-5.6,3.3
			c-0.9,0.3-1.9,0.4-3,0.5c-1.1,0.1-2.1,0.1-3,0.1h-21.4V54.2h21.4c0.9,0,1.9,0,3,0.1c1.1,0.1,2.1,0.3,3,0.5
			c2.4,0.7,4.3,1.8,5.6,3.3c1.3,1.6,2.2,3.3,2.7,5.2c0.5,1.9,0.8,3.7,0.8,5.5C289.9,70.6,289.6,72.4,289.1,74.3z"/>
		<path class="st1" d="M365.7,64c-5.4-3.2-11.8-4.8-18.9-4.8c-7.1,0-13.3,1.6-18.7,4.8c-5.4,3.2-9.7,7.6-12.8,13.3
			c-3.1,5.7-4.6,12.2-4.6,19.7c0,7.4,1.5,13.9,4.5,19.5c3,5.7,7.2,10.1,12.7,13.3c5.4,3.2,11.7,4.8,18.9,4.8
			c7.1,0,13.4-1.6,18.9-4.8c5.4-3.2,9.7-7.6,12.8-13.3c3.1-5.7,4.6-12.2,4.6-19.6c0-7.4-1.5-13.9-4.6-19.5
			C375.4,71.7,371.1,67.3,365.7,64z M359.6,111.9c-2.8,3.9-7.2,5.9-12.9,5.9c-5.6,0-9.8-1.9-12.7-5.7c-2.9-3.8-4.3-8.8-4.3-15.2
			c0-4.1,0.6-7.8,1.8-10.9c1.2-3.1,3.1-5.6,5.6-7.3c2.5-1.8,5.7-2.6,9.7-2.6c5.7,0,10,1.9,12.9,5.7c2.9,3.8,4.3,8.9,4.3,15.2
			C363.9,103,362.5,108,359.6,111.9z"/>
		<path class="st1" d="M427.7,61c-2.2,0.2-4.3,0.5-6.3,1.1c-2,0.6-3.9,1.4-5.6,2.5c-2.2,1.3-4.1,3-5.7,5c-0.7,1-1.4,2-2,3.1V61.2
			h-15.9v71.4h18.1V96.1c0-2.7,0.4-5.2,1.1-7.4c0.7-2.2,1.9-4.1,3.3-5.7c1.5-1.6,3.2-2.9,5.4-3.9c2.1-1,4.5-1.6,7.1-1.8
			c2.6-0.2,4.9,0,6.9,0.6V61.2C432,60.9,429.8,60.9,427.7,61z"/>
		<path class="st1" d="M471.6,41.4h-18v19.8h-12.2v13.9h12.2v27.2c0,4.3,0,8.1,0.1,11.5c0.1,3.4,1,6.7,2.8,10c1.9,3.5,4.8,6,8.5,7.6
			c3.7,1.6,8,2.4,12.7,2.5c4.7,0.1,9.6-0.3,14.5-1.2v-14.9c-4.2,0.6-8.1,0.7-11.6,0.5c-3.5-0.2-6-1.6-7.6-4.1
			c-0.8-1.3-1.3-3.1-1.4-5.3c-0.1-2.2-0.1-4.7-0.1-7.5V75.1h20.6V61.2h-20.6V41.4z"/>
		<path class="st1" d="M565.1,72.2c-2.5-4.8-6.2-8.1-11.1-10.1c-4.9-1.9-10.5-2.9-16.8-2.9c-8.6,0-15.4,1.9-20.4,5.6
			c-5,3.7-8.4,8.5-10.2,14.4l16.3,5.2c1.1-3.3,3.2-5.5,6-6.8c2.9-1.3,5.6-1.9,8.3-1.9c4.8,0,8.2,1,10.2,3c1.6,1.6,2.5,3.8,2.9,6.8
			c-3,0.5-5.9,0.9-8.6,1.3c-4.6,0.7-8.8,1.4-12.4,2.1c-3.7,0.7-6.8,1.6-9.5,2.6c-3.8,1.4-6.9,3.2-9.2,5.3c-2.3,2.1-3.9,4.5-4.9,7.2
			c-1,2.7-1.5,5.8-1.5,9.1c0,4,0.9,7.6,2.7,10.9c1.8,3.3,4.5,5.9,8.1,7.9c3.5,2,7.9,2.9,13,2.9c6.2,0,11.3-1.1,15.3-3.2
			c3.2-1.7,6.2-4.2,9-7.6v8.8H568V89c0-3.3-0.1-6.2-0.4-8.9C567.3,77.5,566.5,74.8,565.1,72.2z M548.3,110.9c-0.5,1-1.4,2.3-2.7,3.8
			c-1.3,1.5-3.2,2.8-5.4,4c-2.3,1.2-5.1,1.8-8.4,1.8c-2.1,0-3.9-0.3-5.4-0.9c-1.5-0.6-2.7-1.5-3.5-2.7c-0.8-1.2-1.2-2.6-1.2-4.2
			c0-1.2,0.3-2.3,0.8-3.2c0.5-1,1.3-1.9,2.4-2.7c1.1-0.8,2.5-1.6,4.3-2.3c1.5-0.6,3.3-1.1,5.4-1.6c2-0.5,4.7-1,8-1.6
			c2.1-0.4,4.7-0.8,7.6-1.3c0,1.3-0.1,2.7-0.2,4.2C549.7,106.7,549.2,109,548.3,110.9z"/>
		<rect x="578.6" y="35.4" class="st1" width="18" height="97.2"/>
	</g>
	<g>
		<g>
			<linearGradient id="SVGID_1_" gradientUnits="userSpaceOnUse" x1="-4.6601" y1="60.7518" x2="158.8826" y2="153.9471">
				<stop  offset="1.861881e-03" style="stop-color:#061022"/>
				<stop  offset="0.5" style="stop-color:#184089"/>
				<stop  offset="0.9972" style="stop-color:#4666A1"/>
			</linearGradient>
			<polygon class="st2" points="24.2,157.2 24.2,12.8 37.8,5 37.8,132.6 119.8,85.2 134.3,93.6 			"/>
			
				<linearGradient id="SVGID_2_" gradientUnits="userSpaceOnUse" x1="-1820.3912" y1="1325.5516" x2="-1659.1205" y2="1186.1111" gradientTransform="matrix(0 1 -1 0 1319.1523 1829.8969)">
				<stop  offset="1.861998e-03" style="stop-color:#07223B"/>
				<stop  offset="0.5419" style="stop-color:#1D8AED"/>
				<stop  offset="0.9972" style="stop-color:#77B9F4"/>
			</linearGradient>
			<polygon class="st3" points="37.8,165 24.2,157.2 134.3,93.6 119.8,85.2 52.6,46.4 52.6,29.2 162.8,92.9 			"/>
			
				<linearGradient id="SVGID_3_" gradientUnits="userSpaceOnUse" x1="-1669.5924" y1="1249.3655" x2="-1812.0347" y2="1210.344" gradientTransform="matrix(0 1 -1 0 1319.1523 1829.8969)">
				<stop  offset="1.861998e-03" style="stop-color:#520053"/>
				<stop  offset="0.2226" style="stop-color:#A400A6"/>
				<stop  offset="0.9972" style="stop-color:#DB99DB"/>
			</linearGradient>
			<polygon class="st4" points="37.8,132.6 37.8,5 162.8,77.1 162.8,92.9 52.6,29.2 52.6,124 			"/>
		</g>
		<g>
			
				<linearGradient id="SVGID_4_" gradientUnits="userSpaceOnUse" x1="934.0426" y1="1937.6367" x2="674.0387" y2="1937.6367" gradientTransform="matrix(0 -1 1 0 -1829.8969 916.2587)">
				<stop  offset="1.861998e-03" style="stop-color:#520053"/>
				<stop  offset="6.973819e-02" style="stop-color:#660067"/>
				<stop  offset="0.1863" style="stop-color:#810082"/>
				<stop  offset="0.304" style="stop-color:#940096"/>
				<stop  offset="0.4222" style="stop-color:#A000A2"/>
				<stop  offset="0.5419" style="stop-color:#A400A6"/>
				<stop  offset="0.9972" style="stop-color:#DB99DB"/>
			</linearGradient>
			<polygon class="st5" points="162.8,12.8 162.8,157.2 149.2,165 149.2,37.4 67.2,84.8 52.7,76.4 			"/>
			
				<linearGradient id="SVGID_5_" gradientUnits="userSpaceOnUse" x1="755.7643" y1="2023.2559" x2="917.035" y2="1883.8153" gradientTransform="matrix(0 -1 1 0 -1829.8969 916.2587)">
				<stop  offset="1.861998e-03" style="stop-color:#520053"/>
				<stop  offset="0.1539" style="stop-color:#740075"/>
				<stop  offset="0.3046" style="stop-color:#8E0090"/>
				<stop  offset="0.4385" style="stop-color:#9E00A0"/>
				<stop  offset="0.5419" style="stop-color:#A400A6"/>
				<stop  offset="0.9972" style="stop-color:#DB99DB"/>
			</linearGradient>
			<polygon class="st6" points="149.2,5 162.8,12.8 52.7,76.4 67.2,84.8 134.4,123.6 134.4,140.8 24.2,77.1 			"/>
			
				<linearGradient id="SVGID_6_" gradientUnits="userSpaceOnUse" x1="906.5631" y1="1947.0697" x2="764.1209" y2="1908.0482" gradientTransform="matrix(0 -1 1 0 -1829.8969 916.2587)">
				<stop  offset="1.861998e-03" style="stop-color:#520053"/>
				<stop  offset="1.214094e-02" style="stop-color:#5D005E"/>
				<stop  offset="4.074719e-02" style="stop-color:#770078"/>
				<stop  offset="7.233398e-02" style="stop-color:#8B008D"/>
				<stop  offset="0.108" style="stop-color:#99009B"/>
				<stop  offset="0.1512" style="stop-color:#A100A3"/>
				<stop  offset="0.2226" style="stop-color:#A400A6"/>
				<stop  offset="0.9972" style="stop-color:#DB99DB"/>
			</linearGradient>
			<polygon class="st7" points="149.2,37.4 149.2,165 24.2,92.9 24.2,77.1 134.4,140.8 134.4,46 			"/>
		</g>
		
			<linearGradient id="SVGID_7_" gradientUnits="userSpaceOnUse" x1="-1669.5924" y1="1249.3655" x2="-1812.0347" y2="1210.344" gradientTransform="matrix(0 1 -1 0 1319.1523 1829.8969)">
			<stop  offset="1.861998e-03" style="stop-color:#07223B"/>
			<stop  offset="0.5419" style="stop-color:#1D8AED"/>
			<stop  offset="0.9972" style="stop-color:#77B9F4"/>
		</linearGradient>
		<polygon class="st8" points="79.8,45 52.6,29.2 52.6,124 37.8,132.6 37.8,5 93.5,37.1 121.7,53.4 162.8,77.1 162.8,92.9 108,61.2 
					"/>
		
			<linearGradient id="SVGID_8_" gradientUnits="userSpaceOnUse" x1="-1851.103" y1="1290.0146" x2="-1689.8427" y2="1150.5831" gradientTransform="matrix(0 1 -1 0 1319.1523 1829.8969)">
			<stop  offset="1.861998e-03" style="stop-color:#07223B"/>
			<stop  offset="0.5419" style="stop-color:#1D8AED"/>
			<stop  offset="0.9972" style="stop-color:#77B9F4"/>
		</linearGradient>
		<polygon class="st9" points="122,116.4 108.4,108.6 134.3,93.6 119.8,85.2 52.6,46.4 52.6,29.3 162.8,92.9 		"/>
		<linearGradient id="SVGID_9_" gradientUnits="userSpaceOnUse" x1="72.7879" y1="217.825" x2="11.0084" y2="-10.3532">
			<stop  offset="1.861881e-03" style="stop-color:#061022"/>
			<stop  offset="8.620914e-03" style="stop-color:#091731"/>
			<stop  offset="2.373136e-02" style="stop-color:#0D244C"/>
			<stop  offset="4.097100e-02" style="stop-color:#112E63"/>
			<stop  offset="6.091110e-02" style="stop-color:#143674"/>
			<stop  offset="8.527013e-02" style="stop-color:#163C80"/>
			<stop  offset="0.1187" style="stop-color:#183F87"/>
			<stop  offset="0.2041" style="stop-color:#184089"/>
			<stop  offset="0.3409" style="stop-color:#2A4F92"/>
			<stop  offset="0.5162" style="stop-color:#3A5C9B"/>
			<stop  offset="0.7169" style="stop-color:#43649F"/>
			<stop  offset="0.9972" style="stop-color:#4666A1"/>
		</linearGradient>
		<polygon class="st10" points="24.2,157.2 24.2,12.8 37.8,5 37.8,132.6 65.3,116.5 79.8,124.9 		"/>
	</g>
</g>
</svg>