<svg width="256" height="256" viewBox="0 0 256 256" fill="none" xmlns="http://www.w3.org/2000/svg">
	<path d="M27.4688 46.4285C26.4911 46.834 25.709 47.6161 25.3035 48.5938L25.5345 48.6896C25.3512 49.1314 25.25 49.6161 25.25 50.125V51.375H25V53.875H25.25V56.375H25V58.875H25.25V61.375H25V63.875H25.25V64.875H26.5145V65.125H29.544V64.875H32.5734V65.125H35.6028V64.875H38.6322V65.125H41.6616V64.875H44.6911V65.125H47.7205V64.875H50.7499V65.125H53.7793V64.875H56.8087V65.125H59.8381V64.875H62.8676V65.125H65.897V64.875H68.9264V65.125H71.9558V64.875H74.9852V65.125H78.0147V64.875H81.0441V65.125H84.0735V64.875H87.1029V65.125H90.1323V64.875H93.1618V65.125H96.1912V64.875H99.2206V65.125H102.25V64.875H105.279V65.125H108.309V64.875H111.338V65.125H114.368V64.875H117.397V65.125H120.426V64.875H123.456V65.125H126.485V64.875H129.515V65.125H132.544V64.875H135.574V65.125H138.603V64.875H141.632V65.125H144.662V64.875H147.691V65.125H150.721V64.875H153.75V65.125H156.779V64.875H159.809V65.125H162.838V64.875H165.868V65.125H168.897V64.875H171.926V65.125H174.956V64.875H177.985V65.125H181.015V64.875H184.044V65.125H187.074V64.875H190.103V65.125H193.132V64.875H196.162V65.125H199.191V64.875H202.221V65.125H205.25V64.875H208.279V65.125H211.309V64.875H214.338V65.125H217.368V64.875H220.397V65.125H223.426V64.875H226.456V65.125H229.485V64.875H230.75V63.875H231V61.375H230.75V58.875H231V56.375H230.75V53.875H231V51.375H230.75V50.125C230.75 49.6161 230.649 49.1314 230.466 48.6896L230.696 48.5938C230.291 47.6161 229.509 46.834 228.531 46.4285L228.435 46.6595C227.994 46.4762 227.509 46.375 227 46.375H225.5V46.125H222.5V46.375H219.5V46.125H216.5V46.375H213.5V46.125H210.5V46.375H207.5V46.125H204.5V46.375H201.5V46.125H198.5V46.375H195.5V46.125H192.5V46.375H189.5V46.125H186.5V46.375H183.5V46.125H180.5V46.375H177.5V46.125H174.5V46.375H171.5V46.125H168.5V46.375H165.5V46.125H162.5V46.375H159.5V46.125H156.5V46.375H153.5V46.125H150.5V46.375H147.5V46.125H144.5V46.375H141.5V46.125H138.5V46.375H135.5V46.125H132.5V46.375H129.5V46.125H126.5V46.375H123.5V46.125H120.5V46.375H117.5V46.125H114.5V46.375H111.5V46.125H108.5V46.375H105.5V46.125H102.5V46.375H99.5V46.125H96.5V46.375H93.5V46.125H90.5V46.375H87.5V46.125H84.5V46.375H81.5V46.125H78.5V46.375H75.5V46.125H72.5V46.375H69.5V46.125H66.5V46.375H63.5V46.125H60.5V46.375H57.5V46.125H54.5V46.375H51.5V46.125H48.5V46.375H45.5V46.125H42.5V46.375H39.5V46.125H36.5V46.375H33.5V46.125H30.5V46.375H29C28.4911 46.375 28.0064 46.4762 27.5646 46.6595L27.4688 46.4285Z" fill="#26282B" stroke="#E3E8ED" stroke-width="0.5" stroke-dasharray="3 3"/>
	<path d="M26.3475 206.32C25.7728 205.462 25.3599 204.486 25.1523 203.436L25.3975 203.388C25.3008 202.899 25.25 202.393 25.25 201.875V200.386H25V197.408H25.25V194.429H25V191.451H25.25V188.473H25V185.495H25.25V182.516H25V179.538H25.25V176.56H25V173.582H25.25V170.603H25V167.625H25.25V164.647H25V161.669H25.25V158.69H25V155.712H25.25V152.734H25V149.755H25.25V146.777H25V143.799H25.25V140.821H25V137.842H25.25V134.864H25V131.886H25.25V128.908H25V125.929H25.25V122.951H25V119.973H25.25V116.995H25V114.016H25.25V111.038H25V108.06H25.25V105.082H25V102.103H25.25V99.125H25V96.1467H25.25V93.1685H25V90.1902H25.25V87.212H25V84.2337H25.25V81.2554H25V78.2772H25.25V75.2989H25V72.3207H25.25V69.3424H25V66.3641H25.25V65.125H26.5145V64.875H29.544V65.125H32.5734V64.875H35.6028V65.125H38.6322V64.875H41.6616V65.125H44.6911V64.875H47.7205V65.125H50.7499V64.875H53.7793V65.125H56.8087V64.875H59.8381V65.125H62.8676V64.875H65.897V65.125H68.9264V64.875H71.9558V65.125H74.9852V64.875H78.0147V65.125H81.0441V64.875H84.0735V65.125H87.1029V64.875H90.1323V65.125H93.1618V64.875H96.1912V65.125H99.2206V64.875H102.25V65.125H105.279V64.875H108.309V65.125H111.338V64.875H114.368V65.125H117.397V64.875H120.426V65.125H123.456V64.875H126.485V65.125H129.515V64.875H132.544V65.125H135.574V64.875H138.603V65.125H141.632V64.875H144.662V65.125H147.691V64.875H150.721V65.125H153.75V64.875H156.779V65.125H159.809V64.875H162.838V65.125H165.868V64.875H168.897V65.125H171.926V64.875H174.956V65.125H177.985V64.875H181.015V65.125H184.044V64.875H187.074V65.125H190.103V64.875H193.132V65.125H196.162V64.875H199.191V65.125H202.221V64.875H205.25V65.125H208.279V64.875H211.309V65.125H214.338V64.875H217.368V65.125H220.397V64.875H223.426V65.125H226.456V64.875H229.485V65.125H230.75V66.3641H231V69.3423H230.75V72.3206H231V75.2989H230.75V78.2771H231V81.2554H230.75V84.2337H231V87.2119H230.75V90.1902H231V93.1684H230.75V96.1467H231V99.125H230.75V102.103H231V105.081H230.75V108.06H231V111.038H230.75V114.016H231V116.995H230.75V119.973H231V122.951H230.75V125.929H231V128.908H230.75V131.886H231V134.864H230.75V137.842H231V140.821H230.75V143.799H231V146.777H230.75V149.755H231V152.734H230.75V155.712H231V158.69H230.75V161.668H231V164.647H230.75V167.625H231V170.603H230.75V173.582H231V176.56H230.75V179.538H231V182.516H230.75V185.495H231V188.473H230.75V191.451H231V194.429H230.75V197.408H231V200.386H230.75V201.875C230.75 202.393 230.699 202.899 230.602 203.388L230.848 203.436C230.64 204.486 230.227 205.462 229.653 206.32L229.445 206.181C228.879 207.026 228.151 207.754 227.306 208.32L227.445 208.528C226.587 209.102 225.611 209.515 224.561 209.723L224.513 209.477C224.024 209.574 223.518 209.625 223 209.625H221.516V209.875H218.547V209.625H215.578V209.875H212.609V209.625H209.641V209.875H206.672V209.625H203.703V209.875H200.734V209.625H197.766V209.875H194.797V209.625H191.828V209.875H188.859V209.625H185.891V209.875H182.922V209.625H179.953V209.875H176.984V209.625H174.016V209.875H171.047V209.625H168.078V209.875H165.109V209.625H162.141V209.875H159.172V209.625H156.203V209.875H153.234V209.625H150.266V209.875H147.297V209.625H144.328V209.875H141.359V209.625H138.391V209.875H135.422V209.625H132.453V209.875H129.484V209.625H126.516V209.875H123.547V209.625H120.578V209.875H117.609V209.625H114.641V209.875H111.672V209.625H108.703V209.875H105.734V209.625H102.766V209.875H99.7969V209.625H96.8281V209.875H93.8594V209.625H90.8906V209.875H87.9219V209.625H84.9531V209.875H81.9844V209.625H79.0156V209.875H76.0469V209.625H73.0781V209.875H70.1094V209.625H67.1406V209.875H64.1719V209.625H61.2031V209.875H58.2344V209.625H55.2656V209.875H52.2969V209.625H49.3281V209.875H46.3594V209.625H43.3906V209.875H40.4219V209.625H37.4531V209.875H34.4844V209.625H33C32.4821 209.625 31.9763 209.574 31.4872 209.477L31.4387 209.723C30.3891 209.515 29.4134 209.102 28.5551 208.528L28.6942 208.32C27.8489 207.754 27.1211 207.026 26.5552 206.181L26.3475 206.32Z" fill="#1A1B1E" stroke="#E3E8ED" stroke-width="0.5" stroke-dasharray="3 3"/>
	<circle cx="36" cy="56.125" r="3" fill="#808B95"/>
	<circle cx="46" cy="56.125" r="3" fill="#808B95"/>
	<circle cx="56" cy="56.125" r="3" fill="#808B95"/>
	<path d="M44.392 89.4205L45.6989 91.6506L47.0057 89.4205H47.9716L46.2102 92.1477L47.9716 94.875H47.0057L45.6989 92.7585L44.392 94.875H43.4261L45.1591 92.1477L43.4261 89.4205H44.392ZM49.7924 89.4205L51.0993 91.6506L52.4061 89.4205H53.372L51.6106 92.1477L53.372 94.875H52.4061L51.0993 92.7585L49.7924 94.875H48.8265L50.5595 92.1477L48.8265 89.4205H49.7924ZM55.1928 89.4205L56.4996 91.6506L57.8065 89.4205H58.7724L57.011 92.1477L58.7724 94.875H57.8065L56.4996 92.7585L55.1928 94.875H54.2269L55.9599 92.1477L54.2269 89.4205H55.1928ZM60.5932 89.4205L61.9 91.6506L63.2069 89.4205H64.1728L62.4114 92.1477L64.1728 94.875H63.2069L61.9 92.7585L60.5932 94.875H59.6273L61.3603 92.1477L59.6273 89.4205H60.5932ZM69.4027 85.2585V97.2188H68.6925V85.2585H69.4027ZM74.8901 89.4205L76.1969 91.6506L77.5037 89.4205H78.4696L76.7083 92.1477L78.4696 94.875H77.5037L76.1969 92.7585L74.8901 94.875H73.9242L75.6571 92.1477L73.9242 89.4205H74.8901ZM80.2905 89.4205L81.5973 91.6506L82.9041 89.4205H83.87L82.1087 92.1477L83.87 94.875H82.9041L81.5973 92.7585L80.2905 94.875H79.3246L81.0575 92.1477L79.3246 89.4205H80.2905ZM85.6909 89.4205L86.9977 91.6506L88.3045 89.4205H89.2704L87.5091 92.1477L89.2704 94.875H88.3045L86.9977 92.7585L85.6909 94.875H84.725L86.4579 92.1477L84.725 89.4205H85.6909ZM91.0913 89.4205L92.3981 91.6506L93.7049 89.4205H94.6708L92.9094 92.1477L94.6708 94.875H93.7049L92.3981 92.7585L91.0913 94.875H90.1254L91.8583 92.1477L90.1254 89.4205H91.0913ZM96.4917 89.4205L97.7985 91.6506L99.1053 89.4205H100.071L98.3098 92.1477L100.071 94.875H99.1053L97.7985 92.7585L96.4917 94.875H95.5257L97.2587 92.1477L95.5257 89.4205H96.4917ZM101.892 89.4205L103.199 91.6506L104.506 89.4205H105.472L103.71 92.1477L105.472 94.875H104.506L103.199 92.7585L101.892 94.875H100.926L102.659 92.1477L100.926 89.4205H101.892ZM110.702 85.2585V97.2188H109.991V85.2585H110.702ZM116.189 89.4205L117.496 91.6506L118.803 89.4205H119.768L118.007 92.1477L119.768 94.875H118.803L117.496 92.7585L116.189 94.875H115.223L116.956 92.1477L115.223 89.4205H116.189ZM121.589 89.4205L122.896 91.6506L124.203 89.4205H125.169L123.407 92.1477L125.169 94.875H124.203L122.896 92.7585L121.589 94.875H120.623L122.356 92.1477L120.623 89.4205H121.589ZM126.99 89.4205L128.297 91.6506L129.603 89.4205H130.569L128.808 92.1477L130.569 94.875H129.603L128.297 92.7585L126.99 94.875H126.024L127.757 92.1477L126.024 89.4205H126.99ZM132.39 89.4205L133.697 91.6506L135.004 89.4205H135.97L134.208 92.1477L135.97 94.875H135.004L133.697 92.7585L132.39 94.875H131.424L133.157 92.1477L131.424 89.4205H132.39ZM137.79 89.4205L139.097 91.6506L140.404 89.4205H141.37L139.609 92.1477L141.37 94.875H140.404L139.097 92.7585L137.79 94.875H136.825L138.558 92.1477L136.825 89.4205H137.79ZM143.191 89.4205L144.498 91.6506L145.805 89.4205H146.77L145.009 92.1477L146.77 94.875H145.805L144.498 92.7585L143.191 94.875H142.225L143.958 92.1477L142.225 89.4205H143.191ZM151.404 89.4205L152.711 91.6506L154.017 89.4205H154.983L153.222 92.1477L154.983 94.875H154.017L152.711 92.7585L151.404 94.875H150.438L152.171 92.1477L150.438 89.4205H151.404ZM156.804 89.4205L158.111 91.6506L159.418 89.4205H160.384L158.622 92.1477L160.384 94.875H159.418L158.111 92.7585L156.804 94.875H155.838L157.571 92.1477L155.838 89.4205H156.804ZM162.205 89.4205L163.511 91.6506L164.818 89.4205H165.784L164.023 92.1477L165.784 94.875H164.818L163.511 92.7585L162.205 94.875H161.239L162.972 92.1477L161.239 89.4205H162.205ZM44.392 108.42L45.6989 110.651L47.0057 108.42H47.9716L46.2102 111.148L47.9716 113.875H47.0057L45.6989 111.759L44.392 113.875H43.4261L45.1591 111.148L43.4261 108.42H44.392ZM49.7924 108.42L51.0993 110.651L52.4061 108.42H53.372L51.6106 111.148L53.372 113.875H52.4061L51.0993 111.759L49.7924 113.875H48.8265L50.5595 111.148L48.8265 108.42H49.7924ZM55.1928 108.42L56.4996 110.651L57.8065 108.42H58.7724L57.011 111.148L58.7724 113.875H57.8065L56.4996 111.759L55.1928 113.875H54.2269L55.9599 111.148L54.2269 108.42H55.1928ZM60.5932 108.42L61.9 110.651L63.2069 108.42H64.1728L62.4114 111.148L64.1728 113.875H63.2069L61.9 111.759L60.5932 113.875H59.6273L61.3603 111.148L59.6273 108.42H60.5932ZM69.4027 104.259V116.219H68.6925V104.259H69.4027ZM74.8901 108.42L76.1969 110.651L77.5037 108.42H78.4696L76.7083 111.148L78.4696 113.875H77.5037L76.1969 111.759L74.8901 113.875H73.9242L75.6571 111.148L73.9242 108.42H74.8901ZM80.2905 108.42L81.5973 110.651L82.9041 108.42H83.87L82.1087 111.148L83.87 113.875H82.9041L81.5973 111.759L80.2905 113.875H79.3246L81.0575 111.148L79.3246 108.42H80.2905ZM85.6909 108.42L86.9977 110.651L88.3045 108.42H89.2704L87.5091 111.148L89.2704 113.875H88.3045L86.9977 111.759L85.6909 113.875H84.725L86.4579 111.148L84.725 108.42H85.6909ZM91.0913 108.42L92.3981 110.651L93.7049 108.42H94.6708L92.9094 111.148L94.6708 113.875H93.7049L92.3981 111.759L91.0913 113.875H90.1254L91.8583 111.148L90.1254 108.42H91.0913ZM96.4917 108.42L97.7985 110.651L99.1053 108.42H100.071L98.3098 111.148L100.071 113.875H99.1053L97.7985 111.759L96.4917 113.875H95.5257L97.2587 111.148L95.5257 108.42H96.4917ZM101.892 108.42L103.199 110.651L104.506 108.42H105.472L103.71 111.148L105.472 113.875H104.506L103.199 111.759L101.892 113.875H100.926L102.659 111.148L100.926 108.42H101.892ZM110.702 104.259V116.219H109.991V104.259H110.702ZM176.414 104.259V116.219H175.704V104.259H176.414ZM181.902 108.42L183.209 110.651L184.515 108.42H185.481L183.72 111.148L185.481 113.875H184.515L183.209 111.759L181.902 113.875H180.936L182.669 111.148L180.936 108.42H181.902ZM187.302 108.42L188.609 110.651L189.916 108.42H190.882L189.12 111.148L190.882 113.875H189.916L188.609 111.759L187.302 113.875H186.336L188.069 111.148L186.336 108.42H187.302ZM192.703 108.42L194.009 110.651L195.316 108.42H196.282L194.521 111.148L196.282 113.875H195.316L194.009 111.759L192.703 113.875H191.737L193.47 111.148L191.737 108.42H192.703ZM198.103 108.42L199.41 110.651L200.717 108.42H201.683L199.921 111.148L201.683 113.875H200.717L199.41 111.759L198.103 113.875H197.137L198.87 111.148L197.137 108.42H198.103ZM203.503 108.42L204.81 110.651L206.117 108.42H207.083L205.322 111.148L207.083 113.875H206.117L204.81 111.759L203.503 113.875H202.537L204.27 111.148L202.537 108.42H203.503ZM208.904 108.42L210.211 110.651L211.517 108.42H212.483L210.722 111.148L212.483 113.875H211.517L210.211 111.759L208.904 113.875H207.938L209.671 111.148L207.938 108.42H208.904ZM44.392 128.42L45.6989 130.651L47.0057 128.42H47.9716L46.2102 131.148L47.9716 133.875H47.0057L45.6989 131.759L44.392 133.875H43.4261L45.1591 131.148L43.4261 128.42H44.392ZM49.7924 128.42L51.0993 130.651L52.4061 128.42H53.372L51.6106 131.148L53.372 133.875H52.4061L51.0993 131.759L49.7924 133.875H48.8265L50.5595 131.148L48.8265 128.42H49.7924ZM55.1928 128.42L56.4996 130.651L57.8065 128.42H58.7724L57.011 131.148L58.7724 133.875H57.8065L56.4996 131.759L55.1928 133.875H54.2269L55.9599 131.148L54.2269 128.42H55.1928ZM60.5932 128.42L61.9 130.651L63.2069 128.42H64.1728L62.4114 131.148L64.1728 133.875H63.2069L61.9 131.759L60.5932 133.875H59.6273L61.3603 131.148L59.6273 128.42H60.5932ZM69.4027 124.259V136.219H68.6925V124.259H69.4027ZM74.8901 128.42L76.1969 130.651L77.5037 128.42H78.4696L76.7083 131.148L78.4696 133.875H77.5037L76.1969 131.759L74.8901 133.875H73.9242L75.6571 131.148L73.9242 128.42H74.8901ZM80.2905 128.42L81.5973 130.651L82.9041 128.42H83.87L82.1087 131.148L83.87 133.875H82.9041L81.5973 131.759L80.2905 133.875H79.3246L81.0575 131.148L79.3246 128.42H80.2905ZM85.6909 128.42L86.9977 130.651L88.3045 128.42H89.2704L87.5091 131.148L89.2704 133.875H88.3045L86.9977 131.759L85.6909 133.875H84.725L86.4579 131.148L84.725 128.42H85.6909ZM91.0913 128.42L92.3981 130.651L93.7049 128.42H94.6708L92.9094 131.148L94.6708 133.875H93.7049L92.3981 131.759L91.0913 133.875H90.1254L91.8583 131.148L90.1254 128.42H91.0913ZM96.4917 128.42L97.7985 130.651L99.1053 128.42H100.071L98.3098 131.148L100.071 133.875H99.1053L97.7985 131.759L96.4917 133.875H95.5257L97.2587 131.148L95.5257 128.42H96.4917ZM101.892 128.42L103.199 130.651L104.506 128.42H105.472L103.71 131.148L105.472 133.875H104.506L103.199 131.759L101.892 133.875H100.926L102.659 131.148L100.926 128.42H101.892ZM44.392 148.42L45.6989 150.651L47.0057 148.42H47.9716L46.2102 151.148L47.9716 153.875H47.0057L45.6989 151.759L44.392 153.875H43.4261L45.1591 151.148L43.4261 148.42H44.392ZM49.7924 148.42L51.0993 150.651L52.4061 148.42H53.372L51.6106 151.148L53.372 153.875H52.4061L51.0993 151.759L49.7924 153.875H48.8265L50.5595 151.148L48.8265 148.42H49.7924ZM55.1928 148.42L56.4996 150.651L57.8065 148.42H58.7724L57.011 151.148L58.7724 153.875H57.8065L56.4996 151.759L55.1928 153.875H54.2269L55.9599 151.148L54.2269 148.42H55.1928ZM60.5932 148.42L61.9 150.651L63.2069 148.42H64.1728L62.4114 151.148L64.1728 153.875H63.2069L61.9 151.759L60.5932 153.875H59.6273L61.3603 151.148L59.6273 148.42H60.5932ZM69.4027 144.259V156.219H68.6925V144.259H69.4027ZM110.702 144.259V156.219H109.991V144.259H110.702ZM116.189 148.42L117.496 150.651L118.803 148.42H119.768L118.007 151.148L119.768 153.875H118.803L117.496 151.759L116.189 153.875H115.223L116.956 151.148L115.223 148.42H116.189ZM121.589 148.42L122.896 150.651L124.203 148.42H125.169L123.407 151.148L125.169 153.875H124.203L122.896 151.759L121.589 153.875H120.623L122.356 151.148L120.623 148.42H121.589ZM126.99 148.42L128.297 150.651L129.603 148.42H130.569L128.808 151.148L130.569 153.875H129.603L128.297 151.759L126.99 153.875H126.024L127.757 151.148L126.024 148.42H126.99ZM132.39 148.42L133.697 150.651L135.004 148.42H135.97L134.208 151.148L135.97 153.875H135.004L133.697 151.759L132.39 153.875H131.424L133.157 151.148L131.424 148.42H132.39ZM137.79 148.42L139.097 150.651L140.404 148.42H141.37L139.609 151.148L141.37 153.875H140.404L139.097 151.759L137.79 153.875H136.825L138.558 151.148L136.825 148.42H137.79ZM143.191 148.42L144.498 150.651L145.805 148.42H146.77L145.009 151.148L146.77 153.875H145.805L144.498 151.759L143.191 153.875H142.225L143.958 151.148L142.225 148.42H143.191ZM44.392 168.42L45.6989 170.651L47.0057 168.42H47.9716L46.2102 171.148L47.9716 173.875H47.0057L45.6989 171.759L44.392 173.875H43.4261L45.1591 171.148L43.4261 168.42H44.392ZM49.7924 168.42L51.0993 170.651L52.4061 168.42H53.372L51.6106 171.148L53.372 173.875H52.4061L51.0993 171.759L49.7924 173.875H48.8265L50.5595 171.148L48.8265 168.42H49.7924ZM55.1928 168.42L56.4996 170.651L57.8065 168.42H58.7724L57.011 171.148L58.7724 173.875H57.8065L56.4996 171.759L55.1928 173.875H54.2269L55.9599 171.148L54.2269 168.42H55.1928ZM60.5932 168.42L61.9 170.651L63.2069 168.42H64.1728L62.4114 171.148L64.1728 173.875H63.2069L61.9 171.759L60.5932 173.875H59.6273L61.3603 171.148L59.6273 168.42H60.5932ZM69.4027 164.259V176.219H68.6925V164.259H69.4027ZM74.8901 168.42L76.1969 170.651L77.5037 168.42H78.4696L76.7083 171.148L78.4696 173.875H77.5037L76.1969 171.759L74.8901 173.875H73.9242L75.6571 171.148L73.9242 168.42H74.8901ZM80.2905 168.42L81.5973 170.651L82.9041 168.42H83.87L82.1087 171.148L83.87 173.875H82.9041L81.5973 171.759L80.2905 173.875H79.3246L81.0575 171.148L79.3246 168.42H80.2905ZM85.6909 168.42L86.9977 170.651L88.3045 168.42H89.2704L87.5091 171.148L89.2704 173.875H88.3045L86.9977 171.759L85.6909 173.875H84.725L86.4579 171.148L84.725 168.42H85.6909ZM91.0913 168.42L92.3981 170.651L93.7049 168.42H94.6708L92.9094 171.148L94.6708 173.875H93.7049L92.3981 171.759L91.0913 173.875H90.1254L91.8583 171.148L90.1254 168.42H91.0913ZM96.4917 168.42L97.7985 170.651L99.1053 168.42H100.071L98.3098 171.148L100.071 173.875H99.1053L97.7985 171.759L96.4917 173.875H95.5257L97.2587 171.148L95.5257 168.42H96.4917ZM101.892 168.42L103.199 170.651L104.506 168.42H105.472L103.71 171.148L105.472 173.875H104.506L103.199 171.759L101.892 173.875H100.926L102.659 171.148L100.926 168.42H101.892ZM110.105 168.42L111.412 170.651L112.719 168.42H113.684L111.923 171.148L113.684 173.875H112.719L111.412 171.759L110.105 173.875H109.139L110.872 171.148L109.139 168.42H110.105ZM115.505 168.42L116.812 170.651L118.119 168.42H119.085L117.324 171.148L119.085 173.875H118.119L116.812 171.759L115.505 173.875H114.539L116.272 171.148L114.539 168.42H115.505ZM120.906 168.42L122.213 170.651L123.519 168.42H124.485L122.724 171.148L124.485 173.875H123.519L122.213 171.759L120.906 173.875H119.94L121.673 171.148L119.94 168.42H120.906ZM126.306 168.42L127.613 170.651L128.92 168.42H129.886L128.124 171.148L129.886 173.875H128.92L127.613 171.759L126.306 173.875H125.34L127.073 171.148L125.34 168.42H126.306Z" fill="#6BAA9F"/>
	<path d="M116.189 108.42L117.496 110.651L118.803 108.42H119.768L118.007 111.148L119.768 113.875H118.803L117.496 111.759L116.189 113.875H115.223L116.956 111.148L115.223 108.42H116.189ZM121.589 108.42L122.896 110.651L124.203 108.42H125.169L123.407 111.148L125.169 113.875H124.203L122.896 111.759L121.589 113.875H120.623L122.356 111.148L120.623 108.42H121.589ZM126.99 108.42L128.297 110.651L129.603 108.42H130.569L128.808 111.148L130.569 113.875H129.603L128.297 111.759L126.99 113.875H126.024L127.757 111.148L126.024 108.42H126.99ZM132.39 108.42L133.697 110.651L135.004 108.42H135.97L134.208 111.148L135.97 113.875H135.004L133.697 111.759L132.39 113.875H131.424L133.157 111.148L131.424 108.42H132.39ZM137.79 108.42L139.097 110.651L140.404 108.42H141.37L139.609 111.148L141.37 113.875H140.404L139.097 111.759L137.79 113.875H136.825L138.558 111.148L136.825 108.42H137.79ZM143.191 108.42L144.498 110.651L145.805 108.42H146.77L145.009 111.148L146.77 113.875H145.805L144.498 111.759L143.191 113.875H142.225L143.958 111.148L142.225 108.42H143.191ZM151.404 108.42L152.711 110.651L154.017 108.42H154.983L153.222 111.148L154.983 113.875H154.017L152.711 111.759L151.404 113.875H150.438L152.171 111.148L150.438 108.42H151.404ZM156.804 108.42L158.111 110.651L159.418 108.42H160.384L158.622 111.148L160.384 113.875H159.418L158.111 111.759L156.804 113.875H155.838L157.571 111.148L155.838 108.42H156.804ZM162.205 108.42L163.511 110.651L164.818 108.42H165.784L164.023 111.148L165.784 113.875H164.818L163.511 111.759L162.205 113.875H161.239L162.972 111.148L161.239 108.42H162.205ZM167.605 108.42L168.912 110.651L170.219 108.42H171.184L169.423 111.148L171.184 113.875H170.219L168.912 111.759L167.605 113.875H166.639L168.372 111.148L166.639 108.42H167.605ZM74.8901 148.42L76.1969 150.651L77.5037 148.42H78.4696L76.7083 151.148L78.4696 153.875H77.5037L76.1969 151.759L74.8901 153.875H73.9242L75.6571 151.148L73.9242 148.42H74.8901ZM80.2905 148.42L81.5973 150.651L82.9041 148.42H83.87L82.1087 151.148L83.87 153.875H82.9041L81.5973 151.759L80.2905 153.875H79.3246L81.0575 151.148L79.3246 148.42H80.2905ZM85.6909 148.42L86.9977 150.651L88.3045 148.42H89.2704L87.5091 151.148L89.2704 153.875H88.3045L86.9977 151.759L85.6909 153.875H84.725L86.4579 151.148L84.725 148.42H85.6909ZM91.0913 148.42L92.3981 150.651L93.7049 148.42H94.6708L92.9094 151.148L94.6708 153.875H93.7049L92.3981 151.759L91.0913 153.875H90.1254L91.8583 151.148L90.1254 148.42H91.0913ZM96.4917 148.42L97.7985 150.651L99.1053 148.42H100.071L98.3098 151.148L100.071 153.875H99.1053L97.7985 151.759L96.4917 153.875H95.5257L97.2587 151.148L95.5257 148.42H96.4917ZM101.892 148.42L103.199 150.651L104.506 148.42H105.472L103.71 151.148L105.472 153.875H104.506L103.199 151.759L101.892 153.875H100.926L102.659 151.148L100.926 148.42H101.892Z" fill="#FF8170"/>
</svg>
