<svg width="252" height="206" viewBox="0 0 252 206" fill="none" xmlns="http://www.w3.org/2000/svg">
	<style>
		.header { fill: #E3E3E3; stroke: #282828; }
		.body { stroke: #282828; }

		@media (prefers-color-scheme: dark) {
		.header { fill: #26282B; stroke: #E3E8ED; }
		.body { stroke: #E3E8ED; }

		}
	</style>
	<path class="header" d="M25.4688 21.3035C24.4911 21.709 23.709 22.4911 23.3035 23.4688L23.5345 23.5646C23.3512 24.0064 23.25 24.4911 23.25 25V26.25H23V28.75H23.25V31.25H23V33.75H23.25V36.25H23V38.75H23.25V39.75H24.5145V40H27.544V39.75H30.5734V40H33.6028V39.75H36.6322V40H39.6616V39.75H42.6911V40H45.7205V39.75H48.7499V40H51.7793V39.75H54.8087V40H57.8381V39.75H60.8676V40H63.897V39.75H66.9264V40H69.9558V39.75H72.9852V40H76.0147V39.75H79.0441V40H82.0735V39.75H85.1029V40H88.1323V39.75H91.1618V40H94.1912V39.75H97.2206V40H100.25V39.75H103.279V40H106.309V39.75H109.338V40H112.368V39.75H115.397V40H118.426V39.75H121.456V40H124.485V39.75H127.515V40H130.544V39.75H133.574V40H136.603V39.75H139.632V40H142.662V39.75H145.691V40H148.721V39.75H151.75V40H154.779V39.75H157.809V40H160.838V39.75H163.868V40H166.897V39.75H169.926V40H172.956V39.75H175.985V40H179.015V39.75H182.044V40H185.074V39.75H188.103V40H191.132V39.75H194.162V40H197.191V39.75H200.221V40H203.25V39.75H206.279V40H209.309V39.75H212.338V40H215.368V39.75H218.397V40H221.426V39.75H224.456V40H227.485V39.75H228.75V38.75H229V36.25H228.75V33.75H229V31.25H228.75V28.75H229V26.25H228.75V25C228.75 24.4911 228.649 24.0064 228.466 23.5646L228.696 23.4688C228.291 22.4911 227.509 21.709 226.531 21.3035L226.435 21.5345C225.994 21.3512 225.509 21.25 225 21.25H223.5V21H220.5V21.25H217.5V21H214.5V21.25H211.5V21H208.5V21.25H205.5V21H202.5V21.25H199.5V21H196.5V21.25H193.5V21H190.5V21.25H187.5V21H184.5V21.25H181.5V21H178.5V21.25H175.5V21H172.5V21.25H169.5V21H166.5V21.25H163.5V21H160.5V21.25H157.5V21H154.5V21.25H151.5V21H148.5V21.25H145.5V21H142.5V21.25H139.5V21H136.5V21.25H133.5V21H130.5V21.25H127.5V21H124.5V21.25H121.5V21H118.5V21.25H115.5V21H112.5V21.25H109.5V21H106.5V21.25H103.5V21H100.5V21.25H97.5V21H94.5V21.25H91.5V21H88.5V21.25H85.5V21H82.5V21.25H79.5V21H76.5V21.25H73.5V21H70.5V21.25H67.5V21H64.5V21.25H61.5V21H58.5V21.25H55.5V21H52.5V21.25H49.5V21H46.5V21.25H43.5V21H40.5V21.25H37.5V21H34.5V21.25H31.5V21H28.5V21.25H27C26.4911 21.25 26.0064 21.3512 25.5646 21.5345L25.4688 21.3035Z" fill="#26282B" stroke="#E3E8ED" stroke-width="0.5" stroke-dasharray="3 3"/>
	<path class="body" d="M24.3475 181.195C23.7728 180.337 23.3599 179.361 23.1523 178.311L23.3975 178.263C23.3008 177.774 23.25 177.268 23.25 176.75V175.261H23V172.283H23.25V169.304H23V166.326H23.25V163.348H23V160.37H23.25V157.391H23V154.413H23.25V151.435H23V148.457H23.25V145.478H23V142.5H23.25V139.522H23V136.544H23.25V133.565H23V130.587H23.25V127.609H23V124.63H23.25V121.652H23V118.674H23.25V115.696H23V112.717H23.25V109.739H23V106.761H23.25V103.783H23V100.804H23.25V97.8261H23V94.8478H23.25V91.8696H23V88.8913H23.25V85.913H23V82.9348H23.25V79.9565H23V76.9783H23.25V74H23V71.0217H23.25V68.0435H23V65.0652H23.25V62.087H23V59.1087H23.25V56.1304H23V53.1522H23.25V50.1739H23V47.1957H23.25V44.2174H23V41.2391H23.25V40H24.5145V39.75H27.544V40H30.5734V39.75H33.6028V40H36.6322V39.75H39.6616V40H42.6911V39.75H45.7205V40H48.7499V39.75H51.7793V40H54.8087V39.75H57.8381V40H60.8676V39.75H63.897V40H66.9264V39.75H69.9558V40H72.9852V39.75H76.0147V40H79.0441V39.75H82.0735V40H85.1029V39.75H88.1323V40H91.1618V39.75H94.1912V40H97.2206V39.75H100.25V40H103.279V39.75H106.309V40H109.338V39.75H112.368V40H115.397V39.75H118.426V40H121.456V39.75H124.485V40H127.515V39.75H130.544V40H133.574V39.75H136.603V40H139.632V39.75H142.662V40H145.691V39.75H148.721V40H151.75V39.75H154.779V40H157.809V39.75H160.838V40H163.868V39.75H166.897V40H169.926V39.75H172.956V40H175.985V39.75H179.015V40H182.044V39.75H185.074V40H188.103V39.75H191.132V40H194.162V39.75H197.191V40H200.221V39.75H203.25V40H206.279V39.75H209.309V40H212.338V39.75H215.368V40H218.397V39.75H221.426V40H224.456V39.75H227.485V40H228.75V41.2391H229V44.2173H228.75V47.1956H229V50.1739H228.75V53.1521H229V56.1304H228.75V59.1087H229V62.0869H228.75V65.0652H229V68.0434H228.75V71.0217H229V74H228.75V76.9782H229V79.9565H228.75V82.9348H229V85.913H228.75V88.8913H229V91.8696H228.75V94.8478H229V97.8261H228.75V100.804H229V103.783H228.75V106.761H229V109.739H228.75V112.717H229V115.696H228.75V118.674H229V121.652H228.75V124.63H229V127.609H228.75V130.587H229V133.565H228.75V136.543H229V139.522H228.75V142.5H229V145.478H228.75V148.457H229V151.435H228.75V154.413H229V157.391H228.75V160.37H229V163.348H228.75V166.326H229V169.304H228.75V172.283H229V175.261H228.75V176.75C228.75 177.268 228.699 177.774 228.602 178.263L228.848 178.311C228.64 179.361 228.227 180.337 227.653 181.195L227.445 181.056C226.879 181.901 226.151 182.629 225.306 183.195L225.445 183.403C224.587 183.977 223.611 184.39 222.561 184.598L222.513 184.352C222.024 184.449 221.518 184.5 221 184.5H219.516V184.75H216.547V184.5H213.578V184.75H210.609V184.5H207.641V184.75H204.672V184.5H201.703V184.75H198.734V184.5H195.766V184.75H192.797V184.5H189.828V184.75H186.859V184.5H183.891V184.75H180.922V184.5H177.953V184.75H174.984V184.5H172.016V184.75H169.047V184.5H166.078V184.75H163.109V184.5H160.141V184.75H157.172V184.5H154.203V184.75H151.234V184.5H148.266V184.75H145.297V184.5H142.328V184.75H139.359V184.5H136.391V184.75H133.422V184.5H130.453V184.75H127.484V184.5H124.516V184.75H121.547V184.5H118.578V184.75H115.609V184.5H112.641V184.75H109.672V184.5H106.703V184.75H103.734V184.5H100.766V184.75H97.7969V184.5H94.8281V184.75H91.8594V184.5H88.8906V184.75H85.9219V184.5H82.9531V184.75H79.9844V184.5H77.0156V184.75H74.0469V184.5H71.0781V184.75H68.1094V184.5H65.1406V184.75H62.1719V184.5H59.2031V184.75H56.2344V184.5H53.2656V184.75H50.2969V184.5H47.3281V184.75H44.3594V184.5H41.3906V184.75H38.4219V184.5H35.4531V184.75H32.4844V184.5H31C30.4821 184.5 29.9763 184.449 29.4872 184.352L29.4387 184.598C28.3891 184.39 27.4134 183.977 26.5551 183.403L26.6942 183.195C25.8489 182.629 25.1211 181.901 24.5552 181.056L24.3475 181.195Z" stroke="#E3E3E3" stroke-width="0.5" stroke-dasharray="3 3"/>
	<circle class="layer-1" cx="34" cy="31" r="3" fill="#808B95"/>
	<circle class="layer-1" cx="44" cy="31" r="3" fill="#808B95"/>
	<circle class="layer-1" cx="54" cy="31" r="3" fill="#808B95"/>
	<path d="M42.392 64.2955L43.6989 66.5256L45.0057 64.2955H45.9716L44.2102 67.0227L45.9716 69.75H45.0057L43.6989 67.6335L42.392 69.75H41.4261L43.1591 67.0227L41.4261 64.2955H42.392ZM47.7924 64.2955L49.0993 66.5256L50.4061 64.2955H51.372L49.6106 67.0227L51.372 69.75H50.4061L49.0993 67.6335L47.7924 69.75H46.8265L48.5595 67.0227L46.8265 64.2955H47.7924ZM53.1928 64.2955L54.4996 66.5256L55.8065 64.2955H56.7724L55.011 67.0227L56.7724 69.75H55.8065L54.4996 67.6335L53.1928 69.75H52.2269L53.9599 67.0227L52.2269 64.2955H53.1928ZM58.5932 64.2955L59.9 66.5256L61.2069 64.2955H62.1728L60.4114 67.0227L62.1728 69.75H61.2069L59.9 67.6335L58.5932 69.75H57.6273L59.3603 67.0227L57.6273 64.2955H58.5932ZM67.4027 60.1335V72.0938H66.6925V60.1335H67.4027ZM72.8901 64.2955L74.1969 66.5256L75.5037 64.2955H76.4696L74.7083 67.0227L76.4696 69.75H75.5037L74.1969 67.6335L72.8901 69.75H71.9242L73.6571 67.0227L71.9242 64.2955H72.8901ZM78.2905 64.2955L79.5973 66.5256L80.9041 64.2955H81.87L80.1087 67.0227L81.87 69.75H80.9041L79.5973 67.6335L78.2905 69.75H77.3246L79.0575 67.0227L77.3246 64.2955H78.2905ZM83.6909 64.2955L84.9977 66.5256L86.3045 64.2955H87.2704L85.5091 67.0227L87.2704 69.75H86.3045L84.9977 67.6335L83.6909 69.75H82.725L84.4579 67.0227L82.725 64.2955H83.6909ZM89.0913 64.2955L90.3981 66.5256L91.7049 64.2955H92.6708L90.9094 67.0227L92.6708 69.75H91.7049L90.3981 67.6335L89.0913 69.75H88.1254L89.8583 67.0227L88.1254 64.2955H89.0913ZM94.4917 64.2955L95.7985 66.5256L97.1053 64.2955H98.0712L96.3098 67.0227L98.0712 69.75H97.1053L95.7985 67.6335L94.4917 69.75H93.5257L95.2587 67.0227L93.5257 64.2955H94.4917ZM99.892 64.2955L101.199 66.5256L102.506 64.2955H103.472L101.71 67.0227L103.472 69.75H102.506L101.199 67.6335L99.892 69.75H98.9261L100.659 67.0227L98.9261 64.2955H99.892ZM108.702 60.1335V72.0938H107.991V60.1335H108.702ZM114.189 64.2955L115.496 66.5256L116.803 64.2955H117.768L116.007 67.0227L117.768 69.75H116.803L115.496 67.6335L114.189 69.75H113.223L114.956 67.0227L113.223 64.2955H114.189ZM119.589 64.2955L120.896 66.5256L122.203 64.2955H123.169L121.407 67.0227L123.169 69.75H122.203L120.896 67.6335L119.589 69.75H118.623L120.356 67.0227L118.623 64.2955H119.589ZM124.99 64.2955L126.297 66.5256L127.603 64.2955H128.569L126.808 67.0227L128.569 69.75H127.603L126.297 67.6335L124.99 69.75H124.024L125.757 67.0227L124.024 64.2955H124.99ZM130.39 64.2955L131.697 66.5256L133.004 64.2955H133.97L132.208 67.0227L133.97 69.75H133.004L131.697 67.6335L130.39 69.75H129.424L131.157 67.0227L129.424 64.2955H130.39ZM135.79 64.2955L137.097 66.5256L138.404 64.2955H139.37L137.609 67.0227L139.37 69.75H138.404L137.097 67.6335L135.79 69.75H134.825L136.558 67.0227L134.825 64.2955H135.79ZM141.191 64.2955L142.498 66.5256L143.805 64.2955H144.77L143.009 67.0227L144.77 69.75H143.805L142.498 67.6335L141.191 69.75H140.225L141.958 67.0227L140.225 64.2955H141.191ZM149.404 64.2955L150.711 66.5256L152.017 64.2955H152.983L151.222 67.0227L152.983 69.75H152.017L150.711 67.6335L149.404 69.75H148.438L150.171 67.0227L148.438 64.2955H149.404ZM154.804 64.2955L156.111 66.5256L157.418 64.2955H158.384L156.622 67.0227L158.384 69.75H157.418L156.111 67.6335L154.804 69.75H153.838L155.571 67.0227L153.838 64.2955H154.804ZM160.205 64.2955L161.511 66.5256L162.818 64.2955H163.784L162.023 67.0227L163.784 69.75H162.818L161.511 67.6335L160.205 69.75H159.239L160.972 67.0227L159.239 64.2955H160.205ZM42.392 83.2955L43.6989 85.5256L45.0057 83.2955H45.9716L44.2102 86.0227L45.9716 88.75H45.0057L43.6989 86.6335L42.392 88.75H41.4261L43.1591 86.0227L41.4261 83.2955H42.392ZM47.7924 83.2955L49.0993 85.5256L50.4061 83.2955H51.372L49.6106 86.0227L51.372 88.75H50.4061L49.0993 86.6335L47.7924 88.75H46.8265L48.5595 86.0227L46.8265 83.2955H47.7924ZM53.1928 83.2955L54.4996 85.5256L55.8065 83.2955H56.7724L55.011 86.0227L56.7724 88.75H55.8065L54.4996 86.6335L53.1928 88.75H52.2269L53.9599 86.0227L52.2269 83.2955H53.1928ZM58.5932 83.2955L59.9 85.5256L61.2069 83.2955H62.1728L60.4114 86.0227L62.1728 88.75H61.2069L59.9 86.6335L58.5932 88.75H57.6273L59.3603 86.0227L57.6273 83.2955H58.5932ZM67.4027 79.1335V91.0938H66.6925V79.1335H67.4027ZM72.8901 83.2955L74.1969 85.5256L75.5037 83.2955H76.4696L74.7083 86.0227L76.4696 88.75H75.5037L74.1969 86.6335L72.8901 88.75H71.9242L73.6571 86.0227L71.9242 83.2955H72.8901ZM78.2905 83.2955L79.5973 85.5256L80.9041 83.2955H81.87L80.1087 86.0227L81.87 88.75H80.9041L79.5973 86.6335L78.2905 88.75H77.3246L79.0575 86.0227L77.3246 83.2955H78.2905ZM83.6909 83.2955L84.9977 85.5256L86.3045 83.2955H87.2704L85.5091 86.0227L87.2704 88.75H86.3045L84.9977 86.6335L83.6909 88.75H82.725L84.4579 86.0227L82.725 83.2955H83.6909ZM89.0913 83.2955L90.3981 85.5256L91.7049 83.2955H92.6708L90.9094 86.0227L92.6708 88.75H91.7049L90.3981 86.6335L89.0913 88.75H88.1254L89.8583 86.0227L88.1254 83.2955H89.0913ZM94.4917 83.2955L95.7985 85.5256L97.1053 83.2955H98.0712L96.3098 86.0227L98.0712 88.75H97.1053L95.7985 86.6335L94.4917 88.75H93.5257L95.2587 86.0227L93.5257 83.2955H94.4917ZM99.892 83.2955L101.199 85.5256L102.506 83.2955H103.472L101.71 86.0227L103.472 88.75H102.506L101.199 86.6335L99.892 88.75H98.9261L100.659 86.0227L98.9261 83.2955H99.892ZM108.702 79.1335V91.0938H107.991V79.1335H108.702ZM174.414 79.1335V91.0938H173.704V79.1335H174.414ZM179.902 83.2955L181.209 85.5256L182.515 83.2955H183.481L181.72 86.0227L183.481 88.75H182.515L181.209 86.6335L179.902 88.75H178.936L180.669 86.0227L178.936 83.2955H179.902ZM185.302 83.2955L186.609 85.5256L187.916 83.2955H188.882L187.12 86.0227L188.882 88.75H187.916L186.609 86.6335L185.302 88.75H184.336L186.069 86.0227L184.336 83.2955H185.302ZM190.703 83.2955L192.009 85.5256L193.316 83.2955H194.282L192.521 86.0227L194.282 88.75H193.316L192.009 86.6335L190.703 88.75H189.737L191.47 86.0227L189.737 83.2955H190.703ZM196.103 83.2955L197.41 85.5256L198.717 83.2955H199.683L197.921 86.0227L199.683 88.75H198.717L197.41 86.6335L196.103 88.75H195.137L196.87 86.0227L195.137 83.2955H196.103ZM201.503 83.2955L202.81 85.5256L204.117 83.2955H205.083L203.322 86.0227L205.083 88.75H204.117L202.81 86.6335L201.503 88.75H200.537L202.27 86.0227L200.537 83.2955H201.503ZM206.904 83.2955L208.211 85.5256L209.517 83.2955H210.483L208.722 86.0227L210.483 88.75H209.517L208.211 86.6335L206.904 88.75H205.938L207.671 86.0227L205.938 83.2955H206.904ZM42.392 103.295L43.6989 105.526L45.0057 103.295H45.9716L44.2102 106.023L45.9716 108.75H45.0057L43.6989 106.634L42.392 108.75H41.4261L43.1591 106.023L41.4261 103.295H42.392ZM47.7924 103.295L49.0993 105.526L50.4061 103.295H51.372L49.6106 106.023L51.372 108.75H50.4061L49.0993 106.634L47.7924 108.75H46.8265L48.5595 106.023L46.8265 103.295H47.7924ZM53.1928 103.295L54.4996 105.526L55.8065 103.295H56.7724L55.011 106.023L56.7724 108.75H55.8065L54.4996 106.634L53.1928 108.75H52.2269L53.9599 106.023L52.2269 103.295H53.1928ZM58.5932 103.295L59.9 105.526L61.2069 103.295H62.1728L60.4114 106.023L62.1728 108.75H61.2069L59.9 106.634L58.5932 108.75H57.6273L59.3603 106.023L57.6273 103.295H58.5932ZM67.4027 99.1335V111.094H66.6925V99.1335H67.4027ZM72.8901 103.295L74.1969 105.526L75.5037 103.295H76.4696L74.7083 106.023L76.4696 108.75H75.5037L74.1969 106.634L72.8901 108.75H71.9242L73.6571 106.023L71.9242 103.295H72.8901ZM78.2905 103.295L79.5973 105.526L80.9041 103.295H81.87L80.1087 106.023L81.87 108.75H80.9041L79.5973 106.634L78.2905 108.75H77.3246L79.0575 106.023L77.3246 103.295H78.2905ZM83.6909 103.295L84.9977 105.526L86.3045 103.295H87.2704L85.5091 106.023L87.2704 108.75H86.3045L84.9977 106.634L83.6909 108.75H82.725L84.4579 106.023L82.725 103.295H83.6909ZM89.0913 103.295L90.3981 105.526L91.7049 103.295H92.6708L90.9094 106.023L92.6708 108.75H91.7049L90.3981 106.634L89.0913 108.75H88.1254L89.8583 106.023L88.1254 103.295H89.0913ZM94.4917 103.295L95.7985 105.526L97.1053 103.295H98.0712L96.3098 106.023L98.0712 108.75H97.1053L95.7985 106.634L94.4917 108.75H93.5257L95.2587 106.023L93.5257 103.295H94.4917ZM99.892 103.295L101.199 105.526L102.506 103.295H103.472L101.71 106.023L103.472 108.75H102.506L101.199 106.634L99.892 108.75H98.9261L100.659 106.023L98.9261 103.295H99.892ZM42.392 123.295L43.6989 125.526L45.0057 123.295H45.9716L44.2102 126.023L45.9716 128.75H45.0057L43.6989 126.634L42.392 128.75H41.4261L43.1591 126.023L41.4261 123.295H42.392ZM47.7924 123.295L49.0993 125.526L50.4061 123.295H51.372L49.6106 126.023L51.372 128.75H50.4061L49.0993 126.634L47.7924 128.75H46.8265L48.5595 126.023L46.8265 123.295H47.7924ZM53.1928 123.295L54.4996 125.526L55.8065 123.295H56.7724L55.011 126.023L56.7724 128.75H55.8065L54.4996 126.634L53.1928 128.75H52.2269L53.9599 126.023L52.2269 123.295H53.1928ZM58.5932 123.295L59.9 125.526L61.2069 123.295H62.1728L60.4114 126.023L62.1728 128.75H61.2069L59.9 126.634L58.5932 128.75H57.6273L59.3603 126.023L57.6273 123.295H58.5932ZM67.4027 119.134V131.094H66.6925V119.134H67.4027ZM108.702 119.134V131.094H107.991V119.134H108.702ZM114.189 123.295L115.496 125.526L116.803 123.295H117.768L116.007 126.023L117.768 128.75H116.803L115.496 126.634L114.189 128.75H113.223L114.956 126.023L113.223 123.295H114.189ZM119.589 123.295L120.896 125.526L122.203 123.295H123.169L121.407 126.023L123.169 128.75H122.203L120.896 126.634L119.589 128.75H118.623L120.356 126.023L118.623 123.295H119.589ZM124.99 123.295L126.297 125.526L127.603 123.295H128.569L126.808 126.023L128.569 128.75H127.603L126.297 126.634L124.99 128.75H124.024L125.757 126.023L124.024 123.295H124.99ZM130.39 123.295L131.697 125.526L133.004 123.295H133.97L132.208 126.023L133.97 128.75H133.004L131.697 126.634L130.39 128.75H129.424L131.157 126.023L129.424 123.295H130.39ZM135.79 123.295L137.097 125.526L138.404 123.295H139.37L137.609 126.023L139.37 128.75H138.404L137.097 126.634L135.79 128.75H134.825L136.558 126.023L134.825 123.295H135.79ZM141.191 123.295L142.498 125.526L143.805 123.295H144.77L143.009 126.023L144.77 128.75H143.805L142.498 126.634L141.191 128.75H140.225L141.958 126.023L140.225 123.295H141.191ZM42.392 143.295L43.6989 145.526L45.0057 143.295H45.9716L44.2102 146.023L45.9716 148.75H45.0057L43.6989 146.634L42.392 148.75H41.4261L43.1591 146.023L41.4261 143.295H42.392ZM47.7924 143.295L49.0993 145.526L50.4061 143.295H51.372L49.6106 146.023L51.372 148.75H50.4061L49.0993 146.634L47.7924 148.75H46.8265L48.5595 146.023L46.8265 143.295H47.7924ZM53.1928 143.295L54.4996 145.526L55.8065 143.295H56.7724L55.011 146.023L56.7724 148.75H55.8065L54.4996 146.634L53.1928 148.75H52.2269L53.9599 146.023L52.2269 143.295H53.1928ZM58.5932 143.295L59.9 145.526L61.2069 143.295H62.1728L60.4114 146.023L62.1728 148.75H61.2069L59.9 146.634L58.5932 148.75H57.6273L59.3603 146.023L57.6273 143.295H58.5932ZM67.4027 139.134V151.094H66.6925V139.134H67.4027ZM72.8901 143.295L74.1969 145.526L75.5037 143.295H76.4696L74.7083 146.023L76.4696 148.75H75.5037L74.1969 146.634L72.8901 148.75H71.9242L73.6571 146.023L71.9242 143.295H72.8901ZM78.2905 143.295L79.5973 145.526L80.9041 143.295H81.87L80.1087 146.023L81.87 148.75H80.9041L79.5973 146.634L78.2905 148.75H77.3246L79.0575 146.023L77.3246 143.295H78.2905ZM83.6909 143.295L84.9977 145.526L86.3045 143.295H87.2704L85.5091 146.023L87.2704 148.75H86.3045L84.9977 146.634L83.6909 148.75H82.725L84.4579 146.023L82.725 143.295H83.6909ZM89.0913 143.295L90.3981 145.526L91.7049 143.295H92.6708L90.9094 146.023L92.6708 148.75H91.7049L90.3981 146.634L89.0913 148.75H88.1254L89.8583 146.023L88.1254 143.295H89.0913ZM94.4917 143.295L95.7985 145.526L97.1053 143.295H98.0712L96.3098 146.023L98.0712 148.75H97.1053L95.7985 146.634L94.4917 148.75H93.5257L95.2587 146.023L93.5257 143.295H94.4917ZM99.892 143.295L101.199 145.526L102.506 143.295H103.472L101.71 146.023L103.472 148.75H102.506L101.199 146.634L99.892 148.75H98.9261L100.659 146.023L98.9261 143.295H99.892ZM108.105 143.295L109.412 145.526L110.719 143.295H111.684L109.923 146.023L111.684 148.75H110.719L109.412 146.634L108.105 148.75H107.139L108.872 146.023L107.139 143.295H108.105ZM113.505 143.295L114.812 145.526L116.119 143.295H117.085L115.324 146.023L117.085 148.75H116.119L114.812 146.634L113.505 148.75H112.539L114.272 146.023L112.539 143.295H113.505ZM118.906 143.295L120.213 145.526L121.519 143.295H122.485L120.724 146.023L122.485 148.75H121.519L120.213 146.634L118.906 148.75H117.94L119.673 146.023L117.94 143.295H118.906ZM124.306 143.295L125.613 145.526L126.92 143.295H127.886L126.124 146.023L127.886 148.75H126.92L125.613 146.634L124.306 148.75H123.34L125.073 146.023L123.34 143.295H124.306Z" fill="#6BAA9F"/>
	<path d="M114.189 83.2955L115.496 85.5256L116.803 83.2955H117.768L116.007 86.0227L117.768 88.75H116.803L115.496 86.6335L114.189 88.75H113.223L114.956 86.0227L113.223 83.2955H114.189ZM119.589 83.2955L120.896 85.5256L122.203 83.2955H123.169L121.407 86.0227L123.169 88.75H122.203L120.896 86.6335L119.589 88.75H118.623L120.356 86.0227L118.623 83.2955H119.589ZM124.99 83.2955L126.297 85.5256L127.603 83.2955H128.569L126.808 86.0227L128.569 88.75H127.603L126.297 86.6335L124.99 88.75H124.024L125.757 86.0227L124.024 83.2955H124.99ZM130.39 83.2955L131.697 85.5256L133.004 83.2955H133.97L132.208 86.0227L133.97 88.75H133.004L131.697 86.6335L130.39 88.75H129.424L131.157 86.0227L129.424 83.2955H130.39ZM135.79 83.2955L137.097 85.5256L138.404 83.2955H139.37L137.609 86.0227L139.37 88.75H138.404L137.097 86.6335L135.79 88.75H134.825L136.558 86.0227L134.825 83.2955H135.79ZM141.191 83.2955L142.498 85.5256L143.805 83.2955H144.77L143.009 86.0227L144.77 88.75H143.805L142.498 86.6335L141.191 88.75H140.225L141.958 86.0227L140.225 83.2955H141.191ZM149.404 83.2955L150.711 85.5256L152.017 83.2955H152.983L151.222 86.0227L152.983 88.75H152.017L150.711 86.6335L149.404 88.75H148.438L150.171 86.0227L148.438 83.2955H149.404ZM154.804 83.2955L156.111 85.5256L157.418 83.2955H158.384L156.622 86.0227L158.384 88.75H157.418L156.111 86.6335L154.804 88.75H153.838L155.571 86.0227L153.838 83.2955H154.804ZM160.205 83.2955L161.511 85.5256L162.818 83.2955H163.784L162.023 86.0227L163.784 88.75H162.818L161.511 86.6335L160.205 88.75H159.239L160.972 86.0227L159.239 83.2955H160.205ZM165.605 83.2955L166.912 85.5256L168.219 83.2955H169.184L167.423 86.0227L169.184 88.75H168.219L166.912 86.6335L165.605 88.75H164.639L166.372 86.0227L164.639 83.2955H165.605ZM72.8901 123.295L74.1969 125.526L75.5037 123.295H76.4696L74.7083 126.023L76.4696 128.75H75.5037L74.1969 126.634L72.8901 128.75H71.9242L73.6571 126.023L71.9242 123.295H72.8901ZM78.2905 123.295L79.5973 125.526L80.9041 123.295H81.87L80.1087 126.023L81.87 128.75H80.9041L79.5973 126.634L78.2905 128.75H77.3246L79.0575 126.023L77.3246 123.295H78.2905ZM83.6909 123.295L84.9977 125.526L86.3045 123.295H87.2704L85.5091 126.023L87.2704 128.75H86.3045L84.9977 126.634L83.6909 128.75H82.725L84.4579 126.023L82.725 123.295H83.6909ZM89.0913 123.295L90.3981 125.526L91.7049 123.295H92.6708L90.9094 126.023L92.6708 128.75H91.7049L90.3981 126.634L89.0913 128.75H88.1254L89.8583 126.023L88.1254 123.295H89.0913ZM94.4917 123.295L95.7985 125.526L97.1053 123.295H98.0712L96.3098 126.023L98.0712 128.75H97.1053L95.7985 126.634L94.4917 128.75H93.5257L95.2587 126.023L93.5257 123.295H94.4917ZM99.892 123.295L101.199 125.526L102.506 123.295H103.472L101.71 126.023L103.472 128.75H102.506L101.199 126.634L99.892 128.75H98.9261L100.659 126.023L98.9261 123.295H99.892Z" fill="#FF8170"/>
</svg>