<svg width="256" height="256" viewBox="0 0 256 256" fill="none" xmlns="http://www.w3.org/2000/svg">
    <style>
        .tag { fill: #E3E3E3; stroke: #282828; }

        @media (prefers-color-scheme: dark) {
        .tag { fill: #1A1B1E; stroke: #E3E8ED; }
        }
    </style>
    <path class="tag" d="M228.126 139.771L228.3 139.69V139.499V137.836H228V134.51H228.3V131.184H228V127.858H228.3V126.195V126.003L228.126 125.923L226.371 125.112L226.245 125.384L222.734 123.763L222.86 123.49L219.35 121.868L219.224 122.141L215.713 120.519L215.839 120.246L212.328 118.625L212.203 118.897L208.692 117.275L208.818 117.003L205.307 115.381L205.181 115.653L201.671 114.031L201.797 113.759L198.286 112.137L198.16 112.41L194.65 110.788L194.776 110.515L191.265 108.894L191.139 109.166L187.629 107.544L187.754 107.272L184.244 105.65L184.118 105.922L180.607 104.3L180.733 104.028L177.223 102.406L177.097 102.678L173.586 101.057L173.712 100.784L170.201 99.1624L170.076 99.4347L166.565 97.8129L166.691 97.5405L164.936 96.7296L164.51 96.5329V97.002V99.0517H164.81V103.151H164.51V107.251H164.81V111.35H164.51V113.4V113.598L164.691 113.676L166.562 114.478L166.68 114.203L170.422 115.808L170.304 116.084L174.045 117.689L174.164 117.413L177.905 119.018L177.787 119.294L181.528 120.899L181.647 120.623L185.388 122.229L185.27 122.504L189.011 124.109L189.13 123.834L192.871 125.439L192.753 125.715L196.495 127.32L196.613 127.044L200.354 128.649L200.236 128.925L203.978 130.53L204.096 130.254L207.837 131.86L207.719 132.135L209.2 132.771V132.923L207.719 133.559L207.837 133.834L204.096 135.439L203.978 135.164L200.236 136.769L200.354 137.045L196.613 138.65L196.495 138.374L192.753 139.979L192.871 140.255L189.13 141.86L189.011 141.584L185.27 143.19L185.388 143.465L181.647 145.071L181.528 144.795L177.787 146.4L177.905 146.676L174.164 148.281L174.045 148.005L170.304 149.61L170.422 149.886L166.68 151.491L166.562 151.216L164.691 152.018L164.51 152.096V152.294V154.344H164.81V158.443H164.51V162.543H164.81V166.642H164.51V168.692V169.161L164.936 168.964L166.691 168.153L166.565 167.881L170.076 166.259L170.201 166.532L173.712 164.91L173.586 164.637L177.097 163.016L177.223 163.288L180.733 161.666L180.607 161.394L184.118 159.772L184.244 160.044L187.754 158.422L187.629 158.15L191.139 156.528L191.265 156.8L194.776 155.179L194.65 154.906L198.16 153.284L198.286 153.557L201.797 151.935L201.671 151.663L205.181 150.041L205.307 150.313L208.818 148.691L208.692 148.419L212.203 146.797L212.328 147.069L215.839 145.447L215.713 145.175L219.224 143.553L219.35 143.826L222.86 142.204L222.734 141.931L226.245 140.31L226.371 140.582L228.126 139.771Z" fill="#1A1B1E" stroke="#E3E8ED" stroke-width="0.6" stroke-dasharray="4 4"/>
    <path class="tag" d="M150.872 71.4461L150.974 71.0682H150.582H148.752V71.3682H145.091V71.0682H141.431V71.3682H137.77V71.0682H135.94H135.71L135.65 71.2902L135.142 73.1779L135.431 73.2559L134.415 77.0313L134.126 76.9533L133.109 80.7288L133.399 80.8067L132.383 84.5822L132.093 84.5042L131.077 88.2796L131.367 88.3576L130.35 92.133L130.061 92.0551L129.044 95.8305L129.334 95.9085L128.318 99.6839L128.028 99.6059L127.012 103.381L127.302 103.459L126.285 107.235L125.996 107.157L124.98 110.932L125.269 111.01L124.253 114.786L123.963 114.708L122.947 118.483L123.237 118.561L122.221 122.336L121.931 122.258L120.915 126.034L121.204 126.112L120.188 129.887L119.898 129.809L118.882 133.585L119.172 133.663L118.156 137.438L117.866 137.36L116.85 141.136L117.139 141.214L116.123 144.989L115.834 144.911L114.817 148.687L115.107 148.764L114.091 152.54L113.801 152.462L112.785 156.237L113.075 156.315L112.058 160.091L111.769 160.013L110.752 163.788L111.042 163.866L110.026 167.642L109.736 167.564L108.72 171.339L109.01 171.417L107.993 175.192L107.704 175.115L106.688 178.89L106.977 178.968L105.961 182.743L105.671 182.665L105.163 184.553L105.061 184.931H105.453H107.283V184.631H110.944V184.931H114.605V184.631H118.265V184.931H120.096H120.326L120.385 184.709L120.894 182.821L120.604 182.743L121.62 178.968L121.91 179.046L122.926 175.27L122.636 175.192L123.653 171.417L123.942 171.495L124.958 167.72L124.669 167.642L125.685 163.866L125.975 163.944L126.991 160.169L126.701 160.091L127.717 156.315L128.007 156.393L129.023 152.618L128.734 152.54L129.75 148.764L130.04 148.842L131.056 145.067L130.766 144.989L131.782 141.214L132.072 141.292L133.088 137.516L132.799 137.438L133.815 133.663L134.104 133.741L135.121 129.965L134.831 129.887L135.847 126.112L136.137 126.19L137.153 122.414L136.863 122.336L137.88 118.561L138.169 118.639L139.186 114.864L138.896 114.786L139.912 111.01L140.202 111.088L141.218 107.313L140.928 107.235L141.945 103.459L142.234 103.537L143.25 99.7619L142.961 99.6839L143.977 95.9085L144.267 95.9864L145.283 92.211L144.993 92.133L146.009 88.3576L146.299 88.4356L147.315 84.6601L147.026 84.5822L148.042 80.8067L148.332 80.8847L149.348 77.1093L149.058 77.0313L150.074 73.2559L150.364 73.3339L150.872 71.4461Z" fill="#1A1B1E" stroke="#E3E8ED" stroke-width="0.6" stroke-dasharray="4 4"/>
    <path class="tag" d="M27.6999 139.69L27.8741 139.771L29.6293 140.582L29.7552 140.31L33.2658 141.931L33.1399 142.204L36.6505 143.826L36.7763 143.553L40.2869 145.175L40.1611 145.447L43.6717 147.069L43.7975 146.797L47.3081 148.419L47.1823 148.691L50.6929 150.313L50.8187 150.041L54.3293 151.663L54.2035 151.935L57.7141 153.557L57.8399 153.284L61.3505 154.906L61.2246 155.179L64.7352 156.8L64.861 156.528L68.3716 158.15L68.2458 158.422L71.7564 160.044L71.8822 159.772L75.3928 161.394L75.267 161.666L78.7776 163.288L78.9034 163.016L82.414 164.637L82.2882 164.91L85.7988 166.532L85.9246 166.259L89.4352 167.881L89.3093 168.153L91.0646 168.964L91.4905 169.161V168.692V166.642H91.1905V162.543H91.4905V158.443H91.1905V154.344H91.4905V152.294V152.096L91.3087 152.018L89.438 151.216L89.3197 151.491L85.5781 149.886L85.6964 149.61L81.9549 148.005L81.8366 148.281L78.095 146.676L78.2133 146.4L74.4718 144.795L74.3535 145.071L70.6119 143.465L70.7302 143.19L66.9887 141.584L66.8704 141.86L63.1288 140.255L63.2471 139.979L59.5056 138.374L59.3873 138.65L55.6458 137.045L55.764 136.769L52.0225 135.164L51.9042 135.439L48.1627 133.834L48.2809 133.559L46.8 132.923V132.771L48.2809 132.135L48.1627 131.86L51.9042 130.254L52.0225 130.53L55.764 128.925L55.6458 128.649L59.3873 127.044L59.5056 127.32L63.2471 125.715L63.1288 125.439L66.8704 123.834L66.9887 124.109L70.7302 122.504L70.6119 122.229L74.3535 120.623L74.4718 120.899L78.2133 119.294L78.095 119.018L81.8366 117.413L81.9549 117.689L85.6964 116.084L85.5781 115.808L89.3197 114.203L89.438 114.478L91.3087 113.676L91.4905 113.598V113.4V111.35H91.1905V107.251H91.4905V103.151H91.1905V99.0517H91.4905V97.002V96.5329L91.0646 96.7296L89.3093 97.5405L89.4352 97.8129L85.9246 99.4347L85.7988 99.1624L82.2882 100.784L82.414 101.057L78.9034 102.678L78.7776 102.406L75.267 104.028L75.3928 104.3L71.8822 105.922L71.7564 105.65L68.2458 107.272L68.3716 107.544L64.861 109.166L64.7352 108.894L61.2246 110.515L61.3505 110.788L57.8399 112.41L57.7141 112.137L54.2035 113.759L54.3293 114.031L50.8187 115.653L50.6929 115.381L47.1823 117.003L47.3081 117.275L43.7975 118.897L43.6717 118.625L40.1611 120.246L40.2869 120.519L36.7763 122.141L36.6505 121.868L33.1399 123.49L33.2658 123.763L29.7552 125.384L29.6294 125.112L27.8741 125.923L27.6999 126.003V126.195V127.858H27.9999V131.184H27.6999V134.51H27.9999V137.836H27.6999V139.499V139.69Z" fill="#1A1B1E" stroke="#E3E8ED" stroke-width="0.6" stroke-dasharray="4 4"/>
</svg>
