<svg xmlns="http://www.w3.org/2000/svg" width="256" height="256" viewBox="0 0 256 256" fill="none">
    <mask id="mask0_7410_21127" style="mask-type:luminance" maskUnits="userSpaceOnUse" x="84" y="33" width="101" height="185">
        <path d="M148.594 92.7975L145.43 83.0366C144.422 79.8976 142.771 77.0106 140.616 74.536L126.792 58.7033C125.187 56.8474 122.849 55.7934 120.396 55.7934H117.209C115.788 55.7934 114.435 55.1748 113.518 54.075L100.611 39.1358L95.7511 33.3848L84.7012 37.1196L96.9433 112.548L171.771 217.534L184.014 212.906V137.477L153.11 100.931C151.093 98.5485 149.557 95.7761 148.594 92.7975Z" fill="white"/>
    </mask>
    <g mask="url(#mask0_7410_21127)">
        <path d="M261.916 -52.0342H-31.8262V241.547H261.916V-52.0342Z" fill="#33B0FF"/>
    </g>
    <path d="M171.775 217.9C171.66 217.9 171.545 217.855 171.477 217.74L96.6483 112.754C96.6483 112.754 96.6025 112.662 96.5796 112.594L84.3374 37.1648C84.3145 36.9815 84.4062 36.7982 84.5896 36.7524L95.6396 33.0176C95.7772 32.9717 95.9376 33.0175 96.0522 33.1321L100.912 38.8832L113.819 53.8223C114.668 54.8305 115.906 55.4033 117.235 55.4033H120.422C122.989 55.4033 125.42 56.5031 127.116 58.4507L140.94 74.2834C143.164 76.8267 144.791 79.7137 145.846 82.9215L149.01 92.6823C149.973 95.6381 151.463 98.3189 153.457 100.679L184.361 137.225C184.361 137.225 184.452 137.385 184.452 137.477V212.905C184.452 213.066 184.361 213.203 184.2 213.249L171.958 217.877C171.958 217.877 171.866 217.9 171.82 217.9H171.775ZM97.3132 112.41L171.912 217.076L183.65 212.653V137.637L152.838 101.183C150.775 98.7542 149.239 95.9588 148.253 92.9343L145.09 83.1735C144.081 80.0803 142.476 77.2392 140.344 74.7875L126.52 58.9548C124.984 57.1905 122.737 56.1823 120.399 56.1823H117.212C115.676 56.1823 114.232 55.5178 113.246 54.3264L100.339 39.3873L95.6396 33.8195L85.1398 37.371L97.3132 112.387V112.41Z" fill="#242224"/>
    <mask id="mask1_7410_21127" style="mask-type:luminance" maskUnits="userSpaceOnUse" x="84" y="37" width="88" height="181">
        <path d="M136.352 95.1103L133.188 85.3494C132.179 82.2104 130.529 79.3234 128.374 76.8488L114.55 61.0161C112.945 59.1602 110.606 58.1062 108.153 58.1062H104.967C103.546 58.1062 102.193 57.4875 101.276 56.3877L88.3689 41.4486L84.7009 37.1182V114.861L171.771 217.533V139.79L140.868 103.244C138.851 100.861 137.315 98.0889 136.352 95.1103Z" fill="white"/>
    </mask>
    <g mask="url(#mask1_7410_21127)">
        <path d="M261.914 -52.0342H-31.8284V241.547H261.914V-52.0342Z" fill="#33B0FF"/>
    </g>
    <path d="M171.773 217.9C171.773 217.9 171.566 217.854 171.498 217.763L84.4273 115.091C84.4273 115.091 84.3357 114.93 84.3357 114.839V37.0956C84.3357 36.9352 84.4274 36.7978 84.5878 36.7519C84.7254 36.7061 84.9088 36.7519 85.0005 36.8665L88.6685 41.197L101.576 56.1361C102.424 57.1443 103.662 57.7171 104.991 57.7171H108.178C110.746 57.7171 113.176 58.8169 114.872 60.7644L128.696 76.5971C130.92 79.1405 132.548 82.0504 133.602 85.2353L136.766 94.9961C137.729 97.9518 139.219 100.633 141.213 102.993L172.117 139.538C172.117 139.538 172.208 139.699 172.208 139.791V217.533C172.208 217.694 172.117 217.831 171.956 217.877C171.91 217.877 171.865 217.9 171.819 217.9H171.773ZM85.0693 114.724L171.406 216.502V139.928L140.594 103.474C138.531 101.045 136.995 98.2497 136.009 95.2252L132.846 85.4644C131.837 82.3711 130.232 79.5529 128.1 77.0784L114.276 61.2457C112.74 59.4814 110.493 58.4732 108.155 58.4732H104.968C103.432 58.4732 101.988 57.8087 101.002 56.6172L88.0954 41.6782L85.0922 38.1267V114.701L85.0693 114.724Z" fill="#242224"/>
    <mask id="mask2_7410_21127" style="mask-type:luminance" maskUnits="userSpaceOnUse" x="171" y="137" width="14" height="81">
        <path d="M184.038 137.478L171.773 139.792V217.512L184.038 213.892V137.478Z" fill="white"/>
    </mask>
    <g mask="url(#mask2_7410_21127)">
        <path d="M261.92 -52.0332H-31.8223V241.548H261.92V-52.0332Z" fill="#33B0FF"/>
    </g>
    <path d="M171.774 217.901C171.774 217.901 171.614 217.878 171.545 217.832C171.453 217.763 171.385 217.649 171.385 217.534V139.791C171.385 139.608 171.522 139.447 171.683 139.425L183.925 137.11C183.925 137.11 184.154 137.11 184.223 137.179C184.315 137.248 184.361 137.362 184.361 137.477V213.914C184.361 214.074 184.246 214.235 184.085 214.28L171.843 217.901C171.843 217.901 171.774 217.901 171.729 217.901H171.774ZM172.141 140.112V217.03L183.65 213.639V137.935L172.141 140.112Z" fill="#242224"/>
    <path d="M70.3488 118.01C70.9193 118.226 72.8273 118.344 73.4175 118.206C73.6338 119.307 73.3191 119.897 72.1782 120.526C71.7651 120.585 71.352 120.742 70.9586 120.664C70.1521 120.526 69.68 120.919 69.2669 121.509C69.1096 121.726 68.9522 121.942 68.8145 122.158C68.7161 122.335 68.5981 122.414 68.362 122.414C67.3588 122.355 66.8278 123.22 67.2999 124.104C67.3785 124.222 67.4375 124.321 67.3195 124.458C67.0638 124.773 66.8671 125.146 66.5327 125.402C65.2737 124.517 64.7426 122.885 65.2344 121.293C65.3327 120.959 65.4901 120.624 65.6081 120.29C66.0606 119.012 66.9261 118.246 68.2834 118.088C68.3424 118.088 68.4014 118.088 68.421 118.01H70.3685H70.3488Z" fill="#FCF8F2"/>
    <path d="M66.5328 125.677C66.5328 125.677 66.4345 125.677 66.3755 125.618C64.9985 124.655 64.4477 122.925 64.9788 121.214C65.0378 120.998 65.1165 120.801 65.1952 120.605C65.2542 120.467 65.2935 120.349 65.3525 120.212C65.8443 118.816 66.8082 118.01 68.2048 117.833C68.2638 117.774 68.3229 117.734 68.4016 117.734H70.349C70.349 117.734 70.4079 117.734 70.4473 117.734C70.9784 117.931 72.8275 118.049 73.3586 117.931C73.4373 117.931 73.4963 117.931 73.5749 117.97C73.6339 118.01 73.6733 118.069 73.693 118.147C73.9291 119.366 73.5553 120.074 72.316 120.762C72.2964 120.762 72.257 120.782 72.2373 120.801C72.139 120.801 72.0209 120.841 71.9226 120.86C71.6079 120.939 71.2735 120.998 70.9194 120.939C70.3293 120.841 69.9359 121.037 69.4834 121.686L69.3457 121.883C69.2474 122.04 69.1294 122.178 69.0507 122.335C68.9326 122.512 68.7753 122.748 68.3622 122.708C67.9884 122.708 67.6737 122.826 67.5163 123.082C67.359 123.337 67.3786 123.672 67.5557 124.006C67.6343 124.163 67.772 124.379 67.5557 124.655C67.477 124.753 67.3983 124.851 67.3393 124.95C67.1623 125.186 66.9852 125.441 66.7098 125.638C66.6705 125.677 66.6115 125.697 66.5525 125.697L66.5328 125.677ZM68.5392 118.285C68.5392 118.285 68.3622 118.364 68.3032 118.364C67.0836 118.521 66.2771 119.189 65.8443 120.388C65.805 120.526 65.746 120.664 65.687 120.801C65.6083 120.998 65.5296 121.175 65.4903 121.371C65.0575 122.787 65.4706 124.203 66.5328 125.048C66.6705 124.91 66.7688 124.773 66.8869 124.615C66.9655 124.517 67.0442 124.399 67.1229 124.301C67.1229 124.301 67.1229 124.301 67.1033 124.262C66.8082 123.731 66.8082 123.18 67.0639 122.767C67.3393 122.354 67.8311 122.138 68.4016 122.158C68.5196 122.158 68.5392 122.158 68.6179 122.04C68.7163 121.883 68.8343 121.706 68.9523 121.548L69.09 121.352C69.4637 120.801 70.0539 120.212 71.0571 120.388C71.3128 120.428 71.5686 120.388 71.844 120.31C71.9423 120.29 72.0406 120.271 72.139 120.251C73.0635 119.74 73.3389 119.288 73.2406 118.481C72.4537 118.56 70.9391 118.442 70.349 118.246H68.5589L68.5392 118.285Z" fill="#242224"/>
    <path d="M86.142 150.429C86.6141 150.96 87.1256 151.412 87.8141 151.687C88.8173 152.1 89.7418 152.65 90.6073 153.299C90.804 153.456 91.0007 153.614 91.1384 153.81V154.085C90.863 154.243 90.568 154.184 90.2729 154.125C89.6435 154.007 89.0337 153.85 88.3845 153.889C87.9518 153.909 87.8337 154.066 87.9518 154.498C87.9911 154.656 88.0501 154.813 88.0698 154.97C88.0895 155.127 88.0698 155.304 87.9124 155.403C87.755 155.501 87.6174 155.363 87.519 155.265C87.3223 155.068 87.1256 154.872 86.9485 154.656C86.7912 154.479 86.6535 154.282 86.5158 154.085C85.9257 153.181 85.3552 152.237 84.293 151.785C84.8634 151.294 85.4929 150.861 86.142 150.448V150.429Z" fill="#FCF8F2"/>
    <path d="M87.8139 155.698C87.5976 155.698 87.4402 155.54 87.3615 155.462C87.1451 155.246 86.9484 155.049 86.7517 154.813C86.5747 154.616 86.4369 154.42 86.2992 154.223L86.2206 154.105C85.6698 153.24 85.1387 152.434 84.1945 152.021C84.1158 151.982 84.0568 151.903 84.0371 151.825C84.0371 151.726 84.0568 151.648 84.1355 151.589C84.6469 151.156 85.237 150.704 86.0042 150.213C86.1222 150.134 86.2599 150.154 86.3583 150.252C86.8697 150.842 87.3615 151.215 87.932 151.451C88.8762 151.844 89.8006 152.375 90.7842 153.083C91.0202 153.26 91.217 153.456 91.3744 153.653C91.4137 153.692 91.4334 153.751 91.4334 153.81V154.086C91.4334 154.086 91.3743 154.263 91.2957 154.322C90.9416 154.538 90.5875 154.459 90.2924 154.4L89.9384 154.322C89.4269 154.223 88.9155 154.125 88.4237 154.145C88.2467 154.145 88.2074 154.184 88.1877 154.184C88.1877 154.184 88.1877 154.243 88.227 154.4C88.227 154.459 88.2663 154.518 88.2663 154.557C88.3057 154.675 88.3254 154.774 88.345 154.892C88.3844 155.187 88.286 155.462 88.05 155.599C87.9713 155.658 87.8729 155.678 87.8139 155.678V155.698ZM84.7846 151.726C85.6501 152.218 86.1616 153.024 86.673 153.81L86.7517 153.928C86.8697 154.105 87.0074 154.282 87.1648 154.459C87.3418 154.675 87.5188 154.872 87.7155 155.049C87.7549 155.088 87.7942 155.128 87.8336 155.147C87.8336 155.128 87.8336 155.049 87.8336 154.99C87.8336 154.911 87.7942 154.813 87.7746 154.734C87.7746 154.675 87.7352 154.597 87.7155 154.538C87.6565 154.341 87.6369 154.066 87.7746 153.869C87.9319 153.673 88.1877 153.633 88.404 153.614C88.9745 153.574 89.5253 153.692 90.0564 153.791L90.3515 153.85C90.5875 153.889 90.7449 153.928 90.8826 153.889C90.7646 153.751 90.6269 153.633 90.4498 153.496C89.5056 152.808 88.6007 152.277 87.7155 151.923C87.1254 151.687 86.614 151.314 86.1026 150.763C85.5911 151.097 85.178 151.412 84.7846 151.707V151.726Z" fill="#242224"/>
    <path d="M68.8721 127.76C69.2262 127.8 69.5803 127.819 69.9343 127.859C70.5245 127.898 70.7605 128.154 70.7409 128.743C70.7015 129.667 70.5834 130.591 70.6228 131.535C70.6228 131.712 70.6228 131.889 70.7015 132.046C70.5441 132.538 70.7015 133.01 70.7015 133.482C70.7802 134.622 70.9572 135.762 71.2129 136.883C71.8227 139.655 73.0226 142.171 74.3996 144.629C74.6947 145.16 75.0684 145.671 75.2454 146.261C75.9732 147.637 76.406 149.072 75.9732 150.645C75.7765 151.352 75.3241 151.903 74.8717 152.434C74.1242 153.142 73.2783 153.712 72.4128 154.262C70.308 155.383 68.1049 156.248 65.7248 156.602C64.1314 156.838 62.5578 156.936 61.0235 156.248C60.0399 155.717 59.6858 154.754 59.3514 153.771C58.899 152.493 58.7023 151.176 58.6826 149.819C58.5056 149.819 58.5449 149.957 58.5252 150.055C58.1711 151.156 57.7778 152.237 57.5024 153.358C57.227 154.439 56.6368 155.245 55.7123 155.855C55.3386 156.11 54.9058 156.307 54.6894 156.739C54.5911 156.936 54.414 156.779 54.296 156.818C53.5288 156.503 52.7027 156.346 51.8962 156.13C51.8765 155.717 51.7585 155.324 51.5421 154.95C50.8733 153.83 50.952 152.65 51.1684 151.431C51.8372 147.637 52.8207 143.96 54.4927 140.481C56.5778 136.096 59.5088 132.4 63.5019 129.589C63.8363 129.353 64.0527 129.117 64.0134 128.704C64.0134 128.527 64.033 128.35 64.0527 128.173C64.1117 127.76 64.3675 127.505 64.8002 127.505C65.233 127.505 65.6657 127.544 66.0788 127.564C67.0033 127.623 67.9476 127.682 68.8721 127.741V127.76Z" fill="#FCF8F2"/>
    <path d="M54.5331 157.112C54.5331 157.112 54.4151 157.112 54.3757 157.112C54.3167 157.132 54.238 157.112 54.1593 157.112C53.6479 156.896 53.0971 156.759 52.5267 156.621C52.271 156.562 52.0349 156.503 51.7792 156.424C51.6611 156.385 51.5825 156.306 51.5825 156.188C51.5628 155.776 51.4644 155.441 51.2677 155.127C50.5202 153.868 50.6579 152.551 50.8546 151.411C51.6021 147.164 52.6841 143.567 54.1987 140.401C56.3822 135.821 59.4312 132.124 63.3063 129.411C63.621 129.175 63.7194 129.038 63.6997 128.763C63.6997 128.586 63.6997 128.428 63.739 128.291V128.192C63.8374 127.622 64.2111 127.288 64.7619 127.288C65.057 127.288 65.3717 127.308 65.6668 127.327L68.8731 127.544H69.1485C69.4042 127.603 69.6796 127.622 69.9354 127.642C70.6632 127.701 70.9976 128.075 70.9779 128.802C70.9779 129.117 70.9386 129.451 70.9189 129.765C70.8796 130.355 70.8402 130.965 70.8599 131.574V131.692C70.8599 131.81 70.8599 131.908 70.8992 131.987C70.9386 132.046 70.9386 132.124 70.8992 132.183C70.8009 132.478 70.8402 132.793 70.8992 133.127C70.8992 133.265 70.9385 133.402 70.9385 133.54C70.9976 134.562 71.1746 135.624 71.45 136.902C72.1188 139.89 73.4958 142.564 74.617 144.569C74.6957 144.707 74.7744 144.825 74.8531 144.962C75.0891 145.356 75.3448 145.788 75.4825 146.26C76.0726 147.381 76.7021 148.953 76.2104 150.782C75.994 151.568 75.4825 152.158 75.0497 152.669C74.2432 153.436 73.358 154.026 72.5319 154.537C70.1124 155.815 67.9093 156.601 65.7455 156.916C64.1718 157.152 62.4998 157.27 60.9065 156.542C59.8049 155.933 59.4114 154.871 59.077 153.927C58.7623 153.043 58.5656 152.099 58.4672 151.057V151.116C58.1919 151.883 57.9361 152.669 57.7197 153.456C57.4247 154.576 56.8149 155.441 55.8314 156.11C55.7527 156.169 55.674 156.208 55.5953 156.267C55.3003 156.444 55.0445 156.621 54.9068 156.896C54.8085 157.093 54.6511 157.132 54.5134 157.132L54.5331 157.112ZM54.3364 156.542C54.3364 156.542 54.4347 156.542 54.4741 156.542C54.6904 156.149 55.0249 155.952 55.3396 155.756C55.4183 155.717 55.497 155.658 55.556 155.618C56.4215 155.028 56.9723 154.262 57.228 153.279C57.4444 152.473 57.7001 151.667 57.9558 150.9C58.0542 150.585 58.1525 150.271 58.2509 149.976C58.2902 149.642 58.5066 149.563 58.664 149.563C58.723 149.524 58.8017 149.583 58.8607 149.642C58.9197 149.701 58.9394 149.76 58.9394 149.838C58.9787 151.293 59.1951 152.551 59.5885 153.711C59.9032 154.616 60.2376 155.54 61.1425 156.031C62.5981 156.7 64.1718 156.582 65.6668 156.365C67.7716 156.051 69.9157 155.284 72.2565 154.045C73.0433 153.554 73.8892 152.984 74.6564 152.256C75.0694 151.765 75.5022 151.254 75.6989 150.585C76.053 149.288 75.8366 148.01 74.9907 146.398C74.853 145.926 74.6367 145.572 74.4006 145.179C74.3219 145.041 74.2433 144.904 74.1646 144.766C73.0237 142.741 71.627 140.008 70.9385 136.961C70.6435 135.663 70.4862 134.582 70.4271 133.52C70.4271 133.402 70.4074 133.265 70.3878 133.147C70.3484 132.813 70.3091 132.459 70.3878 132.085C70.3287 131.928 70.3288 131.79 70.3288 131.653V131.554C70.3091 130.925 70.3287 130.296 70.3878 129.687C70.4074 129.372 70.4271 129.058 70.4468 128.743C70.4468 128.31 70.3484 128.173 69.896 128.134C69.6403 128.114 69.3649 128.094 69.1092 128.055H68.8338L65.6471 127.819C65.352 127.819 65.057 127.78 64.7816 127.78C64.5062 127.78 64.3488 127.917 64.3095 128.212V128.33C64.2701 128.468 64.2505 128.586 64.2702 128.684C64.3095 129.254 63.9948 129.569 63.6407 129.805C59.8442 132.478 56.8542 136.096 54.7101 140.578C53.2151 143.704 52.1529 147.263 51.4054 151.45C51.189 152.748 51.1497 153.81 51.7399 154.793C51.9366 155.127 52.0546 155.481 52.1136 155.893C52.2906 155.933 52.4873 155.992 52.6644 156.031C53.1955 156.169 53.7659 156.306 54.297 156.523H54.3167L54.3364 156.542Z" fill="#242224"/>
    <path d="M61.0237 156.267C62.5383 156.975 64.1316 156.876 65.725 156.621C68.1051 156.267 70.2886 155.382 72.413 154.281C72.413 154.439 72.413 154.576 72.413 154.733C72.177 156.483 71.941 158.213 71.7246 159.963C71.4492 162.145 71.0754 164.308 70.564 166.451C70.2296 167.847 69.8362 169.243 69.069 170.501C68.7346 171.051 68.3215 171.562 68.0461 172.152C67.633 172.526 67.3576 172.998 67.0232 173.43C65.1742 175.868 63.1874 178.208 61.1613 180.488C59.45 182.434 57.6993 184.341 55.9879 186.288C55.7322 186.583 55.5748 186.622 55.2994 186.288C53.7848 184.459 52.2308 182.651 50.6768 180.822C50.6178 180.744 50.5194 180.685 50.4604 180.606C49.8899 179.8 49.2408 179.053 48.5524 178.345C48.1196 177.716 48.1392 177.716 48.69 177.126C51.6013 174.02 54.5126 170.894 57.4042 167.768C58.1714 166.942 58.8992 166.058 59.686 165.212C60.1778 164.681 60.4335 164.072 60.4925 163.345C60.5712 162.185 60.6892 161.025 60.7679 159.865C60.8466 158.783 60.9056 157.682 60.9647 156.601C60.9647 156.483 61.0236 156.365 61.0433 156.267H61.0237Z" fill="#FCF8F2"/>
    <path d="M55.6342 186.799C55.3982 186.799 55.2408 186.622 55.1031 186.465C53.8835 184.99 52.6443 183.535 51.405 182.08L50.5002 181.019C50.5002 181.019 50.4215 180.94 50.3821 180.901L50.3034 180.842C49.7133 180.055 49.1035 179.308 48.3954 178.561C47.8839 177.795 47.8839 177.657 48.5134 176.989C51.4443 173.843 54.3556 170.737 57.2472 167.611C57.621 167.217 57.975 166.805 58.3291 166.392C58.7225 165.94 59.116 165.487 59.5291 165.055C59.9815 164.583 60.2175 164.033 60.2569 163.364C60.2962 162.755 60.3552 162.126 60.3946 161.516C60.4339 160.966 60.493 160.415 60.5323 159.865C60.5716 159.216 60.611 158.567 60.6503 157.918C60.67 157.466 60.7093 157.034 60.729 156.581C60.729 156.483 60.7683 156.365 60.788 156.286V156.188C60.788 156.188 60.8864 156.051 60.9651 156.011C61.0437 155.972 61.1224 155.972 61.2011 156.011C62.6764 156.699 64.2501 156.581 65.7451 156.346C67.8498 156.031 69.994 155.264 72.3348 154.026C72.4135 153.986 72.5118 153.986 72.6102 154.026C72.6888 154.085 72.7478 154.163 72.7282 154.261V154.399C72.7282 154.517 72.7282 154.635 72.7282 154.733L72.4724 156.68C72.3151 157.781 72.1774 158.882 72.0397 159.983C71.7446 162.342 71.3512 164.485 70.8595 166.51C70.5251 167.866 70.1513 169.321 69.3448 170.638C69.2268 170.835 69.1087 171.012 68.971 171.208C68.735 171.562 68.499 171.897 68.3416 172.27C68.3416 172.309 68.3023 172.329 68.2826 172.368C68.0072 172.604 67.8105 172.899 67.5744 173.214C67.4761 173.351 67.3974 173.469 67.2991 173.607C65.6861 175.73 63.8763 177.913 61.4174 180.685C60.4929 181.727 59.5684 182.769 58.6439 183.791C57.8373 184.676 57.0505 185.58 56.244 186.484C56.0866 186.661 55.9293 186.819 55.6932 186.819L55.6342 186.799ZM61.2011 156.64C61.1814 157.073 61.1421 157.525 61.1224 157.958C61.0831 158.606 61.0437 159.255 61.0044 159.904C60.965 160.454 60.9257 161.005 60.8667 161.555C60.8077 162.165 60.7683 162.774 60.729 163.384C60.6699 164.19 60.3946 164.839 59.8635 165.409C59.4504 165.841 59.0766 166.293 58.6832 166.726C58.3292 167.139 57.9554 167.552 57.5817 167.945C54.6901 171.071 51.7787 174.177 48.8674 177.303C48.5921 177.591 48.5527 177.886 48.7494 178.188C49.4576 178.915 50.0871 179.662 50.6379 180.449H50.6772C50.6772 180.449 50.7952 180.586 50.8542 180.645L51.7591 181.707C52.9983 183.162 54.2376 184.617 55.4572 186.091C55.5359 186.189 55.5752 186.229 55.5949 186.229C55.5949 186.229 55.6343 186.189 55.7326 186.091C56.5194 185.187 57.3259 184.302 58.1325 183.398C59.057 182.356 59.9815 181.333 60.906 180.291C63.3452 177.519 65.1549 175.357 66.7679 173.233C66.8663 173.116 66.945 172.998 67.0433 172.86C67.2597 172.545 67.4958 172.231 67.7908 171.956C67.9679 171.562 68.2039 171.208 68.4399 170.874C68.558 170.697 68.676 170.52 68.794 170.324C69.5612 169.085 69.935 167.67 70.2497 166.352C70.7415 164.347 71.1152 162.224 71.4103 159.884C71.548 158.783 71.7053 157.682 71.843 156.581L72.0987 154.694C69.8562 155.834 67.7711 156.542 65.7451 156.857C64.2697 157.093 62.7157 157.211 61.2011 156.601V156.64Z" fill="#242224"/>
    <path d="M68.0293 172.153C68.3047 171.564 68.7178 171.052 69.0522 170.502C69.8193 169.244 70.1931 167.868 70.5472 166.452C71.0586 164.309 71.4323 162.147 71.7077 159.964C71.9241 158.215 72.1798 156.484 72.3962 154.735C72.3962 154.597 72.3962 154.44 72.3962 154.282C73.2617 153.732 74.1076 153.162 74.8551 152.454C75.7796 156.74 76.7238 161.026 77.6483 165.312C79.222 172.547 80.776 179.782 82.3497 187.016C82.448 187.449 82.4283 187.665 81.9169 187.606C81.8776 187.606 81.8382 187.646 81.7989 187.665C80.9334 187.705 80.0482 187.764 79.2023 187.96C78.1401 187.96 77.0778 188.157 76.0353 188.275C74.501 188.432 72.9667 188.589 71.452 188.766C71.0783 188.806 70.9799 188.668 70.9209 188.353C70.4882 185.857 70.016 183.36 69.5832 180.843C69.0915 178.071 68.5801 175.299 68.0883 172.507C68.0686 172.389 68.0686 172.271 68.0489 172.153H68.0293Z" fill="#FCF8F2"/>
    <path d="M71.3319 189.041C70.8205 189.041 70.7024 188.668 70.6434 188.392C70.2893 186.446 69.9549 184.48 69.6009 182.534L67.8108 172.566C67.8108 172.566 67.7912 172.389 67.7715 172.311V172.212C67.7715 172.212 67.7715 172.114 67.7715 172.075C67.9682 171.662 68.2042 171.288 68.4403 170.934C68.5583 170.757 68.6763 170.58 68.7943 170.384C69.5615 169.145 69.9353 167.73 70.25 166.413C70.7418 164.407 71.1155 162.284 71.4106 159.944C71.5483 158.843 71.7057 157.742 71.8434 156.641L72.099 154.695C72.099 154.695 72.099 154.518 72.099 154.42V154.282C72.099 154.282 72.1384 154.105 72.2171 154.066C73.0236 153.555 73.8694 152.985 74.6366 152.277C74.7153 152.218 74.8136 152.179 74.8923 152.218C74.9907 152.238 75.0497 152.316 75.0693 152.415L78.9445 170.246C80.1444 175.83 81.364 181.413 82.5836 186.977C82.6426 187.232 82.682 187.527 82.5049 187.724C82.3475 187.901 82.1115 187.901 81.9344 187.901L81.8951 187.921C81.8558 187.921 81.8361 187.94 81.7968 187.94C80.9116 187.98 80.0657 188.039 79.2396 188.215C78.4724 188.215 77.7446 188.314 77.0561 188.412C76.7217 188.451 76.3676 188.491 76.0332 188.53C74.3808 188.687 72.8859 188.864 71.4499 189.022C71.3909 189.022 71.3516 189.022 71.3122 189.022L71.3319 189.041ZM68.3026 172.212V172.252C68.3026 172.252 68.3026 172.389 68.342 172.468L70.1319 182.435C70.486 184.382 70.8402 186.348 71.1746 188.294C71.2139 188.53 71.2336 188.51 71.4106 188.491C72.8466 188.314 74.3415 188.156 75.9939 187.999C76.3283 187.96 76.6627 187.921 76.9971 187.881C77.7053 187.803 78.4527 187.704 79.1805 187.685C79.9674 187.508 80.8329 187.449 81.6984 187.409C81.7574 187.37 81.8165 187.35 81.9148 187.35C82.0525 187.35 82.0919 187.35 82.1115 187.35C82.1115 187.35 82.1115 187.272 82.0525 187.075C80.8329 181.492 79.633 175.928 78.4134 170.345L74.6366 152.965C73.9874 153.535 73.2793 154.007 72.6105 154.42C72.6105 154.538 72.6105 154.636 72.6105 154.754L72.3548 156.7C72.1974 157.801 72.0597 158.902 71.922 160.003C71.6269 162.363 71.2336 164.505 70.7418 166.53C70.4074 167.887 70.0336 169.342 69.2271 170.659C69.1091 170.856 68.9911 171.033 68.8534 171.229C68.637 171.563 68.4206 171.878 68.2436 172.212H68.3026Z" fill="#242224"/>
    <path d="M75.2452 146.282C75.0878 145.672 74.6944 145.181 74.3993 144.65C73.0224 142.192 71.8225 139.676 71.2127 136.904C70.957 135.783 70.7799 134.662 70.7012 133.503C70.6619 133.031 70.5242 132.539 70.7012 132.067C72.4322 135.154 74.8911 137.592 77.5664 139.853C79.6908 141.661 81.8743 143.392 84.0184 145.161C84.6675 145.692 85.2773 146.301 85.8084 146.95C86.4575 147.756 86.6739 148.621 86.2412 149.584C86.1231 149.86 86.1625 150.155 86.1625 150.43C85.5134 150.843 84.9036 151.275 84.3135 151.767C82.9758 151.806 81.6382 152.16 80.4186 151.177C78.7072 149.761 77.1336 148.208 75.6583 146.557C75.5403 146.439 75.4812 146.223 75.2452 146.262V146.282Z" fill="#FCF8F2"/>
    <path d="M82.5626 152.139C81.7758 152.139 80.989 152.002 80.2415 151.392C78.6088 150.055 77.0351 148.522 75.4615 146.733C75.4221 146.693 75.4024 146.654 75.3828 146.615C75.3631 146.575 75.3237 146.536 75.3041 146.517C75.1664 146.536 75.0287 146.458 74.9893 146.32C74.8713 145.907 74.655 145.534 74.4189 145.16C74.3402 145.022 74.2616 144.885 74.1829 144.747C73.042 142.722 71.6453 139.989 70.9568 136.942C70.6618 135.644 70.5044 134.563 70.4454 133.502C70.4454 133.384 70.4257 133.246 70.4061 133.128C70.3667 132.754 70.3077 132.381 70.4454 131.968C70.4847 131.87 70.5635 131.791 70.6815 131.771C70.7798 131.771 70.8978 131.811 70.9372 131.909C72.8059 135.212 75.5598 137.768 77.7433 139.635C79.0612 140.756 80.4382 141.877 81.7561 142.958C82.5626 143.626 83.3691 144.275 84.1756 144.944C84.8641 145.514 85.4739 146.123 86.005 146.772C86.7722 147.716 86.9296 148.699 86.4772 149.701C86.3985 149.859 86.4181 150.036 86.4181 150.232C86.4181 150.311 86.4181 150.37 86.4181 150.449C86.4181 150.547 86.3787 150.625 86.3001 150.665C85.5526 151.137 84.9822 151.569 84.4904 151.982C84.451 152.021 84.392 152.041 84.333 152.041C84.0773 152.041 83.8216 152.061 83.5659 152.08C83.2314 152.1 82.897 152.139 82.5626 152.139ZM75.4615 146.005C75.6385 146.064 75.7565 146.222 75.8155 146.3C75.8155 146.32 75.8549 146.34 75.8745 146.379C77.4285 148.148 78.9825 149.662 80.5955 150.979C81.5004 151.707 82.484 151.648 83.5265 151.569C83.7626 151.569 83.9986 151.53 84.215 151.53C84.6871 151.137 85.2182 150.743 85.887 150.311C85.887 150.311 85.887 150.291 85.887 150.272C85.887 150.036 85.8674 149.78 85.9854 149.505C86.3395 148.679 86.2214 147.912 85.5919 147.146C85.0805 146.516 84.51 145.927 83.8412 145.396C83.0347 144.727 82.2282 144.079 81.4217 143.41C80.1038 142.329 78.7268 141.208 77.3892 140.088C75.3434 138.358 72.8059 136.018 70.9372 133.01C70.9372 133.049 70.9372 133.069 70.9372 133.108C70.9372 133.246 70.9765 133.384 70.9765 133.521C71.0355 134.544 71.2125 135.605 71.4879 136.883C72.1567 139.871 73.5337 142.545 74.655 144.551C74.7337 144.688 74.8123 144.806 74.891 144.944C75.1074 145.298 75.3238 145.651 75.4615 146.064V146.005Z" fill="#242224"/>
    <path d="M68.8734 127.761C67.9488 127.702 67.0046 127.643 66.0801 127.584C66.2374 126.857 66.3752 126.129 66.5325 125.422C66.8669 125.166 67.0636 124.792 67.3193 124.478C67.4374 124.34 67.3587 124.262 67.2997 124.124C66.8079 123.239 67.3587 122.394 68.3619 122.433C68.598 122.433 68.716 122.374 68.8144 122.178C68.952 121.942 69.1094 121.745 69.2668 121.529C69.6799 120.939 70.1716 120.526 70.9585 120.684C71.3716 120.762 71.7846 120.605 72.178 120.546C72.5911 121.313 72.7092 122.158 72.7878 123.023C72.9059 124.36 72.9059 125.716 72.4141 126.994C72.0994 127.781 71.7846 127.958 70.9388 127.8C70.1716 127.663 69.5029 127.289 68.775 126.935C68.8144 127.25 68.834 127.506 68.8537 127.781L68.8734 127.761Z" fill="#FCF8F2"/>
    <path d="M71.4106 128.115C71.2533 128.115 71.0959 128.115 70.9189 128.075C70.2697 127.957 69.6992 127.702 69.1091 127.407L69.1484 127.761C69.1484 127.761 69.1485 127.918 69.0698 127.977C69.0108 128.036 68.9517 128.056 68.8534 128.056L66.0602 127.879C66.0602 127.879 65.9028 127.839 65.8634 127.781C65.8241 127.722 65.8045 127.643 65.8241 127.564L66.2765 125.382C66.2765 125.382 66.3356 125.264 66.3749 125.225C66.5716 125.087 66.7289 124.871 66.8863 124.655C66.965 124.556 67.0437 124.438 67.1223 124.34C67.1223 124.34 67.1224 124.34 67.1027 124.301C66.8077 123.77 66.8076 123.219 67.0633 122.807C67.3387 122.394 67.8305 122.177 68.401 122.197C68.519 122.197 68.5387 122.197 68.6174 122.079C68.7157 121.922 68.8338 121.745 68.9518 121.588L69.0894 121.391C69.4632 120.841 70.0533 120.251 71.0565 120.428C71.3122 120.467 71.568 120.428 71.8434 120.349C71.9614 120.329 72.0794 120.31 72.1778 120.29C72.2958 120.29 72.3942 120.329 72.4532 120.428C72.9056 121.273 73.0236 122.197 73.1023 123.003C73.2007 124.242 73.24 125.697 72.7089 127.092C72.4335 127.82 72.0794 128.115 71.45 128.115H71.4106ZM68.7944 126.66C68.7944 126.66 68.8731 126.66 68.9124 126.699L69.1484 126.817C69.7779 127.132 70.3681 127.446 71.0172 127.545C71.745 127.682 71.9417 127.564 72.1975 126.896C72.6892 125.598 72.6695 124.222 72.5515 123.042C72.4925 122.315 72.3942 121.548 72.0597 120.841C72.0204 120.841 71.9811 120.841 71.9417 120.86C71.627 120.939 71.2926 120.998 70.9385 120.939C70.3484 120.841 69.955 121.037 69.5026 121.686L69.3649 121.882C69.2665 122.04 69.1485 122.177 69.0698 122.335C68.9518 122.512 68.7944 122.748 68.3813 122.708C68.0076 122.708 67.6928 122.826 67.5355 123.082C67.3781 123.337 67.3978 123.672 67.5748 124.006C67.6535 124.163 67.7912 124.379 67.5748 124.655C67.4961 124.753 67.4175 124.851 67.3584 124.95C67.2011 125.166 67.0437 125.382 66.8273 125.579L66.4535 127.348L68.637 127.486L68.578 126.955C68.578 126.955 68.6174 126.758 68.6961 126.699C68.7354 126.66 68.7944 126.66 68.8534 126.66H68.7944Z" fill="#242224"/>
    <path d="M48.395 181.825C48.7294 182.002 48.7097 182.375 48.8081 182.67C49.2015 183.988 49.5752 185.324 49.9293 186.661C50.0867 187.232 50.4014 187.723 50.7358 188.175C51.1489 188.706 51.0309 189.217 50.2834 189.571C50.126 189.65 50.008 189.61 49.89 189.492C49.1228 188.568 48.3556 187.625 47.5885 186.701C46.7426 185.698 45.9165 184.695 45.0706 183.693C44.5592 183.083 44.0477 182.474 43.5166 181.884C43.3789 181.727 43.4379 181.609 43.5363 181.451C44.0084 180.763 44.6575 180.331 45.4247 180.056C45.7197 179.957 45.8772 180.193 46.0935 180.311C46.0542 180.98 46.4476 181.392 46.9197 181.786C47.3918 182.159 47.8835 182.159 48.395 181.825Z" fill="#FCF8F2"/>
    <path d="M50.1266 189.886C49.9692 189.886 49.8119 189.807 49.6938 189.67L49.2414 189.119C48.6316 188.372 48.0022 187.625 47.3727 186.878C46.5269 185.875 45.7007 184.873 44.8548 183.87C44.3434 183.26 43.8319 182.651 43.3008 182.061C43.0058 181.727 43.2221 181.432 43.3008 181.314C43.7729 180.606 44.4417 180.115 45.3269 179.82C45.7007 179.702 45.9367 179.879 46.0941 180.017C46.1335 180.056 46.1728 180.076 46.2121 180.095C46.2908 180.154 46.3498 180.252 46.3301 180.351C46.2908 180.862 46.5859 181.216 47.058 181.589C47.4317 181.884 47.7858 181.904 48.1988 181.629C48.2775 181.57 48.3956 181.57 48.4743 181.629C48.848 181.825 48.9267 182.179 48.966 182.435C48.966 182.494 48.9857 182.572 49.0054 182.631C49.3791 183.89 49.7332 185.167 50.0873 186.445L50.1463 186.642C50.3037 187.212 50.638 187.704 50.9134 188.057C51.2282 188.47 51.2282 188.805 51.1692 189.021C51.0905 189.355 50.8151 189.65 50.3626 189.866C50.2643 189.906 50.166 189.925 50.0873 189.925L50.1266 189.886ZM45.5826 180.292C45.5826 180.292 45.5433 180.292 45.5236 180.292C44.7565 180.547 44.186 180.98 43.7729 181.589C43.7336 181.648 43.7139 181.668 43.7139 181.688C44.245 182.297 44.7762 182.887 45.2876 183.496C46.1334 184.499 46.9793 185.502 47.8055 186.504C48.4349 187.251 49.0447 187.998 49.6742 188.746L50.1266 189.296C50.5004 189.158 50.6774 189.001 50.7167 188.824C50.756 188.687 50.6971 188.51 50.5594 188.313C50.2643 187.92 49.8906 187.369 49.6938 186.701L49.6348 186.504C49.2808 185.246 48.9267 183.968 48.553 182.71C48.5333 182.631 48.5136 182.553 48.4939 182.474C48.4546 182.317 48.4349 182.199 48.3759 182.12C47.8251 182.415 47.2744 182.356 46.7629 181.963C46.2711 181.57 45.8384 181.118 45.8187 180.429C45.8187 180.429 45.799 180.41 45.7794 180.39C45.6613 180.311 45.622 180.272 45.563 180.272L45.5826 180.292Z" fill="#242224"/>
    <path d="M82.4269 188.805C82.781 188.647 83.0564 188.903 83.3318 189.021C84.6104 189.552 85.889 190.102 87.148 190.653C87.6791 190.889 88.2692 190.948 88.8396 190.967C89.5084 190.987 89.8428 191.4 89.6461 192.206C89.6068 192.383 89.5084 192.442 89.3314 192.461C88.1315 192.461 86.9119 192.481 85.712 192.501C84.394 192.501 83.0958 192.54 81.7778 192.579C80.991 192.579 80.1845 192.619 79.3977 192.638C79.1813 192.638 79.1223 192.52 79.0829 192.343C78.8469 191.557 78.9059 190.771 79.1812 190.004C79.2993 189.709 79.5747 189.729 79.791 189.65C80.2828 190.102 80.8533 190.063 81.4631 189.925C82.0729 189.788 82.3679 189.414 82.4269 188.805Z" fill="#FCF8F2"/>
    <path d="M79.3783 192.893C78.9652 192.893 78.8669 192.579 78.8275 192.421C78.5915 191.615 78.6308 190.79 78.9455 189.905C79.0832 189.551 79.3783 189.472 79.575 189.433C79.6144 189.433 79.6734 189.414 79.7127 189.394C79.8111 189.355 79.9094 189.394 79.9881 189.453C80.3618 189.807 80.8143 189.787 81.4044 189.669C81.8765 189.571 82.1126 189.296 82.1519 188.784C82.1519 188.686 82.2306 188.607 82.3092 188.568C82.7027 188.411 83.0174 188.568 83.2535 188.686C83.3125 188.725 83.3715 188.745 83.4305 188.765C84.7091 189.296 85.9877 189.846 87.2466 190.396C87.7974 190.632 88.3875 190.672 88.84 190.691C89.3514 190.691 89.6268 190.908 89.7448 191.085C89.9612 191.36 90.0006 191.753 89.9022 192.245C89.8432 192.539 89.6268 192.697 89.3317 192.697H87.7777C87.0893 192.716 86.4008 192.736 85.7123 192.736C84.3944 192.736 83.0961 192.775 81.7782 192.815C80.9913 192.815 80.1848 192.854 79.398 192.874C79.398 192.874 79.398 192.874 79.3783 192.874V192.893ZM79.7324 189.944H79.6734C79.4767 190.003 79.457 190.023 79.4176 190.102C79.1422 190.868 79.1029 191.576 79.3193 192.284C79.3193 192.343 79.3586 192.382 79.3586 192.402C80.1651 192.363 80.952 192.343 81.7585 192.323C83.0764 192.304 84.3747 192.264 85.6926 192.245C86.3811 192.245 87.0696 192.245 87.7581 192.225H89.3121L89.3711 192.166C89.4498 191.832 89.4301 191.596 89.3121 191.438C89.2137 191.321 89.0563 191.262 88.8203 191.242C88.3285 191.242 87.6598 191.183 87.0303 190.908C85.7714 190.357 84.4928 189.807 83.2141 189.276C83.1355 189.237 83.0567 189.197 82.9977 189.178C82.86 189.099 82.742 189.06 82.6437 189.04C82.5257 189.649 82.1323 190.043 81.5028 190.2C80.893 190.338 80.2635 190.396 79.7127 189.964L79.7324 189.944Z" fill="#242224"/>
    <path d="M51.8786 156.129C52.6851 156.345 53.5113 156.503 54.2785 156.817C54.2391 157.21 54.0031 157.564 53.9834 157.977C53.9441 158.685 54.1605 159.353 54.4359 159.982C54.5736 160.297 54.6916 160.612 54.8686 160.906C55.0063 161.182 54.8686 161.241 54.6522 161.26C54.4162 161.3 54.2195 161.201 54.0424 161.044C53.885 160.906 53.7473 160.749 53.6097 160.612C53.1376 160.159 52.8032 160.061 52.213 160.356C51.6426 160.631 51.0918 160.946 50.5214 161.241C49.7149 161.673 48.8887 161.811 48.0231 161.378C47.3937 161.064 47.3347 160.631 47.9051 160.199C48.8493 159.511 49.7738 158.803 50.659 158.036C51.2688 157.505 51.7803 156.935 51.8786 156.109V156.129Z" fill="#FCF8F2"/>
    <path d="M49.0637 161.949C48.6507 161.949 48.2572 161.851 47.8835 161.654C47.372 161.398 47.2344 161.084 47.2344 160.887C47.2344 160.671 47.2934 160.356 47.7458 160.042C48.7884 159.295 49.6735 158.587 50.48 157.879C51.0112 157.427 51.503 156.896 51.621 156.11C51.621 156.031 51.68 155.972 51.739 155.913C51.798 155.874 51.8767 155.854 51.9554 155.874C52.1914 155.933 52.4471 156.012 52.6832 156.071C53.2536 156.208 53.8241 156.365 54.3945 156.582C54.4929 156.621 54.5716 156.739 54.5519 156.857C54.5519 157.093 54.4535 157.289 54.3945 157.486C54.3355 157.663 54.2765 157.84 54.2569 157.997C54.2175 158.626 54.3946 159.216 54.6896 159.885C54.8077 160.16 54.9453 160.494 55.1027 160.789C55.142 160.868 55.2601 161.084 55.142 161.28C55.0437 161.497 54.788 161.516 54.6699 161.536C54.3946 161.575 54.1191 161.477 53.8437 161.261C53.7454 161.163 53.647 161.064 53.5487 160.966L53.3914 160.809C52.9979 160.415 52.7816 160.376 52.2898 160.612C51.8767 160.809 51.5029 161.025 51.1095 161.241L50.6178 161.516C50.067 161.811 49.5556 161.949 49.0441 161.949H49.0637ZM52.0734 156.483C51.8767 157.289 51.3259 157.84 50.8145 158.292C49.9883 159 49.0834 159.708 48.0409 160.474C47.8442 160.612 47.7458 160.75 47.7458 160.848C47.7458 160.946 47.8835 161.084 48.0999 161.182C48.7884 161.536 49.5162 161.497 50.362 161.045L50.8538 160.789C51.2472 160.573 51.6603 160.356 52.0734 160.16C52.7619 159.826 53.2143 159.924 53.7847 160.474L53.9421 160.632C53.9421 160.632 54.1191 160.809 54.2175 160.887C54.3552 161.005 54.4732 161.064 54.6109 161.045C54.4536 160.73 54.3159 160.415 54.1979 160.12C53.9421 159.511 53.6864 158.803 53.7257 157.997C53.7257 157.761 53.8241 157.545 53.8831 157.329C53.9225 157.231 53.9618 157.132 53.9815 157.014C53.529 156.837 53.057 156.719 52.5455 156.601C52.3882 156.562 52.2307 156.523 52.0734 156.483Z" fill="#242224"/>
    <path d="M48.395 181.826C47.9032 182.16 47.4114 182.16 46.9197 181.786C46.4476 181.413 46.0345 181 46.0935 180.312C46.9197 179.663 47.7262 179.014 48.5524 178.346C49.2409 179.053 49.8703 179.801 50.4604 180.607C49.7719 181 49.0835 181.413 48.4147 181.826H48.395Z" fill="#FCF8F2"/>
    <path d="M47.686 182.336C47.3713 182.336 47.0565 182.218 46.7811 181.982C46.2697 181.569 45.7976 181.078 45.8566 180.292C45.8566 180.213 45.8959 180.154 45.955 180.095L48.4138 178.129C48.5318 178.05 48.6695 178.05 48.7679 178.149C49.4957 178.915 50.1252 179.662 50.6956 180.449C50.735 180.508 50.7546 180.587 50.735 180.665C50.735 180.744 50.6759 180.803 50.6169 180.842L48.5712 182.041C48.2761 182.238 48.0007 182.336 47.7056 182.336H47.686ZM46.368 180.449C46.368 180.901 46.6631 181.216 47.0958 181.569C47.4696 181.864 47.8237 181.884 48.2368 181.609L50.0268 180.547C49.5744 179.938 49.0629 179.328 48.4925 178.719L46.3287 180.449H46.368Z" fill="#242224"/>
    <path d="M79.2207 187.958C80.0862 187.781 80.9517 187.722 81.8172 187.663C81.9352 188.174 82.0336 188.666 82.1516 189.177C82.2107 189.472 82.1516 189.649 81.8566 189.767C81.5419 189.885 81.2271 190.003 80.873 190.042C80.2239 190.121 79.7912 189.845 79.5945 189.216C79.4568 188.803 79.3387 188.371 79.2207 187.958Z" fill="#FCF8F2"/>
    <path d="M80.6762 190.318C80.0271 190.318 79.555 189.964 79.3386 189.296L78.9648 188.018C78.9648 188.018 78.9648 187.861 78.9845 187.802C79.0238 187.743 79.0829 187.684 79.1616 187.684C80.0271 187.507 80.9123 187.448 81.7974 187.389C81.9351 187.389 82.0531 187.467 82.0728 187.605L82.1712 188.037C82.2499 188.391 82.3286 188.745 82.4072 189.099C82.5253 189.65 82.2302 189.886 81.9351 190.003C81.64 190.121 81.286 190.239 80.8925 190.298C80.8139 190.298 80.7352 190.298 80.6565 190.298L80.6762 190.318ZM79.5549 188.155L79.85 189.138C80.0074 189.63 80.3221 189.827 80.8335 189.768C81.1679 189.728 81.4827 189.61 81.7384 189.512C81.8958 189.453 81.9154 189.394 81.8761 189.237C81.7974 188.883 81.7187 188.509 81.64 188.155L81.6007 187.939C80.9122 187.978 80.2238 188.037 79.5549 188.155Z" fill="#242224"/>
    <path d="M65.0958 107.672L68.0852 111.99C68.3494 112.371 68.9478 112.184 68.9478 111.72V106.753C68.9478 106.177 69.4581 105.735 70.0284 105.816L74.0258 106.387C76.5924 106.754 78.8887 104.762 78.8887 102.17V82.1607C78.8887 80.0306 77.3154 78.2278 75.2048 77.9395L35.2047 72.4761C32.6463 72.1267 30.3677 74.1152 30.3677 76.6973V93.4813C30.3677 95.4807 31.758 97.211 33.7104 97.6417L58.2021 103.044C61.0015 103.662 63.464 105.315 65.0958 107.672Z" fill="#FDFF8B" stroke="#221F20" stroke-width="0.574902" stroke-miterlimit="10"/>
    <path d="M66.1082 111.815L68.6591 112.208C68.9392 112.251 69.1941 112.04 69.2042 111.757L69.4219 105.661L66.3449 105.425L66.1082 111.815Z" fill="#FDFF8B" stroke="#221F20" stroke-width="0.574902" stroke-miterlimit="10"/>
    <path d="M62.7286 107.198L65.718 111.516C65.9822 111.898 66.5806 111.711 66.5806 111.247V106.28C66.5806 105.704 67.0909 105.261 67.6612 105.343L71.6586 105.914C74.2252 106.28 76.5215 104.289 76.5215 101.696V81.6871C76.5215 79.5569 74.9482 77.7542 72.8377 77.4659L32.8375 72.0025C30.2791 71.653 28.0005 73.6415 28.0005 76.2236V93.0077C28.0005 95.007 29.3908 96.7374 31.3432 97.1681L55.8349 102.571C58.6344 103.188 61.0968 104.841 62.7286 107.198Z" fill="#FDFF8B" stroke="#221F20" stroke-width="0.574902" stroke-miterlimit="10"/>
    <path d="M49.1809 92.1476C48.9605 92.1476 48.7675 91.9956 48.737 91.7773C48.705 91.5484 48.686 91.2989 48.686 91.0589C48.686 89.9464 49.0647 88.7393 50.4138 87.6979L51.5263 86.8458C52.047 86.4435 52.2837 85.9701 52.2837 85.4257C52.2837 84.6446 51.6919 83.9346 50.6505 83.9346C49.6564 83.9346 48.9464 84.7156 48.9464 85.7334C48.9464 85.7578 48.9465 85.7817 48.9468 85.8053C48.9513 86.1572 48.627 86.5618 48.2751 86.5618H45.5123C45.2918 86.5618 45.098 86.4097 45.0729 86.1907C45.0499 85.9892 45.041 85.7755 45.041 85.544C45.041 82.7038 47.1475 80.3369 50.6742 80.3369C54.6979 80.3369 56.544 82.7748 56.544 85.1653C56.544 87.0588 55.6683 88.3843 54.2245 89.4494L53.3014 90.1358C52.6968 90.5844 52.285 91.0008 52.1588 91.6765C52.1108 91.9335 51.906 92.1476 51.6446 92.1476H49.1809ZM48.26 95.5559C48.26 94.2542 49.2541 93.2837 50.5322 93.2837C51.8103 93.2837 52.8044 94.2542 52.8044 95.5559C52.8044 96.8104 51.8103 97.8045 50.5322 97.8045C49.2541 97.8045 48.26 96.8104 48.26 95.5559Z" fill="#FDFF8B"/>
    <path fill-rule="evenodd" clip-rule="evenodd" d="M48.8051 92.6208C48.5846 92.6208 48.3934 92.4686 48.3438 92.2538C48.2644 91.9095 48.2133 91.4714 48.2133 91.0586C48.2133 89.8172 48.6467 88.4643 50.1253 87.3229L50.1267 87.3218L51.2375 86.471C51.2378 86.4708 51.238 86.4707 51.2382 86.4705C51.6578 86.146 51.811 85.8046 51.811 85.4254C51.811 84.9106 51.436 84.4077 50.6512 84.4077C49.9477 84.4077 49.4205 84.9467 49.4205 85.7331C49.4205 85.9297 49.4314 86.0933 49.4464 86.2129C49.4539 86.2729 49.4619 86.3175 49.4686 86.3472C49.4715 86.3598 49.4762 86.3719 49.482 86.3835L49.4925 86.4046C49.6373 86.6942 49.4267 87.0349 49.103 87.0349H45.1364C44.916 87.0349 44.7247 86.8828 44.6752 86.668C44.5928 86.3112 44.5684 85.94 44.5684 85.5438C44.5684 84.0047 45.1405 82.5783 46.2047 81.5368C47.2705 80.4939 48.8022 79.8633 50.6749 79.8633C52.7846 79.8633 54.3756 80.5044 55.4432 81.5098C56.5086 82.5131 57.0181 83.8477 57.0181 85.1651C57.0181 87.2423 56.0413 88.6974 54.5069 89.8296C54.5067 89.8297 54.5065 89.8299 54.5062 89.8301L53.5842 90.5157C53.2296 90.7788 52.9891 90.9986 52.832 91.2399C52.6833 91.4683 52.5921 91.7433 52.5921 92.1474C52.5921 92.4088 52.3801 92.6208 52.1187 92.6208H48.8051ZM54.2252 89.4491C55.669 88.384 56.5447 87.0586 56.5447 85.1651C56.5447 82.7745 54.6986 80.3367 50.6749 80.3367C47.1483 80.3367 45.0417 82.7035 45.0417 85.5438C45.0417 85.7752 45.0506 85.989 45.0737 86.1905C45.0987 86.4095 45.2926 86.5615 45.513 86.5615H48.5593C48.7809 86.5615 48.9747 86.3093 48.959 86.0882C48.9515 85.9827 48.9471 85.8635 48.9471 85.7331C48.9471 84.7154 49.6571 83.9343 50.6512 83.9343C51.6927 83.9343 52.2844 84.6444 52.2844 85.4254C52.2844 85.9698 52.0477 86.4432 51.527 86.8456L50.4145 87.6976C49.0654 88.7391 48.6867 89.9462 48.6867 91.0586C48.6867 91.2986 48.7057 91.5481 48.7377 91.777C48.7683 91.9953 48.9612 92.1474 49.1816 92.1474H51.6453C51.9068 92.1474 52.1116 91.9332 52.1596 91.6762C52.2858 91.0006 52.6975 90.5841 53.3021 90.1355L54.2252 89.4491ZM47.7873 95.5557C47.7873 93.9892 48.9966 92.8101 50.5329 92.8101C52.0692 92.8101 53.2785 93.9892 53.2785 95.5557C53.2785 97.0748 52.0692 98.2776 50.5329 98.2776C48.9966 98.2776 47.7873 97.0748 47.7873 95.5557ZM50.5329 93.2835C49.2548 93.2835 48.2607 94.2539 48.2607 95.5557C48.2607 96.8101 49.2548 97.8042 50.5329 97.8042C51.811 97.8042 52.8051 96.8101 52.8051 95.5557C52.8051 94.2539 51.811 93.2835 50.5329 93.2835Z" fill="#1A1B1E"/>
    <path d="M48.4231 92.0295C48.2027 92.0295 48.0097 91.8774 47.9792 91.6591C47.9472 91.4302 47.9282 91.1807 47.9282 90.9407C47.9282 89.8283 48.3069 88.6212 49.656 87.5797L50.7684 86.7277C51.2892 86.3253 51.5258 85.8519 51.5258 85.3075C51.5258 84.5265 50.9341 83.8164 49.8927 83.8164C48.8986 83.8164 48.1885 84.5975 48.1885 85.6152C48.1885 85.6396 48.1887 85.6636 48.189 85.6871C48.1935 86.039 47.8692 86.4436 47.5173 86.4436H44.7545C44.534 86.4436 44.3402 86.2916 44.3151 86.0726C44.292 85.8711 44.2832 85.6573 44.2832 85.4259C44.2832 82.5856 46.3897 80.2188 49.9164 80.2188C53.9401 80.2188 55.7862 82.6566 55.7862 85.0472C55.7862 86.9407 54.9105 88.2661 53.4667 89.3312L52.5436 90.0176C51.939 90.4662 51.5272 90.8827 51.401 91.5583C51.353 91.8153 51.1482 92.0295 50.8868 92.0295H48.4231ZM47.5022 95.4378C47.5022 94.136 48.4962 93.1656 49.7744 93.1656C51.0525 93.1656 52.0466 94.136 52.0466 95.4378C52.0466 96.6922 51.0525 97.6863 49.7744 97.6863C48.4962 97.6863 47.5022 96.6922 47.5022 95.4378Z" fill="#FDFF8B"/>
    <path fill-rule="evenodd" clip-rule="evenodd" d="M48.0473 92.5026C47.8268 92.5026 47.6356 92.3504 47.586 92.1357C47.5066 91.7914 47.4555 91.3532 47.4555 90.9405C47.4555 89.6991 47.8889 88.3461 49.3675 87.2048L49.3689 87.2037L50.4797 86.3528C50.4799 86.3527 50.4802 86.3525 50.4804 86.3523C50.9 86.0278 51.0532 85.6864 51.0532 85.3073C51.0532 84.7924 50.6782 84.2895 49.8934 84.2895C49.1899 84.2895 48.6626 84.8286 48.6626 85.615C48.6626 85.8116 48.6736 85.9751 48.6886 86.0947C48.6961 86.1548 48.704 86.1993 48.7108 86.229C48.7136 86.2416 48.7184 86.2537 48.7241 86.2653L48.7347 86.2864C48.8795 86.576 48.6689 86.9168 48.3451 86.9168H44.3786C44.1582 86.9168 43.9669 86.7646 43.9173 86.5498C43.835 86.193 43.8105 85.8218 43.8105 85.4256C43.8105 83.8865 44.3827 82.4601 45.4469 81.4186C46.5127 80.3757 48.0444 79.7451 49.9171 79.7451C52.0268 79.7451 53.6178 80.3862 54.6854 81.3916C55.7508 82.3949 56.2603 83.7295 56.2603 85.0469C56.2603 87.1241 55.2835 88.5792 53.7491 89.7114C53.7489 89.7116 53.7486 89.7117 53.7484 89.7119L52.8264 90.3975C52.4718 90.6606 52.2313 90.8805 52.0742 91.1218C51.9255 91.3502 51.8343 91.6252 51.8343 92.0292C51.8343 92.2907 51.6223 92.5026 51.3609 92.5026H48.0473ZM53.4674 89.331C54.9112 88.2659 55.7869 86.9404 55.7869 85.0469C55.7869 82.6564 53.9408 80.2185 49.9171 80.2185C46.3904 80.2185 44.2839 82.5854 44.2839 85.4256C44.2839 85.6571 44.2928 85.8708 44.3158 86.0723C44.3409 86.2913 44.5347 86.4434 44.7552 86.4434H47.8015C48.0231 86.4434 48.2169 86.1911 48.2012 85.97C48.1937 85.8645 48.1893 85.7453 48.1893 85.615C48.1893 84.5972 48.8993 83.8161 49.8934 83.8161C50.9348 83.8161 51.5266 84.5262 51.5266 85.3073C51.5266 85.8517 51.2899 86.325 50.7692 86.7274L49.6567 87.5795C48.3076 88.6209 47.9289 89.828 47.9289 90.9405C47.9289 91.1805 47.9479 91.43 47.9799 91.6589C48.0104 91.8772 48.2034 92.0292 48.4238 92.0292H50.8875C51.1489 92.0292 51.3538 91.8151 51.4018 91.5581C51.5279 90.8824 51.9397 90.466 52.5443 90.0174L53.4674 89.331ZM47.0295 95.4375C47.0295 93.8711 48.2388 92.6919 49.7751 92.6919C51.3114 92.6919 52.5206 93.8711 52.5206 95.4375C52.5206 96.9566 51.3114 98.1594 49.7751 98.1594C48.2388 98.1594 47.0295 96.9566 47.0295 95.4375ZM49.7751 93.1653C48.497 93.1653 47.5029 94.1357 47.5029 95.4375C47.5029 96.692 48.497 97.6861 49.7751 97.6861C51.0532 97.6861 52.0473 96.692 52.0473 95.4375C52.0473 94.1357 51.0532 93.1653 49.7751 93.1653Z" fill="#1A1B1E"/>
    <path d="M210.909 206.129C210.317 205.627 209.502 205.431 208.728 205.463C207.949 205.493 207.196 205.718 206.463 205.965C205.369 206.33 204.288 206.736 203.219 207.188C202.071 207.675 200.95 208.208 199.829 208.74L197.227 209.973C196.806 210.175 196.378 210.375 195.976 210.62C195.3 211.037 194.715 211.575 194.167 212.147C194.62 210.75 195.022 209.333 195.366 207.901C197.294 207.91 199.222 207.579 201.023 206.921C203.317 206.082 205.418 204.729 207.789 204.14C208.599 203.936 209.473 203.807 210.109 203.268C210.745 202.729 210.936 201.587 210.245 201.118C209.834 200.841 209.286 200.902 208.791 200.977C207.298 201.204 205.798 201.429 204.369 201.901C202.203 202.611 200.259 203.853 198.353 205.089C197.209 205.832 196.028 206.633 195.382 207.822C195.516 207.262 195.648 206.709 195.76 206.148C195.856 206.085 195.94 205.996 196.002 205.87C196.157 205.539 196.679 205.226 196.949 204.987C197.291 204.692 198.66 204.055 198.894 203.668C199.79 202.162 197.81 202.63 197.81 202.63C197.52 202.882 196.722 203.374 196.171 203.747C196.27 203.053 196.357 202.354 196.413 201.658L196.518 201.627C196.987 201.735 197.476 201.658 197.946 201.574C200.478 201.145 203.018 200.641 205.371 199.626C207.718 198.608 209.886 197.025 211.182 194.826C211.452 194.36 211.694 193.82 211.531 193.304C211.308 192.608 210.449 192.317 209.71 192.334C208.19 192.366 206.838 193.223 205.569 194.047C202.236 196.224 198.834 198.467 196.415 201.616C196.47 201.019 196.512 200.417 196.539 199.817C196.585 198.755 196.493 197.732 196.356 196.714L200.579 193.54C204.681 190.456 208.913 187.222 211.309 182.699C211.503 182.34 211.683 181.904 211.5 181.536C211.362 181.256 211.06 181.106 210.759 181.013C209.626 180.667 208.374 180.958 207.348 181.541C206.323 182.123 205.484 182.969 204.673 183.818C201.325 187.297 198.083 191.042 196.18 195.44C196.054 194.582 195.92 193.728 195.833 192.843C195.7 191.457 196.04 190.166 196.421 188.883C196.659 188.767 196.889 188.635 197.104 188.482C197.772 187.991 198.288 187.334 198.791 186.673C200.715 184.145 202.541 181.495 203.657 178.524C203.818 178.102 203.963 177.646 203.859 177.201C203.623 176.217 202.222 175.918 201.342 176.421C200.461 176.924 199.988 177.902 199.586 178.829C198.767 180.698 197.998 182.586 197.258 184.492C197.195 182.28 196.614 180.035 196.098 177.843C198.288 176.673 200.428 175.406 202.494 174.033C204.395 172.774 206.324 171.327 207.162 169.217C207.318 168.808 207.446 168.359 207.335 167.933C207.134 167.104 206.137 166.667 205.288 166.785C204.439 166.902 203.717 167.423 203.037 167.946C199.972 170.303 196.988 173.145 195.846 176.788C195.81 176.639 195.782 176.486 195.745 176.337C195.525 175.273 195.308 174.203 195.088 173.14C197.05 170.661 198.704 167.938 200.001 165.057C200.298 164.389 200.516 163.456 199.9 163.037C199.563 162.81 199.099 162.86 198.747 163.068C198.396 163.275 198.148 163.606 197.92 163.939C196.32 166.278 195.408 169.014 194.796 171.793C194.557 170.665 194.317 169.543 194.048 168.418C193.814 167.448 193.548 166.488 193.253 165.545C194.09 163.704 194.918 161.866 195.755 160.026C196.052 159.378 196.347 158.716 196.457 158.012C196.567 157.308 196.458 156.536 196.018 155.977C195.826 155.727 195.545 155.52 195.232 155.494C194.661 155.447 194.232 155.972 193.962 156.474C192.748 158.739 192.64 161.383 192.713 163.982C192.083 162.3 191.292 160.7 190.256 159.233C190.248 158.839 190.204 158.446 190.127 158.062L190.173 159.13C189.553 158.269 188.857 157.458 188.05 156.71C187.345 156.052 186.469 157.26 187.163 157.907C189.015 159.627 190.244 161.736 191.141 164.002C190.033 163.026 188.795 162.186 187.471 161.533C186.424 161.021 185.243 160.615 184.115 160.881C183.6 160.991 183.048 161.328 182.938 161.861C182.852 162.276 183.045 162.712 183.354 163.014C183.656 163.314 184.061 163.496 184.46 163.655C185.958 164.246 187.557 164.571 189.16 164.605C189.857 164.622 190.575 164.582 191.224 164.822C191.33 164.863 191.43 164.922 191.529 164.981C192.129 166.708 192.573 168.503 192.958 170.284C191.59 169.124 190.047 168.16 188.387 167.465C187.513 167.104 186.593 166.803 185.646 166.727C184.698 166.651 183.721 166.805 182.907 167.283C182.675 167.422 182.452 167.593 182.332 167.832C182.095 168.303 182.354 168.906 182.777 169.23C183.201 169.548 183.751 169.65 184.283 169.725C186.896 170.065 189.624 169.839 192.1 170.746C192.464 170.884 192.831 171.052 193.162 171.256C193.579 173.219 193.989 175.179 194.39 177.143C193.316 175.569 191.981 174.173 190.547 172.903C189.068 171.602 187.392 170.382 185.445 170.067C184.688 169.943 183.772 170.028 183.358 170.665C183.006 171.192 183.146 171.92 183.451 172.477C184.104 173.648 185.369 174.343 186.627 174.829C188.562 175.572 190.644 175.988 192.429 177.051C193.168 177.488 193.87 178.039 194.648 178.371C194.871 179.464 195.151 180.558 195.363 181.661C194.721 181.218 194.068 180.764 193.841 180.493C193.227 179.748 192.06 180.682 192.674 181.427C193.102 181.945 195.126 183.134 195.567 183.636C195.598 183.668 195.624 183.693 195.657 183.72C195.746 184.826 195.708 185.927 195.417 187.031C195.196 187.856 194.935 188.637 194.711 189.433C193.06 186.056 191.306 182.682 188.696 179.977C187.892 179.146 186.951 178.354 185.816 178.129C185.383 178.042 184.89 178.053 184.556 178.345C184.076 178.759 184.159 179.522 184.369 180.121C184.822 181.401 185.694 182.507 186.684 183.452C187.677 184.391 188.796 185.186 189.888 186.014C191.52 187.253 193.077 188.577 194.567 189.982C194.378 190.741 194.257 191.512 194.281 192.338C194.315 193.494 194.502 194.624 194.683 195.751L194.662 195.714C194.294 195.17 193.919 194.629 193.493 194.126C192.5 192.96 191.231 192.051 189.968 191.18C189.216 190.666 188.455 190.157 187.692 189.653C186.391 188.789 184.988 187.893 183.431 187.89C182.985 187.891 182.487 187.992 182.252 188.365C181.988 188.776 182.157 189.33 182.413 189.754C183.216 191.097 184.69 191.864 186.092 192.575C189.02 194.051 191.947 195.527 194.877 196.997C195 197.882 195.076 198.777 195.042 199.695C195.015 200.352 194.97 201.017 194.907 201.675C193.752 200.802 192.596 199.936 191.442 199.064C189.284 197.433 187.025 195.764 184.376 195.217C183.896 195.12 183.279 195.12 183.05 195.551C182.917 195.806 182.983 196.123 183.087 196.396C183.475 197.453 184.301 198.321 185.237 198.955C186.173 199.588 187.252 199.998 188.322 200.377C190.038 200.98 191.782 201.509 193.529 202.031C193.955 202.158 194.387 202.287 194.81 202.419C194.62 204.087 194.319 205.748 193.931 207.391C191.433 205.219 188.656 203.367 185.681 201.901C184.453 201.299 183.119 200.748 181.767 200.923C181.405 200.97 181.009 201.104 180.764 201.351C180.465 201.195 180.161 201.051 179.83 200.996C179.45 200.937 179.034 201.013 178.769 201.274C178.326 201.702 178.423 202.428 178.649 203.004C178.937 203.739 179.375 204.417 179.937 204.979C180.492 205.538 181.158 205.976 181.821 206.406C182.741 207.005 183.654 207.607 184.572 208.213C186.842 209.701 189.105 211.187 191.377 212.67C191.652 212.852 191.935 213.031 192.231 213.179C191.907 214.086 191.58 214.985 191.23 215.867C190.877 216.756 192.282 217.29 192.635 216.402C193.043 215.385 193.418 214.342 193.788 213.296C195.918 212.735 198.008 211.996 200.171 211.576C200.846 211.443 201.529 211.347 202.21 211.237C204.54 210.866 206.848 210.387 209.132 209.8C210.111 209.548 211.218 209.166 211.564 208.218C211.832 207.496 211.513 206.636 210.921 206.134L210.909 206.129ZM191.766 210.722C190.036 208.871 188.273 207.014 186.378 205.334C188.899 206.066 191.388 206.885 193.854 207.781C193.526 209.133 193.133 210.468 192.702 211.789C192.413 211.416 192.088 211.065 191.766 210.722Z" fill="#AACEAA" stroke="#242224" stroke-width="0.236477" stroke-linejoin="round"/>
    <path d="M202.168 207.295C201.64 207.059 201.015 207.089 200.469 207.273C199.917 207.457 199.425 207.776 198.952 208.105C198.245 208.595 197.556 209.111 196.885 209.658C196.165 210.246 195.474 210.861 194.782 211.476L193.177 212.902C192.918 213.134 192.653 213.366 192.417 213.625C192.02 214.065 191.714 214.572 191.441 215.097C191.473 214.002 191.466 212.904 191.413 211.807C192.795 211.411 194.106 210.771 195.258 209.925C196.724 208.846 197.946 207.439 199.52 206.522C200.057 206.207 200.656 205.933 200.999 205.414C201.341 204.895 201.239 204.038 200.647 203.846C200.295 203.734 199.916 203.892 199.577 204.049C198.556 204.523 197.529 204.997 196.605 205.633C195.203 206.594 194.07 207.888 192.964 209.17C192.3 209.941 191.622 210.761 191.408 211.747C191.387 211.318 191.366 210.895 191.329 210.47C191.385 210.405 191.426 210.323 191.445 210.221C191.486 209.951 191.794 209.618 191.938 209.391C192.121 209.108 192.968 208.366 193.054 208.04C193.382 206.776 192.062 207.524 192.062 207.524C191.907 207.765 191.439 208.284 191.122 208.665C191.048 208.148 190.964 207.63 190.86 207.12L190.928 207.076C191.286 207.055 191.62 206.898 191.939 206.74C193.662 205.904 195.375 205.013 196.847 203.795C198.315 202.577 199.536 200.992 200.005 199.147C200.101 198.758 200.161 198.32 199.937 197.985C199.632 197.533 198.957 197.504 198.431 197.671C197.35 198.011 196.561 198.906 195.825 199.761C193.893 202.015 191.926 204.33 190.852 207.09C190.767 206.651 190.671 206.211 190.566 205.776C190.376 205.006 190.097 204.293 189.787 203.593L192.147 200.44C194.44 197.376 196.794 194.178 197.565 190.441C197.628 190.143 197.667 189.794 197.459 189.568C197.302 189.397 197.054 189.352 196.819 189.348C195.936 189.337 195.101 189.807 194.488 190.438C193.876 191.069 193.452 191.85 193.048 192.627C191.378 195.815 189.839 199.173 189.395 202.717C189.126 202.13 188.851 201.547 188.604 200.931C188.22 199.967 188.194 198.972 188.199 197.974C188.345 197.842 188.482 197.699 188.604 197.545C188.98 197.053 189.212 196.476 189.434 195.898C190.283 193.687 191.038 191.408 191.217 189.049C191.243 188.713 191.252 188.357 191.085 188.06C190.711 187.405 189.645 187.483 189.12 188.027C188.595 188.571 188.461 189.37 188.366 190.117C188.17 191.626 188.014 193.138 187.882 194.656C187.375 193.086 186.49 191.6 185.664 190.139C186.987 188.845 188.255 187.491 189.447 186.077C190.544 184.779 191.623 183.341 191.783 181.656C191.809 181.33 191.807 180.982 191.639 180.701C191.321 180.149 190.517 180.045 189.934 180.306C189.351 180.567 188.942 181.091 188.565 181.607C186.863 183.934 185.32 186.591 185.263 189.437C185.206 189.338 185.154 189.234 185.097 189.135C184.717 188.42 184.338 187.699 183.959 186.984C184.846 184.8 185.462 182.506 185.789 180.173C185.862 179.633 185.824 178.92 185.295 178.748C185.007 178.656 184.685 178.789 184.476 179.01C184.268 179.232 184.16 179.521 184.066 179.807C183.409 181.815 183.327 183.964 183.469 186.08C183.063 185.323 182.656 184.57 182.23 183.821C181.86 183.176 181.469 182.544 181.061 181.93C181.276 180.438 181.485 178.95 181.7 177.458C181.777 176.932 181.85 176.397 181.782 175.87C181.713 175.343 181.475 174.813 181.043 174.505C180.853 174.366 180.609 174.277 180.38 174.323C179.961 174.409 179.763 174.874 179.675 175.289C179.279 177.164 179.753 179.079 180.348 180.925C179.546 179.852 178.646 178.872 177.598 178.038C177.51 177.758 177.396 177.486 177.262 177.226L177.517 177.982C176.894 177.495 176.226 177.059 175.492 176.693C174.851 176.368 174.476 177.416 175.108 177.734C176.792 178.579 178.112 179.832 179.227 181.267C178.23 180.8 177.169 180.457 176.085 180.266C175.228 180.118 174.298 180.073 173.547 180.499C173.201 180.685 172.876 181.042 172.909 181.446C172.934 181.761 173.163 182.033 173.447 182.185C173.726 182.336 174.053 182.382 174.372 182.413C175.568 182.523 176.781 182.422 177.935 182.112C178.437 181.978 178.943 181.8 179.457 181.836C179.542 181.843 179.626 181.865 179.709 181.886C180.499 182.997 181.191 184.19 181.838 185.384C180.617 184.839 179.312 184.471 177.979 184.32C177.277 184.244 176.556 184.221 175.862 184.364C175.168 184.507 174.501 184.821 174.018 185.334C173.881 185.482 173.757 185.651 173.721 185.846C173.65 186.233 173.961 186.61 174.331 186.754C174.701 186.893 175.116 186.852 175.512 186.794C177.454 186.493 179.359 185.761 181.321 185.893C181.61 185.917 181.908 185.96 182.188 186.037C182.895 187.355 183.598 188.673 184.295 189.995C183.198 189.093 181.951 188.372 180.659 187.762C179.329 187.139 177.875 186.616 176.415 186.797C175.848 186.866 175.21 187.118 175.046 187.661C174.905 188.111 175.157 188.603 175.491 188.938C176.203 189.64 177.253 189.873 178.255 189.958C179.796 190.087 181.373 189.95 182.872 190.338C183.492 190.497 184.11 190.745 184.736 190.82C185.124 191.556 185.553 192.28 185.935 193.026C185.382 192.843 184.82 192.654 184.601 192.507C184.006 192.102 183.366 193.014 183.961 193.419C184.375 193.7 186.072 194.129 186.493 194.396C186.521 194.413 186.545 194.425 186.575 194.438C186.869 195.211 187.071 196.007 187.094 196.858C187.108 197.494 187.084 198.108 187.09 198.724C185.203 196.652 183.244 194.603 180.811 193.212C180.062 192.784 179.223 192.414 178.364 192.49C178.035 192.518 177.685 192.629 177.507 192.908C177.25 193.304 177.468 193.833 177.744 194.218C178.336 195.04 179.19 195.649 180.096 196.119C181.002 196.584 181.969 196.919 182.924 197.284C184.351 197.83 185.741 198.453 187.101 199.147C187.125 199.73 187.199 200.307 187.388 200.893C187.653 201.714 188.024 202.484 188.389 203.253L188.365 203.231C187.989 202.918 187.607 202.609 187.197 202.338C186.243 201.711 185.145 201.325 184.06 200.965C183.414 200.754 182.763 200.548 182.112 200.347C181 200 179.808 199.651 178.693 199.974C178.375 200.068 178.039 200.245 177.949 200.56C177.846 200.909 178.083 201.271 178.354 201.521C179.209 202.314 180.424 202.556 181.576 202.772C183.98 203.218 186.383 203.663 188.787 204.104C189.06 204.712 189.301 205.337 189.469 206.001C189.586 206.477 189.693 206.962 189.785 207.446C188.776 207.062 187.768 206.684 186.76 206.3C184.875 205.583 182.91 204.86 180.899 205.022C180.536 205.052 180.094 205.181 180.02 205.538C179.978 205.748 180.092 205.96 180.223 206.135C180.721 206.81 181.493 207.259 182.296 207.517C183.098 207.775 183.956 207.844 184.8 207.891C186.155 207.965 187.513 207.979 188.873 207.989C189.204 207.991 189.54 207.993 189.871 207.999C190.083 209.233 190.214 210.485 190.279 211.741C188.038 210.708 185.663 209.962 183.228 209.533C182.224 209.359 181.154 209.243 180.223 209.65C179.973 209.759 179.718 209.938 179.594 210.166C179.347 210.117 179.1 210.077 178.851 210.107C178.567 210.144 178.285 210.285 178.15 210.527C177.922 210.926 178.143 211.425 178.425 211.791C178.785 212.256 179.24 212.65 179.759 212.935C180.273 213.22 180.842 213.394 181.405 213.563C182.189 213.8 182.968 214.041 183.752 214.283C185.687 214.874 187.617 215.466 189.553 216.053C189.788 216.126 190.028 216.195 190.27 216.239C190.228 216.956 190.181 217.667 190.115 218.372C190.048 219.082 191.165 219.171 191.232 218.461C191.312 217.648 191.363 216.823 191.409 215.998C192.817 215.152 194.159 214.187 195.619 213.435C196.075 213.198 196.543 212.987 197.008 212.766C198.599 212.015 200.15 211.19 201.662 210.293C202.31 209.908 203.023 209.404 203.073 208.653C203.114 208.081 202.706 207.532 202.178 207.296L202.168 207.295ZM189.425 214.578C187.8 213.613 186.151 212.652 184.444 211.845C186.401 211.843 188.353 211.91 190.306 212.036C190.353 213.073 190.35 214.11 190.318 215.146C190.033 214.939 189.727 214.756 189.425 214.578Z" fill="#AACEAA" stroke="#242224" stroke-width="0.236477" stroke-linejoin="round"/>
    <path d="M108.947 87.9102V160.81L121.255 175.721L121.965 103.295L108.947 87.9102Z" stroke="#FCF8F2" stroke-width="0.473375" stroke-linejoin="round" stroke-dasharray="2.37 2.37"/>
    <path d="M108.947 87.9101L123.149 86.0166L136.64 101.165L135.93 174.538L121.492 175.958" stroke="#FCF8F2" stroke-width="0.473375" stroke-linejoin="round" stroke-dasharray="2.37 2.37"/>
    <path d="M121.965 103.532L136.403 101.401" stroke="#FCF8F2" stroke-width="0.473375" stroke-linejoin="round" stroke-dasharray="2.37 2.37"/>
    <path d="M84.8047 79.8291V129.095L97.1124 144.07L97.8225 95.4854L84.8047 79.8291Z" stroke="#FCF8F2" stroke-width="0.473375" stroke-linejoin="round" stroke-dasharray="2.37 2.37"/>
    <path d="M84.8047 79.8286L99.0059 78.4434L111.787 93.118V143.204L97.3491 144.243" stroke="#FCF8F2" stroke-width="0.473375" stroke-linejoin="round" stroke-dasharray="2.37 2.37"/>
    <path d="M97.1133 95.6229L111.551 94.0645" stroke="#FCF8F2" stroke-width="0.473375" stroke-linejoin="round" stroke-dasharray="2.37 2.37"/>
    <path d="M125.988 131.89V181.402L138.296 195.668V147.556L125.988 131.89Z" stroke="#FCF8F2" stroke-width="0.473375" stroke-linejoin="round" stroke-dasharray="2.37 2.37"/>
    <path d="M125.988 131.89L140.19 130.515L153.681 145.426L152.971 194.809L138.533 195.841" stroke="#FCF8F2" stroke-width="0.473375" stroke-linejoin="round" stroke-dasharray="2.37 2.37"/>
    <path d="M138.297 147.21L152.735 145.663" stroke="#FCF8F2" stroke-width="0.473375" stroke-linejoin="round" stroke-dasharray="2.37 2.37"/>
    <path d="M143.504 168.947V201.757L155.812 217.012V184.006L143.504 168.947Z" stroke="#FCF8F2" stroke-width="0.473375" stroke-linejoin="round" stroke-dasharray="2.37 2.37"/>
    <path d="M143.504 168.948L157.705 167.911L170.96 182.586L170.486 216.365L156.048 217.142" stroke="#FCF8F2" stroke-width="0.473375" stroke-linejoin="round" stroke-dasharray="2.37 2.37"/>
    <path d="M156.285 184.226L170.723 183.06" stroke="#FCF8F2" stroke-width="0.473375" stroke-linejoin="round" stroke-dasharray="2.37 2.37"/>
</svg>