<svg width="240" height="240" viewBox="0 0 240 240" fill="none" xmlns="http://www.w3.org/2000/svg">
    <style>
        .circle { stroke: #282828; }
        .page { fill: #E3E3E3; stroke: #282828; }

        @media (prefers-color-scheme: dark) {
        .circle { stroke: #E3E8ED; }
        .page { fill: #1A1B1E; stroke: #E3E8ED; }
        }
    </style>
    <circle class="circle" cx="48" cy="188" r="40" stroke="#FCF8F2" stroke-width="0.592159" stroke-linejoin="round" stroke-dasharray="2.96 2.96"/>
    <circle class="circle" cx="165" cy="79" r="67" stroke="#FCF8F2" stroke-width="0.592159" stroke-linejoin="round" stroke-dasharray="2.96 2.96"/>
    <path class="page" d="M67.437 190.916V48.437H146.318L160.631 62.8084L160.632 62.809L173.563 75.7426V190.963L165.344 182.938L165.039 182.64L164.733 182.938L156.077 191.389L147.421 182.938L147.116 182.64L146.811 182.938L138.155 191.389L129.499 182.938L129.193 182.64L128.888 182.938L120.232 191.389L111.576 182.938L111.271 182.64L110.965 182.938L102.309 191.389L93.6532 182.938L93.3479 182.64L93.0426 182.938L84.3865 191.389L75.7305 182.938L75.4156 182.63L75.1104 182.947L67.437 190.916Z" fill="#1A1B1E" stroke="#E3E8ED" stroke-width="0.874016"/>
    <path class="page" d="M159.631 61.4643L172.811 75.4685H146.5V49.1541L159.631 61.4643Z" stroke="#E3E8ED"/>
    <path d="M90.6477 127.682V124.33L100.523 108.727H103.318V113.5H101.614L94.9659 124.034V124.216H108.75V127.682H90.6477ZM101.75 132V126.659L101.795 125.159V108.727H105.773V132H101.75ZM120.983 132.443C119.112 132.443 117.506 131.97 116.165 131.023C114.831 130.068 113.805 128.693 113.085 126.898C112.373 125.095 112.017 122.924 112.017 120.386C112.025 117.848 112.384 115.689 113.097 113.909C113.816 112.121 114.843 110.758 116.176 109.818C117.517 108.879 119.119 108.409 120.983 108.409C122.847 108.409 124.449 108.879 125.79 109.818C127.131 110.758 128.157 112.121 128.869 113.909C129.589 115.697 129.949 117.856 129.949 120.386C129.949 122.932 129.589 125.106 128.869 126.909C128.157 128.705 127.131 130.076 125.79 131.023C124.456 131.97 122.854 132.443 120.983 132.443ZM120.983 128.886C122.438 128.886 123.585 128.17 124.426 126.739C125.275 125.299 125.699 123.182 125.699 120.386C125.699 118.538 125.506 116.985 125.119 115.727C124.733 114.47 124.188 113.523 123.483 112.886C122.778 112.242 121.945 111.92 120.983 111.92C119.536 111.92 118.392 112.64 117.551 114.08C116.71 115.511 116.286 117.614 116.278 120.386C116.271 122.242 116.456 123.803 116.835 125.068C117.222 126.333 117.767 127.288 118.472 127.932C119.176 128.568 120.013 128.886 120.983 128.886ZM133.304 127.682V124.33L143.179 108.727H145.974V113.5H144.27L137.622 124.034V124.216H151.406V127.682H133.304ZM144.406 132V126.659L144.452 125.159V108.727H148.429V132H144.406Z" fill="#389F58"/>
</svg>
