<?xml version="1.0" encoding="UTF-8" standalone="no"?>
<!DOCTYPE svg PUBLIC "-//W3C//DTD SVG 1.1//EN" "http://www.w3.org/Graphics/SVG/1.1/DTD/svg11.dtd">
<svg width="100%" height="100%" viewBox="0 0 603 124" version="1.1" xmlns="http://www.w3.org/2000/svg" xmlns:xlink="http://www.w3.org/1999/xlink" xml:space="preserve" xmlns:serif="http://www.serif.com/" style="fill-rule:evenodd;clip-rule:evenodd;stroke-linejoin:round;stroke-miterlimit:2;">
    <g transform="matrix(1,0,0,1,0,-387.78)">
        <g transform="matrix(1.00577,0,0,1.03107,-379.804,-272.81)">
            <rect id="Artboard3" x="377.624" y="640.686" width="598.972" height="119.735" style="fill:none;"/>
            <g id="Artboard31" serif:id="Artboard3">
                <g id="pnlogo.svg" transform="matrix(0.401223,0,0,0.39138,537.05,700.527)">
                    <g transform="matrix(1,0,0,1,-149.995,-150.005)">
                        <clipPath id="_clip1">
                            <rect x="0" y="0" width="299.99" height="300.01"/>
                        </clipPath>
                        <g clip-path="url(#_clip1)">
                            <path d="M193.62,6.47L193.62,62.45C193.62,80.59 178.91,95.29 160.77,95.28L160.29,95.28C151.18,95.22 143.01,95.28 143.01,95.28C141.45,95.28 139.75,95.11 138.25,95.26C128.01,96.31 119.15,100.96 111.67,109.2C111.46,109.43 111.27,109.67 111.06,109.9C105.06,117.7 101.74,127.75 101.74,138.61L101.74,139.14C101.74,146.12 103.16,152.77 105.76,158.71C108.37,164.66 107.04,171.57 102.06,175.74C97.17,179.83 91.37,184.65 87.46,187.78C76.13,174.91 69.48,158.08 69.48,139.67L69.48,139.14C69.48,99.15 101.48,65.82 144.94,65.82L160.64,65.82L160.64,0.42C157.12,0.17 153.58,0 150,0C67.16,0 0,67.16 0,150C0,217.67 44.81,274.85 106.37,293.53L106.37,238C106.37,219.67 121.23,204.81 139.56,204.82L139.7,204.82C148.81,204.88 156.98,204.82 156.98,204.82C158.54,204.82 160.24,204.99 161.74,204.84C171.98,203.79 180.84,199.14 188.32,190.9C188.53,190.67 188.73,190.43 188.93,190.2C194.93,182.4 198.25,172.35 198.25,161.49L198.25,160.96C198.25,155.51 195.96,148.26 193.67,142.35C191.13,135.81 193.08,128.3 198.46,123.8C203.1,119.91 207.81,116.09 212.54,112.31C223.87,125.18 230.52,142.01 230.52,160.42L230.52,160.95C230.52,200.94 198.52,234.27 155.06,234.27L139.35,234.27L139.35,299.59C142.87,299.84 146.41,300.01 149.99,300.01C232.83,300.01 299.99,232.85 299.99,150.01C299.99,82.34 255.18,25.16 193.62,6.47Z" style="fill:rgb(51,154,240);fill-rule:nonzero;"/>
                        </g>
                    </g>
                </g>
                <g transform="matrix(13.5202,0,0,13.1886,-2918.36,-8369.9)">
                    <g transform="matrix(1,0,0,1,-0.367693,0)">
                        <path d="M244.284,692.068L244.284,684.898C244.284,684.086 244.942,683.428 245.755,683.428L247.854,683.428C247.938,683.428 248.046,683.431 248.179,683.437C248.312,683.443 248.435,683.456 248.546,683.476C249.045,683.553 249.458,683.72 249.784,683.976C250.11,684.232 250.352,684.555 250.509,684.944C250.667,685.332 250.746,685.764 250.746,686.24C250.746,686.715 250.666,687.147 250.507,687.536C250.348,687.924 250.105,688.247 249.779,688.503C249.453,688.759 249.042,688.926 248.546,689.004C248.435,689.02 248.312,689.032 248.177,689.04C248.042,689.048 247.935,689.052 247.854,689.052L245.728,689.052L245.728,690.624C245.728,691.421 245.081,692.068 244.284,692.068L244.284,692.068ZM245.728,687.698L247.794,687.698C247.875,687.698 247.965,687.694 248.064,687.686C248.163,687.678 248.256,687.662 248.342,687.64C248.581,687.579 248.769,687.473 248.906,687.321C249.044,687.169 249.142,686.997 249.199,686.805C249.257,686.612 249.286,686.424 249.286,686.24C249.286,686.056 249.257,685.867 249.199,685.675C249.142,685.482 249.044,685.31 248.906,685.158C248.769,685.006 248.581,684.9 248.342,684.84C248.256,684.816 248.163,684.801 248.064,684.793C247.965,684.785 247.875,684.782 247.794,684.782L246.096,684.782C245.998,684.782 245.905,684.82 245.836,684.889C245.767,684.958 245.728,685.052 245.728,685.149C245.728,685.933 245.728,687.698 245.728,687.698Z" style="fill-rule:nonzero;"/>
                    </g>
                    <g transform="matrix(1,0,0,1,0.147077,0)">
                        <path d="M260.928,692.068L260.928,684.898C260.928,684.086 261.586,683.428 262.399,683.428L264.498,683.428C264.582,683.428 264.69,683.431 264.823,683.437C264.956,683.443 265.079,683.456 265.19,683.476C265.689,683.553 266.102,683.72 266.428,683.976C266.754,684.232 266.996,684.555 267.153,684.944C267.311,685.332 267.39,685.764 267.39,686.24C267.39,686.946 267.212,687.551 266.856,688.057C266.5,688.563 265.954,688.876 265.218,688.998L264.602,689.052L262.372,689.052L262.372,690.624C262.372,691.421 261.725,692.068 260.928,692.068L260.928,692.068ZM266.351,692.068C266.069,692.068 265.812,691.907 265.689,691.653C265.238,690.723 264.186,688.552 264.186,688.552L265.658,688.228C265.658,688.228 267.035,691.052 267.427,691.856C267.449,691.902 267.446,691.955 267.419,691.998C267.392,692.041 267.345,692.068 267.295,692.068L266.351,692.068ZM262.372,687.698L264.438,687.698C264.519,687.698 264.609,687.694 264.708,687.686C264.807,687.678 264.9,687.662 264.986,687.64C265.225,687.579 265.413,687.473 265.55,687.321C265.688,687.169 265.786,686.997 265.843,686.805C265.901,686.612 265.93,686.424 265.93,686.24C265.93,686.056 265.901,685.867 265.843,685.675C265.786,685.482 265.688,685.31 265.55,685.158C265.413,685.006 265.225,684.9 264.986,684.84C264.9,684.816 264.807,684.801 264.708,684.793C264.609,684.785 264.519,684.782 264.438,684.782L262.74,684.782C262.642,684.782 262.549,684.82 262.48,684.889C262.411,684.958 262.372,685.052 262.372,685.149C262.372,685.933 262.372,687.698 262.372,687.698Z" style="fill-rule:nonzero;"/>
                    </g>
                    <path d="M270.938,692.068L270.938,684.782L268.14,684.782L268.14,684.781C268.14,684.034 268.746,683.428 269.494,683.428L275.18,683.428L275.18,683.428C275.18,683.787 275.037,684.131 274.783,684.385C274.529,684.639 274.185,684.782 273.826,684.782L272.382,684.782L272.382,690.624C272.382,691.421 271.735,692.068 270.938,692.068L270.938,692.068Z" style="fill-rule:nonzero;"/>
                    <g transform="matrix(1,0,0,1,-1.98554,0)">
                        <path d="M276.141,692.068C276.094,692.068 276.05,692.045 276.022,692.007C275.994,691.97 275.986,691.921 276,691.876C276.307,690.902 277.707,686.462 278.345,684.438C278.535,683.837 279.093,683.428 279.724,683.428L279.97,683.428C280.454,683.428 280.883,683.742 281.029,684.204C281.625,686.096 283.128,690.863 283.448,691.876C283.462,691.921 283.454,691.97 283.426,692.007C283.398,692.045 283.354,692.068 283.307,692.068C283.115,692.068 282.817,692.068 282.555,692.068C282.235,692.068 281.952,691.86 281.855,691.555C281.304,689.827 279.548,684.316 279.548,684.316L279.868,684.316C279.868,684.316 278.136,689.821 277.592,691.553C277.495,691.859 277.211,692.068 276.89,692.068L276.141,692.068ZM277.46,690.194L277.46,688.844L281.996,688.844L281.996,690.194L277.46,690.194Z" style="fill-rule:nonzero;"/>
                    </g>
                    <g transform="matrix(1,0,0,1,-2.13262,0)">
                        <path d="M284.568,692.068L284.568,684.871C284.568,684.074 285.214,683.428 286.012,683.428L286.012,683.428L286.012,690.714L288.474,690.714C288.833,690.714 289.178,690.856 289.431,691.11C289.685,691.364 289.828,691.708 289.828,692.068L289.828,692.068L284.568,692.068Z" style="fill-rule:nonzero;"/>
                    </g>
                </g>
            </g>
        </g>
    </g>
</svg>
