<svg xmlns="http://www.w3.org/2000/svg" width="18" height="18" viewBox="0 0 18 18" fill="none">
    <path d="M15.4062 6.35819L11.6404 2.5935C10.182 1.1355 7.81367 1.1355 6.3596 2.5935L2.59382 6.35819C1.13539 7.81619 1.13539 10.1838 2.59382 11.6418L6.3596 15.4065C7.81803 16.8645 10.1863 16.8645 11.6404 15.4065L15.4062 11.6418C16.8646 10.1838 16.8646 7.81619 15.4062 6.35819ZM9.00217 12.6733C6.97344 12.6733 5.32782 11.0281 5.32782 9C5.32782 6.97186 6.97344 5.32671 9.00217 5.32671C11.0309 5.32671 12.6765 6.97186 12.6765 9C12.6765 11.0281 11.0309 12.6733 9.00217 12.6733Z" fill="#33B0FF"/>
</svg>