<svg width="186" height="131" viewBox="0 0 186 131" fill="none" xmlns="http://www.w3.org/2000/svg">
<g id="Group 1171273696">
<path id="Vector" d="M120.447 64.7407H93.8827C90.9369 64.7407 88.5489 62.3527 88.5489 59.4068V32.8421C88.5489 29.8962 86.1609 27.5082 83.2151 27.5082H65.243C62.2972 27.5082 59.9092 29.8962 59.9092 32.8421V59.4068C59.9092 62.3527 57.5212 64.7407 54.5754 64.7407H28.0106C25.0647 64.7407 22.6768 67.1286 22.6768 70.0745V88.0465C22.6768 90.9924 25.0647 93.3804 28.0106 93.3804H54.5754C57.5212 93.3804 59.9092 95.7683 59.9092 98.7142V125.279C59.9092 128.225 62.2972 130.613 65.243 130.613H83.2151C86.1609 130.613 88.5489 128.225 88.5489 125.279V98.7142C88.5489 95.7683 90.9369 93.3804 93.8827 93.3804H120.447C123.393 93.3804 125.781 90.9924 125.781 88.0465V70.0745C125.781 67.1286 123.393 64.7407 120.447 64.7407Z" stroke="#242224" stroke-width="0.657143" stroke-miterlimit="10" stroke-dasharray="2 2"/>
<path id="Vector_2" d="M120.447 59.8923H93.8827C90.9369 59.8923 88.5489 57.5043 88.5489 54.5585V27.9937C88.5489 25.0478 86.1609 22.6599 83.2151 22.6599H65.243C62.2972 22.6599 59.9092 25.0478 59.9092 27.9937V54.5585C59.9092 57.5043 57.5212 59.8923 54.5754 59.8923H28.0106C25.0647 59.8923 22.6768 62.2803 22.6768 65.2261V83.1982C22.6768 86.144 25.0647 88.532 28.0106 88.532H54.5754C57.5212 88.532 59.9092 90.92 59.9092 93.8658V120.431C59.9092 123.376 62.2972 125.764 65.243 125.764H83.2151C86.1609 125.764 88.5489 123.376 88.5489 120.431V93.8658C88.5489 90.92 90.9369 88.532 93.8827 88.532H120.447C123.393 88.532 125.781 86.144 125.781 83.1982V65.2261C125.781 62.2803 123.393 59.8923 120.447 59.8923Z" stroke="#FCF8F2" stroke-width="0.592159" stroke-linecap="round" stroke-linejoin="round" stroke-dasharray="2.96 2.96"/>
<path id="Vector_3" d="M165.457 97.3761C176.25 97.3761 185 88.6264 185 77.833C185 67.0397 176.25 58.29 165.457 58.29C154.664 58.29 145.914 67.0397 145.914 77.833C145.914 88.6264 154.664 97.3761 165.457 97.3761Z" stroke="#343438" stroke-width="0.657143" stroke-miterlimit="10" stroke-dasharray="2 2"/>
<path id="Vector_4" d="M20.5431 43.2626C31.3364 43.2626 40.0861 34.5129 40.0861 23.7195C40.0861 12.9262 31.3364 4.17645 20.5431 4.17645C9.74972 4.17645 1 12.9262 1 23.7195C1 34.5129 9.74972 43.2626 20.5431 43.2626Z" stroke="#242224" stroke-width="0.657143" stroke-miterlimit="10" stroke-dasharray="2 2"/>
<path id="Vector_5" d="M165.457 94.143C176.25 94.143 185 85.3933 185 74.5999C185 63.8066 176.25 55.0569 165.457 55.0569C154.664 55.0569 145.914 63.8066 145.914 74.5999C145.914 85.3933 154.664 94.143 165.457 94.143Z" stroke="#FCF8F2" stroke-width="0.592159" stroke-linecap="round" stroke-linejoin="round" stroke-dasharray="2.96 2.96"/>
<path id="Vector_6" d="M20.5431 40.0295C31.3364 40.0295 40.0861 31.2798 40.0861 20.4864C40.0861 9.69309 31.3364 0.943359 20.5431 0.943359C9.74972 0.943359 1 9.69309 1 20.4864C1 31.2798 9.74972 40.0295 20.5431 40.0295Z" stroke="#FCF8F2" stroke-width="0.592159" stroke-miterlimit="10" stroke-dasharray="2.96 2.96"/>
</g>
</svg>
