<svg width="186" height="131" viewBox="0 0 186 131" fill="none" xmlns="http://www.w3.org/2000/svg">
    <style>
        .vector { stroke: #282828; }

        @media (prefers-color-scheme: dark) {
        .vector { stroke: #FCF8F2; }
        }
    </style>
<g id="Group 1171273696">
<path class="vector" id="Vector_2" d="M120.447 59.8923H93.8827C90.9369 59.8923 88.5489 57.5043 88.5489 54.5585V27.9937C88.5489 25.0478 86.1609 22.6599 83.2151 22.6599H65.243C62.2972 22.6599 59.9092 25.0478 59.9092 27.9937V54.5585C59.9092 57.5043 57.5212 59.8923 54.5754 59.8923H28.0106C25.0647 59.8923 22.6768 62.2803 22.6768 65.2261V83.1982C22.6768 86.144 25.0647 88.532 28.0106 88.532H54.5754C57.5212 88.532 59.9092 90.92 59.9092 93.8658V120.431C59.9092 123.376 62.2972 125.764 65.243 125.764H83.2151C86.1609 125.764 88.5489 123.376 88.5489 120.431V93.8658C88.5489 90.92 90.9369 88.532 93.8827 88.532H120.447C123.393 88.532 125.781 86.144 125.781 83.1982V65.2261C125.781 62.2803 123.393 59.8923 120.447 59.8923Z" stroke="#FCF8F2" stroke-width="0.592159" stroke-linecap="round" stroke-linejoin="round" stroke-dasharray="2.96 2.96"/>
<path class="vector" id="Vector_5" d="M165.457 94.143C176.25 94.143 185 85.3933 185 74.5999C185 63.8066 176.25 55.0569 165.457 55.0569C154.664 55.0569 145.914 63.8066 145.914 74.5999C145.914 85.3933 154.664 94.143 165.457 94.143Z" stroke="#FCF8F2" stroke-width="0.592159" stroke-linecap="round" stroke-linejoin="round" stroke-dasharray="2.96 2.96"/>
<path class="vector" id="Vector_6" d="M20.5431 40.0295C31.3364 40.0295 40.0861 31.2798 40.0861 20.4864C40.0861 9.69309 31.3364 0.943359 20.5431 0.943359C9.74972 0.943359 1 9.69309 1 20.4864C1 31.2798 9.74972 40.0295 20.5431 40.0295Z" stroke="#FCF8F2" stroke-width="0.592159" stroke-miterlimit="10" stroke-dasharray="2.96 2.96"/>
</g>
</svg>
