<svg xmlns="http://www.w3.org/2000/svg" width="108" height="32" viewBox="0 0 108 32" fill="none">
    <path d="M11.8838 10.0953V7.18227C11.8838 6.80099 11.6812 6.44803 11.3511 6.25739L7.40427 3.9697C6.33451 3.34985 4.99567 4.12113 4.99567 5.35757V8.28362C4.99567 8.66599 5.19938 9.01895 5.53164 9.20959L9.47953 11.4842C10.5493 12.1008 11.8849 11.3284 11.8849 10.0942L11.8838 10.0953Z" fill="#389F58"/>
    <path d="M11.8839 15.1895V12.27C11.8839 11.8898 12.0854 11.539 12.4133 11.3473L18.3668 7.8635C19.4365 7.23711 20.7808 8.00838 20.7808 9.24809V12.2297C20.7808 12.6121 20.576 12.9661 20.2449 13.1568L14.2882 16.5807C13.2184 17.1951 11.885 16.4238 11.885 15.1895H11.8839Z" fill="#389F58"/>
    <path d="M11.8839 5.07127V2.15501C11.8839 1.777 12.0833 1.42731 12.4079 1.23558L14.1084 0.226823C15.1771 -0.407192 16.5301 0.362995 16.5301 1.60706V4.54837C16.5301 4.93074 16.3264 5.2837 15.9963 5.47434L14.2903 6.46022C13.2206 7.07789 11.8839 6.30662 11.8839 5.07127Z" fill="#389F58"/>
    <path d="M11.8615 20.2231V17.3134C11.8615 16.9332 11.6599 16.5824 11.332 16.3907L2.41332 11.1759C1.34355 10.5506 -0.000732422 11.3219 -0.000732422 12.5605V15.5225C-0.000732422 15.9038 0.202981 16.2567 0.533061 16.4485L9.45394 21.611C10.5237 22.2298 11.8615 21.4585 11.8615 20.2231Z" fill="#389F58"/>
    <path d="M11.8839 25.265V22.3575C11.8839 21.9773 12.0854 21.6265 12.4133 21.4348L21.3419 16.2145C22.4094 15.5903 23.7505 16.3572 23.7559 17.5937L23.7668 20.5426C23.7679 20.925 23.5653 21.2801 23.2341 21.4718L14.2925 26.654C13.2228 27.2738 11.8839 26.5026 11.8839 25.2661V25.265Z" fill="#389F58"/>
    <path d="M10.5155 25.9554L11.3707 26.475C11.6899 26.6689 11.8849 27.0153 11.8849 27.389V30.3935C11.8849 31.631 10.5428 32.4023 9.47301 31.7792L8.60914 31.2759C8.28015 31.0841 8.07861 30.7323 8.07861 30.3521V27.3258C8.07861 26.0752 9.44687 25.3061 10.5155 25.9554Z" fill="#389F58"/>
    <path d="M81.4582 5.39014H77.4645L80.8416 20.9791H88.6666L92.0436 5.39014H88.1023L85.2296 18.6761C85.125 19.1566 84.4354 19.1566 84.3319 18.6761L81.4582 5.39014Z" fill="#FCF8F2"/>
    <path fill-rule="evenodd" clip-rule="evenodd" d="M77.1538 13.188C77.1538 17.4921 73.6493 20.9825 69.3267 20.9825C65.004 20.9825 61.5006 17.4932 61.5006 13.188C61.5006 8.88282 65.0051 5.39355 69.3267 5.39355C73.6493 5.39355 77.1538 8.88282 77.1538 13.188ZM73.5262 13.2218C73.5262 15.5127 71.6612 17.369 69.3604 17.369C67.0608 17.369 65.1947 15.5117 65.1947 13.2218C65.1947 10.9319 67.0597 9.07346 69.3604 9.07346C71.6612 9.07346 73.5262 10.9308 73.5262 13.2218Z" fill="#FCF8F2"/>
    <path d="M56.2339 11.7315V20.9966H52.384V9.9841C52.384 7.45893 54.4397 5.41309 56.9747 5.41309H61.5032V9.24659L56.0018 9.21936C55.7339 9.21827 55.5563 9.49715 55.6718 9.7379L55.8787 10.1693C56.113 10.6573 56.2339 11.19 56.2339 11.7315Z" fill="#FCF8F2"/>
    <path fill-rule="evenodd" clip-rule="evenodd" d="M49.9257 5.39404H46.0759V7.30045C46.0759 7.51505 45.7981 7.61746 45.6467 7.46494C44.3797 6.18711 42.6182 5.39513 40.6726 5.39513C36.8118 5.39513 33.6821 8.51183 33.6821 12.3562C33.6821 16.2006 36.8118 19.3173 40.6726 19.3173C42.6193 19.3173 44.3797 18.5254 45.6467 17.2475C45.7981 17.095 46.0759 17.1974 46.0759 17.412V21.5244C46.0759 21.9035 45.7676 22.2096 45.3874 22.2096H35.8772V26.0431H45.3362C47.8712 26.0431 49.9268 23.9962 49.9268 21.4721V5.39404H49.9257ZM41.9439 16.5743C44.3122 16.5743 46.1086 14.7812 46.1086 12.4227C46.1086 10.0642 44.188 8.15125 41.8197 8.15125C39.4514 8.15125 37.5308 10.0631 37.5308 12.4227C37.5308 14.7812 39.5745 16.5743 41.9439 16.5743Z" fill="#FCF8F2"/>
    <path d="M107.374 13.5682C107.669 13.5682 107.916 13.3362 107.91 13.042C107.899 12.5497 107.84 12.0671 107.739 11.5975C106.982 8.10827 103.821 5.39355 100.085 5.39355C98.6776 5.39355 97.3573 5.76394 96.2167 6.41103C94.3005 7.49822 92.8909 9.36759 92.4246 11.5834C92.3168 12.1019 92.259 12.6379 92.259 13.188C92.259 17.4921 95.7636 20.9825 100.086 20.9825C103.478 20.9825 106.366 18.8342 107.454 15.8287H103.37C102.604 16.7939 101.417 17.4126 100.086 17.4126C98.0447 17.4126 96.3442 15.9561 95.9771 14.0301C95.9487 13.8787 95.927 13.7262 95.915 13.5704H104.835L107.376 13.5693L107.374 13.5682ZM103.647 11.5975H98.7114C98.1689 11.5975 97.6329 11.7195 97.1438 11.9527L96.7102 12.1586C96.4695 12.2729 96.1917 12.0997 96.1884 11.8361C96.1906 11.7054 96.2189 11.5333 96.3583 11.2773C96.4477 11.1247 96.5468 10.9766 96.6558 10.835C96.6558 10.835 96.6558 10.8339 96.6568 10.8328C97.4477 9.79898 98.7234 9.07782 100.084 9.07782C101.807 9.07782 103.288 10.116 103.928 11.5975C103.928 11.5975 103.928 11.5997 103.929 11.5997L103.647 11.5975Z" fill="#FCF8F2"/>
</svg>