<svg width="1407" height="465" viewBox="0 0 1407 465" fill="none" xmlns="http://www.w3.org/2000/svg">
<path d="M242.614 167.148V135.151C242.614 130.961 240.382 127.089 236.758 124.988L193.402 99.8558C181.655 93.0465 166.944 101.523 166.944 115.101V147.244C166.944 151.444 169.187 155.325 172.826 157.422L216.195 182.415C227.942 189.184 242.614 180.706 242.614 167.148Z" fill="#fff"/>
<path d="M242.614 223.107V191.038C242.614 186.866 244.826 183.007 248.427 180.9L313.821 142.625C325.568 135.749 340.343 144.221 340.343 157.832V190.587C340.343 194.792 338.095 198.676 334.45 200.772L269.015 238.383C257.268 245.136 242.614 236.656 242.614 223.107Z" fill="#fff"/>
<path d="M242.614 111.959V79.9279C242.614 75.7799 244.801 71.9393 248.369 69.8236L267.051 58.7463C278.796 51.7814 293.658 60.2471 293.658 73.9027V106.216C293.658 110.411 291.421 114.288 287.789 116.387L269.051 127.215C257.304 134.004 242.614 125.527 242.614 111.959Z" fill="#fff"/>
<path d="M242.357 278.406V246.445C242.357 242.271 240.142 238.411 236.539 236.304L138.566 179.025C126.819 172.157 112.052 180.629 112.052 194.236V226.776C112.052 230.968 114.286 234.843 117.915 236.943L215.91 293.657C227.657 300.455 242.357 291.979 242.357 278.406Z" fill="#fff"/>
<path d="M242.614 333.79V301.852C242.614 297.678 244.828 293.817 248.432 291.711L346.517 234.365C358.239 227.512 372.981 235.934 373.031 249.512L373.15 281.902C373.166 286.107 370.932 290 367.294 292.108L269.07 349.036C257.323 355.844 242.614 347.368 242.614 333.79Z" fill="#fff"/>
<path d="M227.571 341.383L236.965 347.088C240.472 349.218 242.614 353.025 242.614 357.128V390.137C242.614 403.734 227.867 412.207 216.12 405.361L206.635 399.833C203.024 397.728 200.803 393.863 200.803 389.684V356.443C200.803 342.704 215.828 334.251 227.571 341.383Z" fill="#fff"/>
<path d="M1007.46 117.012H963.442L1000.66 289.103H1086.9L1124.12 117.012H1080.69L1049.02 263.438C1047.88 268.737 1040.28 268.737 1039.13 263.438L1007.46 117.012Z" fill="#fff"/>
<path fill-rule="evenodd" clip-rule="evenodd" d="M959.7 202.952C959.7 250.388 921.08 288.846 873.444 288.846C825.807 288.846 787.187 250.388 787.187 202.952C787.187 155.516 825.807 117.059 873.444 117.059C921.08 117.059 959.7 155.516 959.7 202.952ZM919.718 203.324C919.718 228.571 899.163 249.032 873.816 249.032C848.47 249.032 827.909 228.564 827.909 203.324C827.909 178.083 848.463 157.609 873.816 157.609C899.17 157.609 919.718 178.077 919.718 203.324Z" fill="#fff"/>
<path d="M729.47 186.901V289.246H687.04V167.649C687.04 139.823 709.688 117.27 737.625 117.27H787.532V159.521L726.9 159.224C723.945 159.211 721.992 162.282 723.267 164.935L725.551 169.687C728.134 175.061 729.47 180.941 729.47 186.901Z" fill="#fff"/>
<path fill-rule="evenodd" clip-rule="evenodd" d="M659.957 117.41H617.527V138.418C617.527 140.781 614.47 141.908 612.802 140.227C598.837 126.139 579.429 117.41 557.98 117.41C515.427 117.41 480.936 151.757 480.936 194.13C480.936 236.503 515.427 270.85 557.98 270.85C579.429 270.85 598.837 262.121 612.802 248.033C614.47 246.352 617.527 247.48 617.527 249.842V295.165C617.527 299.337 614.131 302.719 609.941 302.719H505.13V344.971H609.379C637.315 344.971 659.964 322.417 659.964 294.598V117.41H659.957ZM571.992 240.628C598.098 240.628 617.893 220.869 617.893 194.873C617.893 168.876 596.729 147.801 570.623 147.801C544.516 147.801 523.352 168.876 523.352 194.873C523.352 220.869 545.879 240.628 571.985 240.628H571.992Z" fill="#fff"/>
<path d="M1292.92 207.348C1296.17 207.348 1298.88 204.796 1298.81 201.556C1298.69 196.142 1298.04 190.829 1296.93 185.672C1288.6 147.288 1253.83 117.438 1212.75 117.438C1197.27 117.438 1182.75 121.508 1170.2 128.63C1149.12 140.585 1133.61 161.154 1128.49 185.517C1127.29 191.214 1126.66 197.114 1126.66 203.163C1126.66 250.504 1165.2 288.888 1212.75 288.888C1250.05 288.888 1281.82 265.254 1293.77 232.203H1248.86C1240.44 242.815 1227.39 249.627 1212.75 249.627C1190.29 249.627 1171.59 233.608 1167.55 212.418C1167.23 210.757 1166.99 209.076 1166.86 207.361H1264.97L1292.92 207.348ZM1251.93 185.679H1197.65C1191.69 185.679 1185.79 187.015 1180.41 189.58L1175.63 191.849C1172.99 193.111 1169.93 191.201 1169.91 188.298C1169.93 186.86 1170.24 184.963 1171.77 182.155C1172.75 180.474 1173.84 178.847 1175.04 177.288C1175.04 177.281 1175.04 177.274 1175.05 177.268C1183.76 165.893 1197.77 157.961 1212.75 157.961C1231.7 157.961 1247.98 169.376 1255.03 185.672C1255.03 185.672 1255.03 185.692 1255.04 185.699L1251.93 185.679Z" fill="#fff"/>
</svg>
